<svg width="207" height="295" viewBox="0 0 207 295" fill="none" xmlns="http://www.w3.org/2000/svg">
<g opacity="0.1">
<path d="M205.871 148.782C204.518 150.025 203.092 151.184 201.599 152.254C195.617 156.379 189.617 160.406 183.536 164.482C181.876 165.547 180.091 166.401 178.222 167.025C175.161 168.164 172.257 169.687 169.581 171.557C165.619 174.182 161.707 176.871 157.729 179.48C155.275 180.966 152.546 181.943 149.707 182.35C145.595 183.269 141.557 184.495 137.627 186.018C135.329 186.833 132.981 187.534 130.666 188.316C126.613 189.612 122.852 191.689 119.596 194.43C115.911 197.691 113.482 201.701 110.661 205.5C110.564 205.647 110.661 205.875 110.499 206.494C111.379 205.793 111.999 205.32 112.602 204.864C115.797 201.913 119.339 199.362 123.15 197.267C125.889 195.898 128.709 194.724 131.464 193.404C133.666 192.36 135.818 191.202 137.985 190.142C141.293 188.257 144.927 187.019 148.696 186.491C151.237 186.032 153.74 185.378 156.179 184.535C161.446 183.246 166.711 181.926 172.026 180.801C173.646 180.546 175.296 180.546 176.917 180.801C177.634 180.801 178.286 181.518 179.118 181.975C178.727 182.611 178.563 183.181 178.173 183.475C174.684 186.474 170.853 189.051 166.76 191.153C163.874 192.506 161.218 194.317 158.414 195.865C156.636 196.843 154.777 197.691 153.001 198.653C150.669 199.892 148.371 201.212 146.056 202.484C144.742 202.968 143.519 203.668 142.436 204.555C141.505 205.524 140.399 206.31 139.176 206.87C137.894 207.584 136.769 208.55 135.87 209.71C134.97 210.87 134.315 212.2 133.943 213.619C133.688 214.458 133.344 215.267 132.915 216.031C131.227 219.061 129.216 221.898 126.916 224.493C125.286 226.335 123.981 228.405 122.449 230.297C121.394 231.629 120.251 232.887 119.026 234.063C116.041 236.834 112.961 239.492 109.993 242.214C107.928 244.171 105.923 246.192 103.977 248.279C101.736 250.831 99.2394 253.147 96.527 255.192C93.1681 257.604 89.9076 260.18 86.4515 262.479C84.5373 263.761 82.4659 264.791 80.2896 265.544C77.9659 266.373 76.0473 268.059 74.9259 270.256C72.9363 273.662 70.8333 277.005 68.9748 280.477C67.3445 283.738 65.8932 286.999 64.2466 290.259C63.551 291.497 62.7604 292.68 61.8836 293.797C61.6553 294.144 61.3179 294.404 60.9248 294.537C60.5328 294.671 60.1058 294.668 59.7149 294.531C59.063 294.352 58.3947 294.188 57.7417 293.992C54.9212 293.145 54.4812 290.732 55.6714 288.287C58.1338 283.396 60.9216 278.765 63.4811 273.973C64.2892 272.331 65.0131 270.651 65.6486 268.935C65.7633 268.691 65.7633 268.381 65.9096 268.185C67.7518 265.544 68.2573 262.462 69.1702 259.463C69.6353 257.424 69.6353 255.307 69.1702 253.268C68.681 250.186 68.1929 247.105 67.8828 244.008C67.3652 240.055 67.0824 236.076 67.0354 232.091C67.0988 224.055 68.4408 216.08 71.0123 208.467C72.2517 205.028 73.9802 201.767 75.4151 198.392C76.507 195.832 77.5018 193.224 78.4955 190.615C79.4903 188.007 80.4523 185.382 81.4962 182.806C81.7244 182.268 82.2944 181.877 82.9627 181.176C83.2401 181.775 83.4486 182.404 83.5829 183.051C83.6801 185.138 83.7292 187.241 83.7292 189.327C83.7292 193.795 83.8275 198.278 83.5665 202.729C83.2237 208.679 82.539 214.614 82.0662 220.564C81.9362 222.112 82.0662 223.678 82.0662 225.243C82.0269 226.46 81.8456 227.669 81.5278 228.846C80.6488 231.778 80.0428 234.786 79.7185 237.829C79.3177 240.573 78.7729 243.293 78.0882 245.98C78.0882 246.307 77.991 246.632 77.9091 247.236C78.8166 246.694 79.4826 245.824 79.7676 244.806C80.6816 241.305 82.3949 238.062 84.7721 235.335C85.7428 234.035 86.3805 232.519 86.6306 230.917C87.1678 228.731 87.8535 226.585 88.6856 224.493C90.0386 221.02 91.5378 217.597 93.0054 214.173C93.5929 212.803 94.3103 211.5 94.913 210.13C96.0814 207.738 96.6941 205.113 96.7061 202.452C96.7388 199.989 97.2542 197.557 98.2228 195.294C100.7 188.773 103.114 182.35 105.901 175.959C107.238 172.796 109.162 169.829 110.661 166.748C112.162 163.666 113.726 160.373 115.439 157.275C117.412 153.722 119.547 150.25 121.699 146.792C123.329 144.07 125.155 141.445 126.932 138.788C127.178 138.506 127.457 138.253 127.763 138.038C127.968 138.144 128.148 138.29 128.295 138.467C128.443 138.643 128.554 138.847 128.623 139.068C128.691 139.287 128.715 139.518 128.693 139.747C128.672 139.976 128.605 140.199 128.497 140.402C127.91 142.277 127.356 144.168 126.785 146.075C125.155 151.423 123.672 156.787 122.058 162.118C119.775 169.601 117.412 177.052 115.096 184.518C114.368 186.804 113.765 189.129 113.286 191.48C114.086 190.55 114.917 189.654 115.667 188.659C118.226 185.17 120.672 181.6 123.28 178.144C125.465 175.225 127.845 172.437 130.095 169.552C130.762 168.572 131.309 167.516 131.725 166.405C133.302 162.491 134.496 158.435 135.296 154.292C135.825 151.344 135.825 148.323 135.296 145.374C134.937 142.505 134.252 139.652 134.089 136.766C133.757 133.312 133.9 129.829 134.513 126.414C134.513 126.022 134.66 125.615 134.708 125.208C135.002 122.665 135.133 120.089 135.605 117.562C136.169 114.537 136.024 111.423 135.181 108.465C134.439 105.281 134.472 101.965 135.279 98.7966C135.307 98.5924 135.367 98.3947 135.458 98.2102C137.089 95.1451 138.018 91.7698 139.991 88.8849C140.415 88.281 140.709 87.5964 141.083 86.9609C141.458 86.3253 142.111 86.0644 142.713 86.749C143.133 87.2459 143.433 87.8312 143.594 88.4612C144.05 90.4333 144.49 92.4228 144.784 94.4277C145.078 96.4325 145.159 98.6011 145.355 100.671C145.355 101.617 145.664 102.546 145.697 103.492C145.888 105.117 145.888 106.758 145.697 108.383C145.263 110.865 145.202 113.398 145.518 115.899C145.779 118.327 146.056 120.79 146.447 123.154C146.642 124.425 147.148 125.631 147.409 126.904C147.783 128.68 148.061 130.49 148.387 132.3C148.387 132.543 148.484 132.788 148.583 133.343C149.658 131.957 150.541 130.433 151.208 128.81C152.74 125.778 154.224 122.73 155.838 119.729C157.289 117.04 158.87 114.415 160.386 111.774C160.581 111.339 160.828 110.928 161.119 110.551C162.777 108.405 164.218 106.101 165.424 103.671C167.511 100.264 169.647 96.8889 171.765 93.4984C173.884 90.1068 175.874 86.9772 177.928 83.7167C180.438 83.7167 180.993 84.4177 180.358 86.749C179.949 88.2646 179.379 89.7322 179.004 91.249C178.368 93.8893 177.683 96.5144 177.243 99.2039C176.674 103.045 175.456 106.76 173.64 110.192C171.684 113.763 170.103 117.545 168.293 121.197C166.923 123.936 165.424 126.61 164.022 129.348C163.321 130.734 162.684 132.169 162.049 133.587C160.921 135.949 159.966 138.39 159.195 140.891C159.724 140.561 160.231 140.196 160.712 139.798C163.745 136.978 166.728 134.126 169.744 131.305C170.836 130.278 172.026 129.365 173.004 128.306C175.662 125.681 178.271 123.023 180.862 120.35C185.525 115.589 190.139 110.796 194.835 106.068C195.541 105.556 196.322 105.154 197.15 104.878C197.61 105.627 197.897 106.47 197.987 107.346C198.078 108.22 197.97 109.105 197.671 109.931C196.556 114.64 194.318 119.008 191.149 122.665C188.541 125.925 186.145 129.414 183.683 132.821C180.259 137.533 177.357 142.603 173.167 146.761C172.68 147.298 172.133 147.78 171.537 148.194C167.818 150.809 164.366 153.785 161.234 157.08C160.48 157.757 159.62 158.308 158.69 158.71C155.858 159.981 153.21 161.626 150.816 163.601C148.783 165.176 146.665 166.64 144.474 167.986C141.15 169.856 138.282 172.439 136.078 175.551C135.866 175.894 135.475 176.154 135.393 176.758C136.583 176.057 137.806 175.389 138.964 174.606C143.17 171.769 147.365 168.911 151.55 166.031C153.636 164.765 155.596 163.303 157.402 161.662C158.581 160.513 160.035 159.687 161.625 159.265C164.201 158.449 166.516 156.983 169.092 156.101C172.97 154.66 176.934 153.457 180.96 152.499C184.555 151.789 188.034 150.582 191.297 148.912C193.623 147.796 196.083 146.985 198.616 146.5C200.246 146.124 201.877 145.684 203.507 145.456C204.303 145.382 205.103 145.547 205.806 145.929C206.064 146.064 206.282 146.266 206.436 146.513C206.588 146.761 206.674 147.045 206.68 147.336C206.687 147.628 206.616 147.915 206.473 148.169C206.331 148.424 206.123 148.635 205.871 148.782ZM89.533 171.263C91.9921 169.022 94.2109 166.532 96.1524 163.829C96.9834 162.591 97.7827 161.302 98.6792 160.145C101.109 157.062 103.289 153.792 105.2 150.363C108.578 144.761 111.182 138.729 112.945 132.43C113.139 131.719 113.189 130.975 113.091 130.245C112.919 129.7 112.649 129.192 112.292 128.746C111.803 129.039 111.167 129.202 110.858 129.626C108.689 132.495 106.455 135.332 104.532 138.365C103.633 139.885 102.549 141.287 101.304 142.538C99.0538 144.576 97.4726 147.152 94.7831 148.782C94.6193 148.879 94.5222 149.092 94.3911 149.238C92.6145 151.374 90.9023 153.575 89.0111 155.613C86.4188 158.385 83.6637 161.009 81.007 163.765C79.7185 165.068 78.3983 166.356 77.2409 167.758C75.8071 169.653 74.167 171.38 72.35 172.91C71.0255 173.973 69.7675 175.117 68.5838 176.334C66.5626 178.323 64.573 180.36 62.5846 182.415C61.3376 183.657 60.1561 184.963 59.0466 186.328C57.2526 188.61 55.5906 190.974 53.8457 193.289C53.8457 193.289 53.6011 193.289 53.3237 193.289C53.3423 192.894 53.3969 192.501 53.4875 192.115C54.6777 188.283 55.8996 184.453 57.1063 180.703C58.4221 176.107 61.0646 172.001 64.7041 168.9C67.1981 166.813 69.5131 164.497 72.0399 162.379C74.5667 160.26 77.5826 158.319 80.1913 156.086C82.8 153.852 85.5386 151.097 88.18 148.57C89.5002 147.314 90.7396 145.945 92.1417 144.788C95.4514 142.042 98.5165 139.014 101.304 135.74C102.113 134.716 102.833 133.626 103.455 132.479C104.287 131.093 104.956 129.609 105.787 128.207C107.89 124.637 110.026 121.083 112.162 117.545C112.797 116.502 113.498 115.492 114.069 114.415C115.389 111.888 116.662 109.328 117.933 106.785C119.205 104.242 120.444 101.796 121.633 99.2694C122.042 98.3893 122.531 97.4109 121.83 96.4489C119.857 96.2534 119.84 96.237 118.813 97.5092C118.21 98.243 117.688 99.0412 117.182 99.775C115.552 101.796 114.036 103.851 112.39 105.823C111.079 107.468 109.658 109.019 108.134 110.47C104.662 113.617 101.011 116.551 97.5381 119.681C93.4618 123.366 89.4838 127.165 85.4895 130.93C83.5665 132.74 81.6261 134.533 79.8331 136.49C77.029 139.543 74.3111 142.663 71.6817 145.847C69.6922 148.26 67.8828 150.738 66.0243 153.314C65.1441 154.487 64.3121 155.727 63.4647 156.933L63.041 156.754C63.2529 155.873 63.5138 155.009 63.6765 154.113C64.6549 148.748 66.4185 143.557 68.9092 138.706C69.2707 137.975 69.5917 137.224 69.8712 136.457C71.3061 132.773 72.6753 129.087 74.1266 125.42C75.4959 122.013 76.9307 118.637 78.3819 115.263C78.9039 114.057 79.0994 112.622 80.5823 112.003C80.8269 111.888 80.9415 111.448 81.1042 111.154C81.7397 109.655 82.5063 108.187 83.37 106.703C83.9542 105.545 84.6585 104.453 85.4731 103.443C88.7173 99.7728 92.7455 96.8813 97.2608 94.9824C99.4774 94.004 101.597 92.7646 103.782 91.7218C104.87 91.0284 106.083 90.5578 107.353 90.335C109.569 90.0915 111.771 89.6504 113.971 89.2103C116.518 88.4568 119.177 88.1533 121.83 88.3138C122.093 88.3717 122.365 88.3717 122.628 88.3138C125.709 87.4664 128.824 86.6835 131.84 85.7051C136.258 84.2059 140.643 82.5428 145.028 80.9125C148.517 79.6076 151.99 78.2219 155.462 76.8854C156.163 76.6244 156.881 76.4126 157.565 76.1035C160.549 74.7823 163.451 73.2994 166.499 72.1736C168.228 71.5381 169.89 70.3315 171.945 70.8862C172.221 70.8862 172.597 70.7071 172.907 70.5761C174.456 69.9078 176.02 69.2395 177.553 68.5057C178.122 68.3212 178.63 67.9827 179.02 67.5273C179.454 66.8416 180.12 66.3327 180.895 66.0925C181.303 65.897 181.563 65.3914 181.906 65.0333C181.551 64.6577 181.145 64.3333 180.699 64.0713C180.301 63.9959 179.891 63.9959 179.493 64.0713C176.77 64.0713 174.065 64.0713 171.341 64.0713C169.938 63.8507 168.523 63.7098 167.102 63.6476C164.402 63.842 161.738 64.3901 159.179 65.2779C153.511 67.1899 147.599 68.2884 141.622 68.5385C141.279 68.5385 140.937 68.5385 140.594 68.4402C137.627 68.3266 134.628 68.0165 131.66 68.1312C124.262 68.5865 117.016 70.4341 110.303 73.5757L109.732 73.8039C105.524 75.5477 101.513 77.7338 97.7664 80.325C97.3907 80.5696 97.0162 80.7815 96.3479 81.1735C96.4211 80.7476 96.5248 80.3283 96.6569 79.9177C98.0273 77.0328 99.3803 74.1304 100.799 71.2771C102.217 68.4238 104.059 65.2943 105.347 62.1472C106.789 58.4193 107.626 54.4839 107.825 50.4906C107.857 49.6793 107.988 48.8745 108.216 48.0949C109.308 44.7196 110.369 41.3291 111.623 38.0194C112.969 34.3209 113.744 30.4401 113.922 26.5091C113.916 25.6934 113.993 24.8799 114.15 24.0806C115.28 19.5992 116.825 15.2324 118.765 11.0382C120.036 8.28214 120.932 5.33167 122.025 2.44563C122.104 2.26546 122.144 2.07109 122.144 1.87454C122.144 1.67908 122.105 1.48362 122.026 1.30345C121.949 1.12327 121.834 0.960568 121.691 0.826258C121.548 0.691947 121.379 0.588211 121.193 0.522694C120.411 0.17982 119.987 0.848099 119.563 1.35367C118.666 2.38121 117.786 3.40765 116.824 4.35329C114.558 6.60381 112.08 8.65776 110.009 11.0535C107.581 13.874 105.478 16.9719 103.26 19.9879C101.293 22.5005 99.5473 25.1791 98.0437 27.993C96.6733 30.878 95.613 33.8994 94.8803 37.0082C93.25 43.204 91.457 49.3495 89.6793 55.4961C89.0766 57.5993 88.2936 59.6368 87.5609 61.8546C87.3163 60.7779 87.1034 59.7995 86.8915 58.8386C85.8443 55.1795 85.2962 51.3947 85.2613 47.5893C85.2853 45.6107 85.1215 43.6342 84.7721 41.6873C84.7131 41.3717 84.5853 41.0736 84.3997 40.8115C84.2141 40.5505 83.9739 40.3321 83.6965 40.1716C82.9627 39.8779 82.5062 40.6117 82.1972 41.2308C81.9308 41.7124 81.7179 42.2201 81.5606 42.7476C80.7297 46.529 79.8332 50.2952 79.1321 54.1596C78.7401 56.2944 78.8056 58.5121 78.5118 60.6808C78.0718 63.9413 77.4854 67.1036 76.8816 70.3151C76.8816 70.5597 76.768 70.7879 76.637 71.3426L75.9523 70.3151C74.892 68.2644 73.6188 66.3294 72.1545 64.5441C71.8182 64.1248 71.5681 63.6421 71.4207 63.1256C71.0779 62.2455 70.8988 61.2835 70.4915 60.4525C69.0217 57.0817 67.9014 53.5688 67.149 49.9698C66.4862 47.3611 65.7688 44.7578 64.9967 42.1601C63.6777 37.4395 63.0563 32.5509 63.1546 27.6502C63.1546 26.0199 62.9592 24.2433 64.2149 22.9067C63.2365 21.3736 62.7145 21.0962 62.1118 21.9119C60.4334 24.0609 59.1722 26.5047 58.3948 29.1178C57.6086 32.4984 57.4044 35.9883 57.7909 39.4378C57.9493 41.6152 57.6326 43.8013 56.8617 45.8443C55.5808 49.0798 55.2139 52.6046 55.8024 56.0345C56.617 59.947 57.4327 63.8594 58.5574 67.7075C59.4212 70.8698 60.6115 73.9349 61.7034 77.2446C59.2094 75.4833 56.9272 73.984 54.7094 72.3538C50.4224 69.174 45.3677 68.0657 40.2978 67.0381C36.0621 66.3764 31.905 65.2834 27.891 63.7775C25.315 62.7183 22.6419 61.8863 20.0005 61.0225C19.4785 60.8434 18.4849 60.8107 18.3702 61.0225C18.1059 61.6733 18.0317 62.3864 18.1583 63.0765C18.2806 63.6072 18.5198 64.1029 18.8594 64.5277C19.7592 65.8119 20.956 66.8579 22.3482 67.5764C24.9405 69.0604 27.6147 70.5269 30.1742 72.1572C34.6021 75.0618 39.3161 77.5034 44.243 79.4449C48.8423 81.1975 53.0922 83.7538 56.7961 86.9936C60.2456 90.1647 63.3391 93.7015 66.0243 97.5419C67.5191 99.3043 68.7596 101.27 69.7085 103.378C70.0514 104.324 70.6869 105.155 71.1106 106.084C71.3683 106.625 71.507 107.213 71.5179 107.813C71.3552 114.121 68.8612 119.762 66.3344 125.892C66.057 124.979 65.8932 124.49 65.7797 124.001C65.095 121.034 64.4431 118.051 63.7257 115.083C62.9428 111.823 62.0954 108.562 61.2961 105.416C61.117 104.682 61.0351 103.932 60.7905 103.231C60.3505 101.927 59.6986 101.796 58.7529 102.742C58.4428 103.052 58.0355 103.247 57.7254 103.574C57.4164 103.899 56.8944 104.339 56.8289 104.78C56.5679 106.411 56.438 108.138 56.3233 109.834C56.2098 111.53 56.3233 112.801 56.1115 114.269C55.2641 120.611 54.3513 126.92 53.4548 133.245C53.4548 133.816 53.1446 134.354 52.8837 135.348L52.4764 134.207C51.0907 130.115 50.976 125.81 50.145 121.621C49.7072 118.862 49.0749 116.139 48.2538 113.469C47.4763 111.302 46.8659 109.078 46.428 106.818C46.1015 104.452 45.3099 102.175 44.0967 100.118C42.8409 98.2593 41.619 96.3844 40.3469 94.5576C38.2602 91.5252 36.1735 88.5093 34.0376 85.526C32.1726 82.7492 29.5857 80.5347 26.5544 79.1195C25.9265 78.876 25.3675 78.4851 24.9241 77.9773C24.436 77.4052 23.8049 76.9716 23.094 76.7227C22.3842 76.4737 21.6199 76.4169 20.8806 76.56C19.4949 76.56 18.8922 77.7983 19.6587 79.0212C20.2571 79.9199 20.9516 80.7509 21.729 81.4989C23.0743 82.6356 24.1827 84.0257 24.9897 85.5915C25.5924 86.9609 26.1962 88.3302 26.6199 89.7486C27.1594 91.1616 27.6005 92.6106 27.9401 94.0848C28.7066 98.0955 29.3258 102.123 30.1087 106.117C30.8917 110.111 31.739 113.665 32.5056 117.529C33.6642 123.618 35.871 129.459 39.0267 134.794C40.0859 136.62 41.0479 138.495 42.1235 140.304C42.7437 141.348 43.5583 142.277 44.243 143.271C45.7575 145.106 46.8681 147.239 47.5036 149.532C47.7875 151.073 48.2133 152.585 48.7757 154.047C49.5641 155.855 50.0599 157.775 50.2433 159.738C50.5469 161.525 50.6834 163.337 50.6506 165.15C50.3078 168.944 50.1931 172.755 50.3077 176.562C50.2258 177.63 50.0227 178.685 49.705 179.708C49.5575 180.36 49.2321 180.98 49.0367 181.632C48.0747 184.893 47.1455 188.154 46.1998 191.414C46.0906 191.646 45.965 191.868 45.8241 192.082C45.5544 191.663 45.3197 191.221 45.1231 190.762C44.1622 188.024 43.1346 185.284 42.3037 182.496C40.9016 177.801 39.6459 173.074 38.3093 168.378C38.0331 167.398 37.6727 166.443 37.2326 165.525C35.4888 161.841 33.4993 158.27 32 154.487C31.0303 151.784 29.6621 149.24 27.9401 146.94C24.3377 142.44 20.5716 138.071 16.871 133.653C16.1372 132.773 15.4853 131.794 14.6696 130.995C12.2891 128.68 9.77867 126.414 7.41459 124.164C5.91533 122.778 4.38223 121.442 2.85022 120.121C2.14918 119.518 1.34989 119.599 1.21995 120.333C0.893452 122.11 -0.165727 123.773 0.50255 125.697C0.702378 126.627 0.844333 127.569 0.92623 128.517C1.38376 131.509 2.04215 134.466 2.89934 137.37C4.17911 140.574 5.67075 143.689 7.36547 146.695C8.84943 149.516 10.6261 152.156 12.0937 155.009C14.4741 159.9 16.7399 164.791 18.8758 169.829C20.0868 173.094 21.4801 176.289 23.0492 179.399C24.1903 181.404 25.0704 183.556 26.1798 185.561C27.2347 187.769 28.5243 189.858 30.0268 191.789C32.9347 195.211 35.5117 198.901 37.7218 202.81C40.3993 207.202 41.4006 212.411 40.5424 217.482C40.4015 218.286 40.3087 219.097 40.265 219.912C40.1187 225.194 40.0204 230.492 39.8577 235.775C39.7594 239.377 39.5476 242.964 39.4177 246.568C39.3937 247.418 39.6721 248.25 40.2028 248.917C40.7346 249.582 41.4847 250.038 42.3201 250.203C45.8733 250.203 49.3948 247.627 48.8412 243.844C48.5966 242.214 48.4328 240.47 48.2865 238.774C48.0659 237.154 47.984 235.518 48.0419 233.884C48.2865 230.917 48.8085 227.965 49.183 225.015C49.3457 223.726 49.4604 222.455 49.6067 221.167C50.1287 216.732 50.1286 212.184 52.8673 208.255C53.9494 206.15 55.2215 204.147 56.6662 202.271C59.8896 198.986 63.3206 195.909 66.9371 193.061C70.5886 190.127 74.132 187.056 77.5662 183.849C80.9295 180.987 84.0383 177.84 86.8599 174.443C87.6646 173.314 88.559 172.251 89.533 171.263Z" fill="white"/>
<path d="M205.806 145.929C205.103 145.547 204.303 145.382 203.507 145.456C201.877 145.684 200.246 146.124 198.616 146.5C196.083 146.985 193.623 147.796 191.297 148.912C188.034 150.582 184.555 151.789 180.96 152.499C176.934 153.457 172.97 154.66 169.092 156.101C166.549 156.983 164.201 158.449 161.625 159.265C160.041 159.69 158.593 160.515 157.419 161.662C155.613 163.303 153.653 164.765 151.566 166.031C147.371 168.911 143.175 171.769 138.98 174.606C137.823 175.389 136.6 176.057 135.409 176.758C135.409 176.154 135.882 175.894 136.094 175.551C138.299 172.439 141.166 169.856 144.49 167.987C146.682 166.64 148.799 165.176 150.832 163.601C153.227 161.626 155.875 159.981 158.706 158.71C159.637 158.308 160.496 157.757 161.251 157.08C164.333 153.77 167.735 150.772 171.407 148.13C172.003 147.714 172.549 147.234 173.037 146.695C177.227 142.571 180.129 137.467 183.553 132.756C186.014 129.348 188.443 125.892 191.019 122.599C194.187 118.942 196.425 114.574 197.541 109.867C197.839 109.039 197.947 108.155 197.856 107.28C197.767 106.405 197.479 105.561 197.019 104.812C196.191 105.09 195.41 105.49 194.704 106.002C190.008 110.731 185.395 115.523 180.732 120.284C178.14 122.958 175.531 125.615 172.874 128.24C171.83 129.299 170.64 130.212 169.614 131.24C166.598 134.06 163.613 136.913 160.581 139.734C160.101 140.13 159.594 140.495 159.065 140.826C159.836 138.325 160.79 135.884 161.919 133.522C162.554 132.103 163.19 130.67 163.891 129.283C165.293 126.577 166.793 123.904 168.163 121.131C169.972 117.48 171.553 113.697 173.51 110.128C175.325 106.696 176.543 102.98 177.112 99.1394C177.553 96.4489 178.238 93.8249 178.874 91.1835C179.248 89.6667 179.819 88.2002 180.227 86.6835C180.862 84.3522 180.227 83.7167 177.798 83.6511C175.743 86.9117 173.689 90.1723 171.635 93.4329C169.581 96.6935 167.38 100.199 165.293 103.607C164.088 106.035 162.647 108.34 160.99 110.486C160.698 110.864 160.451 111.274 160.256 111.709C158.739 114.35 157.158 116.974 155.707 119.665C154.076 122.665 152.61 125.713 151.077 128.746C150.458 130.389 149.619 131.941 148.583 133.359C148.484 132.804 148.435 132.56 148.387 132.315C148.061 130.506 147.783 128.697 147.409 126.92C147.148 125.648 146.642 124.441 146.447 123.17C146.056 120.757 145.779 118.279 145.518 115.915C145.202 113.415 145.263 110.881 145.697 108.399C145.888 106.774 145.888 105.133 145.697 103.508C145.697 102.563 145.436 101.633 145.355 100.688C145.159 98.6175 145.078 96.5144 144.784 94.444C144.49 92.3737 144.05 90.4497 143.594 88.4765C143.414 87.8672 143.103 87.3048 142.681 86.8309C142.094 86.1452 141.523 86.2598 141.05 87.0428C140.578 87.8246 140.382 88.3629 139.958 88.9657C138.002 91.7218 137.04 95.1451 135.442 98.243C135.35 98.4275 135.29 98.6251 135.263 98.8293C134.456 101.997 134.422 105.313 135.165 108.498C135.986 111.449 136.115 114.551 135.54 117.562C135.068 120.089 134.937 122.665 134.644 125.208C134.644 125.615 134.529 126.022 134.447 126.414C133.835 129.829 133.692 133.312 134.024 136.766C134.187 139.652 134.872 142.505 135.23 145.374C135.76 148.323 135.76 151.344 135.23 154.292C134.432 158.435 133.236 162.491 131.66 166.405C131.244 167.516 130.696 168.572 130.029 169.552C127.78 172.437 125.399 175.225 123.215 178.144C120.607 181.6 118.161 185.17 115.601 188.659C114.884 189.654 113.971 190.55 113.221 191.48C113.699 189.129 114.303 186.804 115.031 184.518C117.346 177.052 119.71 169.601 121.992 162.118C123.623 156.787 125.138 151.423 126.721 146.075C127.291 144.168 127.845 142.277 128.432 140.402C128.54 140.199 128.606 139.976 128.628 139.747C128.649 139.518 128.625 139.287 128.557 139.068C128.489 138.847 128.378 138.643 128.231 138.467C128.083 138.29 127.902 138.144 127.698 138.038C127.392 138.253 127.113 138.506 126.867 138.788C125.09 141.445 123.296 144.07 121.633 146.792C119.482 150.25 117.346 153.722 115.373 157.275C113.743 160.373 112.211 163.601 110.597 166.748C108.983 169.894 107.172 172.796 105.836 175.959C103.13 182.35 100.635 188.822 98.1573 195.294C97.1887 197.557 96.6733 199.989 96.6416 202.452C96.6285 205.113 96.0159 207.738 94.8475 210.13C94.2448 211.5 93.5273 212.803 92.9399 214.173C91.4734 217.597 89.973 221.02 88.6201 224.493C87.811 226.586 87.146 228.733 86.6306 230.917C86.3292 232.514 85.6413 234.015 84.6258 235.286C82.2486 238.014 80.5353 241.256 79.6213 244.757C79.3352 245.776 78.6702 246.645 77.7628 247.187C77.7628 246.583 77.8764 246.258 77.9419 245.931C78.6265 243.245 79.1703 240.524 79.5721 237.78C79.8965 234.736 80.5025 231.729 81.3816 228.797C81.6993 227.621 81.8795 226.411 81.9199 225.194C82.0171 223.564 81.8216 222.064 81.9199 220.515C82.3927 214.565 83.0773 208.63 83.4191 202.68C83.6801 198.229 83.5666 193.745 83.5829 189.278C83.5829 187.192 83.5829 185.088 83.4355 183.002C83.3012 182.355 83.0937 181.726 82.8164 181.127C82.1481 181.877 81.577 182.268 81.3488 182.757C80.3059 185.333 79.3603 187.958 78.3492 190.567C77.338 193.174 76.3607 195.783 75.2677 198.343C73.8329 201.718 72.1054 204.978 70.866 208.418C68.3556 216.041 67.0726 224.016 67.0671 232.041C67.1151 236.027 67.3979 240.006 67.9155 243.959C68.2245 247.056 68.7138 250.137 69.203 253.219C69.6681 255.258 69.6681 257.375 69.203 259.414C68.3392 262.414 67.8336 265.495 65.9423 268.136C65.796 268.332 65.796 268.642 65.6814 268.886C65.0458 270.602 64.3219 272.283 63.5138 273.923C60.9543 278.717 58.1666 283.396 55.7042 288.238C54.4484 290.699 54.954 293.129 57.7745 293.943C58.4264 294.14 59.0958 294.303 59.7477 294.482C60.1386 294.619 60.5645 294.621 60.9576 294.488C61.3507 294.355 61.6881 294.095 61.9152 293.748C62.7932 292.631 63.5826 291.448 64.2793 290.21C65.9096 286.949 67.3117 283.689 69.0075 280.428C70.866 276.956 72.9691 273.614 74.9586 270.206C76.079 268.009 77.9986 266.323 80.3223 265.495C82.4986 264.742 84.57 263.711 86.4842 262.431C89.9403 260.131 93.2009 257.54 96.5597 255.143C99.2776 253.099 101.779 250.783 104.027 248.23C105.961 246.143 107.966 244.122 110.042 242.165C113.009 239.377 116.09 236.72 119.074 234.014C120.298 232.853 121.441 231.611 122.498 230.297C124.03 228.405 125.35 226.335 126.965 224.493C129.265 221.898 131.276 219.061 132.964 216.032C133.394 215.267 133.738 214.458 133.991 213.619C134.364 212.2 135.02 210.87 135.918 209.71C136.818 208.55 137.943 207.584 139.225 206.87C140.448 206.31 141.554 205.524 142.485 204.555C143.568 203.668 144.791 202.968 146.104 202.484C148.42 201.212 150.719 199.892 153.05 198.653C154.827 197.691 156.685 196.843 158.462 195.865C161.266 194.317 163.924 192.506 166.81 191.153C170.902 189.051 174.732 186.474 178.222 183.475C178.613 183.181 178.775 182.611 179.167 181.975C178.335 181.518 177.683 180.866 176.966 180.801C175.345 180.546 173.696 180.546 172.075 180.801C166.76 181.926 161.494 183.246 156.229 184.535C153.788 185.378 151.286 186.032 148.745 186.491C144.976 187.019 141.341 188.257 138.034 190.143C135.849 191.202 133.698 192.36 131.513 193.404C128.758 194.724 125.938 195.898 123.199 197.267C119.388 199.362 115.846 201.913 112.651 204.864C112.048 205.369 111.428 205.842 110.548 206.494C110.646 205.875 110.548 205.647 110.71 205.5C113.482 201.767 115.977 197.691 119.596 194.43C122.841 191.669 126.596 189.569 130.649 188.252C132.964 187.469 135.312 186.768 137.611 185.952C141.541 184.431 145.579 183.205 149.691 182.284C152.53 181.877 155.259 180.901 157.713 179.416C161.691 176.807 165.603 174.116 169.565 171.491C172.242 169.622 175.145 168.1 178.205 166.96C180.076 166.335 181.86 165.481 183.52 164.417C189.601 160.422 195.6 156.265 201.584 152.189C203.08 151.141 204.512 150.003 205.871 148.782C206.123 148.635 206.331 148.424 206.473 148.169C206.616 147.915 206.687 147.628 206.68 147.336C206.674 147.045 206.588 146.761 206.436 146.513C206.282 146.266 206.064 146.064 205.806 145.929ZM162.375 161.09C162.848 160.389 164.103 160.243 164.999 159.835C163.691 162.486 161.912 164.878 159.75 166.894L159.376 166.666C160.268 164.752 161.269 162.89 162.375 161.09ZM156.88 165.443C157.582 164.009 158.283 162.542 160.288 162.182C159.065 164.417 157.924 166.585 156.669 168.704C156.452 168.96 156.186 169.169 155.887 169.317C155.586 169.466 155.259 169.551 154.925 169.568C155.577 168.216 156.212 166.829 156.88 165.443ZM155.104 165.574C154.389 167.424 153.543 169.222 152.577 170.954C152.039 171.818 150.783 172.242 149.854 172.862C150.09 171.318 150.689 169.852 151.601 168.586C152.514 167.319 153.715 166.286 155.104 165.574ZM170.673 132.788L171.08 132.985C170.576 134.093 170.151 135.234 169.565 136.245C168.977 137.255 169.125 138.739 167.119 139.358C168.553 137.043 169.205 134.696 170.673 132.788ZM167.739 141.12C170.64 138.751 173.365 136.174 175.89 133.408C177.243 132.087 178.547 130.701 179.868 129.332C180.308 128.859 180.716 128.354 181.499 127.539C180.716 127.539 180.243 127.539 180.031 127.637C178.87 128.576 177.779 129.601 176.77 130.701C175.384 132.37 173.763 133.831 171.961 135.039C172.597 133.489 173.216 131.941 173.884 130.409C174.09 130.059 174.367 129.759 174.7 129.527C177.278 127.316 179.651 124.878 181.791 122.241C184.303 119.501 186.927 116.844 189.519 114.089C190.921 112.622 192.34 111.187 193.774 109.752C194.101 109.427 194.475 109.166 195.144 108.595C194.756 110.745 193.887 112.779 192.601 114.546C190.677 117.806 188.59 121.067 186.47 124.147C185.395 125.779 184.091 127.115 182.884 128.598C182.639 128.831 182.404 129.077 182.183 129.332C179.819 132.593 177.455 135.853 175.157 139.114C173.538 141.457 171.626 143.583 169.466 145.439C165.978 148.455 162.733 151.732 159.31 154.814C158.528 155.432 157.674 155.952 156.767 156.362C155.593 156.879 154.45 157.461 153.343 158.107C151.159 159.607 149.072 161.253 146.936 162.819C146.137 163.405 145.306 163.944 144.49 164.449L144.083 164.009C144.946 162.737 145.713 161.401 146.675 160.178C149.166 156.703 152.278 153.719 155.854 151.374C159.408 148.975 162.689 146.192 165.636 143.075C166.283 142.369 166.987 141.714 167.739 141.12ZM166.271 137.582C164.967 139.864 165.016 143.043 161.87 144.103C163.043 141.772 163.516 138.902 166.271 137.582ZM160.157 143.075C159.717 144.397 159.359 145.489 158.984 146.564C158.886 146.874 158.837 147.298 158.609 147.462C156.856 148.984 154.937 150.302 152.886 151.391C154.81 147.885 156.734 144.95 160.157 143.075ZM144.311 123.512H144.751C145.322 126.283 145.909 129.039 146.381 131.811C146.659 133.106 146.849 134.418 146.952 135.74C147.107 136.829 147.035 137.94 146.741 139C145.799 141.477 144.654 143.87 143.316 146.157C143.243 145.398 143.243 144.634 143.316 143.875C143.632 142.262 143.665 140.608 143.414 138.984C143.153 136.636 143.104 134.256 142.942 131.892C142.945 131.425 142.89 130.959 142.779 130.506C142.062 127.849 143.447 125.794 144.311 123.594V123.512ZM143.692 120.154C144.083 121.784 142.991 122.55 142.42 123.577C142.481 122.333 142.925 121.137 143.692 120.154ZM143.235 115.85C143.741 117.268 143.235 118.263 141.784 119.11L143.235 115.85ZM138.801 143.256C138.345 139.358 137.921 135.446 137.741 131.533C137.627 126.518 137.921 121.502 138.622 116.534C138.729 114.241 138.691 111.944 138.507 109.655C138.507 106.867 138.507 104.079 138.622 101.307C138.654 100.972 138.654 100.633 138.622 100.297C138.116 97.8346 139.192 95.7806 140.252 93.6939C140.806 92.5855 141.279 91.4281 141.784 90.287H142.208C142.567 92.781 142.942 95.275 143.252 97.7865C143.668 100.329 143.94 102.891 144.066 105.465C144.303 108.23 143.924 111.014 142.958 113.617C142.901 113.813 142.813 114.001 142.697 114.17C140.267 116.844 140.252 120.039 140.61 123.366C140.806 125.257 140.709 127.165 140.822 129.055C140.937 130.946 141.149 132.691 141.311 134.5C141.474 136.31 141.686 137.989 141.751 139.75C141.751 141.233 141.621 142.717 141.654 144.217C141.654 146.239 141.866 148.26 141.93 150.298C141.972 150.891 141.889 151.485 141.686 152.043C140.431 154.748 139.095 157.423 137.773 160.096C137.699 160.24 137.593 160.364 137.463 160.46C137.333 160.557 137.183 160.621 137.023 160.65C137.118 160.099 137.249 159.554 137.415 159.02C139.122 153.949 139.597 148.546 138.801 143.256ZM112.618 168.345C113.89 165.492 115.112 162.624 116.433 159.787C117.182 158.156 118.064 156.656 118.895 155.124C120.525 152.304 122.155 149.499 123.786 146.695C124.22 145.827 124.768 145.021 125.416 144.298C125.342 144.849 125.232 145.393 125.09 145.929C122.498 154.52 119.84 163.08 117.215 171.606C116.156 175.046 115.324 178.584 114.199 182.007C112.781 186.328 111.167 190.583 109.602 194.87C108.755 197.169 107.842 199.436 106.961 201.718C106.848 202.116 106.667 202.491 106.423 202.826C104.516 205.011 103.961 207.896 102.575 210.358C101.19 212.82 99.983 215.249 98.6628 217.727C98.2665 218.448 97.7085 219.068 97.0326 219.536C97.465 217.952 98.0099 216.399 98.6628 214.89C99.5812 213.154 100.34 211.337 100.929 209.462C101.564 207.392 102.559 205.418 103.342 203.397C104.287 201.066 105.25 198.751 106.195 196.42C107.116 193.755 108.205 191.153 109.456 188.626C109.875 187.495 110.16 186.319 110.303 185.121C110.939 182.692 111.526 180.23 112.244 177.85C113.221 174.589 114.265 171.232 115.373 167.955C115.879 166.438 116.596 164.987 117.215 163.504L116.531 163.226L112.879 171.622C112.557 171.145 112.364 170.593 112.318 170.018C112.272 169.444 112.376 168.867 112.618 168.345ZM103.13 212.69L105.005 209.331C104.809 211.401 104.565 211.841 103.13 212.723V212.69ZM110.825 172.095C110.988 174.182 112.015 175.959 110.548 177.899C110.401 175.942 109.162 174.182 110.825 172.128V172.095ZM108.771 176.497C109.504 177.981 108.771 179.383 108.95 180.72C109.268 182.187 109.154 183.716 108.624 185.121C108.103 183.401 107.732 181.639 107.515 179.856C107.733 178.671 108.157 177.533 108.771 176.497ZM92.3535 221.004C94.3103 216.749 96.4942 212.592 98.2719 208.272C99.0712 206.035 99.6183 203.717 99.9022 201.359C100.821 197.108 102.097 192.941 103.716 188.904C104.337 187.111 105.102 185.366 105.836 183.606C106.052 183.194 106.303 182.801 106.586 182.432C107.059 184.502 107.499 186.311 107.89 188.121C107.872 188.458 107.777 188.788 107.614 189.083C105.803 193.762 104.059 198.474 102.184 203.136C101.011 206.087 99.6576 208.973 98.4183 211.907C97.6517 213.716 96.9343 215.559 96.2169 217.385C94.7831 221.199 92.7412 224.756 90.1685 227.917C90.1423 227.37 90.186 226.822 90.2996 226.287C90.9351 224.46 91.5225 222.667 92.3535 220.938V221.004ZM78.2345 219.945C77.4199 218.314 78.2345 216.684 80.5014 214.906C81.1042 217.254 79.1485 218.265 78.2345 219.879V219.945ZM80.9742 210.391C80.9742 211.14 80.9742 211.891 80.9742 212.69L78.5774 214.043L78.3 213.798L80.5014 210.309L80.9742 210.391ZM59.3404 292.249L57.7101 290.064C58.5574 288.727 59.6494 288.596 61.2469 288.906L59.3404 292.249ZM132.101 197.039C133.68 194.426 136.153 192.473 139.062 191.544C139.873 191.202 140.663 190.81 141.426 190.371C143.373 189.387 145.473 188.742 147.637 188.464C150.229 188.007 152.805 187.436 155.348 186.833C160.729 185.399 166.076 183.834 171.472 182.432C172.374 182.359 173.283 182.431 174.162 182.644L174.26 183.23C173.908 183.511 173.538 183.767 173.151 183.996C167.462 186.931 161.739 189.833 156.099 192.8C155.087 193.338 154.207 194.136 153.245 194.74C151.452 195.849 149.658 196.908 147.849 198.001C146.398 198.865 144.849 199.631 143.464 200.577C138.136 204.219 132.428 207.275 126.443 209.69C124.573 210.475 122.749 211.369 120.981 212.363C117.509 214.353 114.183 216.602 110.646 218.477C107.108 220.352 103.667 221.738 99.7875 223.514C100.081 222.862 100.162 222.309 100.489 222.048C103.749 219.423 107.156 216.765 110.613 214.304C112.357 213.048 114.379 212.184 116.238 211.043L127.65 204.359C128.53 203.854 129.443 203.397 130.339 202.908C133.687 201.093 137.023 199.277 140.349 197.462C140.79 197.188 141.214 196.888 141.622 196.566L141.426 196.191L129.916 201.229C130.747 199.566 131.431 198.31 132.101 197.039ZM100.326 236.525C97.9127 238.986 95.1413 241.106 92.5654 243.421C90.7069 245.051 88.8647 246.796 87.0881 248.556C85.7504 249.876 84.4958 251.295 83.2073 252.681C83.0282 252.892 82.8819 253.153 82.7181 253.382C82.5554 253.17 82.4091 252.942 82.2616 252.73C84.641 247.931 87.3655 243.309 90.4131 238.904C90.6337 238.65 90.8412 238.384 91.0333 238.106C92.6538 235.124 94.8737 232.509 97.5545 230.428C101.777 226.816 106.28 223.545 111.021 220.646C113.793 219.236 116.645 217.989 119.563 216.912C121.927 215.868 124.258 214.777 126.59 213.652C127.714 213.13 128.84 212.559 129.965 212.022L130.177 212.38L124.307 216.88L110.075 227.786C106.619 230.46 103.36 233.38 100.326 236.525ZM100.032 241.986C99.8694 241.236 99.722 240.617 99.5429 239.769L103.88 235.53C104.027 238.758 101.679 240.078 100.032 241.986ZM98.2064 241.48C97.2444 243.322 96.8043 245.524 94.7012 246.632C95.8587 244.969 95.875 242.426 98.2064 241.48ZM122.498 201.62C122.743 201.294 123.166 201.017 123.247 200.674C123.639 198.669 125.319 198.163 126.851 197.413C128.383 196.664 129.704 196.208 131.139 195.604L131.431 195.898C129.247 198.571 127.634 201.685 124.91 203.951C125.53 201.751 127.307 200.104 127.959 197.952C127.851 197.857 127.737 197.769 127.617 197.691C127.361 197.825 127.125 197.995 126.916 198.196C125.399 200.185 123.884 202.191 122.4 204.195C122.07 204.627 121.807 205.105 121.617 205.614C121.275 206.51 120.59 206.771 119.547 207.016C120.229 205.068 121.226 203.245 122.498 201.62ZM116.466 206.983C117.099 206.007 117.645 204.976 118.096 203.902C118.683 201.913 120.28 201.18 122.09 200.528L115.895 209.462L115.455 209.217C115.749 208.467 116.09 207.717 116.466 206.983ZM116.971 204.212L114.053 208.565C113.678 209.135 113.335 209.723 112.945 210.196C112.722 210.606 112.417 210.968 112.048 211.255C107.02 214.348 102.449 218.129 98.4674 222.488C97.9618 223.026 97.6353 223.711 97.1953 224.281C96.2824 225.455 95.3531 226.629 94.4075 227.77C93.4618 228.911 92.5653 229.319 92.7772 230.818C92.7772 231.34 92.1089 231.943 91.7507 232.449L90.2668 234.634C89.0438 236.509 87.9519 238.464 86.5826 240.226C85.1794 242.229 83.9826 244.371 83.0118 246.616C81.1468 250.521 78.9661 254.267 76.4907 257.816C76.198 258.199 75.9621 258.622 75.7896 259.072C75.6913 259.333 75.7896 259.855 75.9032 259.952C76.2384 260.147 76.6315 260.216 77.0126 260.147C77.3052 260.147 77.5346 259.74 77.7944 259.495C79.2162 258.163 80.5451 256.736 81.7724 255.224C83.6954 253.024 85.7887 250.98 88.0327 249.111C89.9239 247.399 91.9626 245.85 94.3103 243.91C94.2666 244.37 94.1738 244.824 94.033 245.263C93.3057 246.391 92.6789 247.58 92.158 248.817C91.6863 250.243 90.78 251.486 89.5658 252.372C86.9079 254.458 84.2184 256.496 81.5442 258.566C81.363 258.752 81.1992 258.954 81.0551 259.17C82.2617 259.333 82.9136 258.599 83.631 258.093C86.5825 256.056 89.5002 253.953 92.419 251.882C92.5326 251.882 92.6953 251.768 92.7608 251.67C94.3911 248.866 97.1145 247.252 99.282 245.002C100.912 243.372 102.543 241.562 104.271 239.965C105.999 238.367 107.532 237.307 109.162 235.905C111.281 233.997 113.319 232.009 115.324 230.004C115.931 229.319 116.477 228.582 116.954 227.802C115.732 227.492 115.324 228.193 114.819 228.683L106.015 237.177C105.819 237.372 105.608 237.551 105.25 237.862C105.25 236.589 105.25 235.677 105.118 234.455C113.591 227.012 122.438 220.008 131.628 213.472C130.986 215.29 129.858 216.897 128.367 218.119C126.261 220.054 124.487 222.324 123.117 224.836C121.747 226.857 120.204 228.756 118.504 230.508C116.971 232.139 115.243 233.493 113.613 235.041C111.037 237.454 108.543 239.932 105.934 242.345C102.053 245.834 98.2392 249.42 94.1465 252.648C90.8641 255.497 87.1852 257.853 83.2236 259.642C82.3457 260.024 81.5147 260.505 80.746 261.077C78.0554 262.802 75.1858 264.229 72.1862 265.332C71.7461 265.903 71.3061 266.473 70.7841 267.19L71.5179 268.543C68.3884 274.511 65.2905 280.445 62.079 286.591H59.2421C59.395 286.123 59.5806 285.665 59.7968 285.222C62.0135 281.733 64.3612 278.325 66.4315 274.756C67.4143 272.74 68.2846 270.672 69.0403 268.56C69.263 267.803 69.6648 267.111 70.213 266.543C70.7612 265.975 71.4382 265.549 72.1862 265.299C71.9973 265.316 71.8062 265.316 71.6162 265.299C71.4044 265.207 71.1969 265.104 70.997 264.99C71.2405 264.045 71.5507 263.033 71.7789 262.022C71.9951 261.12 72.1523 260.205 72.2517 259.284C72.4308 257.279 72.5782 255.256 72.6754 253.235C72.6754 252.029 72.6754 250.806 72.6754 249.6C72.7354 249.216 72.8337 248.839 72.9691 248.474V248.344C71.6653 246.714 72.0234 244.66 71.8771 242.802C71.6817 240.177 71.7625 237.519 71.8771 234.878C71.8771 230.134 71.8771 225.389 72.2517 220.662C72.4024 217.74 72.8948 214.845 73.7193 212.038C76.1478 204.245 78.8547 196.533 81.5278 188.594C82.1011 189.819 82.2999 191.186 82.099 192.522C81.9526 197.413 81.708 202.142 81.5115 206.95C81.5115 207.864 81.3816 208.581 80.3377 209.086C79.8659 209.282 79.5721 209.918 79.1965 210.358L78.8056 210.211C79.0011 209.135 79.2456 208.06 79.3931 206.95C79.5394 205.842 79.5885 204.816 79.6857 203.69C78.6265 203.43 78.3655 204.033 78.2672 204.767C77.9091 207.342 77.4855 209.886 77.2245 212.462C76.6698 217.663 76.2788 222.879 75.675 228.063C75.2841 231.438 74.6322 234.764 74.1593 238.123C73.4922 241.464 73.1165 244.857 73.0346 248.262V248.344L74.6649 246.86C74.4826 243.739 74.8298 240.607 75.6914 237.601C76.6654 233.088 77.2594 228.501 77.4691 223.89C77.4691 221.95 78.7073 221.216 80.3059 220.124C80.2808 221.47 80.188 222.813 80.0286 224.151C79.7021 226.09 79.1321 227.982 78.822 229.922C78.3328 232.938 78.0227 235.97 77.5499 238.986C77.29 240.617 76.8171 242.247 76.4579 243.877C76.1969 245.067 75.9687 246.258 75.7241 247.448C75.2513 249.845 74.6976 252.224 74.3056 254.637C74.0938 255.957 74.453 256.169 75.5941 256.056C77.0934 253.137 78.4639 250.333 79.9795 247.611C81.7889 244.35 83.7292 241.089 85.6205 237.829C86.173 236.574 87.087 235.513 88.2455 234.78C88.4432 234.658 88.6125 234.493 88.7424 234.3C88.8712 234.105 88.9575 233.886 88.9947 233.655C89.2884 230.395 91.0169 227.689 92.8918 224.737C93.4618 226.172 92.1417 226.955 92.4835 228.292C99.1619 218.883 107.452 210.732 116.971 204.212ZM118.144 190.355C118.144 190.631 118.341 190.99 118.144 191.153C117.384 192.293 116.551 193.382 115.65 194.414C112.657 197.816 110.034 201.528 107.825 205.484C107.258 206.378 106.602 207.214 105.869 207.978C108.411 202.293 111.618 196.931 115.422 192.002C116.498 192.197 116.775 191.332 117.199 190.664H115.569L117.786 188.088C118.122 187.759 118.433 187.404 118.716 187.029C121.976 182.138 125.481 177.556 128.97 172.91C129.589 172.079 130.6 171.524 131.285 170.742C131.961 169.91 132.587 169.039 133.16 168.134C132.769 169.778 131.999 171.308 130.91 172.601C129.815 173.91 128.828 175.306 127.959 176.774C128.905 177.361 129.589 177.132 129.965 176.546C130.83 175.012 132.099 173.743 133.633 172.878C133.796 172.756 133.917 172.584 133.975 172.389C134.56 171.25 135.025 170.053 135.361 168.818C135.882 166.047 137.676 163.927 138.866 161.514C140.056 159.102 141.735 157.047 142.403 154.423C142.567 153.803 143.252 153.314 143.643 152.793C143.65 151.743 143.776 150.699 144.017 149.678C144.866 147.413 145.908 145.195 146.903 142.978C146.974 142.838 147.076 142.716 147.199 142.62C147.324 142.524 147.468 142.457 147.621 142.423C148.68 142.423 148.957 141.722 148.924 140.956C148.729 136.946 150.669 133.587 152.365 130.229C155.217 124.523 158.315 118.931 161.331 113.306C161.569 112.817 161.848 112.348 162.163 111.904C165.319 107.409 168.211 102.733 170.819 97.9001C172.279 95.299 174.126 92.935 176.298 90.8897C175.988 92.0963 175.727 93.3029 175.385 94.4932C175.042 95.6834 174.635 96.3997 174.439 97.3781C173.555 101.014 172.298 104.549 170.689 107.926C169.276 110.644 168.182 113.516 167.429 116.485C167.12 117.668 166.653 118.802 166.043 119.86C164.038 124.099 162 128.306 159.978 132.543C157.828 137.392 155.35 142.087 152.561 146.597C150.018 150.526 147.36 154.374 144.654 158.189C143.887 159.281 142.42 159.949 141.899 161.09C141.487 162.327 140.974 163.526 140.366 164.678C138.425 167.546 136.649 170.547 134.48 173.236C131.579 176.855 128.905 180.752 124.862 183.279C124.615 183.4 124.407 183.586 124.258 183.817C122.898 186.543 120.773 188.814 118.144 190.355ZM201.388 148.782C197.882 151.325 194.346 153.836 190.808 156.362C186.789 159.032 182.551 161.355 178.14 163.308C176.624 164.041 175.173 164.939 173.673 165.704C169.126 168.298 164.738 171.163 160.533 174.28C157.271 176.494 153.715 178.239 149.968 179.464C147.719 180.198 145.322 180.475 143.007 180.98C139.363 181.811 135.821 183.036 132.443 184.632C129.655 185.888 126.949 187.323 124.291 188.659C123.948 188.822 123.59 188.953 122.823 189.262C123.064 188.801 123.33 188.354 123.623 187.925C123.884 187.599 124.307 187.403 124.487 187.062C126.312 183.67 129.785 182.333 132.769 180.377C136.291 178.078 139.779 175.714 143.268 173.351C145.485 171.834 147.67 170.286 150.213 168.459C150.074 168.967 149.883 169.459 149.642 169.927C148.926 170.823 148.277 171.771 147.703 172.764C146.708 174.642 145.061 176.092 143.072 176.84C139.811 178.47 136.55 179.904 133.29 181.437C133.094 181.534 132.964 181.811 132.589 182.252C133.032 182.315 133.483 182.315 133.926 182.252C136.437 181.241 138.947 180.198 141.458 179.155C142.567 178.698 143.692 178.242 144.833 177.817C147.898 176.676 150.131 174.166 152.984 172.714C155.3 171.442 157.548 170.049 159.717 168.541C160.131 168.324 160.563 168.138 161.006 167.987C161.364 167.824 161.87 167.774 162.049 167.498C163.255 165.671 165.309 165.052 167.054 164.238C169.125 163.226 171.146 162.118 173.216 161.107C174.293 160.585 175.418 160.21 176.559 159.738C176.183 158.449 176.069 158.286 174.83 158.841C172.858 159.705 170.95 160.78 169.026 161.775L164.886 163.732C164.906 163.177 165.005 162.628 165.179 162.102C165.901 160.305 167.275 158.85 169.026 158.025C172.124 156.787 175.222 155.58 178.401 154.586C180.438 153.95 182.623 153.673 184.71 153.102C186.206 152.702 187.671 152.195 189.095 151.586C190.905 150.82 192.65 149.956 194.443 149.092C195.145 148.83 195.863 148.618 196.595 148.455C198.095 148.054 199.595 147.663 201.095 147.282C201.52 147.206 201.951 147.163 202.382 147.152L202.529 147.462C202.186 147.931 201.804 148.374 201.388 148.782ZM143.316 106.198C143.431 106.606 143.675 106.964 143.577 107.176C143.056 108.481 142.485 109.752 141.947 111.024C141.67 111.578 141.523 112.524 140.578 112.051C139.632 111.578 139.975 110.861 140.333 110.258C141.149 108.872 141.556 107.143 143.316 106.198ZM89.5166 171.263C91.9757 169.022 94.1945 166.532 96.136 163.829C96.967 162.591 97.7663 161.302 98.6628 160.145C101.092 157.062 103.273 153.792 105.184 150.363C108.561 144.761 111.166 138.729 112.928 132.43C113.122 131.719 113.173 130.975 113.074 130.245C112.903 129.7 112.632 129.192 112.276 128.746C111.787 129.039 111.15 129.202 110.841 129.626C108.673 132.495 106.44 135.332 104.516 138.365C103.622 139.884 102.544 141.286 101.304 142.538C99.0538 144.576 97.4726 147.152 94.7831 148.782C94.6193 148.879 94.5222 149.092 94.3911 149.238C92.6145 151.374 90.9023 153.575 89.0111 155.613C86.4188 158.385 83.6637 161.009 81.007 163.765C79.7185 165.068 78.3983 166.357 77.2409 167.758C75.8071 169.653 74.167 171.38 72.35 172.91C71.0255 173.973 69.7675 175.117 68.5838 176.334C66.5626 178.323 64.573 180.36 62.5846 182.415C61.3376 183.657 60.1561 184.963 59.0466 186.328C57.2526 188.61 55.5906 190.974 53.8457 193.289C53.8457 193.289 53.6011 193.289 53.3237 193.289C53.3423 192.894 53.3969 192.501 53.4875 192.115C54.6777 188.283 55.8996 184.453 57.1063 180.703C58.4221 176.107 61.0646 172.001 64.7041 168.9C67.1981 166.813 69.5131 164.497 72.0399 162.379C74.5667 160.26 77.5826 158.319 80.1913 156.086C82.8 153.852 85.5386 151.097 88.18 148.57C89.5002 147.314 90.7396 145.945 92.1417 144.788C95.4514 142.042 98.5165 139.014 101.304 135.74C102.113 134.716 102.833 133.626 103.455 132.479C104.287 131.093 104.956 129.609 105.787 128.207C107.89 124.637 110.026 121.083 112.162 117.545C112.797 116.502 113.498 115.492 114.069 114.415C115.389 111.888 116.662 109.328 117.933 106.785C119.205 104.242 120.444 101.796 121.633 99.2694C122.042 98.3893 122.531 97.4109 121.83 96.4489C119.857 96.2534 119.84 96.237 118.813 97.5092C118.21 98.243 117.688 99.0412 117.182 99.775C115.552 101.796 114.036 103.851 112.39 105.823C111.079 107.468 109.658 109.019 108.134 110.47C104.662 113.617 101.011 116.551 97.5381 119.681C93.4618 123.366 89.4838 127.165 85.4895 130.93C83.5665 132.74 81.6261 134.533 79.8331 136.49C77.029 139.543 74.3111 142.663 71.6817 145.847C69.6922 148.26 67.8828 150.738 66.0243 153.314C65.1441 154.487 64.3121 155.727 63.4647 156.933L63.041 156.754C63.2529 155.873 63.5138 155.009 63.6765 154.113C64.6549 148.748 66.4185 143.557 68.9092 138.706C69.2707 137.975 69.5917 137.224 69.8712 136.457C71.3061 132.773 72.6753 129.087 74.1266 125.42C75.4959 122.013 76.9307 118.637 78.3819 115.263C78.9039 114.057 79.0994 112.622 80.5823 112.003C80.8269 111.888 80.9415 111.448 81.1042 111.154C81.7397 109.655 82.5063 108.187 83.37 106.703C83.9542 105.545 84.6585 104.453 85.4731 103.443C88.7173 99.7728 92.7455 96.8813 97.2608 94.9824C99.4774 94.004 101.597 92.7646 103.782 91.7218C104.87 91.0284 106.083 90.5578 107.353 90.335C109.569 90.0915 111.771 89.6504 113.971 89.2103C116.518 88.4568 119.177 88.1533 121.83 88.3138C122.093 88.3717 122.365 88.3717 122.628 88.3138C125.709 87.4664 128.824 86.6835 131.84 85.7051C136.258 84.2059 140.643 82.5428 145.028 80.9125C148.517 79.6076 151.99 78.2219 155.462 76.8854C156.163 76.6244 156.881 76.4126 157.565 76.1035C160.549 74.7823 163.451 73.2994 166.499 72.1736C168.228 71.5381 169.89 70.3315 171.945 70.8862C172.221 70.8862 172.597 70.7071 172.907 70.5761C174.456 69.9078 176.02 69.2395 177.553 68.5057C178.122 68.3212 178.63 67.9827 179.02 67.5273C179.454 66.8416 180.12 66.3327 180.895 66.0925C181.303 65.897 181.563 65.3914 181.906 65.0333C181.551 64.6577 181.145 64.3333 180.699 64.0713C180.301 63.9959 179.891 63.9959 179.493 64.0713C176.77 64.0713 174.065 64.0713 171.341 64.0713C169.938 63.8507 168.523 63.7098 167.102 63.6476C164.402 63.842 161.738 64.3901 159.179 65.2779C153.511 67.1899 147.599 68.2884 141.622 68.5385C141.279 68.5385 140.937 68.5385 140.594 68.4402C137.627 68.3266 134.628 68.0165 131.66 68.1312C124.262 68.5865 117.016 70.4341 110.303 73.5757L109.732 73.8039C105.524 75.5477 101.513 77.7338 97.7664 80.325C97.3907 80.5696 97.0162 80.7815 96.3479 81.1735C96.4211 80.7476 96.5248 80.3283 96.6569 79.9177C98.0273 77.0328 99.3803 74.1304 100.799 71.2771C102.217 68.4238 104.059 65.2943 105.347 62.1472C106.789 58.4193 107.626 54.4839 107.825 50.4906C107.857 49.6793 107.988 48.8745 108.216 48.0949C109.308 44.7196 110.369 41.3291 111.623 38.0194C112.969 34.3209 113.744 30.4401 113.922 26.5091C113.916 25.6934 113.993 24.8799 114.15 24.0806C115.28 19.5992 116.825 15.2324 118.765 11.0382C120.036 8.28214 120.932 5.33167 122.025 2.44563C122.104 2.26546 122.144 2.07109 122.144 1.87454C122.144 1.67908 122.105 1.48362 122.026 1.30345C121.949 1.12327 121.834 0.960568 121.691 0.826258C121.548 0.691947 121.379 0.588211 121.193 0.522694C120.411 0.17982 119.987 0.848099 119.563 1.35367C118.666 2.38121 117.786 3.40765 116.824 4.35329C114.558 6.60381 112.08 8.65776 110.009 11.0535C107.581 13.874 105.478 16.9719 103.26 19.9879C101.293 22.5005 99.5473 25.1791 98.0437 27.993C96.6733 30.878 95.613 33.8994 94.8803 37.0082C93.25 43.204 91.457 49.3495 89.6793 55.4961C89.0766 57.5993 88.2936 59.6368 87.5609 61.8546C87.3163 60.7779 87.1034 59.7995 86.8915 58.8386C85.8443 55.1795 85.2962 51.3947 85.2613 47.5893C85.2853 45.6107 85.1215 43.6342 84.7721 41.6873C84.7131 41.3717 84.5853 41.0736 84.3997 40.8115C84.2141 40.5505 83.9739 40.3321 83.6965 40.1716C82.9627 39.8779 82.5062 40.6117 82.1972 41.2308C81.9308 41.7124 81.7179 42.2201 81.5606 42.7476C80.7297 46.529 79.8332 50.2952 79.1321 54.1596C78.7401 56.2944 78.8056 58.5121 78.5118 60.6808C78.0718 63.9413 77.4854 67.1036 76.8816 70.3151C76.8816 70.5597 76.768 70.7879 76.637 71.3426L75.9523 70.3151C74.892 68.2644 73.6188 66.3294 72.1545 64.5441C71.8182 64.1248 71.5681 63.6421 71.4207 63.1256C71.0779 62.2455 70.8988 61.2835 70.4915 60.4525C69.0217 57.0817 67.9014 53.5688 67.149 49.9698C66.4862 47.3611 65.7688 44.7578 64.9967 42.1601C63.6777 37.4395 63.0563 32.5509 63.1546 27.6502C63.1546 26.0199 62.9592 24.2433 64.2149 22.9067C63.2365 21.3736 62.7145 21.0962 62.1118 21.9119C60.4334 24.0609 59.1722 26.5047 58.3948 29.1178C57.6086 32.4984 57.4044 35.9883 57.7909 39.4378C57.9493 41.6152 57.6326 43.8013 56.8617 45.8443C55.5808 49.0798 55.2139 52.6046 55.8024 56.0345C56.617 59.947 57.4327 63.8594 58.5574 67.7075C59.4212 70.8698 60.6115 73.9349 61.7034 77.2446C59.2094 75.4833 56.9272 73.984 54.7094 72.3538C50.4224 69.174 45.3677 68.0657 40.2978 67.0381C36.0621 66.3764 31.905 65.2834 27.891 63.7775C25.315 62.7183 22.6419 61.8863 20.0005 61.0225C19.4785 60.8434 18.4849 60.8107 18.3702 61.0225C18.1059 61.6733 18.0317 62.3864 18.1583 63.0765C18.2806 63.6072 18.5198 64.1029 18.8594 64.5277C19.7592 65.8119 20.956 66.8579 22.3482 67.5764C24.9405 69.0604 27.6147 70.5269 30.1742 72.1572C34.6021 75.0618 39.3161 77.5034 44.243 79.4449C48.8423 81.1975 53.0922 83.7538 56.7961 86.9936C60.2456 90.1647 63.3391 93.7015 66.0243 97.5419C67.5191 99.3043 68.7596 101.27 69.7085 103.378C70.0514 104.324 70.6869 105.155 71.1106 106.084C71.3683 106.625 71.507 107.213 71.5179 107.813C71.3552 114.121 68.8612 119.762 66.3344 125.892C66.057 124.979 65.8932 124.49 65.7797 124.001C65.095 121.034 64.4431 118.051 63.7257 115.083C62.9428 111.823 62.0954 108.562 61.2961 105.416C61.117 104.682 61.0351 103.932 60.7905 103.231C60.3505 101.927 59.6986 101.796 58.7529 102.742C58.4428 103.052 58.0355 103.247 57.7254 103.574C57.4164 103.899 56.8944 104.339 56.8289 104.78C56.5679 106.411 56.438 108.138 56.3233 109.834C56.2098 111.53 56.3233 112.801 56.1115 114.269C55.2641 120.611 54.3513 126.92 53.4548 133.245C53.4548 133.816 53.1446 134.354 52.8837 135.348L52.4764 134.207C51.0907 130.115 50.976 125.81 50.145 121.621C49.7072 118.862 49.0749 116.139 48.2538 113.469C47.4763 111.302 46.8659 109.078 46.428 106.818C46.1015 104.452 45.3099 102.175 44.0967 100.118C42.8409 98.2593 41.619 96.3844 40.3469 94.5576C38.2602 91.5252 36.1735 88.5093 34.0376 85.526C32.1726 82.7492 29.5857 80.5347 26.5544 79.1195C25.9265 78.876 25.3675 78.4851 24.9241 77.9773C24.436 77.4052 23.8049 76.9716 23.094 76.7227C22.3842 76.4737 21.6199 76.4169 20.8806 76.56C19.4949 76.56 18.8922 77.7983 19.6587 79.0212C20.2571 79.9199 20.9516 80.7509 21.729 81.4989C23.0743 82.6356 24.1827 84.0257 24.9897 85.5915C25.5924 86.9609 26.1962 88.3302 26.6199 89.7486C27.1594 91.1616 27.6005 92.6106 27.9401 94.0848C28.7066 98.0955 29.3258 102.123 30.1087 106.117C30.8917 110.111 31.739 113.665 32.5056 117.529C33.6642 123.618 35.871 129.459 39.0267 134.794C40.0859 136.62 41.0479 138.495 42.1235 140.304C42.7437 141.348 43.5583 142.277 44.243 143.271C45.7575 145.106 46.8681 147.239 47.5036 149.532C47.7875 151.073 48.2133 152.585 48.7757 154.047C49.5641 155.855 50.0599 157.775 50.2433 159.738C50.5469 161.525 50.6834 163.337 50.6506 165.15C50.3078 168.944 50.1931 172.755 50.3077 176.562C50.2258 177.63 50.0227 178.686 49.705 179.708C49.5575 180.36 49.2321 180.98 49.0367 181.632C48.0747 184.893 47.1455 188.154 46.1998 191.414C46.0906 191.646 45.965 191.868 45.8241 192.082C45.5544 191.663 45.3197 191.221 45.1231 190.762C44.1622 188.024 43.1346 185.284 42.3037 182.496C40.9016 177.801 39.6459 173.074 38.3093 168.378C38.0331 167.398 37.6727 166.443 37.2326 165.525C35.4888 161.841 33.4993 158.27 32 154.487C31.0303 151.784 29.6621 149.24 27.9401 146.94C24.3377 142.44 20.5716 138.071 16.871 133.653C16.1372 132.773 15.4853 131.794 14.6696 130.995C12.2891 128.68 9.77867 126.414 7.41459 124.164C5.91533 122.778 4.38223 121.442 2.85022 120.121C2.14918 119.518 1.34989 119.599 1.21995 120.333C0.893452 122.11 -0.165727 123.773 0.50255 125.697C0.702378 126.627 0.844333 127.569 0.92623 128.517C1.38376 131.509 2.04215 134.466 2.89934 137.37C4.17911 140.574 5.67075 143.689 7.36547 146.695C8.84943 149.516 10.6261 152.156 12.0937 155.009C14.4741 159.9 16.7399 164.791 18.8758 169.829C20.0868 173.094 21.4801 176.289 23.0492 179.399C24.1903 181.404 25.0704 183.556 26.1798 185.561C27.2347 187.769 28.5243 189.858 30.0268 191.789C32.9347 195.211 35.5117 198.902 37.7218 202.81C40.3993 207.202 41.4006 212.411 40.5424 217.482C40.4015 218.286 40.3087 219.097 40.265 219.912C40.1187 225.194 40.0204 230.492 39.8577 235.775C39.7594 239.377 39.5476 242.964 39.4177 246.568C39.3937 247.418 39.6721 248.25 40.2028 248.917C40.7346 249.582 41.4847 250.038 42.3201 250.203C45.8733 250.203 49.3948 247.627 48.8412 243.844C48.5966 242.214 48.4328 240.47 48.2865 238.774C48.0659 237.154 47.984 235.518 48.0419 233.884C48.2865 230.917 48.8085 227.965 49.183 225.015C49.3457 223.726 49.4604 222.455 49.6067 221.167C50.1287 216.732 50.1286 212.184 52.8673 208.255C53.9494 206.15 55.2215 204.147 56.6662 202.271C59.8896 198.986 63.3206 195.909 66.9371 193.061C70.5886 190.127 74.132 187.056 77.5662 183.849C80.9295 180.987 84.0383 177.84 86.8599 174.443C87.6646 173.314 88.559 172.251 89.533 171.263H89.5166ZM79.5066 167.4L79.6049 167.155C81.4962 165.215 83.4191 163.325 85.2449 161.351C88.7184 157.569 92.5817 154.162 95.8095 150.151C97.6189 147.902 99.8531 146.011 101.874 143.957L102.298 144.298C100.912 146.239 99.5593 148.195 98.1737 150.119C96.788 152.043 95.7932 153.673 94.4894 155.303C92.8591 157.26 91.2288 159.102 89.5985 161.025C87.9682 162.949 86.6305 164.694 85.1313 166.52C84.4958 167.302 83.8428 168.15 82.6045 167.254C82.1972 168.329 80.7624 168.884 81.5606 170.171C80.876 170.823 80.5014 171.916 79.0829 171.916C79.5066 171.068 79.8332 170.286 80.2241 169.633C80.3486 169.445 80.4337 169.234 80.473 169.012C80.5112 168.79 80.5036 168.562 80.4501 168.342C80.3966 168.124 80.2983 167.917 80.1607 167.738C80.0242 167.559 79.8506 167.411 79.653 167.302L79.523 167.449C78.9203 168.932 78.3164 170.399 77.6973 171.867C77.6973 171.981 77.3544 171.981 77.1753 172.046L77.0934 172.209C76.898 172.992 76.7025 173.839 76.5234 174.573L76.0342 174.377C76.3924 173.66 76.7353 172.926 77.0934 172.209C77.0934 172.209 77.0934 172.046 77.0934 171.981C76.8488 169.861 78.3 168.704 79.523 167.4H79.5066ZM73.7684 173.726C74.0294 173.138 74.7141 172.731 75.2032 172.258L75.6269 172.552L72.9528 178.127L72.3336 177.932C72.8064 176.497 73.1973 175.062 73.7848 173.726H73.7684ZM71.4851 175.356C71.2143 177.761 70.296 180.049 68.8284 181.975C69.0402 181.339 69.2357 180.687 69.4803 180.051C69.7249 179.416 70.0514 178.649 69.1385 177.997L71.4851 175.356ZM92.1744 126.675C96.9343 122.86 101.288 118.524 105.983 114.659C108.785 112.311 111.402 109.749 113.808 106.997C114.77 105.905 115.601 104.682 116.629 103.623C115.914 105.995 114.62 108.152 112.863 109.9C111.232 111.53 109.423 113.16 107.727 114.79C106.749 115.736 105.803 116.697 104.874 117.675C100.929 121.849 96.9998 126.055 93.0709 130.229C92.8088 130.455 92.5304 130.662 92.2389 130.849C92.2389 130.082 92.2389 129.593 92.2389 128.729C89.8923 130.604 89.8923 133.75 87.4299 135.74C88.4411 132.103 89.2556 129.007 92.1744 126.675ZM81.0234 137.223C81.6655 136.628 82.3523 136.083 83.0773 135.592C83.0773 135.592 83.0773 135.479 83.0773 135.413C84.071 134.034 85.3224 132.86 86.7616 131.957C86.2746 135.317 84.6661 138.414 82.1972 140.744C82.6209 139.457 83.0282 138.283 83.4191 137.093C83.6146 136.457 83.8919 135.789 83.0773 135.462L82.979 135.544C81.9035 138.201 80.8432 140.842 79.7185 143.5C79.3494 144.461 78.6811 145.279 77.8108 145.831C77.8283 144.684 78.1428 143.56 78.7237 142.571C79.0174 141.967 79.5886 141.233 79.4248 140.728C79.0666 139 80.1094 138.168 81.0234 137.223ZM79.3931 147.331C81.5933 145.098 83.501 142.652 85.5222 140.288C86.5006 139.163 87.0717 137.533 89.0766 137.761C89.3212 137.761 89.7776 137.158 89.9075 136.75C90.3061 135.507 91.0126 134.386 91.9626 133.489C94.6521 130.701 97.3427 127.914 99.9503 125.061C102.559 122.208 105.053 119.209 107.825 116.339C109.146 114.92 110.694 113.714 112.357 112.198C112.26 112.719 112.357 112.964 112.178 113.078C109.016 116.812 107.189 121.344 104.744 125.485C102.393 129.855 99.519 133.923 96.1852 137.598C94.7831 139 93.1528 140.239 91.7344 141.576C88.2619 144.837 84.8539 148.097 81.3324 151.358C79.1648 153.249 76.8488 155.009 74.583 156.933C71.6817 159.362 68.812 161.824 65.7305 164.123C67.6709 161.384 69.7741 158.743 71.5343 155.971C73.5883 152.483 76.637 150.069 79.3275 147.331H79.3931ZM60.3341 164.775C61.5898 162.542 63.1874 160.504 64.6386 158.368C67.1293 154.573 69.8177 150.91 72.6918 147.396C74.3221 145.489 75.9523 143.614 77.5826 141.722L77.8108 141.918C77.0126 144.07 76.1805 146.222 75.4151 148.439C75.2698 148.739 75.058 149.001 74.7948 149.206C72.1217 151.243 70.5886 154.162 68.6974 156.819C66.6805 160.186 64.442 163.416 61.9971 166.487C60.5951 168.117 59.4048 169.748 58.1502 171.491C56.2654 174.008 55.1702 177.027 55.0031 180.165C54.93 180.72 54.8044 181.264 54.6286 181.795C53.5192 186.149 52.3945 190.501 51.368 194.837C50.7118 197.591 49.6919 200.245 48.3357 202.729C48.2221 202.358 48.1511 201.974 48.1238 201.587C48.4656 198.49 48.8085 195.392 49.2158 192.294C49.3621 191.153 49.7214 190.045 49.966 188.904C50.536 186.246 51.0579 183.589 51.5962 180.931C51.8572 179.79 51.7917 178.47 53.2266 177.85C53.5847 177.704 53.7966 177.116 54.0084 176.692C56.1115 172.698 58.0846 168.672 60.2696 164.775H60.3341ZM113.221 78.6784C114.102 77.0481 115.031 75.4178 115.944 73.7875C116.433 72.891 117.264 72.8266 118.292 72.7447C116.662 75.2878 115.031 77.6356 113.401 80.0804L112.977 79.885C113.007 79.4744 113.09 79.0693 113.221 78.6784ZM98.7448 82.9501C100.081 81.939 101.564 81.1571 102.935 80.3087L103.375 79.6731L106.553 78.2219L106.652 78.0756H106.749C109.187 76.3339 111.876 74.9712 114.721 74.0321C114.265 74.8805 114.02 75.4506 113.678 75.9561C112.093 77.819 110.68 79.8216 109.456 81.9389C109.374 82.1519 108.917 82.1999 108.428 82.4118C108.722 80.1623 110.858 78.9885 110.889 76.8526C108.379 78.7767 107.189 81.7435 105.168 84.0268L104.76 83.8139C105.2 82.9665 105.608 82.1835 106.048 81.2707C106.488 80.3578 106.913 79.755 107.287 78.9557C107.662 78.1575 107.205 78.1575 106.765 77.9773H106.635C105.901 79.184 105.151 80.3906 104.401 81.5808C103.652 82.771 102.935 84.0421 102.168 85.2006C102.005 85.4441 101.695 85.5752 101.124 85.5424C101.777 84.3849 102.363 83.2111 103.065 82.1028C103.354 81.773 103.541 81.3657 103.601 80.9311C103.662 80.4965 103.594 80.0531 103.407 79.6568C103.407 79.8369 103.293 80.0804 103.163 80.1623L102.935 80.3087C102.021 81.5972 101.108 82.8693 100.228 84.1895C99.6576 85.0205 99.2012 85.9333 98.5973 86.7654C98.3003 87.0308 97.9651 87.2502 97.6025 87.4173L97.3099 87.1236C97.6844 86.3253 98.0753 85.4933 98.451 84.7431C98.3724 84.6492 98.285 84.5618 98.19 84.4832C97.8188 84.6514 97.4737 84.8708 97.1625 85.1351C96.4778 85.9497 95.8587 86.7654 95.2068 87.711C94.7536 88.2494 94.1901 88.684 93.5546 88.9853C92.9191 89.2867 92.2258 89.4462 91.5225 89.4549C91.7016 89.0312 91.718 88.7211 91.8971 88.5912C94.0974 86.6999 96.4134 84.7759 98.7448 82.9829V82.9501ZM98.0437 31.7264C100.252 26.7591 103.203 22.1587 106.798 18.0803C108.428 16.0263 110.059 13.8424 111.689 11.8692C113.743 9.53789 115.977 7.40202 118.21 5.16897L118.699 5.46162C118.303 6.91065 117.814 8.33236 117.232 9.71696C114.358 15.6605 112.17 21.913 110.71 28.3512C110.466 29.4115 110.499 30.5362 110.205 31.6118C109.52 34.0905 108.803 36.5027 107.906 38.9814C106.337 43.264 105.2 47.693 104.516 52.2028C104.099 54.1869 103.554 56.1415 102.885 58.0557C102.724 58.5733 102.527 59.0799 102.298 59.5713C101.369 61.7563 100.375 63.925 99.4938 66.0925C98.6137 68.2611 97.6189 70.5269 96.9015 72.7938C96.0508 75.6001 94.7875 78.2656 93.1528 80.7007C92.0761 82.2491 91.278 83.9613 90.3159 85.5915C90.0375 86.0076 89.7274 86.3996 89.3867 86.7654C89.1989 86.2948 89.1126 85.7914 89.1322 85.2858C89.1519 84.7802 89.2775 84.2845 89.5003 83.8302C90.9678 78.6784 92.5981 73.5593 93.9019 68.3594C94.8312 64.6096 95.2068 60.7288 96.0541 56.9474C96.5433 54.7787 97.4562 52.7084 98.1573 50.5889C98.795 48.8811 99.3398 47.1394 99.7875 45.3715C100.772 41.1151 102.215 36.9766 104.092 33.0302C105.151 30.8136 106.195 28.6122 107.353 26.5091C108.51 24.406 109.456 22.6785 110.433 20.7708C110.858 19.9879 111.232 19.1406 111.623 18.3904C112.455 16.7601 113.254 14.9999 114.118 13.2877C114.331 12.7559 114.511 12.211 114.656 11.6574C114.17 11.6847 113.702 11.8539 113.311 12.1433C112.92 12.4327 112.622 12.8312 112.455 13.2877C110.825 16.5482 109.195 19.8088 107.564 23.0694C105.754 26.8683 104.124 30.7644 102.298 34.5634C99.0374 41.2145 97.4071 48.4366 94.913 55.3171C94.3103 57.406 93.8899 59.5451 93.6573 61.7072C93.1529 64.365 92.7117 67.0381 92.1253 69.6959C91.4407 72.8102 90.6086 75.907 89.8268 79.0049C89.7274 79.3008 89.6083 79.5902 89.4675 79.8686L89.1584 79.7387C89.367 78.2099 89.4696 76.6681 89.4675 75.1252C89.3583 73.437 89.1028 71.763 88.702 70.1196C88.3428 68.4599 88.3428 66.7422 88.702 65.0824C90.6402 56.3096 93.0229 47.6417 95.8423 39.1113C96.4134 36.6665 96.9998 34.1233 98.0437 31.7264ZM82.979 93.6775C82.979 93.0911 84.1857 92.3901 84.9195 91.8354C85.7876 91.2031 86.6906 90.62 87.6253 90.0915C88.3624 89.6984 89.1181 89.3446 89.8923 89.0312C89.6706 90.085 89.2316 91.0797 88.6026 91.9533C87.9737 92.8258 87.1689 93.5585 86.2396 94.1012L85.294 93.4493C84.0711 93.8566 83.7784 94.9824 83.1745 95.8625C82.5718 96.7426 82.4571 97.7865 80.9742 98.0955C81.2024 97.5583 81.3815 97.2646 81.4798 96.9381C81.8543 95.8297 82.9627 95.1287 82.8972 93.7102L82.979 93.6775ZM79.8812 61.2507C80.306 57.9094 80.5178 54.5341 80.8269 51.1753C80.9612 48.3285 81.7178 45.5462 83.0446 43.0238C83.1832 43.3776 83.287 43.7434 83.3547 44.1169C83.5174 46.6273 83.6309 49.1213 83.7947 51.6317C83.8209 52.6451 83.9291 53.654 84.1202 54.6488C85.3814 60.4798 86.0693 66.4201 86.1741 72.3854C86.1326 72.6562 86.1326 72.9314 86.1741 73.2011C87.4299 76.8526 86.8435 80.538 86.5662 84.255C86.5596 85.5097 86.3052 86.7512 85.816 87.9065C85.4895 88.3902 85.0996 88.8281 84.6585 89.2103L84.332 88.9821C84.332 88.3138 84.4303 87.6619 84.5285 87.01C84.772 83.899 84.463 80.7695 83.6146 77.7655C83.2728 76.1352 83.3864 74.3913 83.1418 72.7119C82.6679 69.1511 82.444 65.5607 82.4735 61.9682C82.4735 61.8546 82.3435 61.7563 82.1317 61.4626C81.9788 61.8022 81.8478 62.1505 81.7397 62.5065C80.7297 66.5489 81.7397 70.658 81.7397 74.6523C81.8314 77.0197 82.1536 79.3729 82.7017 81.6791C83.1167 83.0386 83.1167 84.4919 82.7017 85.8525C82.2453 84.0912 81.8543 82.3146 81.2833 80.586C80.8738 79.2407 80.3278 77.9402 79.653 76.7063C78.5676 74.9603 78.1286 72.8888 78.4147 70.8534C78.8056 67.6747 79.4739 64.4786 79.8812 61.2507ZM71.2569 67.4138C73.36 71.3426 75.4315 75.3042 77.5826 79.2331C79.8146 82.795 80.8541 86.9751 80.5505 91.1671L78.2345 93.2538C77.8425 91.3549 77.3533 89.4778 76.768 87.6291C75.9359 85.3469 74.8604 83.1456 73.8656 80.9125C72.7791 78.3694 71.6434 75.8371 70.4587 73.3147C70.1955 72.7654 70.0492 72.1681 70.0263 71.5599C70.0044 70.9517 70.1071 70.3446 70.3276 69.7778C70.5569 68.9545 70.7196 68.1148 70.8168 67.2663C71.0123 67.2663 71.2089 67.2663 71.2569 67.4138ZM69.6266 63.3375C69.9531 64.0877 70.1978 64.6424 70.2796 64.8706L68.6493 69.7615C67.4755 68.3594 68.5019 67.381 68.6493 66.3862C68.6471 65.2801 69.0206 64.2045 69.7085 63.3375H69.6266ZM67.98 59.1149C68.4047 59.9633 68.8448 60.7452 69.2685 61.6744C67.0507 62.6528 68.1438 65.1632 66.5779 66.5653C66.6401 64.1128 66.9404 61.6722 67.4754 59.2787L67.98 59.1149ZM62.5682 69.5977C61.3616 66.5697 60.6191 63.3768 60.3669 60.126C60.2697 58.3822 59.7804 56.6536 59.5358 54.9087C59.2421 53.2369 59.0467 51.5498 58.9484 49.8551C58.9014 48.5797 59.05 47.3043 59.3885 46.0726C60.5383 41.5934 60.8801 36.9449 60.3996 32.3456C60.2161 30.819 60.4826 29.2717 61.1662 27.8948L61.5735 27.9767C61.6761 28.6395 61.7143 29.311 61.687 29.9815C61.2306 34.1386 62.4044 38.1329 63.3173 42.0618C64.2313 45.9918 65.356 50.2143 66.4152 54.2731C66.7089 55.3979 67.1162 56.4745 67.4591 57.5337C65.8288 59.164 66.0898 61.2835 65.2741 63.2883C64.7041 62.7347 64.394 62.3438 64.6058 61.5281C65.0459 59.8978 65.3232 58.2675 65.665 56.6372C65.6836 56.29 65.6836 55.9417 65.665 55.5933C65.3396 55.5933 65.0459 55.5933 64.9967 55.7735C63.6766 58.5449 62.4208 61.2835 63.9211 64.4622C64.9214 66.6887 66.116 68.8213 67.4918 70.837C68.6581 72.6442 69.6572 74.5541 70.4751 76.5436C72.1053 80.277 73.7356 84.0268 75.1869 87.8082C75.6335 89.0705 76.0145 90.3547 76.3279 91.6563L76.0015 91.9336C75.6433 91.7534 75.1213 91.6727 74.9423 91.3789C74.2369 90.2127 73.5948 89.0105 73.0183 87.7755C71.7953 85.4354 70.3014 83.246 68.5674 81.2543C67.4645 79.7867 66.5091 78.2143 65.7141 76.56C64.5283 74.3258 63.4767 72.0229 62.5682 69.6632V69.5977ZM49.8676 74.4885C48.6447 73.6412 49.2158 72.3854 48.7921 71.0325C50.406 71.8318 50.4715 72.1572 49.8676 74.5213V74.4885ZM73.0183 102.97C72.5815 101.414 72.2277 99.8361 71.958 98.243C71.7789 98.3401 71.388 98.5028 70.7688 98.7802C69.3504 97.1499 67.85 95.3405 66.4152 93.5475C64.7849 91.4772 63.2693 89.2922 61.5243 87.2874C58.9932 84.6175 55.9848 82.4445 52.6555 80.8798C47.2918 77.962 41.8473 75.1896 36.3526 72.3854C35.4397 71.9126 34.4613 71.62 33.5156 71.228C29.055 69.2264 24.8466 66.704 20.9789 63.7131C20.8052 63.5875 20.6611 63.4237 20.5596 63.2337C20.458 63.0448 20.4012 62.8352 20.3925 62.6201C21.7946 63.1912 23.2283 63.7131 24.6304 64.2504C29.958 66.3502 35.4942 67.8746 41.1462 68.7995L42.3517 69.0277C44.4548 69.4841 44.374 69.5005 44.5695 71.62C44.6514 72.5001 44.3904 73.7395 46.0687 74.2287C46.0687 72.8583 46.0687 71.6527 46.0687 70.4953C46.868 70.1196 47.4544 70.3642 47.3245 71.0325C46.8189 73.7395 48.613 74.945 50.5851 76.1035C53.659 77.9511 56.5526 80.0859 59.2257 82.4773C59.4529 82.6269 59.6702 82.7907 59.8777 82.9665C63.9539 87.4173 68.4375 91.5089 71.8116 96.5635C72.4122 97.4808 72.9571 98.433 73.4419 99.4168C73.7684 100.052 74.1266 100.215 74.7621 99.5795C73.3327 95.88 71.1063 92.5408 68.241 89.7978C66.3825 87.9065 64.6222 85.9333 62.6818 84.1403C60.4324 82.1028 58.0191 80.2115 55.6714 78.2711C54.99 77.7043 54.265 77.1911 53.5039 76.7391C52.7996 76.3864 52.246 75.7912 51.9468 75.0629C51.6465 74.3357 51.6203 73.5232 51.8736 72.7774C53.3936 73.5254 54.8732 74.3521 56.308 75.2551C58.2965 76.6572 60.1878 78.2066 62.0626 79.7714C62.7855 80.3742 63.432 81.0643 63.9867 81.8254C64.6386 82.6891 65.617 82.901 66.4152 83.4557C67.7758 84.4679 68.9835 85.6702 70.0023 87.0264C71.8608 89.4385 73.5882 91.9173 75.284 94.4932C75.6029 95.1658 75.8278 95.8789 75.9523 96.6127C75.3168 97.2973 74.4858 97.9328 75.2349 99.0248C75.9851 100.118 76.4579 100.02 77.29 99.3349C77.6656 98.9494 78.0041 98.529 78.3 98.0792C79.0928 96.9949 80.0308 96.023 81.0878 95.1942C80.5407 95.9193 80.1269 96.7361 79.8659 97.6063C79.6301 99.3153 78.8253 100.894 77.5826 102.09C77.0934 102.645 76.8172 103.264 77.9091 103.72C79.0994 102.514 80.2896 101.259 81.5442 100.069C82.9234 98.7027 84.3713 97.4076 85.8815 96.1879C88.1517 94.3654 90.519 92.6674 92.9727 91.1016C95.0747 89.8764 97.2531 88.7877 99.4938 87.841C103.194 86.2107 106.944 84.5804 110.63 82.8693C113.124 81.6954 115.52 80.3087 118.014 79.054C119.172 78.4665 120.379 78.0101 121.52 77.4237C124.291 76.0053 127.112 76.8046 129.916 77.1955C131.122 77.3582 132.313 77.7983 133.323 76.608L134.953 78.0756C135.263 77.8965 135.573 77.8146 135.703 77.6192C135.973 77.1005 136.398 76.6779 136.916 76.4093C137.436 76.1407 138.026 76.0402 138.605 76.1188C138.734 76.144 138.868 76.144 138.996 76.1188C143.887 74.4885 149.088 73.9185 153.848 71.7827C156.31 70.6743 158.903 69.8106 161.397 68.7831C162.214 68.3976 163.004 67.9565 163.761 67.4629C163.761 67.3319 163.761 67.1855 163.63 67.0381C163.288 67.0381 162.881 66.7618 162.587 66.859C158.576 68.3102 154.436 69.2886 150.62 71.3917C149.694 71.8209 148.712 72.1179 147.703 72.2719C145.105 72.8266 142.512 73.3693 139.926 73.9022C139.551 73.984 139.159 73.9022 138.524 74.0321L140.366 71.0489C140.252 70.9353 140.154 70.8043 140.039 70.6743C139.65 70.7824 139.281 70.9528 138.947 71.1799C138.067 72.0273 137.317 72.9893 136.421 73.8366C135.867 74.2854 135.277 74.6884 134.66 75.0433C134.66 73.152 136.861 72.7447 136.486 70.8534C136.067 70.9408 135.668 71.1068 135.312 71.3426C134.35 72.2882 133.454 73.3147 132.508 74.2931C131.856 74.9777 131.203 75.7443 129.867 75.0105L131.937 72.3046C131.301 71.6036 130.845 71.9126 130.438 72.3046C129.685 72.9849 128.998 73.7318 128.383 74.5377C127.959 75.1415 127.552 75.4669 126.883 75.2715C124.209 74.4733 121.992 75.6307 119.743 76.9018C118.732 77.4401 117.753 78.0101 116.759 78.5321L116.481 78.1903L120.003 71.8154C121.632 71.2826 123.293 70.8523 124.976 70.5269C129.278 69.7451 133.668 69.5704 138.018 70.0061C140.777 70.3336 143.56 70.4101 146.332 70.2343C146.462 70.2496 146.594 70.2496 146.724 70.2343C151.011 69.1412 155.316 68.1639 159.538 66.9737C162.799 66.0281 165.831 64.9678 169.32 65.5061C171.374 65.8326 173.477 65.8326 175.678 66.3054C175.207 66.5893 174.71 66.8296 174.195 67.0217C170.387 68.2589 166.672 69.7626 163.076 71.5217C159.816 72.9565 156.391 74.1959 153.034 75.4997C152.658 75.6624 152.251 75.7443 151.892 75.9398C148.816 77.5963 145.499 78.757 142.062 79.3794C139.675 80.1536 137.334 81.0632 135.051 82.1028C130.812 83.5212 126.557 84.9396 122.237 86.048C120.222 86.3406 118.191 86.4924 116.156 86.5044C114.526 86.6835 112.895 87.1072 111.379 87.4173L106.015 88.4612C101.505 89.4964 97.1712 91.1878 93.1528 93.482C90.3989 94.9463 87.8262 96.7306 85.4895 98.7966C84.0655 99.9224 82.8513 101.292 81.9035 102.84C81.4569 103.579 81.209 104.422 81.1861 105.285C81.2232 106.022 81.0408 106.754 80.6641 107.388C77.8097 112.11 75.4391 117.108 73.5882 122.305C72.659 124.555 71.5692 126.734 70.3276 128.826C69.9149 129.683 69.5611 130.565 69.2685 131.468C68.1667 135.051 66.686 138.504 64.8504 141.772C64.2979 139.163 64.703 136.443 65.9915 134.109C66.3999 133.6 66.7603 133.055 67.0671 132.479C67.3281 131.842 67.41 131.174 68.3556 131.174C69.0403 131.174 69.3503 130.701 69.4148 129.936C69.5447 128.929 69.7631 127.937 70.0678 126.968C70.7841 124.213 71.5179 121.458 72.219 118.703C72.219 118.327 72.1218 117.887 72.219 117.496C72.1796 116.341 72.4985 115.202 73.1318 114.236C73.4911 113.589 73.6614 112.854 73.621 112.116C73.5577 111.133 73.5467 110.149 73.5882 109.166C73.9235 107.097 73.727 104.976 73.0183 103.003V102.97ZM47.1127 116.176C47.9764 120.43 48.7429 124.702 49.5259 128.958C49.5259 129.365 49.5259 129.772 49.6886 130.164L52.4764 142.44C52.531 142.633 52.5408 142.837 52.5048 143.035C52.4676 143.234 52.3857 143.42 52.2645 143.581C51.3025 141.021 50.3732 138.446 49.3949 135.87C48.8565 134.484 48.2865 133.115 47.6674 131.762C46.7862 129.854 45.8569 127.963 44.944 126.071C44.7639 125.71 44.6689 125.31 44.6689 124.906C44.6689 124.501 44.7639 124.103 44.944 123.74C45.3524 122.697 45.6123 121.604 46.0043 120.35C44.3741 120.35 44.6186 122.192 43.2329 122.534C43.0364 121.849 42.5483 121.131 42.6782 120.545C43.3793 117.529 44.2266 114.562 45.1231 111.187C46.119 112.697 46.796 114.395 47.1127 116.176ZM43.8521 105.905L44.4068 106.002C44.9113 109.85 42.7765 113.111 41.8473 116.942C41.4148 116.695 41.0883 116.297 40.93 115.826C40.7706 115.355 40.7892 114.841 40.9824 114.382C41.9608 111.567 42.9174 108.737 43.8521 105.889V105.905ZM52.8029 165.671C52.7614 164.928 52.7614 164.182 52.8029 163.438C52.8127 160.927 52.5113 158.425 51.9053 155.988C51.4379 153.471 50.7161 151.007 49.7541 148.635C48.6774 146.272 47.5036 143.891 46.3297 141.673C43.9503 137.419 41.358 133.277 39.0103 128.99C36.3831 124.225 34.6491 119.021 33.8913 113.633C33.5156 110.877 32.7174 108.204 32.261 105.482C31.608 102.074 31.0707 98.6666 30.4341 95.2586C29.5584 89.9343 27.5994 84.8468 24.6795 80.3087C24.5256 79.98 24.4055 79.636 24.3214 79.2822C26.7881 80.2835 28.9873 81.8461 30.7442 83.8466C32.9128 86.6344 34.885 89.5859 36.8418 92.52C38.7985 95.4552 40.5915 98.3401 42.4336 101.259C42.8475 101.882 43.2013 102.542 43.4929 103.231C43.6348 103.604 43.6348 104.016 43.4929 104.388C42.2873 107.046 40.9824 109.655 39.7595 112.361C39.4919 112.128 39.3074 111.815 39.2331 111.468C39.16 111.12 39.2014 110.759 39.3521 110.437C39.8413 109.035 40.265 107.585 40.657 106.15C40.7236 105.532 40.7236 104.908 40.657 104.291C39.0267 105.416 39.4013 107.275 37.9337 108.187L35.978 103.297C34.9832 104.063 35.4233 104.927 35.6188 105.465C36.2062 107.356 36.9072 109.199 37.5919 111.041C38.4392 113.323 39.4668 115.556 40.1351 117.887C41.2183 121.464 42.6488 124.926 44.4068 128.224C46.8026 133.115 48.5311 138.12 50.4552 143.141C51.1879 145.098 51.5143 147.201 52.0854 149.238C52.4272 150.542 52.8346 151.831 53.161 153.151C53.3314 153.802 53.4296 154.468 53.4548 155.14C53.3565 156.677 53.3565 158.218 53.4548 159.754C53.8413 162.442 53.6862 165.18 52.9983 167.807C52.9492 167.09 52.8509 166.372 52.8029 165.656V165.671ZM58.4112 152.238C58.623 150.429 58.9812 148.635 59.193 146.809C59.5195 143.988 59.7805 141.169 60.0895 138.348C60.1561 137.749 60.2653 137.155 60.416 136.571C61.1465 133.1 61.1192 129.513 60.3341 126.055C60.1452 126.334 60.0076 126.643 59.9268 126.968C59.7641 129.071 59.6658 131.158 59.5522 133.261C59.5522 134.011 59.5522 134.761 59.4376 135.495C58.6547 140.386 57.8073 145.407 57.0735 150.363C56.878 151.667 56.7961 152.988 56.6662 154.308C56.6662 155.254 56.6662 156.2 56.5515 157.129H55.9979C55.9171 156.646 55.9357 156.152 56.0504 155.675C56.165 155.199 56.3746 154.751 56.6662 154.357V154.243C56.5362 154.08 56.2916 153.917 56.308 153.77C56.7153 148.57 57.2209 143.386 57.5463 138.185C57.7582 135.136 57.6446 132.087 57.7745 129.039C57.9056 126.267 58.1818 123.496 58.3948 120.708C58.5083 119.077 58.6546 117.626 58.7365 116.078C58.8829 113.502 58.9484 110.91 59.0958 108.35C59.1515 107.828 59.3808 107.341 59.7477 106.964C60.2205 108.757 60.7261 110.535 61.1662 112.344C62.209 116.682 63.2529 121.018 64.2149 125.387C65.0044 128.366 64.9083 131.51 63.9375 134.435C62.91 137.174 63.1218 140.027 62.78 142.847C62.78 143.515 62.6327 144.185 62.5027 144.853C61.9808 147.722 61.4751 150.591 60.8724 153.445C60.4978 155.238 59.9595 156.999 59.4703 158.906C60.8888 159.77 60.3996 160.993 59.7641 162.166C58.4756 164.466 57.1226 166.748 55.6387 169.324C55.381 167.229 55.6791 165.103 56.5035 163.161C57.1925 161.461 57.6632 159.681 57.9056 157.863C58.2146 156.021 58.1982 154.097 58.4112 152.222V152.238ZM25.6579 147.152C25.8927 147.582 26.0466 148.051 26.1143 148.537C25.8981 150.834 25.1916 153.058 24.044 155.059C23.6367 152.287 25.1196 149.907 25.1687 147.234L25.6579 147.152ZM24.2067 146.5C23.6367 148.455 23.0329 150.396 22.4301 152.336C22.4301 152.548 22.0872 152.694 21.8099 152.988C21.6308 152.629 21.3862 152.384 21.4189 152.205C21.9081 149.549 22.4137 146.923 22.9674 144.054C23.9949 144.706 24.5332 145.39 24.2067 146.451V146.5ZM31.9836 187.518C29.5376 183.54 27.63 179.219 25.4625 175.046C25.0846 174.104 24.6435 173.189 24.1412 172.307C21.4844 168.525 20.4078 164.057 18.6803 159.868C17.1188 156.271 15.2242 152.827 13.0229 149.58C11.2299 146.679 9.33861 143.891 7.54562 140.972C6.95814 139.933 6.46786 138.841 6.07803 137.712C5.18154 135.3 4.44777 132.821 3.46937 130.441C2.67771 127.801 2.37957 125.037 2.58922 122.289C10.7407 127.979 16.1371 135.674 22.1527 142.684L19.9033 150.412C19.6107 148.988 19.6828 147.513 20.1152 146.124C20.2779 144.804 20.4569 143.484 20.6524 142.065C19.7886 141.854 19.5277 142.228 19.3814 142.945C19.1357 144.379 18.7589 145.787 18.2566 147.152C17.8144 145.806 17.8482 144.35 18.3538 143.027C18.6148 142.342 18.7622 141.739 17.7183 141.266C17.311 142.456 16.9518 143.548 16.4309 145.114C14.8978 142.929 13.7239 141.184 12.4038 139.342C11.6372 139.767 11.7518 140.549 12.1755 141.25C12.8438 142.342 13.6584 143.336 14.3922 144.397C15.4197 145.896 16.4309 147.429 17.4573 148.928C18.4849 150.429 19.3977 151.847 20.4897 153.2C21.5816 154.553 23.2283 156.15 24.4841 157.716C25.1163 158.509 25.6121 159.401 25.9516 160.357C27.2882 163.846 28.544 167.367 29.7986 170.872C30.7934 173.325 31.4093 175.914 31.6244 178.551C31.8843 180.555 32.5089 182.494 33.4665 184.274C34.9505 187.534 36.6135 190.892 38.2602 194.169C39.0387 195.38 39.5902 196.723 39.8905 198.131C37.0536 194.43 34.2167 191.17 31.9836 187.469V187.518ZM46.0207 246.046C45.8318 246.616 45.4496 247.102 44.9408 247.421C44.4319 247.739 43.8281 247.869 43.2329 247.79C43.0036 247.724 42.7929 247.608 42.6138 247.452C42.4347 247.295 42.2917 247.102 42.1956 246.884C42.0995 246.667 42.0514 246.431 42.0558 246.193C42.0602 245.955 42.117 245.721 42.2218 245.507C42.4293 245.001 42.818 244.59 43.3126 244.355C43.8073 244.12 44.3719 244.077 44.8949 244.236C45.8733 244.545 46.297 245.23 46.0207 245.997V246.046ZM46.8681 224.64C46.3953 227.998 45.8569 231.373 45.5959 234.747C45.4169 237.226 45.596 239.72 45.6942 242.329L42.4336 242.671C42.3594 242.191 42.3267 241.705 42.3354 241.219C42.5319 239.182 42.8246 237.161 43.0211 235.123C43.4776 230.46 43.934 225.798 44.3085 221.135C44.4068 220.075 44.0639 218.966 44.1294 217.874C44.243 215.819 44.5204 213.765 44.6831 211.695C44.7606 211.035 44.7213 210.368 44.5695 209.723C44.2102 208.434 43.6894 207.163 43.281 205.891C42.6531 204.388 42.3211 202.777 42.3037 201.147C42.2753 200.062 42.0547 198.991 41.6507 197.984C41.1877 196.488 40.6439 195.019 40.0204 193.583C39.2058 191.741 38.2602 189.963 37.3473 188.154L34.625 182.855L36.4508 177.393C34.8205 177.296 35.0968 178.927 34.2985 179.497C33.3201 177.997 33.223 177.866 34.2003 175.258C34.7223 173.937 34.7058 172.274 36.2553 171.28L35.5379 169.927C33.532 170.71 34.315 173.041 32.8801 174.247C32.6497 173.973 32.4935 173.646 32.4247 173.295C32.3559 172.945 32.3778 172.582 32.4892 172.242C33.0264 170.71 33.6466 169.226 34.1195 167.694C34.2833 167.279 34.328 166.828 34.2494 166.389C34.0649 165.742 33.8301 165.11 33.5484 164.497C32.9129 166.324 32.2773 168.15 31.6571 169.976L31.0871 169.829C29.6359 167.334 31.6735 165.329 32.2774 163.064C32 162.509 31.5436 162.509 31.2007 162.982C30.5488 163.911 29.994 164.922 29.2286 166.242C28.331 163.813 27.5983 161.58 26.6854 159.281C27.9248 157.658 28.5428 155.646 28.4293 153.607C26.799 153.054 27.3864 154.879 26.5216 155.238C26.3677 153.592 26.6254 151.933 27.2718 150.412C28.6084 151.031 28.8202 152.353 29.2123 153.379C30.3752 156.63 31.798 159.78 33.4665 162.803C33.6325 163.233 33.7471 163.682 33.8093 164.139C35.1077 165.322 36.0216 166.867 36.4344 168.574C36.9094 170.05 37.3014 171.553 37.6083 173.074L38.9776 178.502C40.6079 183.084 42.2382 187.648 43.6075 192.294C43.9744 194.092 44.1437 195.923 44.1131 197.756C44.2125 201.277 44.6994 204.775 45.5643 208.19C45.7434 208.825 46.2653 209.38 46.3625 210.016C46.6071 211.841 47.6837 213.7 47.4391 215.363C46.998 218.412 47.2918 221.526 46.8681 224.591V224.64ZM57.1227 196.223C54.9868 198.865 52.9819 201.603 50.9443 204.375C50.4715 205.011 50.0795 205.729 49.4276 206.755C49.3676 206.306 49.3676 205.851 49.4276 205.402C50.1822 202.439 51.5416 199.663 53.422 197.251C54.5238 195.839 55.5262 194.351 56.4216 192.8C59.8907 188.019 63.6711 183.472 67.7364 179.186C67.9199 178.99 68.1153 178.804 68.3228 178.633L68.7302 178.763C68.6723 179.189 68.5794 179.608 68.4528 180.018C67.6054 181.861 66.8225 183.703 65.8452 185.512C65.5372 186.1 65.1594 186.647 64.7194 187.142C62.1762 190.175 59.6003 193.126 57.1227 196.175V196.223ZM65.9587 190.061C64.7357 190.966 63.4505 191.783 62.1118 192.506L61.8181 192.132C62.2909 191.708 62.7145 191.251 63.2037 190.859C63.6929 190.469 64.133 190.419 64.3612 190.061C67.6218 184.681 72.5126 180.703 76.8335 176.285C78.9202 174.166 81.2833 172.323 83.3547 170.253C85.4251 168.183 87.3972 166.063 89.4031 163.96C90.2832 163.031 91.1961 162.102 92.0107 161.123C92.3525 160.61 92.6418 160.064 92.8755 159.493C93.0862 158.902 93.3953 158.352 93.7884 157.863C95.2297 156.369 96.4189 154.651 97.3099 152.776C98.3047 151.413 99.3934 150.122 100.571 148.912C101.448 147.877 102.239 146.77 102.935 145.603C103.213 144.891 103.264 144.111 103.081 143.369C105.548 139.761 108.015 136.169 110.482 132.593L110.825 132.804C109.814 134.778 108.803 136.75 107.776 138.706L100.978 151.749C99.3497 154.727 97.3972 157.514 95.1576 160.063C91.1633 164.775 87.2017 169.487 83.1101 174.116C77.7727 179.811 72.0409 185.122 65.9587 190.012V190.061ZM140.953 160.389C141.056 160.064 141.187 159.747 141.344 159.444C142.469 157.814 143.643 156.086 144.718 154.341C145.419 153.2 145.958 151.944 146.577 150.738L147.833 148.423C148.106 148.013 148.357 147.588 148.583 147.152C151.745 139.995 155.626 133.164 158.12 125.713C158.768 124.146 159.514 122.622 160.353 121.148C161.983 117.887 163.402 114.758 164.984 111.611C165.588 110.418 166.362 109.321 167.282 108.35L167.918 108.709C167.755 109.182 167.641 109.655 167.445 110.095C166.151 112.801 164.858 115.518 163.565 118.246C162.75 119.877 161.837 121.637 161.07 123.382C160.108 125.549 159.326 127.8 158.348 129.903C157.06 132.756 155.69 135.561 154.305 138.348C152.446 142.098 150.376 145.766 148.663 149.58C147.008 153.221 144.851 156.612 142.257 159.656C142.096 159.855 141.897 160.019 141.668 160.137C141.441 160.255 141.192 160.325 140.937 160.34L140.953 160.389ZM38.2438 177.687L39.0103 178.454C38.9121 178.698 38.7985 178.943 38.5048 179.628C38.2602 178.746 38.1139 178.29 37.9828 177.817L38.2438 177.687Z" fill="#101A24"/>
</g>
</svg>
