<svg width="316" height="171" viewBox="0 0 316 171" fill="none" xmlns="http://www.w3.org/2000/svg">
<g opacity="0.1">
<path d="M255.74 137.653C256.515 136.917 256.337 135.984 256.316 135.029C256.344 133.781 256.471 132.538 256.695 131.311C258.194 131.579 259.708 131.764 261.228 131.867C262.898 131.867 264.091 131.052 264.091 129.88C264.121 128.687 263.876 127.503 263.376 126.419C261.6 123.272 258.86 120.777 255.561 119.301C250.632 116.752 245.438 114.752 240.072 113.336C240.544 113.158 241.03 113.018 241.523 112.919C243.234 112.919 244.963 112.919 246.654 112.74C248.103 112.559 249.52 112.185 250.868 111.627C253.394 110.573 253.891 109.181 252.857 106.715C252.44 105.781 251.883 104.886 251.107 103.415C254.19 104.468 256.695 105.284 259.16 106.198C261.009 106.874 262.759 107.789 264.628 108.385C267.478 109.269 270.164 110.612 272.582 112.362C274.487 113.808 276.479 115.136 278.546 116.339C279.079 116.747 279.704 117.018 280.367 117.129C281.028 117.239 281.708 117.185 282.345 116.97C282.98 116.756 283.555 116.39 284.016 115.901C284.476 115.413 284.811 114.819 284.988 114.172C285.247 113.635 285.426 113.078 285.684 112.402C286.698 112.74 287.673 113.138 288.627 113.356C291.947 114.112 293.618 112.263 292.603 109.042C292.222 107.763 291.524 106.602 290.576 105.664C289.627 104.725 288.458 104.041 287.176 103.673L283.795 102.261L283.975 101.744C287.255 102.52 290.536 103.236 293.916 104.051C298.548 105.244 303.162 106.576 307.834 107.67C308.928 107.946 310.084 107.836 311.106 107.357C312.128 106.879 312.953 106.062 313.441 105.045C314.435 103.375 314.078 101.764 312.368 99.6966C311.791 99.0006 311.294 98.245 310.658 97.3702C312.01 96.6942 313.104 96.2169 314.118 95.6006C314.599 95.3991 315.009 95.0589 315.296 94.6232C315.583 94.1877 315.734 93.6765 315.728 93.155C315.628 92.0415 314.754 91.6637 313.739 91.3257C308.344 89.5124 302.556 89.2031 296.997 90.431C293.071 91.4264 289.012 91.8021 284.969 91.5444C287.216 90.1327 289.482 88.7408 291.729 87.3093C292.363 87.0367 292.879 86.5457 293.182 85.9254C293.484 85.3052 293.554 84.5968 293.379 83.9292C293.022 82.1198 292.425 81.4039 290.496 81.225C289.06 81.186 287.624 81.2658 286.201 81.4636C285.651 81.5567 285.106 81.6829 284.571 81.8414C284.355 81.2494 284.016 80.7098 283.576 80.258C283.137 79.8061 282.607 79.4522 282.022 79.2194C281.435 78.9866 280.808 78.8802 280.178 78.9072C279.548 78.9342 278.931 79.0938 278.368 79.3759C273.417 80.9864 269.619 84.3665 265.661 87.4684C262.184 90.5768 258.337 93.2478 254.209 95.4216C252.897 94.5468 251.526 93.4333 250.034 92.7175C248.815 91.9654 247.466 91.4463 246.057 91.1865C243.433 90.928 240.768 91.1865 238.104 90.9877C237.465 91.0856 236.812 91.0438 236.191 90.8654C235.57 90.6869 234.994 90.3759 234.505 89.9537C236.011 89.4101 237.647 89.3338 239.198 89.735C243.055 90.2719 245.043 88.3233 244.089 85.0624C244.055 84.8718 244.055 84.6766 244.089 84.4858C244.487 84.2472 244.923 84.0087 245.342 83.7104C247.33 82.418 246.435 80.5887 244.904 79.9127C244.364 79.6554 243.771 79.5326 243.174 79.5548C240.888 79.694 238.601 79.9127 236.314 80.1513C235.26 80.2508 234.187 80.7478 233.233 79.7934C234.027 78.9884 235.003 78.3871 236.081 78.0409C237.158 77.6946 238.302 77.6138 239.416 77.805C243.593 78.1416 247.729 78.8807 251.763 80.0121C254.252 80.6662 256.775 81.1839 259.32 81.563C263.137 82.0005 265.284 79.2367 264.191 75.5981L263.812 74.3255C264.42 74.1445 265.017 73.932 265.602 73.6893C267.432 72.7746 267.472 72.0986 266.319 70.3092C265.745 69.3928 264.892 68.6853 263.887 68.2913C262.88 67.8974 261.774 67.8381 260.731 68.122C260.21 68.2462 259.666 68.2384 259.148 68.0996C258.632 67.9607 258.158 67.6951 257.769 67.3266C258.896 66.7104 260.09 66.2236 261.328 65.8751C264.407 65.14 267.567 64.7993 270.732 64.861C272.865 64.7842 274.987 64.5248 277.075 64.0856C278.318 63.8502 279.44 63.1897 280.249 62.2175C281.058 61.2453 281.504 60.0217 281.51 58.7569C281.53 57.6328 281.191 56.5316 280.539 55.6151C279.888 54.6988 278.959 54.0158 277.89 53.6669C277.194 53.3677 276.528 53.0014 275.902 52.5733C275.444 48.358 274.828 47.7814 270.832 47.682C270.593 47.682 270.335 47.682 270.076 47.682C266.993 47.75 263.999 48.7252 261.467 50.4855C259.481 51.9458 257.233 53.0122 254.846 53.6271C255.88 51.6388 256.039 50.1077 254.746 48.7954C252.758 46.8071 250.889 48.0001 249.099 49.193L248.483 48.4773C247.091 46.827 246.196 46.7276 244.726 48.2585C243.779 49.1236 243.009 50.1633 242.458 51.3206C240.112 57.2856 237.05 63.2505 235.817 69.6529C235.766 70.2185 235.55 70.7568 235.196 71.2017C234.843 71.6466 234.368 71.979 233.828 72.1583L228.281 74.1465C227.148 71.9594 225.378 71.4822 222.714 71.9396C223.43 70.9653 223.708 70.1501 224.166 69.9512C225.776 69.5336 225.936 68.2015 226.154 66.9886C226.313 66.1164 226.386 65.2306 226.372 64.3441L223.55 62.0178C224.401 60.4193 225.708 59.111 227.307 58.2599C230.514 56.496 233.244 53.9778 235.26 50.923C235.9 49.555 236.91 48.3929 238.175 47.5674C239.439 46.7418 240.908 46.2857 242.418 46.2504C243.353 46.2504 244.288 45.9919 245.222 45.9322L260.313 45.0176C262.892 44.8496 265.412 44.174 267.73 43.0293C268.425 42.7047 269.02 42.2001 269.454 41.5678C269.888 40.9356 270.144 40.1986 270.196 39.4336C270.25 38.6686 270.097 37.9034 269.754 37.2176C269.411 36.5317 268.89 35.9502 268.247 35.5333C267.908 35.3146 267.631 35.0164 267.113 34.5988C269.42 33.1672 269.241 31.2186 268.863 29.0712C268.625 27.6397 267.889 27.0829 266.676 27.0829C265.239 27.247 263.817 27.5194 262.422 27.8982C261.546 28.077 260.691 28.3356 259.259 28.7134C259.594 28.0146 259.994 27.3489 260.452 26.725C263.296 23.8817 266.179 21.0782 269.062 18.2746C270.171 17.4054 271.072 16.2989 271.698 15.0362C272.324 13.7736 272.66 12.3868 272.681 10.9775C272.669 10.3049 272.504 9.64376 272.198 9.04517C271.89 8.44659 271.449 7.92651 270.91 7.52501C270.37 7.12352 269.745 6.85133 269.083 6.72942C268.422 6.60753 267.742 6.63916 267.094 6.8219C266.319 7.06051 265.523 7.23946 264.588 7.49794C264.588 6.64296 264.588 6.14588 264.43 5.6488C264.336 4.39884 263.793 3.22501 262.902 2.34419C262.009 1.46336 260.828 0.935076 259.578 0.856934C256.794 0.976233 254.666 1.9704 254.23 4.97276C253.991 6.92771 253.578 8.85744 252.996 10.7389C251.983 13.7214 250.75 16.7039 249.537 19.5472C249.201 20.1644 248.801 20.7441 248.344 21.277L247.787 21.118C247.586 20.3431 247.459 19.5508 247.409 18.7519C247.409 16.3658 247.588 13.96 247.608 11.574C247.727 9.93468 247.659 8.28722 247.409 6.66284C247.3 6.0902 247.051 5.55373 246.682 5.10216C246.314 4.65058 245.839 4.29818 245.299 4.07696C244.76 3.85574 244.174 3.7727 243.594 3.83539C243.015 3.89808 242.46 4.1045 241.982 4.43592C240.864 4.89542 239.866 5.60334 239.064 6.50597C238.26 7.4086 237.674 8.4822 237.348 9.64532C237.323 9.94928 237.223 10.2421 237.055 10.4971C236.888 10.7521 236.659 10.9613 236.391 11.1055C236.122 11.2498 235.822 11.3245 235.516 11.323C235.211 11.3215 234.912 11.2437 234.644 11.0968C234.145 10.9504 233.61 10.9701 233.123 11.153C232.635 11.3358 232.22 11.6719 231.94 12.1109C231.314 12.8854 231.001 13.8668 231.064 14.8609C231.127 15.855 231.56 16.7894 232.278 17.4793C232.715 17.9565 233.371 18.4735 233.432 19.0501C234.083 22.758 234.23 26.5368 233.868 30.2841C233.531 32.3918 233.233 34.5192 233.073 36.6468C232.907 38.9468 231.842 41.0892 230.111 42.6118C229.212 41.927 228.35 41.197 227.526 40.4246C227.168 40.0269 226.83 39.2117 227.009 38.8538C228.262 36.3286 227.705 33.0678 230.191 31.0596C230.41 30.7951 230.543 30.4684 230.568 30.125C230.747 27.5601 231.046 24.9952 231.025 22.4502C231.006 19.905 230.409 19.4478 227.745 19.4478C227.47 19.3887 227.207 19.2809 226.969 19.1296C226.953 18.6287 227 18.1277 227.108 17.6384C227.298 17.0686 227.369 16.4662 227.318 15.8679C227.267 15.2696 227.094 14.688 226.81 14.1589C226.667 13.6333 226.37 13.1629 225.955 12.8094C225.542 12.4559 225.03 12.2358 224.488 12.1778C223.947 12.1198 223.401 12.2266 222.921 12.4842C222.441 12.742 222.05 13.1385 221.8 13.622C221.216 14.8862 220.808 16.2241 220.587 17.5986C219.808 15.9201 219.222 14.1593 218.838 12.3495C218.454 9.79853 217.434 7.38499 215.874 5.33066C215.507 4.64682 214.968 4.0717 214.307 3.66329C213.648 3.25486 212.892 3.02757 212.116 3.00433C211.298 2.94896 210.484 3.17507 209.812 3.6452C209.139 4.11531 208.648 4.80121 208.418 5.58915C208.224 5.92588 207.983 6.23373 207.703 6.50378C207.483 6.50378 207.384 6.50378 207.305 6.50378C206.33 6.00669 205.316 5.46985 204.382 4.97276C203.975 4.68059 203.499 4.49522 203.002 4.43357C202.504 4.37194 201.999 4.43598 201.532 4.61988C201.066 4.80378 200.652 5.10165 200.33 5.48632C200.009 5.87097 199.788 6.33014 199.689 6.8219C199.382 7.63053 199.286 8.50452 199.411 9.36069C199.536 10.2169 199.879 11.0267 200.406 11.7132C202.016 13.8208 203.746 15.829 205.396 17.9167C205.768 18.4727 206.094 19.0578 206.37 19.6665L205.932 19.9846C205.078 19.4876 203.806 19.1694 203.448 18.4138C202.394 16.167 200.247 15.6302 198.377 14.7156C197.852 14.4536 197.278 14.3108 196.691 14.2972C196.105 14.2837 195.524 14.3998 194.988 14.6373C194.452 14.8748 193.976 15.2278 193.592 15.671C193.209 16.1142 192.928 16.6366 192.77 17.2009C192.329 17.9466 192.153 18.8189 192.268 19.6774C192.384 20.5358 192.784 21.3303 193.407 21.9332C193.625 22.1121 193.644 22.5296 193.804 22.9671C193.407 23.2256 193.049 23.4442 192.73 23.6829C189.768 25.9695 189.45 28.1765 192.134 30.7812C193.632 32.1607 195.37 33.2527 197.264 34.0023C200.266 35.2152 203.467 35.9906 206.51 37.0445C209.34 37.9574 211.884 39.5957 213.886 41.7966C213.82 42.0101 213.734 42.2166 213.627 42.4129C211.998 44.9977 209.651 47.1452 208.657 50.1474C207.894 51.9086 206.564 53.3642 204.879 54.2832C205.098 52.9908 205.276 52.1557 205.376 51.3405C205.628 50.171 205.755 48.9778 205.754 47.7814C205.76 47.053 205.58 46.3351 205.233 45.6951C204.884 45.0551 204.38 44.5141 203.766 44.1229C202.851 43.6655 201.041 44.8784 200.048 46.3896C199.451 47.3042 198.794 48.1592 198.178 49.054C197.398 48.566 196.496 48.3055 195.576 48.3015C194.655 48.2976 193.752 48.5505 192.967 49.0317C192.182 49.5129 191.546 50.2036 191.132 51.0258C190.719 51.8481 190.542 52.7696 190.623 53.6868C190.734 55.7416 190.331 57.7919 189.45 59.6517C188.526 59.3892 187.564 59.2882 186.607 59.3534C185.679 59.5506 184.81 59.9605 184.068 60.5504C183.327 61.1405 182.732 61.8945 182.331 62.7535C181.775 64.079 181.238 65.4046 180.721 66.7301C180.611 67.2616 180.394 67.7652 180.083 68.2096C179.772 68.6542 179.374 69.0303 178.912 69.315C178.996 68.5864 179.15 67.8674 179.369 67.1676C180.899 63.6482 182.59 60.1687 184.022 56.5896C184.883 54.4542 185.548 52.2446 186.01 49.9885C186.122 49.2969 186.001 48.5878 185.666 47.9724C185.331 47.3569 184.802 46.8702 184.161 46.5884C183.586 46.2009 182.896 46.0213 182.206 46.0791C181.515 46.1369 180.865 46.4288 180.363 46.9065C180.124 47.1253 179.807 47.2844 179.547 47.5229C178.574 48.3977 177.818 47.9802 177.182 47.1054C176.929 46.6622 176.703 46.204 176.506 45.7334C175.372 43.745 173.284 43.606 171.355 43.4866C169.427 43.3673 168.651 44.6994 167.936 46.151C167.384 47.1114 167.028 48.1718 166.888 49.2706C166.748 50.3695 166.827 51.4852 167.121 52.5534C167.944 55.1189 168.201 57.8321 167.876 60.5066C167.583 59.5917 167.082 58.7568 166.412 58.0671C165.744 57.3773 164.924 56.8513 164.019 56.53C162.249 55.7943 161.036 55.8937 160.778 57.5838C160.241 61.0237 158.193 61.8985 155.231 61.9184C155.091 61.9184 154.932 61.7792 154.873 61.7593C153.481 57.0271 152.148 52.3545 150.718 47.7018C149.286 43.0492 148.152 42.6118 144.016 44.4013C142.803 43.5065 141.472 42.7111 139.9 43.8644C138.72 44.6973 137.882 45.9303 137.542 47.3345C137.201 48.7389 137.383 50.2188 138.051 51.4996C136.54 50.2071 135.586 49.372 134.611 48.5767C133.647 47.7326 132.631 46.9489 131.569 46.2305C130.782 45.6346 129.835 45.2858 128.849 45.2285C127.863 45.171 126.882 45.4073 126.031 45.9077C125.179 46.4079 124.495 47.1496 124.065 48.0389C123.635 48.9281 123.479 49.9249 123.616 50.9031C123.674 51.5399 123.78 52.1714 123.935 52.792C123.218 53.3885 122.483 53.965 121.787 54.5815C118.804 57.1066 118.984 60.5066 122.145 62.495C123.734 63.6938 125.682 64.3177 127.672 64.2646C128.447 64.2391 129.216 64.3958 129.919 64.722C133.617 66.233 137.296 67.8038 140.975 69.3945C141.113 69.3945 141.113 69.812 141.153 69.9512C138.568 69.6728 136.024 69.315 133.479 69.136C132.66 69.0218 131.828 69.1954 131.126 69.6271C130.422 70.0588 129.89 70.7215 129.62 71.5021C129.264 72.34 129.206 73.275 129.455 74.1508C129.705 75.0266 130.248 75.7902 130.993 76.3139C131.729 76.9103 132.544 77.3876 133.28 77.984C133.598 78.2425 134.095 78.66 134.055 78.9384C133.756 80.6881 134.313 82.6367 132.961 84.1478C134.103 86.2364 135.982 87.8244 138.231 88.6017C139.256 89.017 140.188 89.6321 140.975 90.4111C142.208 91.4372 143.003 92.8949 143.199 94.4871C143.395 96.0794 142.976 97.6864 142.028 98.9807C141.134 100.452 139.782 100.85 137.654 101.188C138.25 100.174 138.568 99.6568 138.866 99.1994C139.126 98.8541 139.291 98.4477 139.346 98.0197C139.402 97.5917 139.346 97.1565 139.184 96.7565C139.022 96.3564 138.76 96.005 138.422 95.7362C138.083 95.4676 137.682 95.2908 137.256 95.2228C136.441 94.9448 135.567 94.8903 134.724 95.0652C133.881 95.24 133.1 95.6378 132.464 96.2169C131.222 97.2177 129.891 98.1029 128.488 98.8614C131.199 94.4584 132.77 89.4495 133.06 84.287C132.603 80.3104 129.303 80.3104 126.36 80.032C126.36 79.6144 126.36 79.2765 126.26 78.9583C126.132 77.9485 125.672 77.01 124.952 76.2902C124.232 75.5704 123.294 75.1102 122.284 74.9816C121.4 74.7614 120.47 74.8189 119.619 75.1461C118.769 75.4734 118.04 76.0548 117.532 76.8109C117.058 77.4834 116.766 78.2677 116.686 79.0868C116.606 79.9058 116.739 80.7317 117.074 81.4834C117.651 83.4718 118.347 85.4601 119.063 87.349C119.516 88.6138 119.713 89.9564 119.642 91.2982C119.57 92.6399 119.231 93.954 118.646 95.1632C118.248 93.1749 118.028 91.4252 117.512 89.735C117.354 89.269 117.096 88.8438 116.753 88.4901C116.411 88.1364 115.995 87.8631 115.535 87.69C115.074 87.5168 114.581 87.4481 114.091 87.4889C113.601 87.5296 113.126 87.6789 112.7 87.9256C112.134 88.2844 111.59 88.6761 111.07 89.0988C109.966 88.4837 108.695 88.235 107.441 88.3887C106.187 88.5423 105.014 89.0904 104.091 89.9537C103.446 90.4617 102.924 91.1095 102.565 91.8482C102.207 92.587 102.02 93.3975 102.02 94.2188C102.02 95.0399 102.207 95.8504 102.565 96.5892C102.924 97.3279 103.446 97.9757 104.091 98.4837C104.923 99.1621 105.535 100.072 105.85 101.098C106.165 102.125 106.169 103.221 105.86 104.25C105.517 105.488 105.33 106.763 105.304 108.047C105.322 108.996 105.093 109.932 104.64 110.766C104.187 111.599 103.525 112.3 102.719 112.8C101.538 113.66 100.23 114.331 98.8416 114.788C95.6205 115.703 92.3398 116.378 89.0988 117.213C83.0079 119.025 77.032 121.203 71.2039 123.736C66.1734 125.723 61.2622 127.931 56.2517 129.979C51.1353 131.722 46.1683 133.877 41.3989 136.42C38.1777 138.409 34.8573 140.179 31.7952 142.386C26.8444 145.865 22.2911 149.901 16.6442 152.745C16.8068 153.301 17.0622 153.825 17.3998 154.296C18.621 155.425 20.1793 156.123 21.8352 156.281C23.4911 156.439 25.1532 156.049 26.566 155.171C28.7532 153.819 30.8209 152.268 33.0081 150.955C36.7661 148.729 40.5638 146.542 44.4013 144.454C48.2388 142.365 51.8376 140.477 55.5558 138.628C56.5766 138.096 57.5659 137.505 58.5183 136.858C64.3375 133.051 70.5588 129.897 77.0694 127.453C82.4581 125.446 87.9789 123.811 93.5924 122.562C98.1507 121.501 102.843 121.132 107.511 121.468C109.728 121.537 111.943 121.256 114.072 120.634C118.288 119.54 122.403 118.028 126.639 117.035C129.612 116.519 132.667 116.723 135.546 117.632C135.726 117.632 135.825 117.99 136.162 118.426C135.049 118.605 134.175 118.764 133.24 118.864C130.873 119.162 128.467 119.282 126.121 119.699C120.554 120.693 114.967 121.688 109.479 122.92C101.068 124.908 92.5385 126.419 84.3268 129.223C77.9369 131.372 71.6993 133.949 65.6565 136.938C61.4611 139.046 57.3851 141.372 53.3487 143.778C51.4933 145.003 49.7077 146.33 48.0001 147.754C47.4752 148.185 46.9013 148.552 46.2902 148.848C43.4668 150.081 40.6234 151.313 37.7404 152.407C35.1754 153.382 32.5708 154.236 29.9461 155.072C27.3215 155.906 25.0151 156.443 22.5694 157.199C17.181 158.869 11.8722 160.818 6.126 160.977C5.6532 160.973 5.18882 161.102 4.78495 161.347C4.38106 161.594 4.05365 161.947 3.83943 162.369C3.0242 164.138 2.01016 165.888 0.856934 167.876C1.63204 168.421 2.43509 168.926 3.26281 169.387C5.33476 170.248 7.62948 170.416 9.8044 169.865C16.8965 168.407 23.7956 166.131 30.3637 163.084C30.5101 163.365 30.6831 163.632 30.8806 163.88C33.8035 166.703 36.1895 168.294 39.6691 166.564C40.0548 166.41 40.4062 166.182 40.7031 165.892C41 165.602 41.2365 165.256 41.3989 164.874C41.9053 164 42.5813 163.236 43.3872 162.627C43.9439 162.09 44.6199 161.713 45.1966 161.195C48.0598 158.77 50.8633 156.225 53.7862 153.879C55.2685 152.723 56.8524 151.705 58.5183 150.836C59.6595 150.274 60.8512 149.821 62.0775 149.484C63.2108 149.087 64.4038 148.848 65.5173 148.41C71.2621 146.13 77.1627 144.263 83.1736 142.824C89.8253 141.482 96.7113 141.893 103.156 144.016C106.193 144.911 109.142 146.082 111.964 147.515C114.724 148.875 117.082 150.931 118.804 153.481C120.241 155.707 121.835 157.827 123.576 159.824C125.883 162.348 128.528 162.01 130.615 159.187L132.066 157.199L134.353 158.233C137.156 159.426 138.608 158.61 138.847 155.588C138.872 154.737 138.673 153.893 138.27 153.143C137.084 151.037 135.27 149.355 133.081 148.331C132.007 147.754 130.972 147.058 129.919 146.343C130.934 146.076 132.006 146.139 132.982 146.522C137.156 148.509 141.352 150.498 145.428 152.487C148.609 154.196 151.731 153.58 152.904 150.498C153.255 149.277 153.336 147.995 153.143 146.74C152.977 145.881 152.704 145.046 152.328 144.255C152.595 144.159 152.878 144.105 153.162 144.096C155.37 144.553 156.145 142.903 155.847 140.935C155.754 140.028 155.417 139.164 154.871 138.435C154.324 137.707 153.59 137.141 152.745 136.799C149.817 135.317 146.524 134.711 143.26 135.049C142.6 135.115 141.934 135.115 141.273 135.049C139.145 135.049 136.998 135.049 134.87 134.869C133.588 134.801 132.312 134.641 131.052 134.393C130.655 134.393 130.316 133.756 129.72 133.2C130.794 132.755 131.897 132.383 133.02 132.087C133.679 132.031 134.314 131.822 134.878 131.476C135.44 131.131 135.914 130.659 136.262 130.098C136.812 129.336 137.616 128.793 138.529 128.567C140.875 127.832 143.281 127.136 145.467 129.184C146.084 129.553 146.755 129.822 147.456 129.979C150.498 131.211 153.355 132.857 155.946 134.869C156.455 135.167 156.848 135.627 157.06 136.177C157.273 136.725 157.295 137.33 157.12 137.892C156.94 138.628 157.12 139.881 157.518 140.218C158.128 140.656 158.572 141.287 158.778 142.009C158.984 142.731 158.939 143.501 158.65 144.195C158.528 144.784 158.474 145.384 158.491 145.985C158.476 146.309 158.534 146.634 158.658 146.935C158.783 147.236 158.974 147.505 159.215 147.723C159.456 147.943 159.743 148.105 160.055 148.2C160.366 148.294 160.695 148.319 161.017 148.272C161.924 148.086 162.788 147.728 163.562 147.217C164.496 146.681 165.351 145.985 166.544 145.13C166.492 145.531 166.393 145.925 166.246 146.303C164.854 148.45 163.283 150.519 162.109 152.764C161.554 154.012 161.328 155.382 161.454 156.742C161.393 157.311 161.473 157.887 161.687 158.417C161.9 158.948 162.24 159.419 162.678 159.788C163.115 160.158 163.638 160.413 164.196 160.533C164.756 160.655 165.337 160.635 165.888 160.48C166.727 160.329 167.546 160.089 168.334 159.764C168.82 159.598 169.298 159.404 169.766 159.187C169.904 159.724 169.964 160.042 170.064 160.36C170.216 160.934 170.486 161.468 170.856 161.932C171.226 162.395 171.688 162.777 172.214 163.051C172.739 163.327 173.316 163.489 173.907 163.529C174.499 163.569 175.094 163.486 175.65 163.283C176.889 162.686 177.93 161.748 178.652 160.579C180.144 157.935 181.894 155.171 181.794 151.97C181.794 151.691 182.054 151.433 182.371 150.816C182.828 152.129 183.207 153.083 183.505 154.057C183.734 154.704 184.111 155.288 184.603 155.763C185.097 156.24 185.694 156.595 186.347 156.801C187.601 157.338 188.196 156.463 189.052 155.906C189.746 155.63 190.456 155.398 191.179 155.21C191.994 154.833 193.168 154.515 193.486 153.839C193.987 153.143 194.308 152.333 194.419 151.483C194.531 150.633 194.428 149.768 194.122 148.967C193.825 148.071 193.593 147.153 193.426 146.224C192.898 143.175 191.74 140.27 190.026 137.693C188.276 135.527 186.666 133.259 184.678 130.635C186.666 130.635 188.018 130.635 189.43 130.854C191.577 131.031 193.736 130.675 195.713 129.819C196.289 129.581 197.204 128.924 197.144 128.587C196.847 126.778 197.721 124.829 196.587 123.119C196.21 122.583 195.912 122.005 195.375 121.131C197.11 121.293 198.857 120.996 200.442 120.271C202.026 119.545 203.392 118.415 204.402 116.995C203.718 121.252 202.447 125.394 200.624 129.303C200.067 130.271 199.703 131.338 199.551 132.444C199.291 135.626 200.604 137.535 203.527 137.315C203.977 137.288 204.428 137.288 204.879 137.315C205.137 137.892 205.416 138.409 205.655 138.965C205.86 139.705 206.311 140.354 206.931 140.804C207.552 141.256 208.307 141.484 209.074 141.451C209.759 141.41 210.418 141.175 210.974 140.773C211.53 140.372 211.961 139.822 212.216 139.185C213.17 136.64 214.344 134.175 215.436 131.649C217.843 132.226 217.843 132.226 219.771 130.337C220.03 130.794 220.249 131.232 220.527 131.649C223.231 135.626 225.518 136.46 230.13 134.949C232.119 134.274 232.119 134.313 233.631 135.984C234.177 136.634 234.855 137.162 235.618 137.535C237.05 138.191 238.064 137.812 238.402 136.301C238.959 133.796 239.475 131.171 237.706 128.905C236.454 127.295 235.042 125.803 233.73 124.252C233.014 123.438 231.92 122.881 231.979 121.39C232.335 121.451 232.658 121.634 232.895 121.906C235.36 124.392 237.886 126.817 240.291 129.343C241.464 130.595 242.28 132.066 243.472 133.319C244.824 134.969 246.137 136.659 247.628 138.17C248.218 138.975 249.047 139.572 249.996 139.88C250.946 140.186 251.968 140.187 252.916 139.881C253.983 139.312 254.939 138.557 255.74 137.653ZM169.745 96.9129C169.745 93.7912 169.745 93.7912 167.756 91.0871C169.49 90.0325 171.528 89.5913 173.543 89.8344C175.198 89.9439 176.858 89.9439 178.514 89.8344H179.547C178.315 92.6181 173.841 95.8591 169.745 96.9129ZM107.411 130.098C102.182 131.41 96.9726 132.861 91.6836 133.936C84.2991 135.458 77.0509 137.579 70.0109 140.279C68.9571 140.676 67.8833 140.954 66.8096 141.273C66.5787 141.303 66.3447 141.303 66.1137 141.273C82.1596 132.007 99.6369 127.354 117.552 124.233L117.791 124.71C117.385 125.088 116.946 125.427 116.478 125.723C114.191 127.016 112.044 128.11 109.817 129.263C109.046 129.623 108.24 129.903 107.411 130.098ZM139.424 122.145C136.818 123.239 134.135 124.133 131.59 124.929L128.11 122.304L147.456 119.42C147.456 119.64 147.456 119.839 147.595 120.057C145.05 121.369 142.028 121.051 139.424 122.145Z" fill="white"/>
<path d="M179.189 137.216L181.178 135.228C182.471 135.924 181.457 136.997 181.656 137.514C183.365 139.304 184.956 140.815 186.347 142.505C187.382 143.798 187.203 144.215 186.029 145.27L181.197 140.04C179.846 142.923 178.832 145.507 177.48 147.993C176.128 150.479 174.497 152.447 172.946 154.713C171.674 154.057 171.653 153.481 172.231 152.567C173.464 150.578 174.557 148.589 175.929 146.263C175.164 146.469 174.387 146.628 173.602 146.74C173.225 146.74 172.548 146.581 172.509 146.362C172.448 146.136 172.44 145.897 172.484 145.667C172.53 145.436 172.626 145.218 172.768 145.031C173.704 144.433 174.673 143.888 175.671 143.4C176.784 142.803 178.573 143.161 178.772 141.233C178.891 140.04 179.031 138.728 179.189 137.216ZM176.883 155.529C175.77 155.827 175.332 156.722 174.895 157.676C175.829 157.179 176.784 156.741 176.883 155.529ZM163.184 110.97C161.792 112.959 162.13 114.331 164.237 115.643C164.394 114.834 164.382 114 164.2 113.196C164.019 112.392 163.673 111.634 163.184 110.97ZM253.036 140.04C252.087 140.346 251.065 140.346 250.115 140.039C249.167 139.731 248.338 139.133 247.747 138.33C246.256 136.818 244.944 135.129 243.592 133.479C242.498 132.165 241.603 130.695 240.41 129.501C238.004 126.976 235.48 124.551 233.013 122.065C232.777 121.793 232.455 121.61 232.099 121.548C232.099 123.04 233.133 123.537 233.849 124.411C235.201 125.962 236.612 127.453 237.825 129.064C239.595 131.331 239.079 133.955 238.521 136.46C238.184 137.971 237.169 138.449 235.738 137.693C234.973 137.321 234.296 136.793 233.749 136.143C232.239 134.472 232.258 134.433 230.25 135.108C225.637 136.619 223.351 135.864 220.647 131.808C220.368 131.391 220.149 130.953 219.891 130.496C217.903 132.484 217.903 132.484 215.556 131.808C214.463 134.333 213.29 136.799 212.335 139.344C212.08 139.98 211.649 140.531 211.093 140.932C210.537 141.335 209.879 141.569 209.194 141.61C208.427 141.643 207.672 141.415 207.05 140.964C206.43 140.513 205.979 139.865 205.773 139.126C205.535 138.568 205.257 138.051 204.999 137.475C204.548 137.447 204.097 137.447 203.647 137.475C200.664 137.693 199.352 135.785 199.669 132.603C199.821 131.497 200.186 130.429 200.743 129.462C202.565 125.554 203.837 121.411 204.521 117.154C203.511 118.575 202.145 119.704 200.561 120.429C198.977 121.155 197.23 121.452 195.493 121.29C196.031 122.204 196.329 122.782 196.707 123.279C197.84 124.988 196.965 126.937 197.264 128.746C197.264 129.084 196.409 129.74 195.832 129.979C193.842 130.811 191.676 131.139 189.529 130.934C188.117 130.794 186.685 130.794 184.777 130.714C186.765 133.339 188.376 135.605 190.125 137.773C191.84 140.348 192.997 143.255 193.525 146.303C193.692 147.233 193.924 148.149 194.221 149.047C194.528 149.848 194.629 150.713 194.519 151.563C194.408 152.413 194.087 153.223 193.585 153.919C193.227 154.594 192.093 154.912 191.279 155.29C190.555 155.477 189.845 155.71 189.152 155.986C188.296 156.543 187.699 157.418 186.447 156.881C185.767 156.661 185.149 156.282 184.647 155.773C184.145 155.264 183.773 154.641 183.564 153.957C183.266 152.984 182.888 151.97 182.431 150.717C182.113 151.333 181.855 151.592 181.855 151.871C181.855 155.151 180.144 157.835 178.692 160.559C177.97 161.728 176.928 162.666 175.69 163.264C175.132 163.465 174.539 163.548 173.947 163.509C173.355 163.469 172.779 163.306 172.253 163.032C171.728 162.756 171.265 162.376 170.895 161.912C170.525 161.449 170.256 160.914 170.103 160.34C170.003 160.023 169.944 159.704 169.804 159.168C169.338 159.385 168.86 159.578 168.373 159.744C167.586 160.07 166.765 160.309 165.928 160.459C165.385 160.605 164.815 160.618 164.266 160.497C163.716 160.376 163.205 160.124 162.773 159.763C162.343 159.402 162.005 158.943 161.789 158.424C161.573 157.905 161.485 157.342 161.533 156.782C161.407 155.422 161.633 154.052 162.189 152.804C163.363 150.557 164.934 148.49 166.326 146.343C166.472 145.965 166.572 145.571 166.624 145.17C165.431 146.025 164.635 146.721 163.641 147.257C162.867 147.768 162.003 148.126 161.096 148.311C160.772 148.359 160.442 148.333 160.129 148.237C159.816 148.143 159.528 147.978 159.285 147.757C159.044 147.537 158.855 147.265 158.731 146.961C158.608 146.658 158.553 146.331 158.571 146.004C158.554 145.404 158.607 144.803 158.73 144.215C159.018 143.522 159.064 142.751 158.858 142.028C158.652 141.306 158.208 140.675 157.596 140.239C157.139 139.92 157.02 138.648 157.199 137.912C157.372 137.338 157.342 136.722 157.114 136.168C156.885 135.615 156.473 135.155 155.946 134.869C153.316 132.891 150.426 131.284 147.356 130.098C146.656 129.94 145.985 129.672 145.368 129.303C143.181 127.314 140.776 127.951 138.429 128.687C137.57 128.903 136.807 129.399 136.261 130.098C135.922 130.689 135.444 131.189 134.869 131.556C134.295 131.923 133.641 132.146 132.961 132.205C131.837 132.503 130.735 132.874 129.66 133.319C130.257 133.876 130.595 134.433 130.993 134.512C132.252 134.76 133.528 134.92 134.81 134.989C136.938 135.089 139.085 135.129 141.212 135.168C141.874 135.235 142.54 135.235 143.201 135.168C146.465 134.829 149.758 135.436 152.686 136.917C153.562 137.239 154.331 137.797 154.908 138.531C155.484 139.265 155.843 140.146 155.946 141.074C156.244 143.061 155.469 144.692 153.262 144.235C152.977 144.243 152.695 144.297 152.427 144.394C152.803 145.185 153.076 146.02 153.242 146.88C153.435 148.135 153.354 149.417 153.003 150.637C151.831 153.72 148.708 154.336 145.528 152.626C141.551 150.439 137.256 148.51 133.081 146.66C132.105 146.279 131.033 146.216 130.018 146.482C131.072 147.138 132.007 147.834 133.18 148.471C135.369 149.493 137.184 151.176 138.369 153.282C138.772 154.033 138.971 154.876 138.946 155.728C138.707 158.749 137.256 159.566 134.452 158.372L132.087 157.179L130.635 159.168C128.547 161.991 125.903 162.329 123.596 159.803C121.855 157.807 120.26 155.687 118.824 153.46C117.102 150.912 114.744 148.856 111.984 147.496C109.155 146.068 106.199 144.903 103.156 144.016C96.7113 141.893 89.8253 141.482 83.1736 142.824C77.1693 144.264 71.2756 146.131 65.5372 148.41C64.4237 148.848 63.2306 149.087 62.0973 149.484C60.871 149.821 59.6793 150.274 58.5382 150.836C56.8623 151.73 55.2716 152.775 53.7861 153.957C50.8633 156.304 48.0598 158.849 45.1966 161.275C44.6199 161.792 43.9439 162.17 43.3872 162.706C42.5813 163.315 41.9053 164.08 41.3989 164.953C41.2365 165.336 41 165.681 40.7031 165.971C40.4062 166.262 40.0548 166.49 39.669 166.643C36.1895 168.374 33.8034 166.783 30.8806 163.959C30.6831 163.712 30.5101 163.445 30.3637 163.164C23.7921 166.184 16.8932 168.432 9.8044 169.865C7.63587 170.434 5.3413 170.288 3.26281 169.447C2.43376 168.967 1.63068 168.442 0.856934 167.876C2.01016 165.888 3.0242 164.079 4.01837 162.289C4.2326 161.867 4.56001 161.514 4.96389 161.268C5.36777 161.023 5.83214 160.893 6.30494 160.897C12.0512 160.738 17.36 158.789 22.7484 157.12C25.1941 156.364 27.6794 155.747 30.125 154.992C32.5708 154.236 35.3543 153.301 37.9193 152.328C40.8024 151.234 43.6457 150.001 46.469 148.769C47.0802 148.473 47.6542 148.105 48.1791 147.675C49.8866 146.251 51.6722 144.923 53.5277 143.698C57.5042 141.292 61.64 138.965 65.8353 136.858C71.8783 133.869 78.1159 131.292 84.5057 129.144C92.7175 126.34 101.247 124.829 109.658 122.841C115.146 121.528 120.733 120.613 126.3 119.619C128.647 119.202 131.052 119.083 133.418 118.785C134.333 118.685 135.228 118.525 136.342 118.347C136.003 117.91 135.904 117.592 135.725 117.552C132.847 116.643 129.792 116.439 126.817 116.955C122.583 117.949 118.466 119.46 114.251 120.554C112.121 121.176 109.907 121.458 107.69 121.39C103.022 121.054 98.3296 121.421 93.7713 122.483C88.1577 123.731 82.637 125.366 77.2484 127.374C70.6724 129.831 64.3904 133.011 58.5183 136.858C57.5601 137.424 56.5711 137.935 55.5558 138.389C51.8376 140.378 48.0797 142.207 44.4013 144.215C40.7229 146.224 36.7661 148.49 33.0081 150.717C30.8209 152.029 28.7532 153.58 26.566 154.932C25.1532 155.81 23.4911 156.2 21.8352 156.042C20.1793 155.884 18.621 155.187 17.3998 154.057C17.1041 153.579 16.8892 153.055 16.7636 152.506C22.4104 149.663 26.9637 145.627 31.9145 142.147C34.9766 139.98 38.297 138.17 41.5182 136.183C46.2876 133.639 51.2546 131.484 56.371 129.74C61.3616 127.752 66.3126 125.465 71.3231 123.497C77.1513 120.964 83.1272 118.787 89.2181 116.975C92.459 116.14 95.7398 115.464 98.9608 114.549C100.349 114.092 101.657 113.421 102.838 112.561C103.644 112.061 104.306 111.36 104.759 110.527C105.212 109.694 105.441 108.757 105.423 107.809C105.429 106.609 105.576 105.415 105.86 104.25C106.215 103.196 106.237 102.059 105.924 100.992C105.611 99.9253 104.978 98.9802 104.111 98.2848C103.465 97.7768 102.944 97.129 102.585 96.3903C102.227 95.6516 102.04 94.841 102.04 94.0199C102.04 93.1986 102.227 92.3881 102.585 91.6494C102.944 90.9106 103.465 90.2629 104.111 89.7549C105.033 88.8916 106.206 88.3434 107.461 88.1898C108.715 88.0361 109.986 88.2848 111.09 88.8999C111.61 88.4773 112.154 88.0856 112.72 87.7269C113.146 87.48 113.621 87.3309 114.111 87.2901C114.601 87.2493 115.094 87.318 115.555 87.4911C116.015 87.6642 116.432 87.9376 116.773 88.2912C117.115 88.6449 117.375 89.0702 117.532 89.5362C118.049 91.2263 118.267 93.0357 118.665 94.9644C119.251 93.7551 119.59 92.4412 119.661 91.0993C119.733 89.7576 119.536 88.415 119.083 87.1502C118.426 85.1618 117.73 83.1736 117.095 81.2847C116.76 80.5329 116.626 79.707 116.706 78.888C116.786 78.0689 117.077 77.2847 117.552 76.6121C118.06 75.8559 118.788 75.2746 119.639 74.9473C120.489 74.62 121.419 74.5625 122.304 74.7829C123.314 74.9113 124.252 75.3716 124.972 76.0913C125.691 76.8112 126.152 77.7497 126.281 78.7594C126.281 79.0776 126.281 79.4157 126.38 79.8332C129.322 80.211 132.623 80.032 133.081 84.0882C132.789 89.2506 131.218 94.2596 128.507 98.6626C129.911 97.9041 131.242 97.0189 132.484 96.0182C133.121 95.439 133.902 95.0413 134.744 94.8664C135.587 94.6916 136.461 94.746 137.276 95.024C137.703 95.0919 138.104 95.2688 138.441 95.5375C138.779 95.8062 139.042 96.1576 139.204 96.5576C139.365 96.9577 139.421 97.3928 139.367 97.8208C139.311 98.2488 139.145 98.6552 138.887 99.0006C138.588 99.5375 138.269 100.054 137.674 100.989C139.801 100.651 141.153 100.253 142.048 98.782C142.983 97.4968 143.397 95.9061 143.21 94.328C143.021 92.7501 142.244 91.3013 141.034 90.2719C140.248 89.4929 139.315 88.878 138.29 88.4625C136.041 87.6852 134.162 86.0972 133.02 84.0087C134.372 82.4975 133.816 80.5489 134.114 78.7992C134.114 78.5209 133.657 78.1033 133.339 77.8448C132.603 77.2484 131.788 76.7712 131.052 76.1746C130.307 75.651 129.764 74.8874 129.515 74.0116C129.265 73.1358 129.323 72.2008 129.681 71.3629C129.949 70.5824 130.481 69.9196 131.185 69.4879C131.889 69.0562 132.72 68.8826 133.538 68.9968C136.083 69.1758 138.628 69.5336 141.212 69.812C141.212 69.6728 141.212 69.315 141.034 69.2553C137.355 67.6646 133.678 66.0938 129.979 64.5828C129.276 64.2566 128.506 64.0999 127.732 64.1254C125.738 64.2324 123.768 63.6573 122.145 62.495C118.923 60.5066 118.745 57.1862 121.648 54.661C122.344 54.0446 123.08 53.468 123.795 52.8714C123.641 52.251 123.535 51.6194 123.476 50.9826C123.34 50.0045 123.496 49.0077 123.925 48.1184C124.355 47.2292 125.04 46.4874 125.891 45.9872C126.743 45.4869 127.723 45.2505 128.71 45.3079C129.696 45.3654 130.642 45.7142 131.431 46.3101C132.544 46.9973 133.613 47.7544 134.632 48.5767C135.605 49.372 136.619 50.2071 138.071 51.4996C137.402 50.2188 137.221 48.7389 137.561 47.3345C137.901 45.9303 138.739 44.6973 139.92 43.8644C141.491 42.7112 142.824 43.5065 144.036 44.4013C148.152 42.5521 149.226 42.9497 150.697 47.682C152.169 52.4142 153.46 57.0072 154.852 61.7394C154.852 61.7394 155.072 61.8985 155.21 61.8985C158.174 61.8985 160.221 61.0038 160.757 57.5639C161.017 55.8738 162.229 55.7744 163.999 56.5102C164.911 56.8309 165.735 57.3588 166.408 58.0522C167.081 58.7457 167.584 59.586 167.876 60.5066C168.201 57.8321 167.944 55.1189 167.121 52.5534C166.499 50.4759 166.705 48.2384 167.697 46.3101C168.413 44.8585 169.368 43.5662 171.117 43.6457C172.867 43.7252 175.093 43.8445 176.267 45.8925C176.464 46.3631 176.69 46.8213 176.943 47.2645C177.579 48.1393 178.335 48.5568 179.309 47.682C179.568 47.4433 179.885 47.2844 180.124 47.0656C180.626 46.5879 181.276 46.296 181.967 46.2382C182.658 46.1804 183.347 46.36 183.922 46.7474C184.567 47.0301 185.099 47.52 185.434 48.1396C185.769 48.7591 185.888 49.4728 185.771 50.1673C185.309 52.4236 184.644 54.6332 183.783 56.7686C182.351 60.3476 180.661 63.8272 179.13 67.3465C178.911 68.0464 178.757 68.7654 178.673 69.4938C179.135 69.2093 179.533 68.8332 179.844 68.3886C180.156 67.9441 180.372 67.4406 180.482 66.909C180.999 65.5836 181.536 64.258 182.092 62.9325C182.493 62.0735 183.088 61.3194 183.831 60.7294C184.572 60.1394 185.441 59.7296 186.368 59.5324C187.326 59.4672 188.288 59.5681 189.211 59.8306C190.092 57.9709 190.496 55.9206 190.384 53.8656C190.304 52.9486 190.48 52.0271 190.893 51.2048C191.308 50.3825 191.943 49.6919 192.728 49.2106C193.513 48.7294 194.416 48.4766 195.337 48.4805C196.258 48.4844 197.159 48.7449 197.939 49.2328C198.556 48.3381 199.212 47.4831 199.809 46.5685C200.803 45.0574 202.612 43.8445 203.527 44.3018C204.141 44.6929 204.647 45.234 204.994 45.874C205.341 46.514 205.521 47.2319 205.515 47.9604C205.516 49.1568 205.389 50.35 205.137 51.5194C205.137 52.3346 204.859 53.1697 204.64 54.4622C206.325 53.5432 207.655 52.0876 208.418 50.3264C209.512 47.3241 211.759 45.1767 213.388 42.5919C213.496 42.3956 213.581 42.189 213.648 41.9754C211.645 39.7746 209.103 38.1362 206.271 37.2234C203.228 36.11 200.027 35.3941 197.025 34.1813C195.132 33.4317 193.393 32.3397 191.895 30.9601C189.211 28.3554 189.529 26.1485 192.491 23.8618C192.81 23.6232 193.168 23.4046 193.565 23.1461C193.407 22.7086 193.386 22.2911 193.168 22.1121C192.546 21.5093 192.145 20.7148 192.029 19.8562C191.914 18.9978 192.091 18.1256 192.531 17.3799C192.668 16.7804 192.941 16.2207 193.331 15.7448C193.721 15.269 194.216 14.8901 194.776 14.6376C195.337 14.3852 195.948 14.2662 196.563 14.2901C197.177 14.314 197.778 14.48 198.317 14.7752C200.186 15.6898 202.295 16.2266 203.387 18.4735C203.746 19.229 205.018 19.5472 205.873 20.0442L206.311 19.7261C206.034 19.1175 205.707 18.5324 205.336 17.9764C203.686 15.9881 201.956 13.8805 200.346 11.7728C199.818 11.0744 199.481 10.2513 199.366 9.38377C199.25 8.51618 199.362 7.63361 199.689 6.8219C199.789 6.33338 200.01 5.87752 200.33 5.4955C200.651 5.11349 201.062 4.81736 201.525 4.63384C201.99 4.45033 202.491 4.38521 202.987 4.44438C203.482 4.50356 203.954 4.68515 204.362 4.97276C205.356 5.46985 206.351 6.00669 207.284 6.50378C207.284 6.50378 207.464 6.50378 207.682 6.50378C207.962 6.23373 208.203 5.92588 208.399 5.58915C208.627 4.80121 209.12 4.11531 209.792 3.6452C210.465 3.17507 211.277 2.94896 212.097 3.00433C212.872 3.02757 213.628 3.25486 214.288 3.66329C214.947 4.0717 215.488 4.64682 215.855 5.33066C217.415 7.38499 218.433 9.79853 218.817 12.3495C219.201 14.1593 219.788 15.9201 220.567 17.5986C220.788 16.2241 221.196 14.8862 221.779 13.622C222.031 13.1385 222.421 12.742 222.9 12.4842C223.38 12.2266 223.927 12.1198 224.468 12.1778C225.01 12.2358 225.521 12.4559 225.936 12.8094C226.349 13.1629 226.648 13.6333 226.791 14.1589C227.074 14.688 227.247 15.2696 227.298 15.8679C227.349 16.4662 227.277 17.0686 227.089 17.6384C226.979 18.1277 226.932 18.6287 226.949 19.1296C227.187 19.2809 227.449 19.3887 227.724 19.4478C230.389 19.4478 230.965 19.8255 231.005 22.4502C231.046 25.0748 230.727 27.5601 230.548 30.125C230.523 30.4684 230.391 30.7951 230.17 31.0596C227.686 33.0479 228.181 36.3286 226.989 38.8538C226.81 39.2117 227.148 40.0269 227.506 40.4246C228.329 41.2174 229.192 41.9673 230.091 42.6714C231.823 41.1488 232.887 39.0064 233.053 36.7064C233.212 34.5789 233.511 32.4514 233.849 30.3438C234.21 26.5965 234.063 22.8176 233.411 19.1097C233.411 18.5332 232.696 18.0161 232.258 17.539C231.539 16.849 231.106 15.9146 231.043 14.9206C230.981 13.9264 231.293 12.945 231.92 12.1705C232.201 11.7316 232.616 11.3955 233.103 11.2126C233.591 11.0298 234.124 11.0101 234.624 11.1565C234.891 11.3034 235.192 11.3811 235.496 11.3826C235.801 11.3842 236.102 11.3094 236.37 11.1652C236.64 11.0209 236.867 10.8118 237.035 10.5568C237.202 10.3017 237.303 10.0089 237.328 9.70498C237.655 8.54186 238.241 7.46825 239.043 6.56562C239.847 5.663 240.844 4.95507 241.961 4.49556C242.436 4.15987 242.988 3.94818 243.567 3.87966C244.145 3.81115 244.731 3.88798 245.272 4.1032C245.813 4.31841 246.292 4.66521 246.665 5.11216C247.039 5.55912 247.293 6.09211 247.409 6.66284C247.682 8.26465 247.776 9.89186 247.688 11.5143C247.688 13.9004 247.508 16.3062 247.489 18.6922C247.535 19.5112 247.661 20.3237 247.866 21.118L248.423 21.277C248.881 20.7441 249.281 20.1644 249.616 19.5472C250.829 16.6244 252.061 13.7214 253.076 10.7389C253.658 8.85744 254.071 6.92771 254.308 4.97276C254.746 1.9704 256.874 0.996116 259.657 0.856934C260.912 0.935628 262.095 1.46674 262.987 2.35165C263.879 3.23658 264.419 4.41518 264.508 5.66868C264.508 6.16576 264.508 6.66284 264.668 7.51782C265.602 7.25933 266.397 7.08038 267.173 6.84179C267.829 6.64993 268.522 6.61393 269.194 6.73664C269.867 6.85934 270.501 7.13738 271.049 7.54862C271.595 7.95987 272.037 8.49297 272.341 9.10549C272.645 9.71802 272.803 10.3931 272.8 11.0769C272.779 12.4862 272.444 13.8729 271.818 15.1357C271.192 16.3983 270.291 17.5048 269.181 18.3741C266.298 21.1776 263.415 23.9812 260.572 26.8245C260.113 27.4484 259.713 28.1141 259.379 28.8128C260.81 28.435 261.665 28.1765 262.54 27.9976C263.936 27.6189 265.359 27.3464 266.795 27.1823C268.008 27.083 268.784 27.6993 268.983 29.1706C269.36 31.3181 269.539 33.2666 267.233 34.6982C267.749 35.1158 268.028 35.414 268.367 35.6327C269.01 36.0496 269.53 36.6311 269.873 37.317C270.216 38.0029 270.369 38.768 270.316 39.533C270.264 40.2981 270.007 41.035 269.572 41.6672C269.139 42.2996 268.544 42.8041 267.849 43.1287C265.532 44.2734 263.011 44.949 260.433 45.117L245.341 46.0317C244.407 46.0317 243.472 46.3498 242.538 46.3498C241.028 46.3852 239.557 46.8413 238.294 47.6668C237.028 48.4924 236.019 49.6544 235.38 51.0223C233.363 54.0773 230.634 56.5954 227.426 58.3593C225.799 59.1647 224.448 60.4389 223.549 62.0178L226.691 64.3242C226.705 65.2108 226.632 66.0965 226.472 66.9687C226.154 68.1816 225.995 69.5137 224.483 69.9313C224.026 70.0506 223.748 70.8658 223.032 71.9197C225.697 71.4623 227.466 71.9197 228.6 74.1266L234.147 72.1384C234.685 71.9591 235.161 71.6268 235.514 71.1818C235.867 70.7369 236.083 70.1988 236.136 69.633C237.368 63.171 240.431 57.3453 242.777 51.3007C243.328 50.1434 244.097 49.1037 245.043 48.2388C246.514 46.7077 247.409 46.8071 248.801 48.4574L249.417 49.1732C251.207 47.9802 253.136 46.827 255.064 48.7756C256.356 50.0879 256.197 51.7183 255.163 53.6072C257.551 52.9924 259.799 51.926 261.785 50.4656C264.316 48.7053 267.311 47.7301 270.394 47.6621C270.652 47.6621 270.911 47.6621 271.149 47.6621C275.127 47.7615 275.763 48.3381 276.22 52.5534C276.845 52.9815 277.512 53.3478 278.208 53.647C279.277 53.996 280.205 54.6789 280.857 55.5953C281.508 56.5117 281.849 57.6129 281.827 58.737C281.821 60.0018 281.376 61.2254 280.567 62.1976C279.757 63.1698 278.636 63.8303 277.393 64.0657C275.305 64.5049 273.183 64.7644 271.05 64.8412C267.885 64.7794 264.724 65.1201 261.645 65.8552C260.412 66.224 259.225 66.731 258.106 67.3664C258.495 67.7349 258.97 68.0005 259.487 68.1393C260.004 68.2782 260.548 68.286 261.069 68.1617C262.112 67.8778 263.218 67.9372 264.224 68.3311C265.231 68.725 266.083 69.4326 266.656 70.3489C267.809 72.1384 267.77 72.8144 265.94 73.729C265.355 73.9718 264.758 74.1842 264.151 74.3653L264.529 75.6378C265.602 79.3361 263.475 82.0999 259.657 81.6028C257.113 81.2237 254.589 80.706 252.102 80.0519C247.967 78.9282 243.731 78.2157 239.456 77.9244C238.341 77.733 237.196 77.814 236.12 78.1601C235.043 78.5064 234.066 79.1076 233.272 79.9127C234.226 80.8671 235.26 80.3701 236.354 80.2706C238.641 80.032 240.928 79.8133 243.213 79.6741C243.811 79.6519 244.404 79.7748 244.944 80.032C246.475 80.708 247.33 82.5373 245.381 83.8297C244.963 84.128 244.527 84.3665 244.129 84.6052C244.095 84.7959 244.095 84.9911 244.129 85.1817C245.083 88.4426 243.095 90.3912 239.237 89.8543C237.687 89.4532 236.051 89.5294 234.545 90.073C235.034 90.4951 235.609 90.8062 236.231 90.9847C236.852 91.1631 237.505 91.2049 238.144 91.107C240.788 91.2462 243.452 91.107 246.097 91.3058C247.506 91.5656 248.855 92.0847 250.074 92.8368C251.564 93.6321 252.937 94.6661 254.249 95.5409C258.377 93.3671 262.223 90.6961 265.701 87.5877C269.679 84.4858 273.456 81.1057 278.407 79.4952C278.971 79.2132 279.587 79.0535 280.217 79.0265C280.847 78.9996 281.475 79.106 282.061 79.3388C282.647 79.5716 283.177 79.9254 283.616 80.3773C284.056 80.8292 284.394 81.3687 284.611 81.9607C285.146 81.8022 285.69 81.676 286.241 81.5829C287.664 81.385 289.1 81.3053 290.536 81.3444C292.524 81.5232 293.061 82.2391 293.419 84.0485C293.594 84.7161 293.524 85.4245 293.221 86.0447C292.919 86.6649 292.403 87.156 291.769 87.4286C289.522 88.8601 287.255 90.252 285.009 91.6637C289.051 91.9214 293.111 91.5457 297.037 90.5503C302.596 89.3224 308.384 89.6317 313.779 91.445C314.693 91.783 315.569 92.1608 315.768 93.2743C315.772 93.7958 315.623 94.307 315.336 94.7425C315.049 95.1782 314.639 95.5184 314.158 95.7199C313.143 96.3362 312.05 96.8135 310.698 97.4895C311.333 98.3644 311.831 99.1199 312.408 99.8159C314.117 101.804 314.396 103.494 313.481 105.164C312.993 106.181 312.168 106.998 311.146 107.477C310.124 107.955 308.968 108.065 307.874 107.789C303.221 106.695 298.609 105.363 293.956 104.17C290.675 103.355 287.394 102.639 284.015 101.864L283.835 102.381L287.255 103.693C288.538 104.061 289.707 104.745 290.656 105.683C291.604 106.622 292.301 107.783 292.683 109.062C293.677 112.283 292.008 114.132 288.707 113.376C287.732 113.157 286.719 112.76 285.764 112.422C285.505 113.098 285.327 113.655 285.068 114.191C284.873 114.834 284.522 115.419 284.048 115.895C283.573 116.37 282.99 116.721 282.347 116.918C281.705 117.114 281.024 117.149 280.364 117.02C279.705 116.892 279.088 116.603 278.567 116.179C276.498 114.977 274.506 113.649 272.601 112.203C270.184 110.453 267.498 109.11 264.648 108.226C262.779 107.63 261.029 106.715 259.18 106.039C256.714 105.125 254.209 104.31 251.128 103.256C251.903 104.727 252.459 105.622 252.878 106.556C253.991 109.022 253.493 110.414 250.889 111.467C249.54 112.026 248.122 112.4 246.673 112.581C244.984 112.78 243.253 112.7 241.544 112.76C241.049 112.859 240.563 112.999 240.092 113.177C245.458 114.593 250.652 116.593 255.581 119.143C258.872 120.667 261.584 123.212 263.315 126.4C263.817 127.483 264.061 128.666 264.032 129.859C264.032 131.052 262.839 131.848 261.169 131.848C259.648 131.745 258.135 131.559 256.635 131.291C256.411 132.519 256.284 133.762 256.257 135.009C256.257 135.963 256.456 136.997 255.681 137.634C254.948 138.585 254.052 139.4 253.036 140.04ZM36.5076 163.065C37.2546 163.2 38.0226 163.162 38.7532 162.955C39.4836 162.748 40.1573 162.378 40.7229 161.872L49.9089 154.316C46.2504 154.674 38.8737 159.665 36.5076 163.065ZM255.641 97.3304C254.488 98.1058 253.891 98.8217 254.209 100.273C255.522 100.75 256.813 101.228 258.186 101.665C264.167 103.516 269.881 106.136 275.186 109.459C276.737 110.533 278.268 111.627 279.898 112.541C281.887 113.674 282.424 113.416 283.298 111.269C283.994 109.598 284.551 109.28 286.262 109.757C286.917 109.936 287.514 110.334 288.249 110.453C288.985 110.573 289.979 110.652 291.033 110.772C291.01 109.802 290.708 108.86 290.165 108.056C289.623 107.253 288.861 106.622 287.971 106.238C286.539 105.642 285.147 104.986 283.736 104.409C283.199 104.298 282.696 104.06 282.268 103.716C281.841 103.372 281.501 102.931 281.279 102.43C281.055 101.929 280.954 101.382 280.984 100.834C281.013 100.286 281.173 99.753 281.449 99.279C282.663 99.4182 284.015 99.4977 285.306 99.7562C286.599 100.015 288.309 100.492 289.8 100.89C293.995 102.003 298.191 103.176 302.426 104.23C304.415 104.727 306.621 104.985 308.71 105.363C309.882 105.582 310.4 104.727 310.995 103.991C311.592 103.256 311.333 102.421 310.717 101.705C310.101 100.989 309.444 100.094 308.868 99.2392C308.537 98.8991 308.299 98.4788 308.179 98.0193C308.059 97.5599 308.06 97.0772 308.183 96.6183C308.305 96.1594 308.544 95.7401 308.876 95.4015C309.209 95.0628 309.625 94.8162 310.081 94.686L312.348 93.4929C311.621 93.1001 310.855 92.7868 310.061 92.5584C305.999 91.936 301.868 91.8892 297.793 92.4193C295.347 92.7175 292.901 93.2146 290.457 93.473C288.011 93.7316 286.023 93.7316 283.795 93.831C283.256 93.9278 282.698 93.8288 282.225 93.5519C281.751 93.2749 281.392 92.8381 281.211 92.3199C280.773 90.9678 281.967 90.5702 282.821 90.0532C285.009 88.721 287.235 87.4087 289.402 86.0765C289.962 85.8311 290.413 85.3927 290.676 84.8416C290.939 84.2904 290.995 83.6631 290.834 83.0742C289.681 83.1736 288.587 83.1935 287.553 83.3724C286.52 83.5513 285.744 83.9888 284.829 84.1678C284.335 84.3319 283.796 84.3069 283.32 84.0976C282.842 83.8882 282.459 83.5095 282.244 83.0344C281.151 80.9466 281.131 81.0461 279.003 81.6028C274.291 82.935 271.05 86.3748 267.074 89.1385C263.097 91.9023 259.517 94.686 255.641 97.3304ZM237.467 72.3173C236.771 73.1921 235.36 73.5103 234.266 74.0472C232.981 74.7308 231.653 75.3285 230.29 75.8367C228.564 76.3733 227.017 77.37 225.816 78.7197C225.18 79.6039 224.417 80.388 223.549 81.0461C219.433 83.4917 215.258 85.838 211.122 88.2239C210.84 88.4066 210.575 88.6128 210.327 88.8402C211.745 88.5041 213.114 87.9896 214.403 87.3093C215.449 86.6247 216.634 86.1836 217.873 86.0184C219.112 85.8531 220.372 85.9682 221.561 86.3549C222.096 86.5737 222.696 86.5737 223.231 86.3549C226.869 84.3665 230.887 84.6052 234.763 84.1479C235.539 84.1479 236.335 84.0087 236.752 85.4601C232.457 86.7526 227.546 85.7783 224.106 88.3432C223.848 90.1924 223.649 91.5642 223.45 92.9164L229.415 93.9503C231.583 94.0278 233.657 94.8573 235.281 96.2965C233.073 96.9726 231.304 96.0182 229.554 95.879C227.804 95.7398 225.697 95.4415 223.987 95.2228C223.41 96.3362 223.032 97.2111 222.536 97.9469C221.123 100.074 218.817 100.273 216.57 100.472C214.885 100.571 213.233 100.982 211.699 101.685C212.335 103.077 212.335 103.176 213.151 103.156C216.749 103.156 220.388 103.395 223.788 101.844C224.428 101.441 225.092 101.076 225.776 100.75C228.46 99.8754 231.124 98.921 233.868 98.3047C236.529 97.6876 239.235 97.2951 241.961 97.1316C243.317 97.093 244.651 97.4837 245.772 98.2478C246.893 99.0118 247.745 100.11 248.204 101.387C248.833 101.288 249.447 101.115 250.034 100.87C251.763 99.9152 252.419 97.1316 251.067 96.1374C249.435 94.6138 247.33 93.6946 245.103 93.5327C242.557 93.5327 240.012 93.5327 237.467 93.3935C236.396 93.5252 235.309 93.3434 234.339 92.8706C233.369 92.3978 232.556 91.6541 232 90.7292C231.124 89.0988 231.423 88.2637 233.153 87.5479C235.043 86.9598 237.059 86.9047 238.979 87.3888C239.501 87.5389 240.055 87.5481 240.581 87.4154C241.108 87.2828 241.592 87.0128 241.981 86.6333C241.603 85.5198 241.245 84.5057 240.867 83.4519L242.657 81.9209C242.338 81.7888 242.004 81.6954 241.663 81.6425C237.01 82.2391 232.377 82.8554 227.745 83.432C226.492 83.5911 225.14 83.8098 224.523 82.0402C225.125 81.7479 225.693 81.3877 226.213 80.9665C228.865 78.0678 232.33 76.0372 236.155 75.1407C239.973 74.5533 243.876 74.8388 247.568 75.9758C251.386 76.9103 255.243 77.666 259.06 78.6005C260.611 78.9782 261.487 78.4613 261.844 77.5466C261.553 76.1629 261.354 74.7614 261.248 73.3512C261.248 71.7407 263.236 72.1583 264.33 70.846C262.997 70.6073 262.043 70.3886 261.069 70.2893C260.095 70.1898 258.663 70.2893 257.509 70.0109C256.356 69.7325 254.786 68.5792 254.786 67.6049C254.786 66.2132 255.681 65.4974 256.775 64.9207C259.087 63.8002 261.588 63.1257 264.151 62.9325C267.451 62.5745 270.792 62.3956 274.092 62.2166C274.953 62.1903 275.799 61.992 276.58 61.6334C277.362 61.2749 278.065 60.7633 278.645 60.1289C279.66 59.0751 279.799 58.3394 278.904 57.2061C278.295 56.5002 277.577 55.8961 276.777 55.4166C276.089 55.0575 275.378 54.7453 274.649 54.4821C274.381 54.3986 274.132 54.2625 273.917 54.0816C273.703 53.9007 273.527 53.6788 273.399 53.4287C273.271 53.1786 273.194 52.9055 273.173 52.6255C273.153 52.3454 273.187 52.064 273.277 51.7978C273.346 51.3898 273.393 50.9782 273.417 50.565C271.666 49.9525 269.78 49.8356 267.969 50.227C264.497 51.0202 261.214 52.4861 258.305 54.5417C257.128 55.2324 255.882 55.7988 254.587 56.2318C254.247 56.4169 253.847 56.4602 253.474 56.3524C253.101 56.2444 252.787 55.9938 252.599 55.6551C252.284 54.9017 252.175 54.0786 252.281 53.2692C252.281 52.7522 253.036 52.3346 253.235 51.7978C253.375 51.2662 253.435 50.7167 253.413 50.1673C252.795 50.0692 252.164 50.0692 251.545 50.1673C251.008 50.3264 250.631 50.923 250.133 51.241C248.583 52.2551 248.244 52.1756 247.032 50.6446C246.892 50.4656 246.634 50.406 246.276 50.227C245.717 50.8793 245.224 51.5853 244.804 52.3346C243.592 54.9791 242.399 57.6236 241.364 60.2879C240.331 62.9524 239.376 66.0938 238.383 69.0167C237.985 70.0308 238.123 71.4822 237.467 72.3173ZM222.972 64.8213C222.853 64.8213 222.714 64.9804 222.436 65.1593C222.833 65.6366 223.231 66.1137 223.808 66.7698C224.483 65.398 223.907 65.0002 222.953 64.8213H222.972ZM211.281 71.0647C208.657 74.5442 206.211 78.1431 203.586 81.6226C202.917 82.5076 202.08 83.251 201.121 83.8098C200.484 84.0706 199.77 84.0706 199.132 83.8098C198.715 83.611 198.476 82.6964 198.476 82.0999C198.497 81.3344 198.68 80.582 199.013 79.8928C199.849 78.1431 200.783 76.4332 201.737 74.6437C201.379 73.8881 201.002 73.0928 200.664 72.3372C199.891 72.93 199.073 73.4617 198.218 73.9279C197.164 74.4249 196.548 73.4308 195.753 72.9934C195.279 72.724 194.755 72.555 194.213 72.4966C193.672 72.4382 193.123 72.4918 192.603 72.654C192.083 72.8161 191.602 73.0836 191.189 73.4396C190.777 73.7954 190.442 74.2324 190.205 74.7232C189.78 75.5645 189.238 76.341 188.594 77.0296C188.194 77.4101 187.905 77.8925 187.757 78.4249C187.61 78.9574 187.611 79.5198 187.76 80.0519C188.252 83.1172 187.729 86.2597 186.268 88.9993C184.123 93.2614 180.506 96.6023 176.088 98.4041C174.116 99.2463 172.073 99.9117 169.984 100.392C168.253 100.79 166.444 100.711 164.695 101.009C163.729 101.346 162.807 101.8 161.951 102.361C162.604 102.517 163.27 102.616 163.939 102.659C166.305 102.361 168.691 102.083 171.038 101.625C172.847 101.267 174.596 100.452 176.407 100.194C178.613 99.8556 180.88 99.955 182.053 97.5492C182.152 97.3702 182.511 97.3304 182.729 97.1912C185.155 95.6602 187.62 94.1492 190.007 92.5584C190.467 92.2062 190.796 91.7089 190.94 91.1468C192.133 87.1378 192.888 83.011 193.187 78.839C193.187 78.6601 193.506 78.501 193.705 78.3022C193.963 78.4414 194.321 78.501 194.361 78.66C195.455 82.5373 193.943 86.1958 193.327 90.1725C196.872 89.0472 200.171 87.2592 203.05 84.9034C206.827 81.404 211.181 78.5408 214.164 74.2062C214.459 73.8585 214.785 73.539 215.139 73.2518C215.457 73.4506 215.696 73.5103 215.735 73.6097C215.895 74.1664 216.013 74.7431 216.132 75.2799C218.44 75.8566 218.44 75.8565 218.479 77.4273L216.988 77.2881C216.394 77.2088 215.796 77.1689 215.199 77.1688C214.875 77.1606 214.553 77.2183 214.252 77.3383C213.953 77.4583 213.68 77.6382 213.451 77.8669C213.221 78.0957 213.042 78.3686 212.922 78.6689C212.802 78.9694 212.745 79.2911 212.753 79.6144C212.898 80.2412 213.146 80.8392 213.488 81.3841L211.719 81.901C210.896 82.0066 210.096 82.2486 209.353 82.6168C207.225 84.1876 205.257 85.9573 203.149 87.5678C202.048 88.381 200.891 89.1184 199.689 89.7748C198.476 90.4906 197.224 91.1468 195.971 91.7631C197.389 92.2647 198.866 92.5789 200.366 92.6976C201.717 92.8766 203.05 93.1948 204.341 93.4532C205.243 93.6764 206.161 93.8226 207.085 93.8906C209.393 93.8906 211.699 93.7514 214.005 93.8906C214.271 93.94 214.517 94.0577 214.723 94.2321C214.929 94.4064 215.087 94.6314 215.178 94.8848C215.178 95.6801 214.701 96.058 213.847 95.9784C212.136 95.8193 210.447 95.6801 208.736 95.5608L203.865 95.3023C201.041 95.1632 198.238 94.9644 195.415 94.9445C194.122 94.9445 192.789 95.8392 191.596 94.5666C191.438 94.4076 190.703 94.5666 190.424 94.7854C188.813 96.0778 187.282 97.4497 185.413 99.0602C190.703 99.0602 195.534 99.0602 200.366 99.0602C203.368 99.0602 206.33 99.0602 209.353 98.7422C212.375 98.424 215.317 97.927 218.379 97.4895C218.884 97.4771 219.376 97.3158 219.789 97.0257C220.203 96.7357 220.522 96.3298 220.706 95.8591L219.215 93.0556C219.771 92.5982 220.169 92.3 220.527 91.962C220.898 91.7377 221.171 91.3824 221.292 90.9664C221.415 90.5503 221.375 90.1038 221.183 89.7151C221.002 89.3193 220.695 88.9941 220.311 88.7893C219.927 88.5846 219.485 88.5117 219.056 88.5818C218.043 88.7327 217.053 89.0134 216.113 89.4169C213.885 90.3117 211.659 91.2462 209.492 92.2801C208.999 92.5447 208.426 92.624 207.879 92.5037C207.332 92.3833 206.847 92.0713 206.509 91.6239C206.298 91.4288 206.132 91.1902 206.021 90.9246C205.912 90.6589 205.86 90.3726 205.872 90.0853C205.883 89.7981 205.956 89.5166 206.088 89.2605C206.218 89.0044 206.403 88.7796 206.628 88.6017C207.674 87.5983 208.82 86.7054 210.049 85.9374C211.341 85.1221 212.793 84.5455 214.025 83.7701C216.61 82.259 219.195 80.7677 221.68 79.1174C223.363 78.111 224.653 76.5612 225.339 74.7232C221.362 74.7232 220.368 73.4506 221.183 69.9711V69.7325C221.899 66.8096 220.706 65.557 217.843 66.3325C215.185 67.1354 212.869 68.8004 211.261 71.0647H211.281ZM189.847 112.322C190.787 112.571 191.653 113.04 192.376 113.69C193.099 114.34 193.657 115.152 194.003 116.06L195.355 111.925C192.452 110.394 190.94 108.962 194.281 105.96C195.116 105.224 196.27 104.687 196.428 103.315C191.219 101.566 176.545 102.878 168.811 105.741C168.811 106.755 168.97 107.59 170.401 107.371C171.169 107.302 171.94 107.302 172.708 107.371C173.481 107.286 174.262 107.446 174.939 107.828C175.617 108.209 176.158 108.794 176.486 109.499C176.684 110.322 176.623 111.187 176.309 111.974C175.995 112.761 175.447 113.432 174.736 113.893L168.253 118.367L168.373 118.944C168.925 119.081 169.497 119.121 170.064 119.063C173.735 118.321 177.248 116.941 180.442 114.987C181.78 114.242 183.161 113.578 184.578 112.998C186.205 112.176 188.065 111.937 189.847 112.322ZM161.493 103.614L161.235 103.216L154.276 105.661L155.768 107.988L161.493 103.614ZM174.518 87.4087C176.961 88.0865 179.533 88.1616 182.013 87.6274C180.844 87.081 179.577 86.7798 178.288 86.7422C176.999 86.7046 175.715 86.9314 174.518 87.4087ZM183.226 85.4203C183.226 84.1081 183.365 83.114 183.465 81.6028L179.011 84.3665L179.13 84.8239L183.226 85.4203ZM167.677 91.0871C169.825 93.7912 169.825 93.7912 169.666 96.9129C173.762 95.8591 178.235 92.6181 179.388 89.9338H178.355C176.699 90.0433 175.039 90.0433 173.384 89.9338C171.407 89.679 169.401 90.0845 167.677 91.0871ZM204.303 72.9138C204.172 73.0157 204.068 73.1455 203.995 73.2935C203.923 73.4416 203.885 73.604 203.884 73.7688C204.083 75.9559 202.572 77.3677 201.618 79.0378C201.461 79.4064 201.354 79.7942 201.3 80.1911L201.677 80.39L208.498 71.0846L208.1 70.6869C206.827 71.3828 205.535 72.1185 204.303 72.9138ZM219.135 61.5804C218.22 62.2365 217.147 62.5149 217.445 63.7477C219.572 63.4295 219.572 63.4295 219.135 61.5804ZM210.605 64.1055C207.881 66.2728 205.575 68.0822 203.288 69.9711C203.149 70.0904 203.149 70.4284 203.029 70.9056C205.335 69.9223 207.468 68.5801 209.353 66.9289C209.949 66.4717 210.068 65.3582 210.605 64.1055ZM234.465 41.9357C232.815 44.2223 230.925 46.33 229.216 48.5767C228.181 49.9686 227.227 51.4399 226.294 52.8714H226.173C225.06 52.3346 224.285 53.0106 223.509 53.6868C222.733 54.3628 221.84 54.8996 220.945 53.7862C221.104 53.0305 221.282 52.3148 221.442 51.599L220.945 51.3802C219.017 54.8781 216.439 57.9757 213.349 60.5066C212.659 61.3135 212.041 62.1783 211.5 63.0914C211.639 63.2306 211.759 63.3698 211.898 63.4892C213.978 62.623 215.941 61.5009 217.744 60.1488C219.731 58.7172 221.72 57.2657 223.708 55.8738C224.821 55.1183 225.915 54.3826 226.074 52.8913V52.792C226.779 52.4781 227.447 52.0845 228.063 51.6189C230.707 49.3322 233.212 46.8866 235.876 44.6398C236.767 43.8549 237.852 43.3257 239.018 43.1088C241.658 42.6628 244.337 42.4961 247.011 42.6118C252.567 42.7533 258.123 42.3336 263.594 41.3591C264.598 41.2361 265.545 40.828 266.324 40.1831C267.103 39.5382 267.68 38.6836 267.988 37.7205C267.273 37.3228 266.636 37.0842 266.099 36.7064C265.71 36.5402 265.375 36.2692 265.13 35.9233C264.885 35.5775 264.741 35.1706 264.715 34.748C264.688 34.3254 264.779 33.9036 264.978 33.5297C265.177 33.1558 265.475 32.8445 265.841 32.6303C266.075 32.4813 266.275 32.285 266.428 32.054C266.583 31.823 266.685 31.5624 266.732 31.2889C266.779 31.0156 266.768 30.7354 266.7 30.4664C266.633 30.1975 266.509 29.9457 266.338 29.7274C264.986 30.0455 263.613 30.4034 262.202 30.7216C261.463 30.9206 260.713 31.0799 259.955 31.1988C259.468 31.3119 258.96 31.2804 258.49 31.108C258.021 30.9357 257.613 30.6302 257.315 30.2289C257.018 29.8277 256.843 29.3481 256.815 28.8493C256.785 28.3505 256.903 27.8541 257.152 27.4209C257.72 26.1789 258.485 25.0373 259.418 24.0408C261.009 22.3905 262.879 20.9986 264.529 19.3881C266.249 17.7441 267.875 16.0049 269.4 14.1788C270.018 13.3674 270.385 12.3927 270.453 11.3752C270.523 10.9916 270.498 10.5968 270.379 10.2254C270.261 9.85392 270.053 9.51712 269.775 9.24442C269.497 8.97172 269.155 8.77144 268.781 8.66109C268.408 8.55074 268.012 8.53368 267.631 8.6114C266.865 8.70633 266.107 8.85921 265.363 9.06872C263.276 9.46637 262.739 9.06872 262.262 6.92132C262.056 6.0125 261.741 5.13145 261.328 4.29674C261.111 3.94257 260.771 3.68068 260.373 3.56106C259.576 3.48479 258.776 3.67069 258.093 4.09056C257.412 4.51042 256.885 5.14129 256.595 5.88739C256.039 7.87572 255.681 9.72486 255.025 11.5541C253.951 14.5366 252.717 17.5191 251.525 20.4022C251.247 21.105 250.887 21.7725 250.451 22.3905C250.24 22.8218 249.903 23.1798 249.485 23.4183C249.068 23.6567 248.589 23.7647 248.109 23.7284C247.631 23.6919 247.173 23.5129 246.796 23.2142C246.42 22.9154 246.141 22.5109 245.997 22.0525C245.666 21.4392 245.476 20.76 245.441 20.0641C245.441 17.5986 245.441 15.133 245.441 12.6676C245.551 11.0456 245.551 9.41814 245.441 7.79619C245.242 6.3447 244.267 5.94705 242.995 6.70261C242.162 7.11522 241.42 7.69009 240.812 8.39346C240.204 9.09683 239.744 9.91453 239.456 10.7986C239.385 11.3115 239.209 11.8044 238.94 12.2467C238.671 12.6889 238.313 13.0711 237.89 13.3695C237.467 13.6678 236.987 13.8759 236.48 13.9809C235.972 14.086 235.449 14.0856 234.943 13.9799C235.233 15.9623 235.775 17.8999 236.553 19.746C237.007 21.2127 237.287 22.7276 237.388 24.2596C237.388 27.3215 237.229 30.4034 237.109 33.4854C237.091 36.5 236.178 39.4413 234.485 41.9357H234.465ZM225.975 42.2737C224.285 43.8842 224.722 45.9919 224.663 48.0399C225.896 46.7077 228.023 46.2902 228.38 44.1825L225.975 42.2737ZM221.064 48.7954C221.066 49.104 221.106 49.4113 221.183 49.7101H221.7C221.939 48.696 222.197 47.7217 222.436 46.6679C222.794 45.1767 223.072 43.6656 223.469 42.1942C223.867 40.7229 224.345 39.4105 224.821 38.0386C225.357 35.8913 226.131 33.8105 227.128 31.835C229.116 28.5543 228.679 25.1742 228.56 21.6746L227.028 21.456C225.041 21.1776 224.404 20.4022 224.682 18.394C224.762 17.8816 224.882 17.3762 225.041 16.8829C225.176 16.3941 225.162 15.8765 225.003 15.3951C224.843 14.9138 224.545 14.4905 224.146 14.1788C222.734 15.3518 222.714 15.3319 222.634 16.4255C222.555 17.5191 222.634 18.1553 222.634 19.0103C222.687 19.6025 222.612 20.1989 222.416 20.76C222.081 21.4105 221.544 21.9341 220.884 22.2513C220.463 22.3538 220.018 22.2862 219.645 22.0629C219.274 21.8396 219.004 21.4786 218.897 21.0583C218.723 20.6621 218.571 20.2573 218.44 19.8454C218.137 18.3342 217.752 16.8407 217.285 15.3717C216.153 12.3296 214.9 9.40673 213.568 6.36459C212.992 5.05229 212.235 4.95288 211.181 5.90728C210.584 6.50253 210.063 7.17052 209.631 7.89561C209.457 8.31586 209.186 8.68906 208.841 8.9847C208.496 9.28035 208.084 9.49005 207.643 9.5967C207.201 9.70334 206.739 9.70389 206.297 9.5983C205.855 9.49273 205.444 9.284 205.098 8.98918C204.341 8.55174 203.547 8.21373 202.731 7.79619C201.817 10.043 203.368 10.9974 204.263 12.1506C205.416 13.622 206.848 14.8945 208.001 16.3658C209.571 18.3542 210.347 21.3765 207.364 23.325C206.529 22.8677 205.674 22.49 204.879 21.9928C202.89 20.7401 200.903 19.4279 198.914 18.1951C197.88 17.5788 196.627 16.8829 195.692 18.1951C194.759 19.5074 195.852 20.1834 196.528 21.118C197.641 22.6489 197.482 23.5834 196.111 24.9157C195.683 25.3396 195.232 25.738 194.759 26.1087C193.247 27.2817 193.168 28.4151 194.759 29.449C196.055 30.2574 197.435 30.924 198.874 31.4374C202.056 32.6701 205.456 33.2269 208.676 34.4C211.376 35.371 213.885 36.804 216.093 38.6351C219.314 41.2796 221.561 44.4013 221.083 48.7954H221.064ZM193.724 59.4329C193.724 61.0634 193.187 62.4552 191.378 62.7336C191.378 63.9464 191.378 64.9406 191.259 66.074C193.247 66.3921 193.565 67.8237 193.346 69.7325C196.082 67.2456 197.832 63.8583 198.277 60.1886C198.277 58.1008 198.536 56.0329 198.695 53.9452H199.431C201.161 58.4388 199.928 62.7933 198.298 67.2272C199.124 66.9278 199.903 66.5055 200.604 65.9745C205.54 62.3586 210.194 58.3704 214.522 54.0446C215.671 52.9166 216.377 51.4137 216.511 49.8095C216.698 48.9716 216.714 48.1042 216.557 47.26C216.4 46.4159 216.073 45.6124 215.596 44.8983C214.057 45.694 212.836 46.9919 212.136 48.5767C211.261 50.2469 210.605 52.0165 209.671 53.647C208.72 55.3764 207.601 57.008 206.33 58.5183C205.435 59.5522 204.501 59.3534 203.408 58.5183C202.945 58.127 202.6 57.6151 202.41 57.0396C202.22 56.464 202.194 55.8472 202.333 55.2575C202.592 53.4084 202.89 51.5393 203.109 49.6703C203.109 48.7756 203.348 47.7814 202.115 47.3042L199.57 51.5592C198.317 53.5476 197.442 53.5476 196.09 51.5592C195.866 51.2944 195.627 51.0421 195.375 50.8037C194.387 52.3015 193.867 54.0598 193.883 55.854C193.724 57.0271 193.724 58.2201 193.724 59.4329ZM162.826 60.6657C161.812 64.4634 161.573 64.6424 157.755 64.4237C157.617 64.4237 157.477 64.5629 157.139 64.7418C157.477 66.0541 156.085 67.2073 156.921 68.7184C159.382 73.7796 159.891 79.5698 158.352 84.983C158.352 85.4601 158.352 85.9573 158.212 86.2554L164.178 88.025C165.331 87.528 167.061 86.8122 168.751 86.0367C171.535 84.7444 174.298 83.3923 177.063 82.0601C179.4 81.1594 181.457 79.6573 183.027 77.7057C183.829 76.7317 184.751 75.8631 185.771 75.1208C186.328 74.6834 187.341 74.6437 187.76 74.1068C188.793 72.4764 189.609 70.6869 190.523 68.9372C190.309 68.6089 190.048 68.3141 189.747 68.0623C189.153 67.7049 188.697 67.1561 188.456 66.506C188.214 65.8557 188.2 65.1425 188.416 64.4833C188.615 63.7874 187.919 62.8529 187.66 62.0973C185.175 62.316 184.519 63.9663 183.803 65.6764C183.088 67.5004 182.236 69.2684 181.258 70.9653C181.076 71.3628 180.788 71.7024 180.426 71.9464C180.064 72.1905 179.641 72.3295 179.204 72.348C178.769 72.3665 178.336 72.2639 177.954 72.0514C177.572 71.839 177.257 71.5249 177.042 71.1442C176.635 70.6935 176.365 70.1364 176.264 69.5378C176.161 68.9393 176.232 68.3241 176.466 67.764C177.361 65.4576 178.453 63.1909 179.309 60.8845C180.7 57.385 182.053 53.9054 183.285 50.3861C183.327 50.1886 183.319 49.9842 183.263 49.7904C183.208 49.5966 183.106 49.419 182.968 49.2726C182.789 49.1762 182.593 49.1176 182.392 49.1005C182.189 49.0833 181.986 49.1081 181.794 49.1732C181.411 49.355 181.05 49.582 180.721 49.8493C177.977 51.5791 176.744 51.3007 174.755 48.5568C174.517 48.2189 174.359 47.8013 174.12 47.4433C173.967 47.1494 173.743 46.8983 173.467 46.713C173.193 46.5278 172.875 46.4142 172.546 46.3825C172.216 46.351 171.883 46.4023 171.578 46.532C171.273 46.6617 171.005 46.8656 170.799 47.1253C170.292 47.7432 169.943 48.4746 169.779 49.2573C169.617 50.0398 169.645 50.8501 169.865 51.6189C170.64 55.8142 171.117 60.0693 171.615 64.3242C171.641 65.2652 171.52 66.2045 171.256 67.1079C171.093 67.671 170.812 68.1927 170.432 68.6378C170.05 69.0829 169.578 69.441 169.047 69.6879C168.515 69.9349 167.937 70.0648 167.351 70.069C166.764 70.0733 166.184 69.9518 165.649 69.7126C164.178 68.9968 164.456 67.5653 163.999 66.3325C165.987 66.3325 165.53 64.7816 165.649 63.6681C165.868 61.8985 166.167 60.0494 163.999 58.8365C163.661 59.1348 163.402 59.274 163.303 59.4727C163.083 59.8478 162.91 60.2485 162.786 60.6657H162.826ZM146.82 98.2848C150.354 95.4314 153.179 91.7969 155.072 87.6672C155.88 85.8728 156.389 83.9589 156.583 82.0005C157.108 77.4582 156.249 72.8632 154.117 68.8178C153.864 68.2724 153.676 67.6982 153.56 67.1079C153.103 65.2786 152.685 63.4693 152.228 61.64C152.049 60.9044 151.831 60.1687 151.611 59.413C150.538 55.6353 149.484 51.8376 148.371 48.0598C148.048 47.2862 147.648 46.5469 147.178 45.8527C145.189 46.4889 143.36 48.1393 141.57 45.8527C139.244 47.7018 139.046 48.9943 140.676 50.7241C141.61 51.6984 142.664 52.5136 143.698 53.4879C144.063 53.8282 144.295 54.2866 144.353 54.7817C144.411 55.2767 144.291 55.7765 144.016 56.192C143.773 56.7097 143.34 57.1142 142.808 57.3215C142.274 57.5288 141.682 57.523 141.153 57.3055C140.407 56.9574 139.731 56.4717 139.164 55.8738C136.554 53.0506 133.699 50.4625 130.635 48.1393C130.119 47.7686 129.514 47.542 128.881 47.4825C128.249 47.4231 127.612 47.5332 127.036 47.8013C126.579 48.2533 126.26 48.827 126.12 49.4543C125.979 50.0817 126.02 50.7362 126.241 51.3405C127.155 54.3031 127.115 54.4821 124.631 56.5102C123.596 57.3652 123.04 58.2798 123.596 59.3534L126.519 60.5066C126.954 60.749 127.413 60.9424 127.891 61.0833C131.955 61.7164 135.899 62.9704 139.583 64.8015C141.066 65.4748 142.456 66.3368 143.717 67.3664C145.189 68.5593 145.249 69.6529 144.394 71.5021C144.185 72.2244 143.703 72.8366 143.049 73.208C142.395 73.5794 141.621 73.6808 140.895 73.4904C138.906 73.1921 136.917 72.7349 134.831 72.3968C134.075 72.3436 133.319 72.3436 132.563 72.3968C136.799 74.8624 138.111 77.984 137.116 82.0999C136.839 83.2729 137.475 83.8297 138.608 84.0882C139.596 84.1682 140.553 84.4711 141.407 84.9738C142.26 85.4766 142.99 86.1663 143.539 86.9911C145.346 89.3887 146.343 92.3001 146.383 95.3023C146.42 96.3094 146.567 97.3094 146.82 98.2848ZM114.45 115.225C117.171 114.248 119.827 113.099 122.403 111.786C126.717 109.559 130.934 107.133 136.003 106.914C136.739 106.914 137.653 105.781 137.992 104.926C138.33 104.071 137.554 103.474 136.858 102.938C134.571 101.168 134.512 100.392 136.301 98.1257C136.404 97.9442 136.485 97.7505 136.54 97.5492C134.99 96.7538 134.075 97.7082 133.02 98.4439C131.632 99.4234 130.177 100.307 128.666 101.088C128.243 101.282 127.77 101.338 127.314 101.248C126.858 101.159 126.441 100.929 126.121 100.591C125.787 100.189 125.579 99.6975 125.523 99.1777C125.466 98.658 125.563 98.1332 125.803 97.6685C126.089 97.1489 126.401 96.6446 126.738 96.1573C127.594 94.7881 128.352 93.3596 129.004 91.8824C129.547 90.2566 129.979 88.5958 130.297 86.9116C131.232 82.935 130.773 82.4577 126.717 82.418C124.73 82.418 124.093 81.8215 123.874 79.9127C123.874 79.7337 123.874 79.5746 123.874 79.3958C123.675 77.8448 122.841 76.97 121.688 77.0893C121.321 77.1085 120.962 77.208 120.639 77.3811C120.314 77.554 120.033 77.796 119.812 78.0901C119.592 78.3841 119.44 78.723 119.366 79.0826C119.29 79.4423 119.296 79.8138 119.382 80.1712C119.804 82.0038 120.355 83.8045 121.032 85.5596C122.219 88.6216 122.365 91.9895 121.449 95.1433C121.24 95.8976 120.835 96.5834 120.275 97.1316C118.605 98.8018 116.856 98.3644 116.299 96.0778C116.001 94.845 115.98 93.5526 115.762 92.2801C115.603 91.4252 115.324 90.5901 114.907 89.0789C113.913 90.252 113.277 90.8882 112.8 91.5841C111.229 93.8906 111.149 93.9105 108.823 92.3C107.511 91.3854 106.676 91.5246 105.821 92.797C105.465 93.2359 105.272 93.7834 105.272 94.3479C105.272 94.9125 105.465 95.46 105.821 95.8989C106.246 96.4368 106.704 96.9481 107.192 97.4298C107.944 98.1408 108.515 99.0196 108.861 99.9943C109.207 100.969 109.316 102.012 109.181 103.037C108.903 105.025 108.545 107.014 108.246 109.002C107.894 111.228 106.756 113.255 105.038 114.714C103.32 116.173 101.135 116.969 98.8813 116.955C95.5552 116.971 92.2577 117.57 89.1385 118.724C83.79 120.535 78.4613 122.463 73.2319 124.471C68.281 126.459 63.2903 128.448 58.4586 130.436C53.3416 132.398 48.3542 134.682 43.5264 137.276C41.3193 138.568 38.9533 139.602 36.8058 141.014C32.5906 143.757 28.4549 146.641 24.339 149.524C23.166 150.339 22.1519 151.333 21.0583 152.248L21.5157 152.924C21.8693 152.889 22.213 152.787 22.5296 152.626C23.0052 152.176 23.51 151.756 24.0408 151.373C25.8303 150.458 27.7192 149.703 29.5286 148.769C32.7098 147.098 35.8514 145.329 39.0129 143.618L50.8037 137.376C53.3089 136.063 55.8738 134.85 58.3394 133.399C64.4085 129.854 70.7596 126.815 77.3279 124.312C79.8081 123.33 82.3365 122.473 84.9034 121.747C88.88 120.772 92.7374 119.997 96.7141 119.321C99.2989 118.864 102.003 118.963 104.528 118.347C107.893 117.499 111.206 116.457 114.45 115.225ZM139.602 107.928C139.076 108.155 138.581 108.449 138.131 108.803C140.616 110.095 142.903 107.829 145.071 109.101C145.189 109.101 145.567 108.704 145.885 108.584C148.609 107.511 150.439 108.584 150.06 111.269C150.839 111.492 151.67 111.442 152.415 111.127C153.16 110.812 153.775 110.252 154.156 109.539C153.341 107.888 151.512 106.855 151.731 104.468C152.844 103.852 154.057 103.097 155.37 102.48C157.795 101.387 160.719 101.208 162.249 98.5036C162.408 98.2252 163.025 98.245 163.363 98.0462C164.557 97.4481 165.696 96.7428 166.763 95.9386C167 95.6708 167.173 95.3528 167.269 95.0084C167.365 94.664 167.383 94.3022 167.32 93.9503C167.081 93.0556 166.167 93.1749 165.331 93.3538C164.679 93.5068 164.012 93.5934 163.343 93.6122C161.017 93.6122 160.499 92.8766 161.354 90.6098C161.425 90.315 161.479 90.0162 161.514 89.7151C158.252 88.6813 157.02 89.1783 155.231 92.0415C153.992 94.4405 152.281 96.5641 150.2 98.2848C147.675 100.054 145.05 101.685 142.445 103.295C141.571 103.832 140.636 104.21 141.034 105.642C143.242 104.889 145.272 103.691 146.999 102.122C149.348 100.154 152.045 98.6429 154.952 97.6685C156.543 97.1912 158.074 96.4754 159.684 95.8392C160.977 96.9726 160.956 97.9866 159.565 98.5831C159.156 98.7092 158.737 98.7957 158.312 98.8416C155.058 99.577 151.973 100.927 149.226 102.818C146.341 105.072 143.084 106.801 139.602 107.928ZM144.314 113.893C144.314 112.979 144.314 112.064 144.215 110.95C144.047 110.902 143.873 110.869 143.698 110.851C139.443 110.851 135.188 110.692 130.953 110.712C129.936 110.777 128.938 111.026 128.01 111.448C126.121 112.203 124.133 113.197 122.145 114.191C121.649 114.468 121.183 114.794 120.753 115.165C122.999 115.025 125.22 114.625 127.374 113.973C130.177 113.234 133.141 113.401 135.844 114.45C138.144 115.07 140.491 115.489 142.863 115.703C144.195 115.802 144.453 115.324 144.314 113.913V113.893ZM147.576 116.676C152.368 117.055 153.997 116.179 153.819 113.237L147.853 113.496C147.735 114.549 147.655 115.623 147.576 116.697V116.676ZM147.576 120.037C147.576 119.818 147.476 119.619 147.436 119.401L128.109 122.304L131.609 124.929C134.075 124.133 136.818 123.239 139.424 122.145C142.028 121.051 145.05 121.369 147.576 120.156V120.037ZM91.6836 134.075C96.9726 133.001 102.182 131.549 107.411 130.238C108.242 130.023 109.048 129.723 109.817 129.343C112.044 128.249 114.271 127.096 116.478 125.943C116.946 125.645 117.385 125.306 117.791 124.929L117.552 124.451C99.6568 127.652 82.1596 132.226 66.1137 141.491C66.3447 141.522 66.5786 141.522 66.8096 141.491C67.8833 141.173 68.957 140.895 70.0109 140.497C77.0485 137.77 84.2968 135.623 91.6836 134.075ZM130.893 130.356C131.351 130.356 131.828 130.138 132.285 130.039C131.645 129.591 130.879 129.361 130.098 129.383C128.109 129.383 127.752 128.845 128.109 126.857C128.109 126.44 128.289 126.042 128.428 125.465C127.537 125.023 126.563 124.772 125.57 124.731C124.577 124.69 123.586 124.859 122.661 125.226C120.673 125.962 118.824 127.096 116.875 127.991C113.985 129.471 111.018 130.798 107.988 131.967C105.681 132.783 103.077 132.762 100.73 133.479C96.4754 134.77 91.9818 135.267 88.0052 137.455C87.5455 137.612 87.0551 137.66 86.5736 137.594C85.5916 137.512 84.6031 137.552 83.6309 137.713C80.5688 138.628 77.666 139.701 74.584 140.696C68.4799 142.684 62.3558 144.673 56.3312 146.78C52.5534 148.132 48.8949 149.842 45.1966 151.412C37.5706 154.499 29.7774 157.154 21.8536 159.367C17.5986 160.619 13.2442 161.633 8.94941 162.767C6.96109 163.283 6.20553 164.237 5.78797 166.743C8.3728 166.205 10.8582 165.61 13.3833 165.172C22.9671 163.463 31.5567 159.207 40.2655 155.072C45.4551 152.645 50.8434 150.618 56.1721 148.471C57.2657 148.033 58.4785 147.874 59.592 147.456C62.495 146.224 65.4974 145.05 68.46 144.016C68.9325 143.808 69.4172 143.628 69.9114 143.48C72.4167 142.744 74.9221 141.948 77.4472 141.292C81.901 140.04 86.3549 138.827 90.8882 138.051C93.16 137.683 95.4762 137.683 97.748 138.051C99.1524 138.445 100.492 139.041 101.725 139.822L113.893 145.329C116.17 146.345 118.204 147.836 119.858 149.703C121.29 151.294 122.761 152.844 124.212 154.395L128.189 158.491C128.627 157.736 128.924 157.338 129.144 156.9C130.456 154.236 131.431 153.958 133.936 155.508C134.611 155.927 135.367 156.225 136.143 156.602C136.898 155.21 136.938 154.196 135.924 153.322C134.91 152.447 133.777 151.333 132.603 150.597C130.735 149.245 128.765 148.052 126.877 146.621C126.458 146.321 126.156 145.884 126.024 145.386C125.891 144.888 125.935 144.359 126.148 143.89C126.362 143.42 126.731 143.04 127.194 142.812C127.657 142.586 128.185 142.527 128.687 142.644C130.543 142.944 132.376 143.369 134.175 143.916C137.296 145.09 140.279 146.601 143.38 147.893C145.567 148.788 147.813 149.524 149.823 150.24C151.194 149.385 151.433 148.509 150.915 147.396L149.961 145.408C148.868 143.042 149.603 141.849 152.248 141.61L153.779 141.451C153.705 140.912 153.479 140.404 153.127 139.988C152.775 139.574 152.311 139.266 151.791 139.105C150.451 138.564 149.067 138.138 147.655 137.833C143.511 137.273 139.322 137.12 135.148 137.376C133.265 137.555 131.367 137.268 129.62 136.54C129.148 136.341 128.747 136.002 128.474 135.568C128.2 135.135 128.066 134.627 128.09 134.114C128.009 133.252 128.251 132.391 128.769 131.697C129.287 131.002 130.044 130.525 130.893 130.356ZM167.32 142.287L163.681 140.298C162.945 142.048 162.329 143.559 161.692 145.329C164.238 145.229 164.993 142.943 167.32 142.266V142.287ZM175.73 130.356L176.803 131.45C179.13 133.816 179.09 134.333 176.565 136.5C176.335 136.688 176.148 136.924 176.021 137.193C175.893 137.46 175.828 137.754 175.829 138.051C176.128 140.159 174.756 140.975 173.225 141.671C172.231 142.107 171.236 142.406 170.143 142.763C170.303 145.52 169.501 148.247 167.876 150.479C166.802 152.467 165.232 154.217 165.172 156.443C166.479 156.739 167.81 156.913 169.148 156.96C171.018 156.96 172.33 157.378 172.808 159.367L174.795 157.795C175.332 159.227 173.105 159.386 173.364 160.698C174.835 161.076 175.015 161.096 175.77 160.221C177.553 158.25 178.667 155.766 178.951 153.123C179.193 151.173 179.585 149.245 180.124 147.356C180.402 146.283 180.82 145.17 182.291 145.209C182.89 145.27 183.454 145.523 183.895 145.932C184.336 146.341 184.632 146.883 184.737 147.476C184.836 147.982 184.836 148.501 184.737 149.007C184.642 149.792 184.703 150.588 184.919 151.35C185.133 152.111 185.497 152.822 185.989 153.441L191.736 151.97C191.736 151.97 191.736 152.188 191.736 151.97C191.239 146.482 190.523 141.074 186.527 136.759C185.665 135.925 184.916 134.984 184.299 133.955C182.431 130.098 179.309 130.217 175.829 130.416L175.73 130.356ZM191.736 120.833C191.154 120.45 190.745 119.854 190.6 119.172C190.455 118.491 190.585 117.78 190.961 117.194C191.113 116.866 191.24 116.528 191.338 116.179C190.917 115.461 190.252 114.917 189.464 114.647C188.676 114.377 187.817 114.399 187.043 114.708C185.778 114.969 184.568 115.447 183.465 116.12C179.738 118.367 175.725 120.099 171.535 121.27C170.893 121.512 170.21 121.618 169.525 121.584C168.842 121.549 168.171 121.376 167.557 121.071C167.073 120.944 166.637 120.675 166.306 120.299C165.973 119.924 165.761 119.458 165.696 118.961C165.629 118.465 165.713 117.96 165.935 117.511C166.156 117.06 166.507 116.688 166.941 116.439C167.475 116.001 168.041 115.602 168.632 115.245C169.964 114.331 171.376 113.496 172.609 112.501C173.403 111.885 174.596 111.328 174.099 109.797C173.692 109.676 173.272 109.609 172.847 109.598C171.913 109.598 170.997 109.877 170.064 109.996C169.129 110.115 167.876 110.195 167.18 108.962C165.928 106.676 164.555 106.377 162.23 107.55C160.44 108.465 159.923 110.195 159.147 111.805C157.447 115.722 154.778 119.144 151.393 121.747C150.664 122.292 149.832 122.686 148.947 122.9C145.528 123.755 142.088 124.471 138.667 125.266C138.203 125.464 137.768 125.724 137.376 126.042C138.028 126.199 138.71 126.199 139.363 126.042C141.749 125.843 144.136 124.929 146.501 125.843C148.505 126.585 150.44 127.496 152.288 128.567C157 131.351 161.553 134.393 166.205 137.137C167.863 138.002 169.639 138.618 171.475 138.965C172.389 139.204 173.464 138.827 173.464 137.554C173.33 136.781 173.467 135.986 173.851 135.301C174.235 134.617 174.842 134.085 175.571 133.796C175.571 133.578 175.571 133.359 175.571 133.16L172.986 131.768C172.289 131.503 171.623 131.163 170.997 130.754C169.427 129.482 169.686 127.871 171.575 127.235C172.474 126.955 173.417 126.834 174.359 126.877C178.971 126.996 183.584 127.235 188.276 127.295C189.985 127.344 191.692 127.149 193.346 126.717C195.493 126.121 195.792 125.088 194.52 123.317C193.697 122.379 192.762 121.544 191.736 120.833ZM194.46 119.917L193.585 117.433C192.789 118.764 193.407 119.301 194.48 119.917H194.46ZM212.872 131.748C213.065 130.565 213.419 129.415 213.925 128.329C214.371 127.618 214.884 126.953 215.457 126.34L217.445 128.567C218.36 124.432 216.988 118.089 214.701 116.16C214.776 117.179 214.701 118.204 214.482 119.202C213.389 122.124 212.156 124.988 210.844 127.832C210.605 128.388 209.85 128.746 209.074 129.421C208.956 128.874 208.763 128.345 208.498 127.851C206.967 125.863 206.967 125.604 209.173 124.829C210.447 124.392 210.665 123.736 210.068 122.742C209.472 121.747 209.711 120.753 210.824 120.573C212.315 120.196 212.474 119.122 212.812 117.909C213.128 115.464 212.897 112.978 212.136 110.632C211.703 108.286 210.507 106.147 208.736 104.548C208.437 105.781 209.571 107.232 207.643 107.869L206.688 105.701C204.183 105.701 205.734 109.022 203.607 109.221C203.34 108.866 203.155 108.457 203.065 108.023C202.973 107.589 202.978 107.141 203.079 106.709C203.179 106.277 203.372 105.872 203.645 105.523C203.919 105.174 204.265 104.889 204.66 104.687C205.733 103.971 206.867 103.335 207.98 102.699L207.802 102.162C205.515 102.261 203.228 102.301 200.962 102.48C200.716 102.536 200.485 102.643 200.283 102.794C200.081 102.944 199.913 103.136 199.788 103.355C198.775 104.985 197.801 106.676 196.727 108.704C197.087 108.767 197.44 108.867 197.78 109.002C199.352 109.738 199.63 110.434 198.973 111.984C198.813 112.287 198.634 112.579 198.436 112.859C197.204 115.007 197.283 115.842 198.715 116.538C200.147 117.234 200.704 116.657 201.737 114.688C202.235 113.609 202.841 112.583 203.547 111.627C204.322 110.652 205.972 110.593 206.41 111.487C207.122 112.833 207.593 114.294 207.802 115.802C207.808 117.159 207.572 118.505 207.106 119.778C206.191 122.96 205.117 126.141 204.163 129.322C203.631 130.581 203.546 131.986 203.924 133.299C204.156 133.375 204.396 133.421 204.64 133.439C207.007 133.12 207.961 133.836 208.2 136.063C208.204 136.568 208.306 137.067 208.498 137.535C208.697 137.952 209.173 138.608 209.412 138.568C209.679 138.505 209.929 138.388 210.148 138.224C210.367 138.059 210.549 137.852 210.684 137.613C211.77 135.809 212.518 133.822 212.892 131.748H212.872ZM229.514 121.468C229.162 120.97 229.003 120.362 229.065 119.755C229.128 119.148 229.407 118.585 229.852 118.168C230.847 117.194 231.841 117.671 232.935 118.168C234.027 118.665 234.922 119.341 235.976 119.977C236.115 119.689 236.193 119.373 236.203 119.053C236.213 118.732 236.158 118.413 236.037 118.116C235.917 117.818 235.737 117.549 235.507 117.326C235.279 117.102 235.004 116.928 234.704 116.816C233.828 116.267 232.919 115.776 231.979 115.345C229.618 114.085 227.115 113.111 224.523 112.442C224.523 113.436 224.324 114.251 224.225 115.066C225.24 115.504 226.492 115.623 226.035 117.273L225.08 117.135H224.146C224.146 119.5 224.146 119.799 225.14 120.495C227.367 121.925 226.829 124.272 227.367 126.241C227.367 126.499 227.009 126.897 226.81 127.255C226.393 126.996 225.697 126.797 225.657 126.499C225.634 125.737 225.707 124.976 225.875 124.233C225.219 123.476 224.544 122.701 223.888 121.906C222.922 120.9 222.251 119.65 221.946 118.29C221.641 116.93 221.714 115.513 222.157 114.191C222.813 112.382 222.536 111.845 220.905 110.831L218.916 109.658C217.863 109.022 217.823 108.266 218.738 107.292L221.779 109.002L225.458 107.729L226.91 105.045L228.739 106.795C230.727 106.318 232.715 106.278 233.312 103.952C233.312 103.713 234.445 103.494 234.823 103.673C235.201 103.852 235.717 104.628 236.136 105.105C237.825 105.105 239.456 105.105 240.232 103.116L242.339 104.568C241.603 105.304 241.125 106.139 240.469 106.338C238.76 106.835 236.931 106.954 235.22 107.411C232.149 107.946 229.183 108.966 226.432 110.434C228.404 112.059 230.81 113.069 233.352 113.336C233.569 112.507 234.075 111.781 234.778 111.29C235.481 110.798 236.335 110.572 237.189 110.652C238.959 110.652 240.748 110.652 242.517 110.652C244.812 110.504 247.096 110.225 249.357 109.817C249.716 109.723 250.045 109.544 250.32 109.295C250.593 109.046 250.802 108.733 250.929 108.385C250.929 107.888 250.272 107.153 249.736 106.695C249.099 106.285 248.435 105.919 247.747 105.602C246.833 105.025 245.759 104.568 245.162 103.614C244.565 102.659 244.923 101.625 244.824 100.353C244.129 100.035 243.234 99.279 242.439 99.3585C239.621 99.5911 236.828 100.057 234.088 100.75C231.304 101.526 228.679 102.858 225.955 103.852C222.187 105.116 218.209 105.629 214.244 105.363C215.161 108.654 216.324 111.871 217.723 114.987C220.1 119.263 221.792 123.885 222.733 128.687C222.986 130.043 223.738 131.257 224.842 132.087C225.125 132.347 225.459 132.547 225.824 132.674C226.188 132.8 226.575 132.85 226.959 132.82C227.344 132.791 227.717 132.681 228.058 132.5C228.399 132.32 228.698 132.071 228.938 131.768C230.807 129.78 231.403 129.899 233.252 131.888L236.553 135.427C236.949 133.932 236.917 132.356 236.46 130.88C236.003 129.403 235.139 128.084 233.968 127.075C233.053 126.161 232.199 125.207 231.384 124.233C230.68 123.369 230.053 122.443 229.514 121.468ZM254.149 135.387C254.287 134.466 254.333 133.533 254.289 132.603C254.408 128.964 255.362 128.249 258.922 129.064C259.32 129.221 259.746 129.296 260.175 129.283C260.796 129.119 261.401 128.899 261.984 128.627C260.1 124.918 256.967 121.995 253.136 120.375C247.531 117.86 241.765 115.721 235.876 113.973C235.698 113.973 235.44 114.112 235.22 114.191C235.002 114.271 235.22 114.43 235.22 114.47C235.698 114.947 236.175 115.424 236.672 115.882C239.933 118.844 243.412 121.369 248.065 121.548C248.522 121.548 249.397 121.986 249.378 122.124C249.119 123.696 250.631 124.113 251.187 125.226C251.379 125.873 251.492 126.542 251.525 127.215L247.548 124.868C247.548 125.863 247.707 126.559 247.807 127.473C245.202 127.155 245.46 124.988 244.864 123.616L239.773 120.772C239.615 121.33 239.436 121.866 239.217 122.602L237.229 121.21L236.911 121.627C237.505 122.356 238.171 123.023 238.899 123.616C241.025 125.074 242.825 126.956 244.188 129.144C245.261 130.695 246.177 132.286 247.449 133.756C248.32 134.922 249.351 135.96 250.511 136.839C250.817 137.07 251.177 137.218 251.556 137.268C251.936 137.32 252.322 137.272 252.679 137.13C253.034 136.988 253.347 136.756 253.588 136.458C253.828 136.16 253.987 135.804 254.05 135.427L254.149 135.387ZM167.876 124.769C169.645 124.57 171.515 123.675 172.827 124.988C175.372 124.451 177.619 124.113 179.807 123.497C181.993 122.881 184.081 122.046 185.93 121.39C185.712 120.355 185.492 119.401 185.175 117.969C184.24 118.605 183.345 118.944 182.928 119.6C182.519 120.188 181.991 120.683 181.377 121.053C180.764 121.424 180.08 121.659 179.369 121.747C178.036 122.065 176.784 122.642 175.392 121.747C175.153 121.608 174.736 121.747 174.418 121.747C170.898 122.363 167.399 123.099 163.88 123.616C162.394 123.652 160.908 123.539 159.445 123.279C160.798 121.866 161.812 120.952 162.627 119.898C163.442 118.844 164.834 118.049 164.277 115.921L161.036 119.083C160.639 118.347 160.281 117.731 159.625 116.577C159.306 117.651 158.929 118.208 159.048 118.565C159.314 119.434 159.288 120.367 158.971 121.218C158.655 122.069 158.067 122.794 157.298 123.279C155.648 123.159 153.978 122.98 152.288 122.96C152.016 122.983 151.753 123.075 151.527 123.228C151.3 123.381 151.117 123.591 150.995 123.835C150.876 124.212 151.313 124.908 151.711 125.226C153.105 126.215 154.8 126.687 156.503 126.559C158.713 126.578 160.855 127.333 162.587 128.706C164.198 129.999 165.968 131.092 167.657 132.285L168.075 131.867C167.26 128.964 164.317 127.891 162.647 125.723C164.377 125.486 166.106 124.988 167.876 124.769ZM247.032 70.4482C247.529 70.4482 248.324 70.4482 248.503 70.7068C249.855 72.8741 252.48 71.8004 254.229 73.0729C254.428 73.212 255.064 72.7548 255.501 72.5559C255.34 72.1242 255.133 71.711 254.885 71.3231C254.64 71.0826 254.339 70.9053 254.01 70.8062L246.673 68.0822C247.2 67.4798 247.794 66.9394 248.443 66.4717C250.65 65.1991 252.877 63.8869 255.203 62.833C259.716 60.8447 264.309 58.8564 268.883 57.0072C269.778 56.6493 270.612 56.371 270.872 55.0189C268.684 54.1639 267.093 56.0528 264.906 56.2517C265.284 55.7148 265.443 55.4365 265.642 55.1978C266.159 54.6213 266.875 53.9253 266.08 53.2095C265.284 52.4937 264.43 53.3487 264.091 54.0048C263.497 55.1421 262.978 56.3178 262.54 57.5241L255.362 59.9698C255.025 59.2143 254.905 58.3196 254.467 58.1008C253.553 57.6633 252.837 58.2201 252.48 59.1745C252.281 59.7312 252.102 60.3078 251.863 60.8447C251.625 61.3815 251.405 62.0377 250.968 62.3359C249.477 63.3698 247.906 64.3242 245.858 65.5173C246.475 63.4295 246.892 61.8786 247.389 60.3674C247.887 58.8564 248.443 57.6434 248.841 56.2517C249.139 55.2376 249.059 54.2633 247.728 53.9054C246.892 56.1324 246.097 58.1804 245.341 60.268C245.084 60.8088 244.909 61.3853 244.824 61.9781C244.618 63.6034 243.925 65.1285 242.836 66.3524C242.319 67.0482 241.762 67.7044 241.305 68.3407C240.53 69.6132 241.066 70.5079 242.578 70.4681C244.089 70.4284 245.6 70.4482 247.032 70.4482ZM268.147 93.0754C268.05 93.6527 267.78 94.1866 267.372 94.6064C266.239 95.4165 265.01 96.0842 263.713 96.5948C263.295 96.726 262.931 96.9922 262.679 97.3519C262.427 97.7116 262.301 98.1445 262.322 98.5831C262.322 99.5773 263.137 99.7761 263.952 99.7959C266.252 100.06 268.42 101.009 270.176 102.52C271.647 103.534 273.138 104.508 274.669 105.502C275.12 105.884 275.685 106.105 276.275 106.13C276.866 106.155 277.448 105.983 277.93 105.642L275.245 103.335C275.743 102.798 276.14 102.341 276.538 101.884C276.033 101.52 275.493 101.207 274.928 100.949C274.346 100.786 273.739 100.732 273.138 100.79C272.09 100.784 271.055 100.557 270.098 100.126C269.143 99.6944 268.289 99.0672 267.591 98.2848L279.263 97.8077C279.73 97.4612 280.265 97.2173 280.833 97.0918C283.206 96.8733 285.591 96.8135 287.971 96.9129C293.161 97.2906 298.33 97.8673 303.52 98.3445C304.063 98.2812 304.596 98.1543 305.111 97.9668C303.996 96.7141 302.525 95.9784 303.122 93.8708C301.764 93.873 300.418 94.1153 299.145 94.5865C297.163 95.5964 294.888 95.8711 292.723 95.362C287.792 94.7357 282.801 94.7357 277.871 95.362C275.504 95.7597 273.098 95.9386 270.712 96.1573C270.034 96.0942 269.367 95.9472 268.724 95.7199C269.459 95.2228 269.797 95.024 270.116 94.7655C273.128 91.9653 276.572 89.669 280.316 87.9654C280.913 87.7468 281.271 86.9911 281.827 86.3946C281.258 85.9776 280.557 85.782 279.855 85.8441C279.152 85.9063 278.496 86.2222 278.009 86.7327C277.519 87.1825 276.876 87.4321 276.21 87.4321C275.544 87.4321 274.901 87.1825 274.41 86.7327C274.41 86.7327 274.113 86.852 273.794 86.9911C273.794 87.7269 273.933 88.5222 274.013 89.2578L270.752 91.6438L268.625 89.8344C268.405 91.5444 268.346 92.3199 268.147 92.9959V93.0754ZM177.679 153.957L177.063 155.33L178.136 154.296L177.679 153.957ZM221.123 35.8117C220.56 34.8208 220.321 33.6788 220.439 32.545C220.556 31.4114 221.025 30.3429 221.779 29.4888C222.392 28.3025 222.815 27.0279 223.032 25.711C223.145 25.2205 223.218 24.7218 223.251 24.2198C220.448 24.4384 221.064 27.8783 218.639 28.5543C217.683 25.8104 216.769 23.1262 215.795 20.4817C215.602 19.7645 215.201 19.1207 214.642 18.6326C213.339 17.7736 212.426 16.4389 212.097 14.9144C211.6 13.3237 211.003 11.753 210.447 10.1623H209.631C209.631 10.9179 209.154 11.7728 209.372 12.4289C209.938 15.2815 211.082 17.9881 212.732 20.3823C213.616 21.4344 214.345 22.6058 214.9 23.8618C215.682 25.2356 216.081 26.7946 216.053 28.3753L210.824 26.387C210.466 25.4922 211.42 23.9414 209.531 23.9016C209.114 24.6572 208.697 25.353 208.319 26.0292C206.383 25.2264 204.309 24.8078 202.215 24.7964C202.413 26.4268 203.467 26.904 204.64 27.2221C207.047 27.8584 209.472 28.3554 211.837 29.2104C214.721 30.1648 217.425 31.4374 218.26 34.8374C218.427 35.5013 218.763 36.1109 219.234 36.607C219.438 36.7406 219.667 36.8277 219.908 36.8621C220.148 36.8965 220.394 36.8773 220.626 36.8058C220.788 36.6879 220.919 36.5318 221.005 36.3513C221.091 36.171 221.132 35.9719 221.123 35.7719V35.8117ZM125.088 132.186C125.784 131.609 126.121 131.033 125.545 130.197C125.416 130.13 125.273 130.093 125.127 130.093C124.981 130.093 124.839 130.13 124.71 130.197C124.133 130.953 124.252 131.609 125.088 132.186ZM174.139 58.7569C173.821 60.1289 173.145 61.6599 175.173 62.833C175.631 60.4271 176.068 58.2599 176.525 55.9534C174.16 55.8738 174.397 57.5639 174.139 58.7569ZM161.354 71.184C162.408 72.4167 163.621 73.5103 164.655 74.763C166.922 77.5069 166.643 79.7934 164.058 82.08C163.657 82.3988 163.296 82.7661 162.985 83.1736C162.834 83.342 162.727 83.544 162.671 83.7629C162.613 83.9816 162.611 84.2106 162.661 84.4308C162.713 84.6509 162.815 84.8557 162.961 85.0279C163.107 85.2 163.292 85.3346 163.501 85.4203C165.287 84.3557 166.891 83.0133 168.253 81.4437C168.779 80.8024 169.411 80.2575 170.123 79.8332C171.972 78.9782 173.9 78.2823 175.81 77.5268C176.585 77.2285 177.679 77.1092 177.262 75.8964C176.843 74.6834 175.929 75.0612 175.074 75.3396C174.587 75.4921 174.109 75.6713 173.642 75.8764C172.728 76.2741 171.833 76.7116 170.819 77.1688C170.699 76.1746 170.62 75.4788 170.481 74.4647C169.825 74.9816 169.467 75.3197 169.049 75.5782C168.699 75.791 168.333 75.977 167.955 76.1349L161.216 67.6447C160.985 67.8824 160.804 68.1645 160.687 68.4737C160.568 68.7831 160.513 69.1133 160.527 69.4441C160.539 69.7751 160.619 70.1 160.762 70.3991C160.904 70.6981 161.106 70.9652 161.354 71.184ZM172.808 72.9735C173.682 70.667 174.359 68.8775 174.975 67.0085C174.975 66.7897 174.716 66.4319 174.477 65.9348C172.489 67.4062 172.648 69.474 171.972 71.1641C171.852 71.522 172.33 72.0191 172.808 72.9735ZM125.445 107.908C126.36 106.695 125.585 105.781 125.067 104.647L119.103 104.866C120.176 103.554 121.091 102.44 122.065 101.228C123.181 99.7487 124.204 98.2014 125.127 96.5948C125.536 95.9678 125.739 95.2295 125.712 94.4817C125.683 93.734 125.423 93.0134 124.968 92.4193C123.356 97.2598 120.216 101.446 116.02 104.349C115.279 102.642 114.667 100.88 114.191 99.0801C113.893 97.4497 114.589 95.6404 113.416 93.831C113.098 94.1945 112.806 94.5799 112.541 94.9842C112.375 95.2832 112.236 95.5958 112.124 95.9188C111.269 96.1573 110.334 95.1036 109.976 96.3959C109.618 97.6884 110.573 97.7281 111.209 98.0661C111.669 98.2936 112.157 98.4607 112.66 98.5632C112.959 100.094 113.217 101.267 113.396 102.54C113.754 105.105 113.953 107.67 111.607 109.598C111.403 109.853 111.248 110.143 111.149 110.453C112.382 111.288 113.138 110.453 113.635 109.738C114.932 108.431 116.651 107.628 118.487 107.471C119.103 108.207 119.579 108.823 120.336 109.718L120.952 107.312C122.781 105.96 123.935 107.988 125.445 107.908ZM126.121 85.2812C125.207 86.9481 124.898 88.8801 125.247 90.749C127.155 88.3432 127.335 87.3292 126.121 85.2812ZM150.777 84.1876C151.652 82.1408 151.827 79.8621 151.274 77.7057L153.739 76.4133L150.915 74.6437C150.915 73.8881 150.915 73.0729 150.915 72.2775L152.904 71.8799C153.6 69.8916 151.393 70.3092 150.915 69.5336V64.7617C148.649 66.1137 149.743 68.2612 148.708 70.17C147.977 67.1089 146.207 64.3965 143.698 62.495C143.44 61.5406 144.752 60.3476 143.221 59.4528L141.849 60.0096C140.516 59.3136 139.344 58.6177 138.111 58.0213C136.879 57.4248 136.401 56.9078 136.6 55.6551C136.719 54.9194 136.6 54.2434 135.527 54.1838L134.333 56.2716L131.092 55.1382C131.092 53.5476 131.649 51.8376 129.88 50.744C128.607 52.1756 130.337 53.468 129.88 54.5417L128.308 55.4961C128.661 56.0086 129.075 56.476 129.541 56.8879C130.091 57.1364 130.664 57.3295 131.251 57.4645C134.412 58.6774 137.892 59.2938 140.397 61.8786C141.411 62.9126 142.386 64.026 143.38 65.0201C145.813 67.5673 147.581 70.6744 148.53 74.067C148.803 75.1612 149.016 76.2697 149.165 77.3876C146.899 76.6519 145.627 74.4647 143.201 75.0612C143.24 75.6008 143.127 76.1407 142.874 76.6189C142.62 77.097 142.237 77.4943 141.769 77.7653C141.491 77.9244 141.531 78.6998 141.352 79.5151L146.124 78.1431L150.1 80.4893C149.802 81.3642 149.524 82.1596 149.226 83.0543C148.092 83.0543 147.098 83.0543 146.084 83.0543C145.071 83.0543 144.453 83.7502 144.991 84.9034L148.808 85.0029C148.295 85.9961 148.092 87.1209 148.227 88.231C148.361 89.341 148.827 90.3848 149.563 91.2263C149.852 90.3876 150.084 89.5308 150.259 88.6614C150.268 87.1578 150.428 85.6591 150.737 84.1876H150.777ZM123.696 132.663C122.145 132.305 122.124 132.305 121.369 131.012C120.971 130.337 120.573 129.88 119.619 130.595L120.315 133.737C118.211 134.623 116.044 135.354 113.833 135.924C112.481 136.202 110.752 136.401 109.857 135.129C107.869 135.129 106.079 135.427 104.329 135.387C103.156 135.387 102.838 135.844 102.818 136.997L104.906 137.236C106.355 137.242 107.802 137.328 109.24 137.495C110.49 137.673 111.701 138.063 112.819 138.648C114.023 139.364 115.149 140.204 116.179 141.153C117.143 141.852 117.977 142.714 118.646 143.698C119.679 145.687 121.707 146.423 123.338 148.232C123.599 147.699 123.656 147.09 123.498 146.519C123.341 145.947 122.979 145.453 122.483 145.13C121.655 144.416 120.878 143.645 120.156 142.824C119.481 142.088 118.904 141.252 118.168 140.497C117.433 139.742 117.194 139.523 116.737 139.065L138.887 141.71L140.04 144.931C142.028 144.633 140.577 143.141 141.411 142.187C141.912 142.202 142.41 142.255 142.903 142.346C143.455 142.554 144.019 142.728 144.593 142.863C145.01 142.863 145.428 142.545 145.845 142.365C145.635 141.996 145.395 141.644 145.13 141.312C144.811 140.994 144.215 140.815 144.096 140.457C143.4 138.568 143.002 138.25 141.292 139.126C140.223 139.635 139.02 139.802 137.852 139.602C132.842 139.046 127.911 138.588 122.801 138.011C121.46 137.766 120.133 137.453 118.824 137.077C120.156 134.89 123.317 135.387 123.696 132.663ZM176.883 155.469C176.883 155.469 176.883 155.33 176.883 155.25V155.469ZM255.362 38.1777C257.372 38.159 259.374 37.9122 261.328 37.4421C261.685 37.4421 261.924 36.7462 262.202 36.3882C261.876 36.0705 261.5 35.8086 261.089 35.6128C260.581 35.5325 260.065 35.5325 259.557 35.6128L254.031 36.0105C254.031 34.9368 255.601 34.4993 254.488 33.0877C253.474 33.704 252.499 34.3602 251.386 34.9766C250.889 35.255 250.352 35.7321 249.855 35.7122C247.866 35.7122 245.879 35.4537 243.412 35.2749C245.003 33.9228 246.256 33.028 247.389 31.9543C247.999 31.0753 248.813 30.3586 249.763 29.8665C250.713 29.3744 251.768 29.1218 252.837 29.1309C253.295 29.1309 253.792 28.614 254.268 28.3356L253.513 27.1226C253.375 26.9239 253.215 26.7648 253.036 26.5063C254.289 24.9753 255.581 23.5039 256.754 21.9729C258.563 19.6069 260.373 17.2407 262.043 14.7752C262.373 14.2198 262.575 13.5967 262.629 12.9527C262.684 12.3087 262.593 11.6605 262.361 11.057L260.373 13.4828L259.2 12.3296C258.959 12.3962 258.737 12.5198 258.552 12.6898C258.368 12.8598 258.227 13.0713 258.141 13.3069C258.056 13.5423 258.028 13.7949 258.06 14.0433C258.092 14.2919 258.183 14.5292 258.326 14.7354C258.56 15.2438 258.628 15.8132 258.522 16.3629C258.415 16.9126 258.137 17.4145 257.729 17.7975C257.109 18.6152 256.445 19.3984 255.74 20.1437C254.05 21.9332 252.34 23.7226 250.61 25.4724C248.621 27.5999 246.415 29.7274 244.267 31.7952C243.489 32.3722 242.665 32.8842 241.802 33.3263C241.941 31.0794 242.06 29.3496 242.18 27.6993L243.81 26.0888L241.444 24.4384C241.026 22.8677 240.112 21.1577 242.439 20.1039C242.602 19.9407 242.717 19.736 242.773 19.5118C242.829 19.2876 242.824 19.0524 242.756 18.8313C242.605 18.6534 242.41 18.5177 242.191 18.4375C241.971 18.3574 241.735 18.3356 241.504 18.3741C240.691 18.6953 239.913 19.0949 239.177 19.5671C239.177 20.6805 239.177 21.5554 239.177 22.4104C239.356 25.9695 239.575 29.5087 239.714 33.0678C239.84 33.7452 239.76 34.4447 239.483 35.0758C239.207 35.7068 238.747 36.2402 238.163 36.607C237.905 36.7462 237.786 37.124 237.607 37.3625C238.84 38.6948 238.88 38.6948 240.092 37.979C240.708 37.621 241.404 37.0644 242.081 37.1041C246.594 37.4023 250.988 37.9591 255.362 38.1777ZM262.938 15.5506C263.515 15.428 264.072 15.2202 264.588 14.9343C264.965 14.636 265.085 14.0396 265.324 13.5822C264.787 13.4629 264.171 13.105 263.753 13.2641C263.52 13.3214 263.304 13.4367 263.127 13.5993C262.949 13.7621 262.816 13.9668 262.738 14.1946C262.661 14.4226 262.642 14.6663 262.684 14.9033C262.727 15.1404 262.827 15.363 262.978 15.5506H262.938Z" fill="#101A24"/>
</g>
</svg>
