<svg width="114" height="118" viewBox="0 0 114 118" fill="none" xmlns="http://www.w3.org/2000/svg">
<g opacity="0.1">
<path fill-rule="evenodd" clip-rule="evenodd" d="M8.5793 81.9532C9.15073 83.0363 9.79606 84.0788 10.5107 85.0732C11.1736 86.0332 12.0422 86.8675 12.6365 87.8732C13.7213 89.7555 15.0897 91.4592 16.6936 92.9246C18.385 94.4446 19.7679 96.2732 21.8365 97.4046C23.3205 98.2411 24.6756 99.2881 25.8593 100.513C28.5786 103.004 31.5868 105.161 34.8193 106.936C37.4325 108.529 40.1554 109.935 42.9679 111.142C46.9565 112.856 51.0365 114.342 55.105 115.862C55.9509 116.096 56.8221 116.226 57.6993 116.25C59.0936 116.387 60.4993 116.467 61.8936 116.605C62.7622 116.696 63.6193 116.89 64.4993 116.947C67.825 117.199 71.1622 117.347 74.4879 117.645C77.5448 117.878 80.6191 117.704 83.6308 117.13C84.4937 116.967 85.3696 116.883 86.2479 116.879C89.9977 116.902 93.7124 116.154 97.1622 114.685C98.625 114.09 100.168 113.713 101.734 113.245C102.478 113.084 103.208 112.863 103.916 112.582C106.202 111.439 108.488 110.387 110.602 109.062C111.69 108.575 112.612 107.78 113.254 106.776C113.787 105.543 113.991 104.192 113.848 102.856C113.865 102.354 113.772 101.854 113.574 101.392C113.377 100.93 113.08 100.516 112.705 100.182C112.018 99.4545 111.369 98.6916 110.762 97.896C109.482 96.3646 108.305 94.7417 106.911 93.3246C103.915 90.4295 101.191 87.2657 98.7736 83.8732C97.5508 82.056 96.2822 80.1475 94.8765 78.3189C92.5908 75.2675 90.1908 72.296 87.8822 69.2446C87.5501 68.6256 87.304 67.9644 87.1508 67.2789C86.5222 67.2789 86.0079 66.8446 85.4136 66.136C83.5515 64.0576 81.8186 61.8668 80.2251 59.576C77.4936 55.5417 74.5108 51.7132 71.5965 47.7817C70.8765 46.7875 70.2822 45.7132 69.5393 44.7303C66.5487 40.8599 63.8988 36.7379 61.6193 32.4103C60.8651 30.9589 59.9279 29.5989 59.0365 28.216C58.0079 26.5817 56.9336 24.9703 55.8822 23.3475C54.9233 21.7293 53.882 20.1615 52.7622 18.6503C50.508 15.7749 48.4972 12.7167 46.7508 9.50747C44.945 6.35319 43.3222 3.01604 39.745 1.37033C39.6365 1.33391 39.541 1.26633 39.4708 1.17604C38.8765 -0.161101 37.7336 0.14747 36.7279 0.238899C35.6106 0.343472 34.5119 0.593193 33.4593 0.981756C29.4305 2.33525 25.6649 4.37267 22.3279 7.00461C19.6422 9.18747 17.1622 11.576 14.625 13.976C12.9247 15.3125 11.39 16.8471 10.0536 18.5475C7.81139 21.9278 5.82858 25.4732 4.12215 29.1532C2.15497 33.0323 0.878732 37.2245 0.350724 41.5417C0.129771 43.8884 0.0192948 46.2351 0.0192948 48.5817C-0.0439526 50.2211 0.0478844 51.8627 0.293581 53.4846C0.78501 56.4217 1.50501 59.336 2.11073 62.2732C2.35073 63.416 2.46501 64.7075 2.77358 65.896C3.24215 67.656 3.91644 69.3246 4.35073 71.1189C5.30575 74.8916 6.72618 78.531 8.5793 81.9532Z" fill="white"/>
<path fill-rule="evenodd" clip-rule="evenodd" d="M8.5793 81.9532C9.15073 83.0363 9.79606 84.0788 10.5107 85.0732C11.1736 86.0332 12.0422 86.8675 12.6365 87.8732C13.7213 89.7555 15.0897 91.4592 16.6936 92.9246C18.385 94.4446 19.7679 96.2732 21.8365 97.4046C23.3205 98.2411 24.6756 99.2881 25.8593 100.513C28.5786 103.004 31.5868 105.161 34.8193 106.936C37.4325 108.529 40.1554 109.935 42.9679 111.142C46.9565 112.856 51.0365 114.342 55.105 115.862C55.9509 116.096 56.8221 116.226 57.6993 116.25C59.0936 116.387 60.4993 116.467 61.8936 116.605C62.7622 116.696 63.6193 116.89 64.4993 116.947C67.825 117.199 71.1622 117.347 74.4879 117.645C77.5448 117.878 80.6191 117.704 83.6308 117.13C84.4937 116.967 85.3696 116.883 86.2479 116.879C89.9977 116.902 93.7124 116.154 97.1622 114.685C98.625 114.09 100.168 113.713 101.734 113.245C102.478 113.084 103.208 112.863 103.916 112.582C106.202 111.439 108.488 110.387 110.602 109.062C111.69 108.575 112.612 107.78 113.254 106.776C113.787 105.543 113.991 104.192 113.848 102.856C113.865 102.354 113.772 101.854 113.574 101.392C113.377 100.93 113.08 100.516 112.705 100.182C112.018 99.4545 111.369 98.6916 110.762 97.896C109.482 96.3646 108.305 94.7417 106.911 93.3246C103.915 90.4295 101.191 87.2657 98.7736 83.8732C97.5508 82.056 96.2822 80.1475 94.8765 78.3189C92.5908 75.2675 90.1908 72.296 87.8822 69.2446C87.5501 68.6256 87.304 67.9644 87.1508 67.2789C86.5222 67.2789 86.0079 66.8446 85.4136 66.136C83.5515 64.0576 81.8186 61.8668 80.2251 59.576C77.4936 55.5417 74.5108 51.7132 71.5965 47.7817C70.8765 46.7875 70.2822 45.7132 69.5393 44.7303C66.5487 40.8599 63.8988 36.7379 61.6193 32.4103C60.8651 30.9589 59.9279 29.5989 59.0365 28.216C58.0079 26.5817 56.9336 24.9703 55.8822 23.3475C54.9233 21.7293 53.882 20.1615 52.7622 18.6503C50.508 15.7749 48.4972 12.7167 46.7508 9.50747C44.945 6.35319 43.3222 3.01604 39.745 1.37033C39.6365 1.33391 39.541 1.26633 39.4708 1.17604C38.8765 -0.161101 37.7336 0.14747 36.7279 0.238899C35.6106 0.343472 34.5119 0.593193 33.4593 0.981756C29.4305 2.33525 25.6649 4.37267 22.3279 7.00461C19.6422 9.18747 17.1622 11.576 14.625 13.976C12.9247 15.3125 11.39 16.8471 10.0536 18.5475C7.81139 21.9278 5.82858 25.4732 4.12215 29.1532C2.15497 33.0323 0.878732 37.2245 0.350724 41.5417C0.129771 43.8884 0.0192948 46.2351 0.0192948 48.5817C-0.0439526 50.2211 0.0478844 51.8627 0.293581 53.4846C0.78501 56.4217 1.50501 59.336 2.11073 62.2732C2.35073 63.416 2.46501 64.7075 2.77358 65.896C3.24215 67.656 3.91644 69.3246 4.35073 71.1189C5.30575 74.8916 6.72618 78.531 8.5793 81.9532ZM19.9165 24.296C19.627 25.246 19.4318 26.2221 19.3336 27.2103C19.298 27.7328 19.1176 28.235 18.8128 28.6608C18.5081 29.0868 18.0909 29.4195 17.6079 29.6217C17.1508 29.8617 16.7165 30.1475 16.2022 30.456C15.665 28.8103 16.6136 27.5189 16.8879 26.136C17.2422 24.6005 17.716 23.0949 18.305 21.6332C18.8765 20.1017 19.4479 18.536 21.1165 17.816C21.3548 17.7449 21.5999 17.699 21.8479 17.6789C21.1508 20.0332 20.4993 22.1589 19.9165 24.296ZM23.0479 18.216C23.505 16.9703 23.985 15.6446 25.7336 15.2332C25.5279 15.8389 25.3908 16.376 25.1965 16.7989C24.1793 19.3589 23.1393 21.9075 22.1336 24.4675C21.9204 24.9456 21.7853 25.455 21.7336 25.976C21.7336 26.8903 21.1508 27.1189 20.0879 27.3703C20.4536 26.2275 20.7508 25.3017 21.0479 24.3875C21.7336 22.3189 22.305 20.2389 23.0479 18.216ZM20.4879 29.5417L20.0079 31.2217C19.4479 30.1246 19.4479 30.1246 20.4879 29.5417ZM36.4879 95.7246C35.7769 95.5238 35.1265 95.1507 34.5942 94.6383C34.062 94.126 33.6642 93.4902 33.4365 92.7875C33.2193 92.7875 32.9336 92.9475 32.7965 92.856C31.629 92.158 30.6424 91.1949 29.9165 90.0446C30.5793 89.7817 30.8536 90.1475 31.1622 90.4675L33.4479 92.7532L36.4879 95.7246ZM37.9965 98.9132L37.6079 99.7589C37.3908 99.7589 37.265 99.8503 37.1736 99.7589C34.0879 98.2503 31.5622 95.9417 28.865 93.8732C28.7458 93.7263 28.6614 93.5545 28.6178 93.3704C28.5743 93.1864 28.5728 92.995 28.6136 92.8103C28.8062 92.2111 29.0589 91.6329 29.3679 91.0846L37.9965 98.9132ZM39.1393 99.4846L47.7793 105.45L45.4936 105.987C43.6079 104.685 41.6193 103.359 39.6879 101.953C38.5679 101.199 38.5222 100.799 39.1165 99.4846H39.1393ZM28.3393 90.7989C24.625 87.8617 22.1793 84.1017 19.3565 80.5703L20.2593 78.5246C23.105 82.2617 25.6193 85.9189 29.2193 88.8103L28.3393 90.7989ZM13.2308 50.136C13.4593 53.1532 13.6536 55.9189 13.8936 58.6846C13.8636 59.847 14.0296 61.0061 14.385 62.1132C15.1508 63.7703 14.1336 64.3989 13.1508 65.3817C12.906 64.9748 12.7175 64.5365 12.5908 64.0789C12.145 60.536 11.7222 56.9932 11.345 53.4389C11.2823 52.7614 11.4296 52.0809 11.767 51.4901C12.1044 50.8991 12.6153 50.4264 13.2308 50.136ZM10.4079 50.9017C10.5336 48.3646 10.6022 46.3303 10.7507 44.2046C10.8993 42.0789 11.1393 39.9075 11.345 37.7589C11.3512 36.9665 11.606 36.1961 12.0735 35.5563C12.541 34.9165 13.1976 34.4397 13.9508 34.1932C13.7793 36.2046 13.6422 38.0446 13.4479 39.9075C13.031 42.4411 12.8702 45.0102 12.9679 47.576C13.0085 47.9854 12.8897 48.3948 12.6365 48.7189C12.0536 49.3475 11.3679 49.9532 10.4079 50.9017ZM15.3793 64.7989C15.9393 66.3303 16.4079 67.7132 16.9565 69.0617C17.7108 70.9017 18.4079 72.776 19.3222 74.536C20.2365 76.296 19.5279 77.736 18.5793 79.5189C17.8004 78.5036 17.1192 77.4168 16.545 76.2732C15.5279 73.5303 14.6479 70.7303 13.7908 67.9303C13.4593 66.856 13.7336 66.5589 15.3793 64.7989ZM21.7336 77.0846C22.9679 79.2332 24.2022 81.3589 25.4365 83.4846L25.2079 83.6446C24.8993 83.2103 24.6022 82.7532 24.2593 82.3303C23.3565 81.1875 22.4308 80.0446 21.5165 78.9017C20.8536 78.0446 20.8765 77.9303 21.7336 77.0846ZM18.1108 66.4903C18.5217 69.1701 19.359 71.7667 20.5908 74.1817C20.785 74.5932 21.2879 75.0617 20.6936 75.6789C20.0422 74.2617 19.3336 72.936 18.7965 71.5417C17.9508 69.3475 17.2422 67.1075 16.4422 64.8903C16.2801 64.5431 16.2416 64.1509 16.3332 63.7789C16.4246 63.4068 16.6405 63.0772 16.945 62.8446C17.4706 64.0148 17.8728 65.2367 18.145 66.4903H18.1108ZM15.3222 62.3875C15.0936 60.4446 14.8422 58.7875 14.7165 57.1189C14.545 54.9017 14.4879 52.6732 14.3279 50.456C14.2599 49.6335 14.4229 48.8084 14.7985 48.0734C15.1741 47.3384 15.7472 46.7229 16.4536 46.296C16.4536 47.8617 16.3965 49.2332 16.4536 50.5932C16.5336 54.0217 16.6365 57.3589 16.7393 60.7417C16.7622 61.416 16.785 61.416 15.3565 62.3875H15.3222ZM15.905 45.2446C15.2536 45.8846 14.6365 46.5475 13.9965 47.1989L13.7336 47.0046C13.7336 45.8617 13.7336 44.7189 13.905 43.576C14.2479 40.6732 14.7279 37.7932 15.0479 34.8903C15.1418 33.9814 15.4746 33.1134 16.0126 32.3748C16.5505 31.6361 17.2744 31.0529 18.1108 30.6846C17.9279 31.8275 17.7565 32.8446 17.6079 33.8275C17.2879 35.896 16.9336 37.9646 16.6708 40.0446C16.6101 40.7459 16.6641 41.4523 16.8308 42.136C16.9837 42.6824 16.9813 43.2606 16.8239 43.8056C16.6664 44.3508 16.36 44.8412 15.9393 45.2217L15.905 45.2446ZM19.2193 31.7475L19.6536 31.8846C19.3679 32.6846 19.0822 33.4846 18.8079 34.2732C18.6852 33.8423 18.6616 33.3892 18.7388 32.9478C18.816 32.5065 18.9919 32.0884 19.2536 31.7246L19.2193 31.7475ZM16.4993 23.7475C16.0193 25.8046 15.5165 27.8503 15.025 29.9075C14.9202 30.668 14.6029 31.3836 14.1096 31.9719C13.6164 32.5601 12.9671 32.9974 12.2365 33.2332C12.4879 31.9875 12.6479 30.856 12.945 29.8046C13.5622 27.5989 14.225 25.416 14.8993 23.2332C15.0677 22.7419 15.3455 22.2952 15.7118 21.927C16.0781 21.5588 16.5232 21.2785 17.0136 21.1075C16.865 22.0103 16.7279 22.856 16.5336 23.6903L16.4993 23.7475ZM11.9279 30.3303C11.8666 31.0783 11.7637 31.8224 11.6193 32.5589C11.3753 33.4992 10.9899 34.3971 10.4764 35.2217C9.66258 36.2953 8.7928 37.3253 7.87073 38.3075C7.51644 37.3246 7.99644 34.2046 9.01358 30.8675C9.67162 28.3241 11.0864 26.0406 13.0708 24.3189C12.6936 26.4332 12.305 28.3189 11.9622 30.2732L11.9279 30.3303ZM8.91073 39.4732C9.13087 38.8071 9.4718 38.1872 9.91644 37.6446L10.3279 37.7817C10.305 38.5475 10.305 39.336 10.305 40.1475C10.0841 43.1951 9.8593 46.2427 9.63073 49.2903C9.63073 49.5303 9.47073 49.8046 9.56215 49.9875C10.545 52.1703 8.77358 53.2675 7.81358 54.6732L7.43644 54.5817C7.39646 54.0263 7.39646 53.4686 7.43644 52.9132C7.87073 48.376 8.36215 43.9075 8.94501 39.4503L8.91073 39.4732ZM10.3964 53.9303C10.4993 55.0732 10.6022 56.216 10.6936 57.3589C10.7804 60.2323 11.2375 63.0824 12.0536 65.8389C12.1112 66.0511 12.1257 66.2726 12.0962 66.4905C12.0669 66.7084 11.9941 66.9182 11.8822 67.1075C11.345 67.8732 10.945 68.9475 9.52787 68.6503C9.19644 66.3646 8.84215 64.0789 8.51073 61.7932C8.46382 60.9195 8.3646 60.0493 8.21358 59.1875C7.59644 56.9589 8.62501 55.3703 10.3964 53.9303ZM17.2536 79.7132C17.5713 80.1156 17.7366 80.6174 17.7198 81.1299C17.7031 81.6423 17.5055 82.1324 17.1622 82.5132C16.1806 81.6075 15.4318 80.4784 14.9793 79.2217C14.1336 77.0846 13.1508 75.016 12.2365 72.9132C11.9736 72.3189 11.8022 71.6903 11.5165 71.1189C10.9679 69.976 11.3107 69.2217 12.4765 68.5475C12.8582 69.2281 13.1831 69.9391 13.4479 70.6732C14.2668 73.864 15.5654 76.9121 17.2993 79.7132H17.2536ZM18.1336 86.2275C18.5793 86.6846 18.9793 87.0503 19.3336 87.4503C21.0479 89.4503 22.7622 91.4617 24.4879 93.4503C24.7792 93.7427 25.1356 93.962 25.5279 94.0903C26.0879 94.3074 26.4308 94.0903 26.4536 93.4503C23.4263 91.3297 20.918 88.5519 19.1165 85.3246C19.0301 85.1723 18.9265 85.0304 18.8079 84.9017C17.7565 83.7589 17.7565 83.496 19.0022 82.0332L27.5736 91.7932C27.2422 93.1303 26.9336 94.3532 26.6022 95.7246C26.2623 95.5885 25.9399 95.4119 25.6422 95.1989C23.3565 93.1189 21.1622 91.0503 18.9908 88.9017C18.5692 88.6168 18.2583 88.1954 18.1106 87.7086C17.9629 87.2216 17.9871 86.6987 18.1793 86.2275H18.1336ZM36.0536 104.376C33.7679 103.062 31.585 101.873 29.4822 100.502C28.9742 100.263 28.5463 99.8827 28.2501 99.406C27.954 98.9294 27.8023 98.3771 27.8136 97.816C27.9871 98.0013 28.1743 98.1732 28.3736 98.3303C30.6593 99.8617 32.945 101.37 35.2308 102.902C35.6993 103.21 36.385 103.416 36.0536 104.376ZM36.3393 102.273C34.8036 101.669 33.3517 100.87 32.0193 99.896C30.8765 99.2789 29.985 98.4332 28.9793 97.7475C27.425 96.6046 27.4136 96.6732 28.145 94.5589L33.9622 99.016C34.705 99.5875 35.4593 100.159 36.2479 100.673C37.0365 101.187 36.8308 101.599 36.3393 102.273ZM47.9165 109.987C44.7605 108.692 41.7653 107.035 38.9908 105.05C38.4422 104.65 37.8479 104.239 38.1108 103.325C38.1908 103.005 37.7908 102.559 37.4365 101.793C38.4765 102.365 39.1965 102.707 39.8479 103.13C41.8136 104.399 43.7565 105.702 45.6993 106.993C46.2625 107.303 46.7521 107.731 47.1349 108.248C47.5175 108.765 47.784 109.358 47.9165 109.987ZM58.2022 112.936C55.8022 112.273 53.425 111.553 51.025 110.947C50.565 110.844 50.1364 110.633 49.7745 110.331C49.4127 110.029 49.1284 109.645 48.945 109.21C49.3076 109.227 49.6674 109.281 50.0193 109.37C52.305 110.239 54.5908 111.107 56.8765 112.022C57.3449 112.28 57.7854 112.587 58.1908 112.936H58.2479C59.0593 112.513 59.0708 112.513 59.9851 113.107L58.2022 112.936ZM51.0479 108.925C52.0079 108.627 52.0079 108.627 53.1165 109.553L51.0479 108.925ZM55.0479 110.467L55.2308 110.056L58.7508 111.382C57.3679 111.599 56.2479 110.902 55.0593 110.467H55.0479ZM62.1679 113.816L61.2879 113.519L61.4593 113.153L62.2708 113.553L62.1679 113.816ZM58.7393 110.49L50.1108 107.062C49.7525 106.912 49.4546 106.646 49.265 106.307C49.5581 106.29 49.8519 106.29 50.145 106.307C53.0136 106.467 55.5393 107.713 58.1451 108.742C59.2697 109.123 60.4142 109.444 61.5736 109.702C61.9279 109.816 62.2708 109.987 62.945 110.273C61.2765 110.696 60.0422 111.005 58.7279 110.49H58.7393ZM62.3508 112.227C63.4936 111.759 67.7336 112.89 70.7393 114.513C69.2591 114.85 67.7187 114.818 66.2538 114.419C64.789 114.021 63.4447 113.268 62.3393 112.227H62.3508ZM71.4022 113.37L64.0193 111.107C63.8708 111.107 63.7679 110.89 63.6308 110.776C63.745 110.056 64.0993 109.965 64.7736 110.136C66.625 110.662 68.5108 111.085 70.3736 111.576C71.3793 111.839 72.3736 112.147 73.5279 112.479C73.3199 112.84 72.9935 113.118 72.604 113.266C72.2145 113.414 71.7859 113.422 71.3908 113.29L71.4022 113.37ZM75.9736 114.73C75.9124 114.374 75.7844 114.033 75.5965 113.725C75.4022 113.53 74.9908 113.53 74.385 113.37C74.8879 113.096 75.1736 112.799 75.4365 112.822C77.8708 113.016 80.3165 113.256 82.7622 113.507C82.8993 113.507 83.0365 113.656 83.3565 113.827C81.8822 114.73 79.1965 115.027 75.985 114.673L75.9736 114.73ZM84.4079 114.376C86.3165 112.822 88.5451 113.725 90.7622 113.519C89.8936 114.182 87.6193 114.525 84.4193 114.319L84.4079 114.376ZM106.122 107.519C103.968 108.284 101.725 108.776 99.4479 108.982C98.5746 109.065 97.708 109.206 96.8536 109.405C95.0251 109.976 93.1393 109.565 91.2879 109.736C90.0669 109.699 88.8452 109.787 87.6422 109.999C86.8826 110.152 86.0968 110.113 85.3565 109.885C83.6079 109.477 81.8136 109.3 80.0193 109.359C76.9821 109.408 73.9534 109.023 71.025 108.216C67.6536 107.45 64.2822 106.742 60.9222 105.93C58.6365 105.405 56.3508 104.89 54.065 104.205C52.7948 103.732 51.5577 103.174 50.3622 102.536C50.4193 102.056 50.4765 101.656 50.5222 101.233C50.7078 101.205 50.8966 101.205 51.0822 101.233C51.9841 101.496 52.8695 101.813 53.7336 102.182C56.6777 103.495 59.7389 104.528 62.8765 105.267C64.4765 105.713 66.1679 105.873 67.8136 106.17C69.0822 106.387 70.3622 106.57 71.6079 106.856C77.2297 108.131 83.0306 108.418 88.7508 107.702C91.0365 107.42 93.364 107.153 95.7336 106.902C97.0479 106.765 98.3736 106.616 99.6993 106.536C102.815 106.191 105.882 105.497 108.842 104.467C109.722 104.227 110.636 103.747 111.459 104.707C109.85 105.905 108.065 106.845 106.168 107.496L106.122 107.519ZM108.591 97.7703C109.139 98.5246 109.631 99.3017 110.031 99.8846L109.208 101.633C108.934 102.182 108.579 102.456 107.996 101.987C107.654 101.725 107.299 101.485 106.945 101.233C106.774 101.702 106.614 102.159 106.431 102.616C106.38 102.722 106.323 102.825 106.259 102.925C106.143 103.011 106.01 103.073 105.868 103.107C105.727 103.141 105.58 103.145 105.437 103.121C105.294 103.096 105.158 103.043 105.036 102.964C104.914 102.885 104.809 102.782 104.728 102.662C104.651 102.529 104.535 102.423 104.395 102.36C104.256 102.297 104.099 102.279 103.949 102.309C103.799 102.34 103.662 102.416 103.557 102.529C103.453 102.641 103.387 102.784 103.368 102.936C103.327 103.218 103.192 103.478 102.984 103.673C102.777 103.868 102.509 103.987 102.225 104.01L100.385 102.936C100.214 103.37 100.042 103.805 99.7679 104.467L98.8193 104.73C98.7822 104.485 98.7008 104.249 98.5793 104.033C98.3622 103.793 98.0079 103.416 97.8251 103.473C97.6422 103.53 97.0365 103.93 97.0136 104.205C96.9565 105.016 96.705 105.427 96.1679 105.347L94.5222 103.85L93.3793 105.633L92.4765 105.793C90.4308 104.856 90.4308 104.856 90.4079 105.976C90.0262 106.029 89.6376 106.006 89.265 105.907C87.6536 105.05 87.665 105.027 86.305 105.462C85.9736 104.89 85.5279 104.227 84.7279 104.479C84.4193 104.582 84.2479 105.119 83.8936 105.622C83.025 105.542 81.8136 106.01 81.0022 104.73C80.8879 104.559 80.3393 104.513 80.065 104.616C79.6115 104.842 79.1824 105.113 78.785 105.427C78.5336 104.879 78.305 104.376 78.0993 103.953C76.8651 103.656 76.465 104.513 75.9165 105.427L74.305 104.205C72.6593 104.707 72.6593 104.707 71.7679 103.507C70.785 104.547 69.8479 104.216 68.8651 103.645C68.4835 103.441 68.0493 103.357 67.6193 103.405C66.7279 103.507 65.8936 103.576 65.265 102.742C65.0656 102.566 64.811 102.465 64.545 102.456C63.8708 102.376 63.185 102.353 62.545 102.307C62.4765 101.782 62.4193 101.416 62.3508 100.833C61.6079 101.302 61.0365 101.645 60.3393 102.067L59.0479 101.553L60.1908 99.2675C59.0906 99.6119 58.0853 100.207 57.2536 101.005L55.6079 100.422L56.4993 98.6503L56.2593 98.4332L54.0993 99.8732L52.5908 99.3589L53.1393 97.9989C52.8193 97.9303 52.5108 97.7817 52.4193 97.8732C51.105 99.1303 50.1336 98.2732 49.0593 97.4617C49.1965 96.8446 49.3222 96.2617 49.505 95.416C49.1599 95.5544 48.8239 95.7148 48.4993 95.896C48.2441 96.1081 48.0036 96.3373 47.7793 96.5817L46.2708 95.8046C45.9165 94.8789 47.1622 94.2732 46.2708 93.4046C45.7793 93.7475 45.2765 94.0789 44.6593 94.5475L43.2765 93.7475C43.6765 93.0046 44.0079 92.3532 44.4193 91.6789C43.345 90.8903 43.1736 92.3075 42.3508 92.3189C40.7165 91.8503 42.0079 90.5017 41.7222 89.4846L39.9508 90.2046C39.505 88.4789 37.665 88.1932 36.7393 86.9589C36.0879 86.136 35.5165 85.5646 36.2936 84.5703C36.3622 84.4789 36.2936 84.2503 36.1908 83.9303L34.5565 84.2389C33.0022 83.3132 34.2136 82.0446 34.2479 80.8103L32.305 81.7132C30.3279 80.4675 32.0193 79.0503 32.1793 77.7246C31.1279 77.1417 30.9336 78.4789 29.8936 78.4789C29.497 77.8984 29.2176 77.2463 29.0708 76.5589C29.0708 75.9075 29.6422 75.2675 30.1336 74.2732L28.2593 74.6617C26.8993 72.7075 26.8993 72.7075 28.2593 70.4217C27.4708 69.1989 26.8993 70.7417 26.2022 70.5932C24.7393 69.4503 26.6479 68.856 26.5908 67.7017H25.025C24.3279 66.7189 24.0193 65.736 25.2993 64.7875C24.6822 64.6046 24.0879 64.6046 23.8136 64.3075C23.5594 63.9064 23.3849 63.4601 23.2993 62.9932C23.4022 61.9532 24.8308 61.8503 24.5679 60.5932L22.8765 60.7189C22.3508 59.0617 24.8879 59.2675 24.6936 57.6217L22.8765 57.9532C22.3965 56.9817 23.025 56.4217 23.6879 55.9189C24.1374 55.6365 24.5722 55.3313 24.9908 55.0046C25.1736 54.8217 25.1165 54.3989 25.1622 54.0789C24.8879 54.0789 24.5793 53.8846 24.3508 53.9646C23.8453 54.1973 23.3565 54.4646 22.8879 54.7646C22.7482 54.1492 22.8148 53.5049 23.0769 52.9309C23.3392 52.3568 23.7826 51.8848 24.3393 51.5875C25.105 51.0275 25.1165 51.0389 25.2308 49.9989L23.4022 50.4217C22.7965 48.4332 25.3336 48.3989 25.5508 46.7875L24.0193 46.4217C23.585 44.5132 25.9622 44.456 26.305 43.0617C25.5393 42.5589 25.5393 42.5589 23.4936 43.5075C23.7793 41.9875 25.665 41.9189 26.065 40.3875L24.2936 40.216C24.8879 38.6275 26.2479 37.9303 27.5622 37.1303C27.2079 36.2046 26.5679 36.3646 25.9622 36.6046C25.3565 36.8446 24.8765 37.1303 24.3622 36.4103C25.185 34.8332 27.0822 34.2732 28.2136 32.9817L27.905 32.4903L25.6193 32.9246C25.6193 30.8446 28.2936 30.9703 28.6822 29.0503L26.9679 29.2103C26.7736 27.1875 29.0136 27.0275 30.0993 25.2332L28.4765 25.0732C28.4765 24.9475 28.4079 24.7875 28.4765 24.7303C28.7916 24.4431 29.0375 24.0883 29.1959 23.6924C29.3542 23.2965 29.4208 22.8699 29.3908 22.4446C29.3908 21.6789 30.0879 20.8675 30.5336 20.0903C32.286 16.6998 34.0345 13.2675 35.7793 9.79319C36.3965 8.65033 37.0365 7.40461 37.8022 5.94176C38.0308 7.78176 37.0593 8.99319 36.6593 10.3418C35.7908 13.5646 34.4536 16.6732 33.8022 19.9303C32.7393 25.2103 30.9222 30.3303 30.5793 35.7817C30.2192 39.0269 30.1733 42.2992 30.4422 45.5532C30.692 48.0592 30.7874 50.5783 30.7279 53.096C30.8762 56.4395 31.4681 59.7485 32.4879 62.936C32.9908 64.7532 33.5165 66.5589 34.145 68.3189C34.7736 70.0789 35.505 71.7475 36.1565 73.4046C36.4079 74.0789 36.545 74.7989 36.7965 75.6903C38.545 76.1475 38.6479 78.2275 39.6536 79.5989C40.2593 80.4217 40.6136 81.4617 41.2879 82.216C43.0822 84.3863 45.1576 86.308 47.4593 87.9303C48.0079 88.2846 48.6022 88.5132 48.6022 89.3017C49.745 89.7475 49.8822 91.5875 51.4936 91.4275C51.7828 91.4647 52.0496 91.6022 52.2479 91.816C55.0538 94.0307 58.1888 95.7929 61.5393 97.0389C63.1736 97.7017 64.7736 98.4446 66.4079 99.0732C67.267 99.2631 68.1142 99.5036 68.9451 99.7932C70.4888 100.406 72.1134 100.791 73.7679 100.936C76.5954 101.44 79.4698 101.632 82.3393 101.507C85.3204 101.519 88.2999 101.37 91.265 101.062C94.1565 100.696 97.1165 100.605 99.8936 99.416C101.985 98.5246 104.191 97.896 106.339 97.1303C107.539 96.6732 107.894 96.7532 108.591 97.7703ZM105.859 95.176L106.236 95.0846L106.511 95.9417C106.372 95.9759 106.23 95.9989 106.088 96.0103C106.006 95.7365 105.941 95.4579 105.894 95.176H105.859ZM93.2879 79.3703C93.8479 80.136 93.4593 80.5132 92.625 80.696C92.625 80.1589 92.625 79.7132 92.625 79.0617C92.9793 79.2103 93.2422 79.2332 93.3451 79.3703H93.2879ZM83.4593 67.0732C83.4593 67.0732 83.4593 67.3475 83.4593 67.6446C83.2279 67.5804 83.008 67.4801 82.8079 67.3475C82.8079 67.3475 82.8765 67.0503 82.9222 66.8903C83.1277 66.9239 83.3276 66.9854 83.5165 67.0732H83.4593ZM59.025 32.1475C60.9793 35.0732 62.9108 38.0217 64.7393 41.0046C65.665 42.4903 66.4765 44.0675 67.3108 45.576C69.1508 49.0046 71.8822 51.7017 74.2708 54.6503C75.9051 56.6503 77.4479 58.7189 78.9908 60.776C79.7793 61.816 80.4993 62.8903 81.2765 63.9532C81.5912 64.3048 81.8045 64.7355 81.8936 65.1989C81.8933 65.4326 81.8431 65.6636 81.7465 65.8764C81.65 66.0892 81.5092 66.279 81.3336 66.4332C81.2023 66.4956 81.0581 66.5262 80.9127 66.5225C80.7673 66.5188 80.6249 66.4809 80.4969 66.4119C80.3689 66.3429 80.259 66.2447 80.176 66.1253C80.093 66.006 80.0393 65.8686 80.0193 65.7246C79.9258 65.3351 79.8037 64.9531 79.6536 64.5817L78.1908 65.0732L76.5908 63.4503C76.2465 63.5015 75.8986 63.5245 75.5508 63.5189C74.4079 63.4389 74.1908 63.0503 74.3393 61.8275C74.3482 61.5991 74.3173 61.3709 74.2479 61.1532C74.2479 61.0503 74.0879 60.9932 73.8936 60.8103C73.5965 60.9475 73.2536 61.1417 72.8993 61.2675C72.2251 61.4846 71.6536 61.0732 71.8708 60.456C72.0879 59.8389 72.2479 59.3132 71.6308 59.1189C71.2079 58.9703 70.6365 59.2789 69.9051 59.4389C69.6075 59.2992 69.375 59.0504 69.2558 58.744C69.1367 58.4376 69.1399 58.0972 69.265 57.7932C69.4708 57.0846 69.0136 56.7875 68.2022 56.9246C67.0593 57.1189 66.7736 56.7875 67.0593 55.6217C67.345 54.456 67.1965 54.3646 65.9965 54.4789C65.542 54.471 65.0898 54.4135 64.6479 54.3075C65.0174 53.8028 65.3496 53.2718 65.6422 52.7189C65.69 52.5629 65.7005 52.3977 65.6726 52.2369C65.6448 52.0761 65.5796 51.9241 65.4822 51.7932C65.3222 51.656 64.8536 51.7932 64.5793 51.8617C64.2394 52.0919 63.8456 52.2299 63.4365 52.2617C63.6741 51.8969 63.8843 51.515 64.065 51.1189C64.3393 50.4446 63.9508 49.976 63.2193 50.056C62.7393 50.1246 62.2479 50.6503 61.8251 49.736C62.0174 49.5126 62.1823 49.2671 62.3165 49.0046C62.4417 48.6333 62.5299 48.2504 62.5793 47.8617C62.2041 47.7667 61.822 47.7016 61.4365 47.6675C61.2422 47.6675 61.0365 47.8275 60.8765 47.9075C59.7336 47.0617 60.0536 46.1589 60.8765 45.016L58.8193 44.7075C58.6022 44.2275 58.3279 43.656 58.0765 43.1075C58.0765 42.3189 59.4822 42.0332 58.8193 41.1303C58.5793 40.7989 57.9622 40.7532 57.3565 40.5132C56.2936 38.7189 56.2936 38.7189 57.6536 37.2332C57.425 35.9646 56.4193 36.8103 55.905 36.4103C55.4479 35.1075 57.2193 34.8103 57.1165 33.4275L55.3679 32.9703C54.4993 31.7475 56.5108 31.1417 56.2708 29.9532C55.7108 29.4389 54.465 29.6446 54.5679 28.5017C54.5679 28.0903 55.0479 27.7132 55.4593 27.096C56.7736 28.9817 57.9508 30.5017 59.025 32.1475ZM53.8708 25.0617C54.065 25.3817 54.3165 25.816 54.2365 26.1132C54.0479 26.5823 53.7855 27.0183 53.4593 27.4046L53.0593 27.3017C52.946 26.8176 52.8772 26.3241 52.8536 25.8275C52.8922 25.5075 53.037 25.2096 53.265 24.9817C53.36 24.9352 53.465 24.9129 53.5708 24.9169C53.6765 24.9209 53.7796 24.951 53.8708 25.0046V25.0617ZM52.4765 29.4732C52.7508 30.7646 53.1279 31.9532 51.8251 33.1532C52.2209 33.1583 52.6002 33.3132 52.8865 33.5868C53.1728 33.8604 53.3448 34.2321 53.3679 34.6275C53.585 35.8389 53.9393 37.0275 54.0765 38.2503C54.0536 38.8103 53.9377 39.3627 53.7336 39.8846C54.2733 40.8737 54.7393 41.9013 55.1279 42.9589C56.2362 46.5062 57.9958 49.816 60.3165 52.7189C61.6422 54.5017 62.7736 56.456 64.2251 58.1475C66.3671 60.8663 68.9705 63.1873 71.9165 65.0046C74.0797 66.1841 76.3037 67.2485 78.5793 68.1932C80.1388 68.9219 81.8984 69.1031 83.5736 68.7075C84.0294 68.5903 84.5112 68.6277 84.9436 68.8139C85.3758 69 85.7341 69.3244 85.9622 69.736C87.985 72.4675 90.0536 75.1532 92.2479 78.0332L90.6593 78.1703C91.5508 80.6732 91.3565 81.3017 89.4365 81.6675C89.4365 80.6732 89.4365 79.7132 89.4936 78.7189C88.3508 78.2275 87.8593 78.9817 87.2765 79.5646C88.5108 81.7132 88.2365 82.536 86.2593 82.7075C86.3508 81.736 86.4308 80.7646 86.5108 79.816C85.1622 79.496 85.0593 79.5303 84.9336 80.4332C84.9379 80.9588 84.888 81.4835 84.785 81.9989C84.6479 82.3875 84.2136 82.6732 83.6422 83.3132C83.1736 82.0332 82.8422 81.1532 82.4993 80.056C81.665 79.6217 81.265 80.3303 80.9108 81.1989L79.3336 80.8332C79.3336 80.3189 79.3336 79.8503 79.3908 79.3932C79.4108 79.2751 79.4032 79.154 79.3686 79.0393C79.3341 78.9246 79.2735 78.8196 79.1917 78.7321C79.1098 78.6447 79.0088 78.5774 78.8967 78.5355C78.7845 78.4935 78.6641 78.4781 78.545 78.4903C78.0308 78.4903 77.6308 78.7303 77.7565 79.3817C77.7439 79.5801 77.7054 79.7761 77.6422 79.9646L76.625 79.3932C76.3622 78.6503 77.345 77.896 76.4079 77.3817C75.4708 76.8675 75.3793 77.9303 74.9336 78.1703C73.1508 77.7817 74.6936 75.6789 73.0365 75.1989L72.1451 76.3417C71.8022 76.1132 71.1965 75.9303 71.105 75.5989C71.0127 75.2699 70.8153 74.98 70.543 74.7737C70.2705 74.5673 69.9382 74.4558 69.5965 74.456C69.2105 74.3441 68.8575 74.1403 68.5679 73.8617C68.4879 72.856 68.6822 71.7475 68.3165 71.5189C67.9508 71.2903 66.8308 71.4389 65.6879 71.4389C65.4629 71.0859 65.2934 70.7004 65.1851 70.296C65.025 69.3475 64.7736 68.7532 63.6079 68.9703C62.945 69.0846 62.5679 68.7532 62.6022 67.9417C62.6022 66.3303 62.4993 66.2389 60.9908 66.7303C59.9622 65.9532 60.7279 65.1646 61.105 64.3303L59.9622 63.3475L59.2079 64.5589C59.046 64.5631 58.8856 64.5263 58.7417 64.4519C58.5978 64.3775 58.4751 64.2679 58.3849 64.1333C58.2949 63.9987 58.2402 63.8435 58.2263 63.6821C58.2124 63.5207 58.2394 63.3584 58.305 63.2103C58.6593 62.5246 58.9336 61.9417 58.065 61.2789C57.6993 61.5303 57.2879 61.7932 56.7965 62.1017C56.625 61.7932 56.2936 61.4732 56.3279 61.2217C56.3846 60.8784 56.3402 60.526 56.2002 60.2075C56.0602 59.8888 55.8305 59.6179 55.5393 59.4275C54.8765 58.8675 55.0022 58.2046 55.5393 57.5532C55.8552 57.1316 56.1416 56.6886 56.3965 56.2275C56.6479 55.7246 56.5222 55.3132 55.8365 55.0846L54.3965 56.6046C53.7565 55.736 53.2536 55.0503 53.5736 53.976C53.8936 52.9017 53.825 52.8332 52.625 52.3989C52.4496 52.2808 52.301 52.1273 52.1888 51.9481C52.0766 51.7689 52.0032 51.5683 51.9736 51.3589C51.9165 51.0732 52.225 50.7303 52.3508 50.3989C52.7508 49.4275 52.4879 49.1075 51.3565 49.1532H50.8193C50.7061 48.9389 50.6068 48.7174 50.5222 48.4903C50.4079 48.1589 50.3279 47.816 50.2022 47.3475C50.4863 47.0816 50.7325 46.7777 50.9336 46.4446C51.093 46.1079 51.1136 45.722 50.9908 45.3703C50.6708 44.8332 50.305 45.256 49.9736 45.4846C49.8557 45.5317 49.733 45.5661 49.6079 45.5875C49.1165 45.0846 48.785 44.5589 49.4022 43.9417C49.8365 43.5075 50.0993 42.9817 49.5965 42.5932C49.2879 42.3532 48.6822 42.4903 47.9965 42.456C47.4936 41.7932 47.5279 41.1075 48.4422 40.4332C48.5973 40.2887 48.7172 40.1105 48.7925 39.9124C48.8678 39.7142 48.8965 39.5014 48.8765 39.2903C48.6936 38.7189 48.1565 38.6846 47.5622 38.8903C46.9679 39.096 46.9222 39.0389 45.9165 38.3646L48.3736 36.4903C47.5508 34.4675 46.5793 36.7875 45.6765 36.1589C45.5684 35.9782 45.5025 35.7753 45.484 35.5656C45.4655 35.3559 45.4946 35.1446 45.5695 34.9478C45.6442 34.7509 45.7626 34.5736 45.9158 34.4291C46.0689 34.2845 46.2527 34.1765 46.4536 34.1132C46.6022 34.0332 46.8193 33.9646 46.8879 33.8389C47.0593 33.496 47.3336 33.0732 47.2422 32.7989C47.0593 32.2389 46.5679 32.2617 46.0993 32.536C45.8708 32.6732 45.6079 32.7646 45.3222 32.9017C44.5679 30.8903 46.9336 31.0846 47.1736 29.4732L46.545 28.5246L45.025 29.6675C44.7393 29.0503 44.5565 28.5932 45.2193 28.2503C45.6879 28.0103 46.1679 27.7932 46.6365 27.5417C47.4365 27.096 47.4365 27.096 47.7793 25.9303C46.3622 24.5589 45.9736 27.0046 44.7965 26.7075C44.5908 25.6675 44.705 24.8217 45.9393 24.3532C46.542 24.086 47.0829 23.6968 47.5279 23.2103C47.745 23.0046 47.6765 22.5017 47.7336 22.136C47.3679 22.136 46.9565 21.9303 46.5908 22.0446C46.0989 22.268 45.6349 22.548 45.2079 22.8789C44.625 21.8846 44.785 21.3017 45.745 20.856C46.4358 20.5249 47.0812 20.1062 47.665 19.6103C47.9165 19.4046 47.9393 18.936 48.065 18.5817C47.6879 18.5246 47.265 18.3303 46.9222 18.456C46.2646 18.7804 45.6374 19.1629 45.0479 19.5989C45.0479 18.8446 45.0479 18.3075 45.0479 17.896L48.2365 15.7817L52.5336 22.6389C51.1165 24.9132 51.9965 27.2217 52.4765 29.4732ZM45.1965 16.056C45.1965 15.1303 45.1965 14.6275 45.265 14.0217C46.0308 13.8846 46.7622 13.3589 47.5508 14.4103L45.1965 16.056ZM42.7393 6.91319C43.6879 8.13604 44.4536 9.1989 45.2765 10.216C43.2879 13.5875 43.6879 17.2903 43.4479 20.9246C43.2765 24.1464 43.3108 27.3758 43.5508 30.5932C43.8546 36.1206 45.0111 41.5677 46.9793 46.7417C47.109 47.242 47.2082 47.7495 47.2765 48.2617C47.3182 48.5976 47.4617 48.9127 47.6879 49.1646C48.1508 49.5622 48.5253 50.0524 48.787 50.6035C49.0488 51.1547 49.1922 51.7547 49.2079 52.3646C49.2533 52.7127 49.3617 53.0496 49.5279 53.3589C51.0136 56.2732 52.4536 59.2332 54.0993 62.0903C54.8084 63.1713 55.6197 64.1817 56.5222 65.1075C57.5393 66.2503 58.625 67.3932 59.6079 68.6732C59.9536 69.2447 60.2408 69.8496 60.465 70.4789C61.0766 70.5423 61.658 70.7763 62.143 71.1541C62.6279 71.532 62.9969 72.0385 63.2079 72.616C63.3908 73.0389 64.0193 73.256 64.3508 73.6332C67.5622 76.9475 71.4822 79.3475 75.265 81.8846C76.8636 83.0059 78.6674 83.8011 80.5736 84.2246C82.4797 84.6481 84.4505 84.6919 86.3736 84.3532C89.3177 83.954 92.0901 82.7341 94.3736 80.8332C96.3393 83.0503 97.8022 85.5303 99.6079 87.9075C99.0136 88.3646 98.6251 88.5589 98.3508 87.9075C98.0765 87.256 97.745 86.616 96.8079 86.9589C96.7393 87.6103 96.6822 88.2275 96.625 88.8332L96.2822 88.9017C96.0193 88.1475 96.1565 87.1417 94.8765 87.1646C94.3736 88.3075 94.7736 90.3075 92.5222 89.816C91.9165 89.3475 92.5222 87.6789 90.7965 88.1932C90.7965 88.8446 90.7965 89.4732 90.7965 90.2046L89.2765 90.4332C88.7965 89.9646 89.2765 88.9246 88.3736 88.8903C87.105 88.8903 87.6879 90.2046 86.9793 90.8103L84.6936 90.936C84.6936 90.3646 84.6936 89.8617 84.6936 89.3589C84.6936 88.856 84.4308 88.4103 83.8708 88.4332C83.3108 88.456 83.1393 88.8903 83.2308 89.4389C83.2265 89.7086 83.192 89.9769 83.1279 90.2389L81.425 90.0103C81.343 89.8877 81.2812 89.7526 81.2422 89.6103C81.1736 89.0389 81.2993 88.2617 80.5336 88.1817C79.5622 88.0903 79.8593 89.0503 79.6193 89.7817L78.0536 89.2903C77.5736 88.7189 78.4422 87.576 77.3108 87.5417C76.8536 87.5417 76.385 88.1475 75.8022 88.5589C75.7542 88.3141 75.7274 88.0655 75.7222 87.816C75.7222 87.3017 75.7222 86.856 75.1393 86.6732C74.5565 86.4903 74.2822 86.8903 74.0879 87.3817C73.9826 87.5799 73.8643 87.7708 73.7336 87.9532L71.7679 87.1417C71.905 86.7417 72.1336 86.3989 72.0765 86.1246C71.9928 85.7501 71.7676 85.4224 71.4479 85.2103C71.2917 85.1773 71.1297 85.1852 70.9775 85.2333C70.8253 85.2813 70.6881 85.3679 70.5793 85.4846C70.2022 86.456 69.6993 85.9189 69.0936 85.6217C68.9908 85.0275 69.8936 83.9989 68.4765 83.6789L67.4822 84.8217C65.6879 84.1932 67.2193 82.856 66.6822 81.8275L65.6193 81.496C65.4022 82.2503 65.2193 82.9132 65.0136 83.656L63.2765 82.9132C63.425 82.456 63.5165 82.0675 63.665 81.7017C63.8136 81.336 64.0193 80.5589 63.4022 80.3417C62.785 80.1246 62.2593 80.3417 62.1793 81.1303C62.1038 81.4012 61.9882 81.6593 61.8365 81.896C61.1736 80.9017 62.1222 80.0789 61.7793 79.256C60.5222 78.536 60.5565 80.1246 59.7908 80.3989C58.9908 79.7932 58.3508 79.1875 59.0022 78.1132C59.1014 77.9656 59.1383 77.7849 59.105 77.6103C59.0245 77.298 58.8487 77.0183 58.6022 76.8103C58.4536 76.7189 58.0079 76.8789 57.8593 77.0617C57.5977 77.4197 57.3719 77.8025 57.185 78.2046C56.2822 78.2046 56.1679 77.7817 56.4308 77.0617C56.9682 76.1286 57.263 75.0755 57.2879 73.9989C56.4536 73.6789 55.9279 73.8846 55.7108 74.7532C55.5736 75.3017 55.4479 75.896 55.2879 76.5132C54.305 75.9989 53.6079 75.576 54.0765 74.5475C54.3279 73.9875 54.6708 73.4046 54.0765 72.9703C53.7108 72.7303 53.025 72.9703 52.3165 72.9703C52.4079 72.4332 52.5108 71.8275 52.6022 71.2217C52.4765 71.0617 52.4193 70.9246 52.3393 70.8903C50.4308 70.3875 50.4308 70.3989 51.4593 68.7532C51.5877 68.5201 51.7022 68.2797 51.8022 68.0332C51.0136 66.8903 50.465 68.2617 49.6422 68.0332C49.7679 67.6903 49.905 67.4046 49.9851 67.1189C50.065 66.8332 50.1108 66.5132 50.1793 66.2046L48.8879 66.0332L48.3622 64.8903L49.505 63.4389L49.3222 63.0846L47.5393 63.3246C47.1736 62.7189 47.0593 62.1817 47.7565 61.6675C48.1793 61.3703 48.4536 61.016 47.9965 60.4103L46.6022 60.7532C45.5508 60.136 46.6022 59.3703 46.4193 58.616C45.8708 58.4332 44.8193 58.4332 44.8765 57.2903C45.265 56.856 45.6536 56.4103 46.0193 55.976L45.8251 55.6217L44.065 55.736L43.5508 54.7875L44.9793 53.096C44.9793 52.9589 44.865 52.8332 44.7965 52.696L43.2193 52.7189C42.4879 51.576 42.4879 51.576 43.3565 50.6389C43.7679 50.2275 43.7679 50.2275 43.585 49.2446L42.0308 49.5989C41.8593 49.176 41.6993 48.7532 41.5279 48.2732L43.8822 46.0675C43.8144 45.9413 43.7533 45.8116 43.6993 45.6789L41.7565 45.9303C41.0136 44.7189 41.025 44.6389 41.9393 43.976C42.385 43.6675 42.8079 43.336 43.3679 42.9132C42.9872 42.7195 42.5682 42.6127 42.1413 42.6008C41.7143 42.5891 41.2901 42.6723 40.8993 42.8446L40.3279 41.3817L42.1108 39.9532C41.4022 38.9703 40.6136 39.7703 39.8251 39.6217L38.8422 38.4789L41.8936 36.8675C40.9108 35.8046 39.9736 36.7075 38.9336 36.776C38.8308 36.3417 38.7279 35.9189 38.625 35.5189C39.2765 35.0503 39.905 34.616 40.5222 34.1932L40.385 33.8046L38.3279 33.5989L41.2079 31.0275C40.2708 29.8846 39.5508 31.1646 38.6936 31.1417C38.602 30.9937 38.5454 30.8268 38.5282 30.6535C38.511 30.4804 38.5335 30.3055 38.5942 30.1423C38.6548 29.9791 38.7519 29.832 38.8781 29.712C39.0042 29.5921 39.1561 29.5027 39.3222 29.4503C39.5984 29.3484 39.8538 29.1974 40.0765 29.0046C40.2484 28.7223 40.3829 28.4188 40.4765 28.1017C40.1293 27.9873 39.7741 27.8995 39.4136 27.8389C39.1944 27.8721 38.9844 27.95 38.7965 28.0675C37.8593 26.3532 39.5965 26.0217 40.3622 25.0275L38.7736 24.3875C38.2365 22.7875 40.2936 23.3475 40.465 22.1589L39.0365 21.4846C38.6365 19.5075 40.5336 19.9875 41.4479 19.3589C41.185 18.1017 40.065 18.7075 39.3565 18.2846C39.3565 17.8808 39.4022 17.4351 39.4936 16.9475L42.145 15.7246L40.0193 15.1646C39.7793 14.2389 40.2479 13.8503 41.0822 13.5417C41.6765 13.3246 42.5679 13.3589 42.6822 12.1817L40.6708 11.9875C40.1679 10.1703 42.3736 10.9703 42.6593 9.70176L41.5165 8.97033C41.8136 8.42176 42.225 7.77033 42.7393 6.92461V6.91319ZM39.9279 5.45033C40.1679 4.94747 40.4879 4.49033 41.1393 4.94747C41.7908 5.40461 41.6536 5.8389 41.1393 6.25033C40.4095 6.94424 39.9413 7.86856 39.8136 8.86747C38.5773 13.8198 37.7817 18.8719 37.4365 23.9646C37.0533 29.4615 37.2717 34.9838 38.0879 40.4332C38.8193 44.456 39.4022 48.5132 40.3736 52.5017C41.071 54.9822 41.9104 57.4206 42.8879 59.8046C42.9753 59.9598 43.0444 60.1247 43.0936 60.296C43.6079 63.576 45.6079 66.2046 46.8993 69.1417C47.1279 69.656 47.2193 70.2846 47.4136 70.7532C47.536 71.0611 47.6892 71.3559 47.8708 71.6332C48.4993 72.616 49.105 73.6103 49.7908 74.5475C50.184 75.0455 50.6241 75.5048 51.105 75.9189C53.3908 78.2046 55.6765 80.4903 58.1336 82.5817C59.4633 83.6355 60.8998 84.5471 62.4193 85.3017C65.6536 87.0617 68.9222 88.7989 72.2136 90.456C75.6136 92.1187 79.404 92.8182 83.1736 92.4789C87.1393 92.1703 91.0936 91.5189 95.025 90.8903C96.2806 90.5784 97.5077 90.1617 98.6936 89.6446C100.271 89.096 100.271 89.1875 101.368 90.4103C102.294 91.4503 103.414 92.3189 104.442 93.2789C104.65 93.4957 104.844 93.7246 105.025 93.9646L103.802 94.7989C104.019 95.4368 104.168 96.0957 104.248 96.7646C104.248 96.9475 103.528 97.1189 103.105 97.3017C102.042 94.7646 102.042 94.7646 100.671 95.2103C100.945 95.976 101.219 96.7646 101.551 97.7132L99.8708 98.2046C98.9108 97.496 99.6651 95.496 97.5851 95.9189C97.7679 96.8675 97.9279 97.7475 98.1222 98.8103L96.2251 98.9246C96.1551 98.2992 96.0366 97.6803 95.8708 97.0732C95.7793 96.8332 95.2765 96.4789 95.1279 96.5475C94.9793 96.616 94.4536 97.0732 94.4536 97.3589C94.4948 97.9799 94.6098 98.5937 94.7965 99.1875L93.1965 99.416C93.1431 98.9332 93.0358 98.4579 92.8765 97.9989C92.7508 97.7475 92.2822 97.4275 92.0993 97.496C91.7662 97.6592 91.5056 97.9403 91.3679 98.2846C91.2651 98.5703 91.3679 98.9475 91.4708 99.5532L88.8079 99.4275C88.7063 98.8931 88.5688 98.3662 88.3965 97.8503C88.3158 97.7401 88.2132 97.6478 88.0952 97.5789C87.9773 97.5101 87.8464 97.4663 87.7108 97.4503C87.5736 97.4503 87.2993 97.7017 87.2536 97.896C87.1279 98.4422 87.0362 98.9957 86.9793 99.5532H84.5336C84.2708 98.8789 84.065 98.4103 83.8593 97.7932C83.5112 97.7131 83.1461 97.76 82.8296 97.9256C82.5132 98.0912 82.2663 98.3645 82.1336 98.696C81.6765 99.4732 80.8879 99.4389 80.5793 98.696C80.3622 98.136 80.3051 97.3817 79.5393 97.5532C78.983 97.8013 78.5048 98.1964 78.1565 98.696C77.3679 98.9017 76.6365 98.936 76.3279 97.8275C76.1793 97.3017 75.5508 97.3246 75.185 97.7017C74.8193 98.0789 74.8193 98.5132 74.1336 98.3989C73.4479 98.2846 73.1736 97.8389 72.9222 97.256C72.8536 97.1075 72.6936 97.0046 72.5108 96.8332C71.5965 97.1646 70.6822 97.976 69.8022 97.2446C69.5393 96.376 69.5051 95.4617 69.1622 95.3246C68.2022 94.9475 68.1908 96.0446 67.8251 96.4675C66.4536 96.7875 66.9108 95.3817 66.4079 94.9474L64.0193 95.0046C63.7908 94.1932 63.8136 93.3589 63.4479 93.1189C62.5679 92.5589 62.4193 93.7132 61.9851 94.0332C60.7165 94.0332 60.8422 92.7875 60.0536 92.296L57.7679 92.7075C57.505 91.816 58.3508 90.936 57.3565 90.4217C56.8193 90.6732 56.0993 91.256 55.8022 91.0846C55.5051 90.9132 55.2422 90.0675 54.9565 89.4389L53.105 89.6446C53.0136 88.6503 54.0765 87.4503 52.3393 87.0732L51.1965 88.5017C50.465 87.2446 52.2136 86.8103 51.6193 85.5875C51.2034 85.8325 50.8196 86.128 50.4765 86.4675C49.8365 87.256 49.3336 87.0275 48.5908 86.2846L49.9736 83.896C48.7508 83.576 48.3965 84.7189 47.5165 85.2903L46.0079 83.9189C46.5793 83.1646 47.0708 82.536 47.6422 81.8046C46.2822 81.2675 45.7565 82.5589 44.8308 82.856C44.6638 82.7987 44.5136 82.7011 44.3934 82.5718C44.2733 82.4427 44.1868 82.2857 44.1415 82.1152C44.0964 81.9446 44.0938 81.7655 44.1343 81.5937C44.1748 81.422 44.2569 81.2628 44.3736 81.1303C44.7393 80.536 45.2422 79.9875 45.6536 79.4617C45.8689 79.1373 46.0599 78.7973 46.225 78.4446C44.3736 78.4446 43.9393 79.9532 42.7965 80.7303C42.0879 80.5017 41.8365 80.056 42.3279 79.3246C42.6342 78.9596 42.9204 78.5781 43.185 78.1817C43.2927 77.8417 43.3466 77.487 43.345 77.1303C42.977 77.1291 42.6122 77.1989 42.2708 77.336C41.8513 77.6765 41.4684 78.0595 41.1279 78.4789C40.2022 77.6103 40.0879 78.216 42.4536 74.5246C41.6079 74.0217 41.6079 74.0217 39.8251 75.5532C38.0193 73.9075 40.225 72.9817 40.5908 71.6217C39.345 71.0046 39.0593 72.4332 38.1108 72.6617C37.3108 71.0389 39.1279 70.376 39.425 69.1417C39.0708 68.6046 38.5793 68.616 38.0536 69.0846C37.7565 69.3589 37.5165 69.7017 37.2079 69.976C36.7165 70.4103 36.3622 70.1589 36.065 69.5417C36.3508 69.0732 36.6822 68.536 37.025 68.0103C37.3679 67.4846 37.6536 67.1417 37.9622 66.696C36.6708 65.8617 36.3508 67.4275 35.4822 67.3475C34.8993 66.7075 35.4022 66.2046 35.7108 65.7817C36.1453 65.2287 36.5497 64.6526 36.9222 64.056C37.0708 63.7817 36.9222 63.3589 36.9222 62.6389L34.6022 64.376C33.7108 63.5989 34.225 62.8903 34.6936 62.2046C35.1622 61.5189 35.8365 60.6275 36.4193 59.7817C34.7508 58.8217 34.6822 60.8332 33.6879 60.8446C32.7736 59.1875 32.7736 58.9932 33.8365 57.7589C34.3736 57.1303 34.9793 56.616 35.5393 55.976C35.8822 55.6103 36.385 55.2332 35.745 54.5817C34.5222 54.8332 33.8136 55.9303 32.785 56.6046C32.6378 56.456 32.525 56.2771 32.4546 56.0801C32.3842 55.8832 32.358 55.6733 32.3775 55.4651C32.3972 55.2569 32.4622 55.0556 32.5682 54.8752C32.6742 54.695 32.8184 54.5401 32.9908 54.4217C33.9736 53.4275 34.9679 52.4217 35.9279 51.4046C36.1116 51.0997 36.2574 50.7734 36.3622 50.4332C34.2936 50.2275 33.8708 52.4217 32.225 52.7189C32.0208 52.3593 31.9534 51.938 32.0353 51.5327C32.1172 51.1273 32.3429 50.7653 32.6708 50.5132C33.4825 49.6857 34.2457 48.8119 34.9565 47.896C35.1264 47.5763 35.2496 47.2337 35.3222 46.8789C33.7108 46.7075 33.1508 48.0217 32.0765 48.696C31.585 47.7017 31.5279 46.9475 32.4879 46.2275C33.2704 45.5533 34.0073 44.8279 34.6936 44.056C34.2822 43.0275 33.8022 43.4846 33.3108 43.8275C32.8193 44.1703 32.3508 44.4332 31.5736 44.9703C32.0193 42.8332 33.8593 41.9075 34.545 40.1932C33.0022 39.736 32.7965 41.4389 31.665 41.576C31.4846 41.1861 31.465 40.7408 31.6105 40.3366C31.7559 39.9324 32.0548 39.6016 32.4422 39.416C33.0728 38.9332 33.6546 38.3896 34.1793 37.7932C32.9108 36.2503 32.6022 38.0903 31.8365 38.2046C31.1622 36.8446 32.625 36.3989 32.9793 35.4389L31.8936 35.1989C32.065 33.3246 34.6936 33.176 34.8879 30.936L32.465 32.3989C32.0879 30.1132 34.4765 29.416 34.9336 27.5417L33.425 27.576C33.185 25.6789 35.1965 25.2903 36.0308 23.6103L34.5679 23.3932C34.2936 22.1932 34.9565 21.3589 35.9508 20.5817C34.8079 19.016 35.6308 17.8846 36.6136 16.9589C36.5066 16.2659 36.5066 15.5605 36.6136 14.8675C37.2879 12.5817 38.0765 10.296 38.8993 8.01033C39.1936 7.13827 39.5369 6.28356 39.9279 5.45033ZM35.8593 4.30747C36.2076 3.87758 36.5897 3.47629 37.0022 3.10747L37.3222 3.32462C36.9908 3.95319 36.6479 4.57033 36.3508 5.22176C36.0536 5.87319 35.8822 6.54747 35.5736 7.17604C33.0593 12.0789 30.4993 16.9589 28.0079 21.8732C26.8825 24.2358 26.0092 26.7104 25.4022 29.256C25.4022 29.4846 25.4022 29.7817 25.2536 29.9303C23.8022 31.5075 24.4308 33.656 23.6993 35.4503C23.0438 37.3662 22.4906 39.3157 22.0422 41.2903L22.9336 40.7875C22.9336 40.8789 23.0822 41.016 23.0593 41.0617C22.5706 41.7872 22.3486 42.6596 22.4308 43.5303C22.4308 43.5303 22.4308 43.6675 22.4308 43.7017C21.2879 45.096 21.8593 46.8332 21.5622 48.3875C20.3277 54.0323 20.3004 59.8743 21.4822 65.5303C21.995 67.995 22.7609 70.4001 23.7679 72.7075L23.9279 72.6389L23.8365 72.8675C24.145 73.496 24.4765 74.1246 24.8422 74.7417C26.5565 77.5417 28.4422 80.2503 30.2022 83.0275C31.5466 85.1764 33.2159 87.104 35.1508 88.7417C35.705 89.3436 36.224 89.9769 36.705 90.6389C39.1425 93.4196 41.986 95.8161 45.1393 97.7475C46.705 98.6617 48.1565 99.7703 49.7108 100.867L49.2079 102.09C48.9944 102.088 48.7824 102.053 48.5793 101.987C45.5965 100.605 42.6593 99.1646 40.5793 96.4217C40.4765 96.2846 40.3965 96.1017 40.2593 96.0217C37.0365 94.376 34.6022 91.7932 32.1679 89.1646C31.6478 88.3918 31.2146 87.5639 30.8765 86.696C29.7336 86.7875 29.4708 85.3703 28.6708 84.5932C27.9745 83.8771 27.3681 83.0788 26.865 82.216C25.4593 79.8617 24.1108 77.4617 22.8193 75.2332L23.8136 72.776L23.745 72.616L22.1908 73.1989C22.0759 73.0851 21.9794 72.954 21.905 72.8103C20.7538 69.9841 19.9852 67.0171 19.6193 63.9875C19.246 60.7265 18.9336 57.4655 18.6822 54.2046C18.685 53.2262 18.7498 52.2491 18.8765 51.2789C18.945 50.136 18.8765 48.9932 19.0136 47.9303C19.3565 44.7989 19.6193 41.6446 20.1565 38.5475C20.6178 36.6675 21.202 34.8197 21.905 33.016C22.4422 31.336 22.8993 29.5875 23.4936 27.9875C24.2365 25.896 25.2193 23.8846 25.8365 21.7589C26.6866 19.3283 27.7857 16.992 29.1165 14.7875C30.1983 12.5205 31.5242 10.3783 33.0708 8.3989C34.145 7.15319 34.9108 5.66747 35.8593 4.33033V4.30747ZM32.3508 4.30747L32.7508 4.52461C31.5012 6.39128 30.286 8.25033 29.105 10.1018C29.6308 7.82747 30.3508 5.69033 32.3508 4.33033V4.30747ZM26.6365 12.856C26.3076 13.3175 25.8788 13.699 25.3822 13.972C24.8856 14.2451 24.3337 14.4028 23.7679 14.4332C25.3908 11.7246 26.0536 8.7189 28.7622 6.94747C28.1788 8.96288 27.4805 10.9433 26.6708 12.8789L26.6365 12.856ZM21.1165 11.8275C22.2593 11.0503 23.3222 10.3303 24.7508 9.37033C24.6361 9.91253 24.4872 10.4469 24.305 10.9703C23.8022 12.1132 23.1622 13.1532 22.7622 14.3189C22.5887 14.8488 22.3057 15.3363 21.9316 15.7497C21.5575 16.1632 21.1007 16.4934 20.5908 16.7189L17.9736 17.9303C18.7508 16.0675 19.3679 14.5017 20.0765 12.9932C20.3353 12.5299 20.7042 12.1374 21.1508 11.8503L21.1165 11.8275ZM18.0079 14.6046C17.5196 16.198 16.9512 17.7656 16.305 19.3017C16.0193 19.8846 15.1622 20.216 14.4422 20.776C14.5905 19.5597 14.9864 18.3865 15.6056 17.3291C16.2247 16.2716 17.054 15.3521 18.0422 14.6275L18.0079 14.6046ZM14.0422 18.4332C14.0903 19.8124 13.6169 21.159 12.7165 22.2046C10.8422 24.4332 8.85358 26.5589 7.10501 28.8903C6.95094 29.0401 6.77334 29.1637 6.5793 29.256C8.44653 25.2579 10.9689 21.5998 14.0422 18.4332ZM6.77358 32.4675C7.07072 31.8617 7.1393 31.1303 7.3793 30.4789C7.55333 30.1555 7.76845 29.8558 8.0193 29.5875L8.21358 29.7817C7.74501 32.8332 7.34501 35.896 6.78501 38.9246C6.4743 39.8523 6.05217 40.7387 5.52787 41.5646C5.30667 41.3209 5.14753 41.0275 5.06397 40.7091C4.98041 40.3908 4.97489 40.0569 5.04787 39.736C5.22263 37.2352 5.80558 34.7799 6.77358 32.4675ZM2.5793 43.8389C2.99786 42.4319 3.14142 40.9574 3.00215 39.496C3.00267 37.4235 3.59332 35.3939 4.70501 33.6446C4.5793 34.7875 4.4993 35.6446 4.4193 36.4446C4.1793 38.6503 3.92787 40.856 3.6993 43.0732C3.71566 43.3601 3.69647 43.648 3.64215 43.9303C3.36787 44.6389 3.01358 45.3017 2.69358 45.9875L2.30501 45.8617C2.34214 45.1812 2.43387 44.5047 2.5793 43.8389ZM2.37358 46.5932C2.87644 46.7532 3.12787 46.7646 3.18501 46.8675C3.54223 49.4368 3.50756 52.0456 3.08215 54.6046C2.86501 52.0103 2.21358 49.4503 2.37358 46.5932ZM4.48787 57.6675C4.48787 54.296 4.0993 50.9132 5.0593 47.5646C5.28787 46.7989 4.75073 45.8617 4.59072 44.7189L7.23073 41.0732C7.23073 41.7475 7.2993 42.0217 7.23073 42.2846C6.99453 45.8732 6.7431 49.4503 6.47644 53.016C6.4143 53.4213 6.4143 53.8336 6.47644 54.2389C7.04787 56.1132 6.21358 57.6675 4.94501 59.256C4.72484 58.7484 4.57118 58.2144 4.48787 57.6675ZM3.20787 57.7932H3.63073C3.84787 58.936 4.93358 59.9989 3.63073 61.2903L3.20787 57.7932ZM6.87644 68.456C6.55644 67.3932 6.24787 66.3189 5.98501 65.2332C5.52787 63.3589 5.11644 61.4617 6.48787 59.7475C6.63155 59.5788 6.79242 59.4256 6.96787 59.2903C7.10066 59.6139 7.21139 59.9461 7.2993 60.2846C7.89358 63.7132 8.15644 67.2675 9.26501 70.6389C9.43847 71.0661 9.47219 71.5373 9.36132 71.9849C9.25045 72.4325 9.00069 72.8334 8.64787 73.1303C7.44787 71.6903 7.28787 70.0217 6.87644 68.456ZM15.0822 85.8617L15.4365 85.6446C15.2786 85.2962 15.0953 84.9601 14.8879 84.6389C13.3673 82.6838 12.15 80.5109 11.2764 78.1932C10.6927 76.6668 10.2041 75.1057 9.81358 73.5189C9.71073 73.1075 10.0422 72.5932 10.1793 72.1475C11.1393 72.2503 11.3222 72.856 11.5279 73.3703C12.4536 75.4732 13.3222 77.5989 14.2822 79.6789C14.9679 81.176 15.7565 82.616 16.5108 84.0789C16.7718 84.4637 16.9686 84.8883 17.0936 85.336C17.0936 85.656 16.7965 86.0103 16.465 86.6732C16.683 87.254 16.9958 87.7947 17.3908 88.2732C20.2136 91.0617 23.105 93.7703 25.9622 96.5589C26.3364 97.0184 26.6477 97.5257 26.8879 98.0675L26.465 98.3189C23.0936 94.9932 19.7336 91.6446 16.3165 88.3532C13.3464 85.4982 10.9763 82.079 9.34501 78.296C9.12878 77.6352 9.09717 76.9278 9.25358 76.2503C10.8993 79.6217 12.2136 83.2217 15.0822 85.8617ZM6.87644 72.9589C7.65358 73.9417 9.16215 74.6846 8.0193 76.5589C7.60787 75.2103 7.26501 74.0789 6.87644 72.9589Z" fill="#111B24"/>
</g>
</svg>
