<svg width="104" height="94" viewBox="0 0 104 94" fill="none" xmlns="http://www.w3.org/2000/svg">
<g opacity="0.1">
<path d="M71.9426 0.0386124C70.3078 0.652654 68.7929 1.54825 67.4672 2.68485C67.0266 3.14927 66.5453 3.57289 66.0285 3.95041C64.9356 4.63289 64.1575 5.72107 63.8659 6.97628C63.7652 7.67773 63.5953 8.36755 63.3596 9.03577C63.1699 9.39753 63.0861 9.80567 63.1187 10.2127C63.1513 10.6201 63.2985 11.01 63.5435 11.3371C63.9695 11.958 64.3373 12.6139 64.6941 13.2582C64.9589 13.7185 64.9472 14.1556 64.3949 14.4087C63.8427 14.6619 63.9922 14.8801 64.1651 15.2718C64.2797 15.5517 64.2797 15.866 64.1651 16.1459C63.5552 17.5037 62.8417 18.8155 62.2894 20.1843C61.4135 22.046 60.3659 23.8216 59.1601 25.4884C58.5734 26.4085 57.6989 27.1336 57.0546 28.0077C55.9041 29.5843 54.535 30.988 53.419 32.61C51.5781 35.2679 49.4726 37.7069 47.4247 40.2379C45.7076 42.4623 44.2845 44.8984 43.1908 47.4864C42.7421 48.5334 42.2129 49.5461 41.7181 50.5581C40.8322 52.3878 39.9233 54.1937 39.0834 56.0234C38.5081 57.2543 38.0594 58.5312 37.5072 59.7626C36.8513 61.2234 36.1611 62.662 35.4593 64.1001C34.4122 66.2743 33.4458 68.4835 32.2723 70.5891C30.3976 73.6561 28.1009 76.4449 25.4496 78.8729C25.2272 79.0999 24.9556 79.2728 24.6558 79.3787C22.6155 80.0002 20.5676 80.6026 18.512 81.1851C17.6549 81.3533 16.8596 81.7508 16.2109 82.3357C15.0604 83.4863 13.8408 84.6368 12.6788 85.8566C12.1203 86.452 11.3871 86.8547 10.5848 87.0072C9.99222 87.1329 9.39302 87.2249 8.79003 87.2831C8.27231 87.2831 7.75453 87.1795 7.2368 87.2138C6.51719 87.2906 5.84838 87.6212 5.34995 88.1461C4.92932 88.6164 4.42636 89.0063 3.86577 89.2967C2.73405 89.7966 1.74242 90.5671 0.977951 91.5402C0.604241 92.0506 0.276954 92.5936 0 93.1622C0.908917 93.4956 1.5417 93.7145 2.30105 93.3577C3.0604 93.001 4.10738 92.5523 5.0163 92.1268C6.10218 91.514 7.29884 91.1229 8.53693 90.9763C9.95596 90.8995 11.3787 90.9262 12.7938 91.0566C13.3803 91.1253 13.9746 91.0583 14.5312 90.861C15.4477 90.4665 16.3162 89.9683 17.1198 89.377C17.9631 88.6635 18.9718 88.1729 20.0537 87.9506C21.1401 87.7649 22.2449 87.7108 23.3442 87.7894C25.8983 88.0193 28.4411 88.3533 30.9837 88.7095C33.6003 89.1943 36.2668 89.3526 38.9223 89.1815C40.5906 89.0086 42.2588 88.9626 43.9156 88.7904C45.554 88.7194 47.1772 88.4453 48.7478 87.9733C49.0946 87.8935 49.4515 87.8662 49.8063 87.893C51.2675 87.893 52.7287 87.893 54.1783 87.7777C55.8351 87.6398 57.4803 87.3174 59.1374 87.1108C61.3076 86.7471 63.4196 86.097 65.4192 85.1775C67.9502 84.1421 70.4353 83.0032 72.9319 81.887C73.8858 81.5105 74.8088 81.0606 75.6934 80.5409C77.6029 79.31 79.5129 78.0791 81.331 76.7441C83.1485 75.4096 85.3001 74.3859 86.6345 72.4526C86.6863 72.3612 86.762 72.2856 86.8534 72.2343C87.582 71.8171 88.1832 71.2083 88.5906 70.4739C88.7122 70.2993 88.8466 70.1334 88.9933 69.9792C90.3504 68.6034 91.597 67.1223 92.7208 65.5498C94.4272 63.4099 96.0102 61.1739 97.461 58.8536C98.6663 57.0006 99.6213 54.9968 100.303 52.8936C100.614 51.6627 101.074 50.4545 101.453 49.2236C101.937 47.5551 102.466 45.8755 102.788 44.1727C103.307 41.7441 103.377 39.2404 102.995 36.7863C102.765 35.4291 102.719 34.0364 102.535 32.656C102.42 31.8162 102.133 30.9991 102.04 30.1477C101.742 28.212 101.189 26.3241 100.395 24.5334C99.6818 22.6006 98.8531 20.7022 98.2205 18.7805C97.8899 17.5822 97.2695 16.4841 96.414 15.582C96.091 15.2497 95.7948 14.8918 95.5283 14.5123C94.1892 12.4126 92.523 10.5403 90.5925 8.96669C89.442 8.12684 88.487 6.91878 86.9796 6.56208C86.9296 6.54835 86.883 6.52367 86.8429 6.48986C86.8033 6.45605 86.7713 6.41397 86.7498 6.36654C86.2667 5.30805 85.1738 4.84782 84.4486 4.06547C84.3037 3.90834 84.1082 3.80667 83.8963 3.77786C82.8715 3.48303 81.81 3.33579 80.7438 3.34062C80.0297 3.40673 79.3185 3.18756 78.7651 2.73083C77.2543 1.6448 75.5694 0.823869 73.7834 0.303234C73.2101 0.0319177 72.5688 -0.0603234 71.9426 0.0386124Z" fill="white"/>
<path d="M71.9426 0.0386124C70.3078 0.652654 68.7929 1.54825 67.4672 2.68485C67.0266 3.14927 66.5453 3.57289 66.0285 3.95041C64.9356 4.63289 64.1575 5.72107 63.8659 6.97628C63.7652 7.67773 63.5953 8.36755 63.3596 9.03577C63.1699 9.39753 63.0861 9.80567 63.1187 10.2127C63.1513 10.6201 63.2985 11.01 63.5435 11.3371C63.9695 11.958 64.3373 12.6139 64.6941 13.2582C64.9589 13.7185 64.9472 14.1556 64.3949 14.4087C63.8427 14.6619 63.9922 14.8801 64.1651 15.2718C64.2797 15.5517 64.2797 15.866 64.1651 16.1459C63.5552 17.5037 62.8417 18.8155 62.2894 20.1843C61.4135 22.046 60.3659 23.8216 59.1601 25.4884C58.5734 26.4085 57.6989 27.1336 57.0546 28.0077C55.9041 29.5843 54.535 30.988 53.419 32.61C51.5781 35.2679 49.4726 37.7069 47.4247 40.2379C45.7076 42.4623 44.2845 44.8984 43.1908 47.4864C42.7421 48.5334 42.2129 49.5461 41.7181 50.5581C40.8322 52.3878 39.9233 54.1937 39.0834 56.0234C38.5081 57.2543 38.0594 58.5312 37.5072 59.7626C36.8513 61.2234 36.1611 62.662 35.4593 64.1001C34.4122 66.2743 33.4458 68.4835 32.2723 70.5891C30.3976 73.6561 28.1009 76.4449 25.4496 78.8729C25.2272 79.0999 24.9556 79.2728 24.6558 79.3787C22.6155 80.0002 20.5676 80.6026 18.512 81.1851C17.6549 81.3533 16.8596 81.7508 16.2109 82.3357C15.0604 83.4863 13.8408 84.6368 12.6788 85.8566C12.1203 86.452 11.3871 86.8547 10.5848 87.0072C9.99222 87.1329 9.39302 87.2249 8.79003 87.2831C8.27231 87.2831 7.75453 87.1795 7.2368 87.2138C6.51719 87.2906 5.84838 87.6212 5.34995 88.1461C4.92932 88.6164 4.42636 89.0063 3.86577 89.2967C2.73405 89.7966 1.74242 90.5671 0.977951 91.5402C0.604241 92.0506 0.276954 92.5936 0 93.1622C0.908917 93.4956 1.5417 93.7145 2.30105 93.3577C3.0604 93.001 4.10738 92.5523 5.0163 92.1268C6.10218 91.514 7.29884 91.1229 8.53693 90.9763C9.95596 90.8995 11.3787 90.9262 12.7938 91.0566C13.3803 91.1253 13.9746 91.0583 14.5312 90.861C15.4477 90.4665 16.3162 89.9683 17.1198 89.377C17.9631 88.6635 18.9718 88.1729 20.0537 87.9506C21.1401 87.7649 22.2449 87.7108 23.3442 87.7894C25.8983 88.0193 28.4411 88.3533 30.9837 88.7095C33.6003 89.1943 36.2668 89.3526 38.9223 89.1815C40.5906 89.0086 42.2588 88.9626 43.9156 88.7904C45.554 88.7194 47.1772 88.4453 48.7478 87.9733C49.0946 87.8935 49.4515 87.8662 49.8063 87.893C51.2675 87.893 52.7287 87.893 54.1783 87.7777C55.8351 87.6398 57.4803 87.3174 59.1374 87.1108C61.3076 86.7471 63.4196 86.097 65.4192 85.1775C67.9502 84.1421 70.4353 83.0032 72.9319 81.887C73.8858 81.5105 74.8088 81.0606 75.6934 80.5409C77.6029 79.31 79.5129 78.0791 81.331 76.7441C83.1485 75.4096 85.3001 74.3859 86.6345 72.4526C86.6863 72.3612 86.762 72.2856 86.8534 72.2343C87.582 71.8171 88.1832 71.2083 88.5906 70.4739C88.7122 70.2993 88.8466 70.1334 88.9933 69.9792C90.3504 68.6034 91.597 67.1223 92.7208 65.5498C94.4272 63.4099 96.0102 61.1739 97.461 58.8536C98.6663 57.0006 99.6213 54.9968 100.303 52.8936C100.614 51.6627 101.074 50.4545 101.453 49.2236C101.937 47.5551 102.466 45.8755 102.788 44.1727C103.307 41.7441 103.377 39.2404 102.995 36.7863C102.765 35.4291 102.719 34.0364 102.535 32.656C102.42 31.8162 102.133 30.9991 102.04 30.1477C101.742 28.212 101.189 26.3241 100.395 24.5334C99.6818 22.6006 98.8531 20.7022 98.2205 18.7805C97.8899 17.5822 97.2695 16.4841 96.414 15.582C96.091 15.2497 95.7948 14.8918 95.5283 14.5123C94.1892 12.4126 92.523 10.5403 90.5925 8.96669C89.442 8.12684 88.487 6.91878 86.9796 6.56208C86.9296 6.54835 86.883 6.52367 86.8429 6.48986C86.8033 6.45605 86.7713 6.41397 86.7498 6.36654C86.2667 5.30805 85.1738 4.84782 84.4486 4.06547C84.3037 3.90834 84.1082 3.80667 83.8963 3.77786C82.8715 3.48303 81.81 3.33579 80.7438 3.34062C80.0297 3.40673 79.3185 3.18756 78.7651 2.73083C77.2543 1.6448 75.5694 0.823869 73.7834 0.303234C73.2101 0.0319177 72.5688 -0.0603234 71.9426 0.0386124ZM72.0345 1.90244L73.1851 3.85835C72.2184 3.85835 72.0345 2.93795 71.2867 2.70784C70.7804 3.73183 72.2301 3.85834 72.0572 4.66374C71.5398 4.99739 71.2634 4.50265 70.9072 4.23803C70.5732 3.90711 70.2578 3.55758 69.9633 3.19106L72.0345 1.90244ZM69.308 14.8574C69.1538 14.4047 68.8441 14.0211 68.4333 13.7761C67.8693 13.3734 67.1681 13.0743 67.0295 12.2572C67.0185 12.2071 66.9964 12.1606 66.9644 12.121C66.9324 12.0808 66.8916 12.0488 66.8456 12.0273C66.0285 11.8318 65.8214 11.0606 65.4419 10.4967C65.1207 9.97351 64.96 9.36755 64.9804 8.7538C65.0008 8.14005 65.2016 7.54591 65.5572 7.04536C65.6375 7.35596 65.6951 7.66662 65.7987 7.96575C65.8691 8.20064 65.9907 8.41684 66.1554 8.59853C66.2357 8.6906 66.4662 8.59853 66.6385 8.59853C66.6385 8.44896 66.6385 8.31092 66.5808 8.16135L66.0285 6.36654C66.5872 5.7472 67.2856 5.26999 68.0655 4.9744C67.8007 4.9744 67.6395 4.76728 67.9043 4.57167C68.4566 4.14602 69.0548 3.76633 69.5955 3.42116C69.9749 3.9734 70.309 4.42211 70.6081 4.91684C70.6849 5.11047 70.7204 5.31835 70.7111 5.52664C70.4993 5.48654 70.2944 5.41682 70.1018 5.31951C69.7759 5.04057 69.4645 4.74487 69.1695 4.43363L68.0189 5.0319C69.0891 4.9744 69.7218 5.69919 69.4919 6.9303L68.3413 5.57267C67.5591 5.50365 68.2494 6.33203 67.8123 6.5391C67.4521 6.74902 67.1099 6.98757 66.788 7.25242C66.7077 7.55156 66.6268 7.87368 66.5465 8.19586C66.7578 8.21955 66.9539 8.31657 67.1011 8.47003C67.2484 8.6235 67.3368 8.82364 67.352 9.03577C67.4439 10.566 68.6288 11.4634 69.3307 12.6366C69.4849 12.8613 69.6089 13.1051 69.6991 13.3618C69.7561 13.5637 69.8539 13.7517 69.9871 13.9146C70.1198 14.077 70.2845 14.2103 70.4713 14.3063C70.6582 14.4023 70.8624 14.4594 71.0719 14.4728C71.2815 14.4861 71.4915 14.4565 71.6894 14.3855C71.2541 14.3348 70.8444 14.1538 70.5144 13.8669C70.1838 13.5794 69.9476 13.1988 69.837 12.7751C70.5505 13.2238 71.1028 13.5457 71.6202 13.9257C71.7121 13.9944 71.6202 14.2248 71.6894 14.3971C72.2807 14.4733 72.8761 14.5158 73.4726 14.524C74.0941 14.4786 74.7128 14.3977 75.325 14.2819L76.4756 16.1116L75.4746 16.3531C75.3594 15.4784 75.0719 14.8342 74.1628 14.7655C74.1628 15.3638 74.1628 15.3638 74.5428 16.1919C74.2897 16.4107 74.0825 16.6179 73.8177 16.1919C73.4126 15.6425 72.9185 15.1641 72.3564 14.7771C72.3564 15.3405 72.3564 15.628 72.3564 16.0196L71.7238 15.4557C71.5858 15.582 71.4246 15.6629 71.3559 15.8008C71.3187 15.8829 71.2634 15.9556 71.1947 16.0138C71.1255 16.072 71.044 16.1133 70.9567 16.1355C70.8694 16.1576 70.778 16.1599 70.6896 16.1419C70.6017 16.1232 70.5185 16.0854 70.4469 16.0307C69.958 15.7624 69.5611 15.3539 69.308 14.8574ZM79.5932 9.57648C78.4892 10.5473 77.2583 11.3638 75.9349 12.004C75.5107 12.192 75.0526 12.2903 74.5888 12.2915C76.2521 11.2527 77.7361 9.95081 78.9839 8.43744C78.5922 8.37994 78.3507 8.26488 78.2244 8.34543C77.707 8.58183 77.242 8.9181 76.855 9.33491C75.8663 10.456 74.6296 11.3307 73.2427 11.8888C72.7731 12.1431 72.2795 12.3509 71.7697 12.5103C71.5166 12.6023 71.1947 12.6832 71.0795 12.1769L74.6005 10.1289C74.6924 10.0713 74.8187 10.048 74.8763 9.96768C75.4053 9.24284 75.9233 8.50652 76.5675 7.59759C76.3208 7.63623 76.0804 7.70986 75.854 7.81618C75.371 8.17282 74.9107 8.5525 74.4509 8.96669C73.5529 9.70178 72.5531 10.3023 71.4822 10.7499C71.1138 10.9227 70.6651 10.8534 70.3317 11.3598C69.9982 11.8661 69.6641 11.1183 69.365 10.8191C71.5625 9.02425 74.2548 8.02325 76.0152 5.59566C76.8323 5.99833 77.7874 6.286 78.2361 7.32145C78.3833 7.56687 78.5887 7.7723 78.8343 7.91972L81.0202 9.56496L80.2148 10.3244C80.2148 9.91007 80.2148 9.69154 80.2148 9.36941C79.9965 9.39974 79.7859 9.46992 79.5932 9.57648ZM94.1019 20.9897C94.1019 21.3465 94.1019 21.7143 94.021 22.071H93.883L93.5146 21.2545C93.7218 21.1509 93.9057 21.0357 94.1019 20.9437L94.8381 20.2302C95.4363 21.1626 95.4363 21.1626 94.8381 21.634L94.0553 20.9437L94.1019 20.9897ZM87.9347 24.6946L89.5112 24.7865C89.6492 25.4308 89.7644 25.9371 89.8907 26.6273L88.1535 26.3625C88.0959 25.8795 88.0266 25.3615 87.9347 24.6946ZM87.0256 26.2019C86.485 25.8795 86.4623 25.7642 86.6922 24.5677C87.0949 25.2812 87.0949 25.2812 87.0256 26.2019ZM79.5472 34.1517L78.1552 34.0137L79.3057 34.9914C79.3057 35.3255 79.2021 35.6706 79.1335 36.142L76.947 35.2446C77.3386 36.1769 78.3047 36.3952 78.8914 37.0394C78.8914 37.4765 78.7767 37.9141 78.6848 38.4775L75.7045 36.9015L77.3154 31.7702C78.0632 32.1497 78.7418 32.4488 79.375 32.8172C80.0076 33.1856 79.7428 33.6343 79.5472 34.1517ZM81.2734 35.1759L80.2375 34.6347C80.2375 34.2552 80.3411 33.9218 80.3876 33.5877C81.6872 33.7146 81.8257 33.9794 81.2734 35.1759ZM80.0536 35.6357C81.2961 35.9808 81.3077 35.9808 81.0202 37.2239L79.8697 36.6256C79.9273 36.1996 79.9959 35.9005 80.0536 35.6357ZM79.7544 37.523L80.905 38.0177C80.7898 38.4431 80.6635 38.8691 80.5255 39.3749C80.1112 39.1793 79.7661 39.0187 79.375 38.8115C79.4786 38.3168 79.6049 37.9368 79.7544 37.4881V37.523ZM80.813 30.8844C81.6761 31.0224 81.7908 31.1143 81.814 31.8622C81.814 32.3109 81.814 32.7596 81.814 33.3578C80.4103 32.4145 80.4103 32.4145 80.813 30.8495V30.8844ZM79.7317 32.035C78.811 31.7469 78.7767 31.563 79.2254 29.9521L80.1455 30.2862L79.7317 32.035ZM78.0975 31.3442C77.6721 31.4018 77.4306 31.2872 77.4649 30.9188C77.6145 28.8365 77.7757 26.7536 77.948 24.5217C78.6388 24.8901 78.4892 25.3272 78.5119 25.6723C78.4659 26.3771 78.4659 27.0842 78.5119 27.7895C78.6155 28.4338 78.1435 28.9401 78.282 29.6187C78.3094 30.1774 78.2477 30.7366 78.0975 31.2755V31.3442ZM80.9283 29.6303C80.9283 29.0204 81.4113 29.0437 81.8943 28.8365C81.8943 29.3079 81.8943 29.7339 81.8943 30.2402C81.388 30.079 80.9742 30.0674 80.9283 29.561V29.6303ZM79.9959 29.4115C79.0875 29.1816 78.8454 28.7905 79.1678 27.7086C80.3527 28.1463 80.3643 28.1806 79.9959 29.3428V29.4115ZM80.9626 26.3514C82.1132 26.8228 82.1132 26.8461 81.7104 28.2266C80.5942 27.8582 81.423 26.8345 80.9626 26.2822V26.3514ZM80.1688 27.3059C79.2598 27.3059 79.1445 27.1453 79.2138 26.4085C79.2138 26.029 79.3174 25.6496 79.3866 25.1892C80.4563 25.7532 80.5372 25.7299 80.1688 27.2372V27.3059ZM81.0429 24.545C81.6761 24.545 81.7681 24.9361 81.7564 25.557C81.1581 25.2812 80.8014 25.1083 81.0429 24.4757V24.545ZM80.1455 24.8558L79.2138 24.4298C79.2714 24.0847 79.3174 23.7855 79.3633 23.4747C80.3067 23.6936 80.3067 23.6936 80.1455 24.7865V24.8558ZM81.4916 22.5546L81.6068 23.8199C80.859 23.1413 80.859 23.1413 81.4916 22.4737V22.5546ZM80.4336 23.0033C80.2072 22.9655 79.9843 22.912 79.7661 22.8421C79.6386 22.7857 79.5158 22.7205 79.3977 22.6466C79.3866 22.4703 79.3866 22.2933 79.3977 22.117C79.4436 21.8993 79.5013 21.6846 79.5705 21.4728C80.3987 21.5763 80.2724 22.2322 80.4336 22.9801V23.0033ZM78.4659 23.9811H78.2361C78.2361 22.9341 78.3507 21.8988 78.4316 20.633C78.7517 21.6968 78.7633 22.8299 78.4659 23.9007V23.9811ZM79.3866 17.4461H79.6508C79.9773 18.5664 80.1211 19.7315 80.0768 20.8978C79.812 20.7249 79.5589 20.6446 79.5472 20.541C79.4669 19.5284 79.3866 18.4587 79.3866 17.4461ZM78.6498 20.2419C78.3856 20.058 78.1784 20.0004 78.1784 19.9084C78.0876 18.9103 78.2011 17.9041 78.5119 16.9514C78.9077 18.0059 78.9525 19.16 78.6388 20.2419H78.6498ZM80.7211 18.3778C81.1488 19.2764 81.3048 20.2803 81.1698 21.2656C80.7234 20.3734 80.5669 19.3637 80.7211 18.3778ZM83.0222 17.7336C83.7351 17.5037 84.0575 17.7336 84.1728 18.4354L83.4593 18.7922C83.5856 18.9301 83.6432 19.0453 83.7124 19.0453C83.9091 19.0395 84.1012 19.1053 84.2531 19.2298C84.4056 19.3549 84.5074 19.5301 84.5406 19.7239C84.8397 21.059 85.1738 22.3934 85.5189 23.8658L84.2647 24.0963C83.8736 21.9674 83.4593 19.8968 83.0449 17.7685L83.0222 17.7336ZM76.7863 13.7761C77.0965 14.4664 77.373 15.1106 77.6605 15.7548L77.4649 15.8811L76.0961 14.052L76.7863 13.7761ZM72.0002 13.96C72.3796 13.7331 72.8051 13.5951 73.245 13.555C73.685 13.5154 74.1285 13.5748 74.5428 13.7302C74.1873 14.0095 73.7601 14.1829 73.3108 14.2318C72.8615 14.2807 72.407 14.2027 72.0002 14.006V13.96ZM82.6311 16.629C82.4699 16.1576 82.2168 15.6513 82.8267 15.0646L83.7124 16.7558C82.9303 17.2849 82.8377 17.2272 82.6311 16.6755V16.629ZM86.7614 17.1469C87.3597 16.9281 87.5209 17.3768 87.7735 17.9867C87.2328 17.9867 86.7957 18.3894 86.6229 17.7336C86.5542 17.6189 86.6462 17.2272 86.7614 17.2272V17.1469ZM85.4729 18.3778C84.9777 18.2975 84.9549 17.918 84.909 17.538C85.6335 17.5956 85.6335 17.5956 85.4729 18.3778ZM90.0746 19.6552C89.3617 19.6552 89.3727 19.1373 89.1428 18.8841C89.1428 19.1373 89.1428 19.4021 89.2464 19.7932L87.2101 20.012L86.9226 18.8614C87.5092 18.8614 87.9696 18.4471 88.4526 18.9761C88.5446 19.0797 88.9013 18.9761 89.1428 18.8958L89.5683 18.6769L90.0746 19.6552ZM90.6502 18.8382C91.0756 19.1146 91.0872 19.1029 91.4207 19.7129C90.8917 19.5284 90.8917 19.5284 90.7078 18.8841L90.6502 18.8382ZM87.7624 21.7143L87.394 20.7942C89.1661 20.1156 89.7987 20.3111 90.1322 21.588C89.4763 21.9447 89.5456 21.1853 89.1545 20.9437C89.0759 21.2231 88.8949 21.4623 88.647 21.6142C88.3997 21.7655 88.104 21.8179 87.82 21.7608L87.7624 21.7143ZM86.5659 21.8295C86.4046 21.8295 86.1515 21.8295 86.1172 21.8295C85.985 21.5635 85.8768 21.2865 85.7947 21.0013C86.0939 20.7249 86.3127 20.7598 86.4163 21.059C86.4879 21.311 86.5379 21.5688 86.5659 21.8295ZM85.6108 20.1039C85.4927 19.7827 85.4042 19.4516 85.346 19.1146C85.9443 19.2182 86.3703 19.8735 86.1055 20.1499C86.0264 20.1848 85.9402 20.2 85.8535 20.1941C85.7674 20.1883 85.6842 20.161 85.6108 20.1156V20.1039ZM91.4783 20.5526C92.1802 20.6446 92.1918 20.6562 92.2261 21.6223C91.4207 21.6683 91.4207 21.6683 91.4783 20.5643V20.5526ZM86.2894 22.4621C86.4314 22.5186 86.5571 22.6082 86.6555 22.7246C86.7544 22.8404 86.8237 22.9789 86.8563 23.1273C86.8894 23.2763 86.8854 23.4305 86.8446 23.5778C86.8039 23.7244 86.7277 23.8588 86.6229 23.9694C86.4698 23.7535 86.3616 23.5085 86.3046 23.2495C86.2469 22.9911 86.2417 22.7234 86.2894 22.4621ZM90.3627 24.9704C91.3171 24.4414 91.8467 24.6713 92.1226 26.6273C90.8224 26.9264 90.6152 26.7425 90.3277 24.9704H90.3627ZM93.1352 26.2938C93.0549 25.9254 92.9053 25.5687 92.7441 25.074L93.5606 24.8558C93.9319 25.4284 94.135 26.0942 94.1478 26.7769C93.5839 26.9608 93.1928 26.9264 93.1009 26.2938H93.1352ZM87.9003 24.1306C87.9003 23.5097 87.82 23.0837 87.7851 22.5314L89.0509 22.4161C89.1428 22.9574 89.2232 23.3944 89.3157 23.9927L87.9003 24.1306ZM89.8214 22.543C90.0001 22.4557 90.2044 22.4353 90.3964 22.486C90.5885 22.5372 90.7561 22.6553 90.8684 22.8189C91.2944 23.3485 91.3287 23.3944 91.1792 24.1539H90.2701C90.1206 23.5783 89.971 23.0493 89.8214 22.4854V22.543ZM92.2605 24.1306C92.0999 23.6243 91.9387 23.0953 91.7774 22.5546C92.928 22.3591 93.3767 22.7962 93.354 24.2918L92.2605 24.1306ZM95.6086 22.1863C96.3681 23.2099 96.3564 23.3944 95.448 23.6243C94.93 22.5197 94.93 22.5197 95.6086 22.2095V22.1863ZM93.3075 20.4031C92.6289 19.6093 92.9397 19.0686 94.2398 18.7695C94.6309 19.6896 94.6309 19.6896 93.3424 20.4258L93.3075 20.4031ZM92.3757 18.919C92.3757 18.4354 92.3757 18.0676 92.4677 17.9291C92.5596 17.7912 93.2044 17.3198 93.7451 18.0327L92.3757 18.919ZM89.7987 17.6416C88.8094 18.0216 88.6482 17.9751 88.2111 17.0433L89.1661 16.6179C89.4303 17.0206 89.6375 17.3308 89.8331 17.6649L89.7987 17.6416ZM91.8234 16.7558C92.1313 16.5714 92.4502 16.4061 92.7784 16.2612C92.7784 16.5719 92.9164 16.9281 92.8477 16.963C92.5422 17.1754 92.1837 17.2994 91.8118 17.3198C91.5819 17.3198 91.5935 16.9397 91.8583 16.7785L91.8234 16.7558ZM85.7488 15.4324C85.6452 14.7538 84.7018 14.3971 85.3233 13.5806C86.1515 14.3744 86.2894 14.7998 85.7831 15.4557L85.7488 15.4324ZM86.8993 13.7872L88.5906 15.8811C88.5958 15.9463 88.5958 16.0121 88.5906 16.0767C88.349 16.0767 88.0039 16.1459 87.8887 16.008C87.4138 15.3638 86.9983 14.6788 86.6462 13.96L86.8993 13.7872ZM84.1838 15.8008C84.0575 15.4673 83.954 15.1566 83.7701 14.6503C84.7134 15.1333 84.7594 15.3178 84.1611 15.8241L84.1838 15.8008ZM79.3866 15.2026C79.1335 15.525 78.857 15.6856 78.5812 15.3288C78.3047 14.9727 77.8444 14.2359 77.4306 13.6376C77.6029 13.534 77.7757 13.3845 77.8217 13.4077C78.4764 13.8756 79.0118 14.4902 79.3866 15.2026ZM75.3594 13.3501L76.855 12.9934C76.7916 13.1342 76.6967 13.2582 76.5774 13.3559C76.4575 13.4537 76.3173 13.5224 76.1671 13.5567C76.0164 13.5916 75.8604 13.5911 75.7103 13.555C75.5601 13.5189 75.4205 13.4491 75.3017 13.3501H75.3594ZM68.9163 9.82958C68.7208 8.7481 68.9163 8.20739 69.745 7.87368C70.5732 7.54004 71.321 7.26395 72.0462 6.91878C72.4437 6.70839 72.8278 6.47403 73.1967 6.21697C73.6914 5.94082 74.1744 5.64169 74.6808 5.41158C74.9526 5.33965 75.2412 5.36403 75.4979 5.4806C73.5069 7.24381 71.2704 8.7087 68.8593 9.82958H68.9163ZM21.4688 81.1624C22.2956 80.7172 23.2224 80.492 24.1611 80.5065L21.5149 81.3923L21.4688 81.1624ZM31.0643 87.4902L30.6155 86.3397L32.5369 85.6035L35.1716 87.2947C33.8533 87.7713 32.4219 87.8394 31.0643 87.4902ZM24.7248 85.3043L25.5072 86.0405C25.4735 86.0906 25.4464 86.1447 25.4267 86.2018L23.5973 85.9253L24.7248 85.3043ZM22.4238 85.7181L21.768 85.5918V85.3963L22.4353 85.4999C22.4067 85.5709 22.3836 85.6436 22.3662 85.7181H22.4238ZM45.952 77.5495C46.2051 77.7224 46.4583 77.883 46.7344 78.0442C45.5839 79.0225 45.4918 79.1948 44.1457 77.6304L45.1237 77.0089C45.3653 77.2161 45.6299 77.3883 45.8945 77.5495H45.952ZM45.952 76.6061L47.1025 75.8926L48.5752 76.8593C47.4132 77.8946 47.0105 77.8487 45.952 76.6061ZM43.3173 78.1362C43.8121 78.3783 44.2723 78.7001 44.7555 78.9992C44.1688 79.6091 44.1688 79.6091 42.7306 78.4469C42.9952 78.309 43.2253 78.0902 43.3173 78.1362ZM33.7565 83.0032C35.6663 81.6571 35.6663 82.1285 36.8168 83.0376L34.9415 83.9582C34.5158 83.6242 34.1361 83.325 33.7565 83.0032ZM34.0441 84.1538C33.0316 84.9592 32.675 84.9476 31.5244 84.0159C32.721 83.1184 32.721 83.1184 34.0441 84.1765V84.1538ZM39.2905 81.7607L37.6107 82.6465L36.5407 81.795L37.9674 80.9209L39.2905 81.7607ZM38.9568 80.6101C40.1074 79.8507 40.1074 79.8507 41.2579 80.8976L40.0498 81.4732L38.9568 80.6101ZM38.4046 83.1871C39.2905 82.4736 39.6817 82.3357 40.395 82.3933L41.9597 81.4266L42.9031 81.9219C42.9031 81.5879 42.9031 81.3696 42.9031 81.1164L44.3068 80.5065L45.0891 81.1164C43.181 82.3613 41.1538 83.4135 39.0374 84.2574L38.4046 83.1871ZM40.9472 79.6667C42.0978 78.7344 42.2129 78.7461 43.2483 79.793C42.5695 80.8284 41.7411 80.7364 40.9472 79.6667ZM41.0163 78.4353C40.1994 79.1604 40.1994 79.1604 39.325 78.6541L37.4266 77.5728C37.4266 77.4692 37.4266 77.3773 37.4266 77.2847L38.5772 76.6405L41.0163 78.4353ZM39.1755 79.5859L38.186 80.1154L35.6663 78.5505L36.9664 77.9406C37.3461 78.7804 38.4391 78.838 39.1755 79.5515V79.5859ZM37.3691 80.4373L35.6663 81.266L33.6184 80.1154L34.7689 79.0795L37.3691 80.4373ZM34.2627 81.5878C32.5254 82.5312 33.0316 82.7384 31.2138 81.3807C32.4679 80.5758 33.3653 80.6218 34.2627 81.6571V81.5878ZM31.8236 82.9223L30.673 83.5206L29.2809 82.6121C29.9712 81.5762 30.581 81.6571 31.8236 82.9456V82.9223ZM27.7507 82.5312L29.9137 83.9582C29.3844 84.3034 29.0163 84.5676 28.6366 84.7864C28.5729 84.8207 28.5018 84.8388 28.4295 84.8388C28.3573 84.8388 28.2861 84.8207 28.2224 84.7864C27.279 84.1881 26.3586 83.5671 25.4267 82.9456C25.4267 82.9456 25.3691 82.8193 25.3001 82.6581L26.9684 81.7607L27.7507 82.5312ZM31.628 85.1775C30.7766 85.1775 30.0173 86.0982 29.0393 85.2927C30.558 84.315 30.9261 84.2225 31.628 85.2008V85.1775ZM24.9204 83.7627C24.4142 84.3033 24.3682 84.2917 23.5053 83.2791C23.631 83.2174 23.768 83.1813 23.9079 83.1737C24.0478 83.1656 24.188 83.186 24.3199 83.2331C24.4519 83.2802 24.5731 83.3536 24.6762 83.4484C24.7794 83.5433 24.8624 83.6579 24.9204 83.7854V83.7627ZM23.0105 84.1654C22.3432 84.3033 22.3432 84.3034 22.1476 83.6131L23.0105 84.1654ZM27.4401 85.3847L26.4621 86.0062C26.0134 85.5686 25.6107 85.1548 25.162 84.7288C26.1285 84.2917 26.5427 84.4296 27.4746 85.3847H27.4401ZM30.0403 87.2714L28.4756 87.1218C29.442 86.2594 29.5685 86.2594 30.0748 87.2714H30.0403ZM43.4554 87.2714C41.3249 87.783 39.1301 87.9727 36.9434 87.8354C38.255 87.4902 39.5897 87.2027 40.8667 86.7767C41.2966 86.5707 41.7799 86.5032 42.2497 86.5835C42.7197 86.6638 43.153 86.8885 43.4899 87.2254L43.4554 87.2714ZM46.907 86.754L46.4353 86.8227C46.441 86.754 46.441 86.6848 46.4353 86.6155H46.907C46.9172 86.6458 46.9249 86.6766 46.93 86.7081L46.907 86.754ZM43.2598 86.1668C43.4136 85.9899 43.6023 85.8467 43.814 85.7461C44.0258 85.6454 44.2562 85.5895 44.4905 85.5819C44.7249 85.5744 44.9584 85.6151 45.1762 85.7018C45.394 85.7885 45.5916 85.9195 45.7564 86.0865C44.9511 86.6505 44.1802 87.0183 43.2828 86.1208L43.2598 86.1668ZM48.5638 86.5469C48.3451 86.6155 48.0345 86.3053 47.6778 86.1098C48.5407 85.4882 49.2886 85.0628 50.301 85.8217C49.8137 86.2204 49.2147 86.4578 48.5868 86.5009L48.5638 86.5469ZM61.6108 78.4929C60.9549 79.5055 60.7937 79.5632 59.8852 79.1028L58.9872 78.5849L59.5285 78.0558C59.678 77.9063 59.8387 77.7683 60.0575 77.5839L61.6108 78.4929ZM60.6901 77.0548L61.5415 76.2378L62.4622 76.6405L63.2787 77.0548C62.3353 78.2054 62.3353 78.2054 60.6901 77.0548ZM63.9235 79.7127C63.256 80.5065 62.9336 80.5065 61.818 79.7127C62.6577 78.9073 62.8533 78.9073 63.9235 79.7011V79.7127ZM57.86 78.6308C56.813 79.6318 56.7095 79.6318 55.6625 78.9649C56.5024 77.9296 56.7555 77.883 57.86 78.6198V78.6308ZM58.297 78.9189L59.9312 79.7354C59.1368 80.6328 58.8493 80.886 57.3998 79.6667L58.297 78.9189ZM60.771 80.0695L61.5072 80.3337L62.209 80.6101C61.0585 81.4732 61.0585 81.5995 59.9079 80.8284L60.771 80.0695ZM58.3319 80.9436C57.0546 81.9219 57.0546 81.9219 55.9617 81.0588L56.8015 80.1498L58.3319 80.9436ZM60.2071 81.7607C59.6548 82.0139 59.2404 82.221 58.815 82.3706C58.6881 82.3706 58.5158 82.2897 58.3319 82.2321C59.1484 81.3463 59.1484 81.3463 60.2071 81.7834V81.7607ZM56.2723 82.1058C55.5359 82.9572 55.5359 82.9572 54.512 82.3014C55.2253 81.4732 55.4094 81.4499 56.2723 82.1285V82.1058ZM52.5446 82.2321C51.4976 83.3827 51.3365 83.3827 49.6567 82.5312L51.348 81.5419L52.5446 82.2321ZM53.6951 82.6348L54.7651 83.1988C53.9367 84.1654 53.7411 84.1881 52.395 83.4863L53.6951 82.6348ZM50.2435 83.6934C49.4036 84.7061 48.4487 84.326 47.3787 83.9809C48.5983 82.888 49.0125 82.8996 50.3125 83.7167L50.2435 83.6934ZM52.7056 84.418C51.187 85.7414 51.2329 85.5686 49.9789 84.8207C50.9108 84.2801 51.7047 83.5206 52.7747 84.4413L52.7056 84.418ZM47.4938 84.89C47.0911 85.5686 47.0911 85.5686 45.3308 84.9936C46.1822 84.361 46.861 84.6601 47.5628 84.9133L47.4938 84.89ZM51.9118 86.1208C52.8782 85.4539 53.7296 84.798 54.6385 84.2684C55.2413 84.0025 55.8697 83.7982 56.5139 83.6591C56.5139 83.5671 56.5139 83.314 56.4449 83.0492C56.8015 82.8193 57.0891 82.3706 57.722 82.6924L56.9856 83.3483C57.783 83.3384 58.5682 83.1539 59.2864 82.8077C59.9283 82.4899 60.5894 82.2135 61.2657 81.9789C59.8852 83.7278 54.0748 86.7767 51.9808 86.1441L51.9118 86.1208ZM66.305 83.1184C65.066 83.6579 63.7746 84.0671 62.4506 84.3377C63.348 83.7511 64.2454 83.1871 65.1661 82.6005C65.7067 82.3241 65.9139 82.8077 66.3737 83.1411L66.305 83.1184ZM67.1681 82.5661C66.2532 82.2036 65.4175 81.6687 64.7057 80.9896C63.9806 81.2771 64.5218 81.7147 64.5562 82.0249C60.9549 84.798 57.0086 86.6272 55.2368 86.1901C55.3588 86.0964 55.4899 86.0155 55.628 85.9486C58.1367 84.9528 60.4678 83.5584 62.5309 81.8183C63.1524 81.312 64.0039 81.1048 64.4293 80.3226C64.4735 80.2528 64.5364 80.1975 64.6109 80.162C64.6853 80.1265 64.768 80.1131 64.8495 80.1224C64.9315 80.1323 65.0089 80.1649 65.0729 80.2161C65.137 80.2679 65.1853 80.3366 65.212 80.4146C65.3843 81.1741 65.9826 81.4616 66.5122 81.8526C66.7985 82.0494 67.0447 82.299 67.2367 82.5888L67.1681 82.5661ZM70.9416 78.5045C71.2751 78.1821 71.413 77.9523 71.5398 77.9523C72.2417 77.9523 72.6904 78.4469 73.2654 78.9416C72.2533 79.6784 71.9193 78.5278 71.0103 78.5278L70.9416 78.5045ZM75.325 78.3433C75.0951 78.827 74.842 79.0912 74.1745 78.8497C74.6348 78.4702 74.8647 78.2054 75.3943 78.3666L75.325 78.3433ZM76.6478 77.5379L75.797 77.9523C76.1305 77.3423 76.1305 77.3423 76.7171 77.5612L76.6478 77.5379ZM78.3623 76.2034C77.5918 77.0322 77.5918 77.0322 77.0506 76.4682C77.5226 76.261 77.7757 75.6744 78.4316 76.2267L78.3623 76.2034ZM80.2264 75.0529C79.2254 75.8816 79.2254 75.8816 78.6271 75.2373C79.3866 74.4086 79.3866 74.4086 80.2951 75.1105L80.2264 75.0529ZM81.7221 73.9023C81.0662 74.6041 81.0662 74.6041 80.0768 74.0175C80.8707 73.1777 80.8707 73.1777 81.7907 73.9256L81.7221 73.9023ZM83.5285 72.5102C82.9873 73.4193 82.8034 73.4536 81.6528 72.8326C82.2744 71.82 82.9646 72.5678 83.5972 72.5335L83.5285 72.5102ZM84.4486 71.7507L84.1268 72.1884L82.8494 71.5785C83.4133 71.5174 83.9836 71.5843 84.5179 71.774L84.4486 71.7507ZM85.5992 70.6002C85.0009 71.2334 84.7251 71.2217 82.6311 70.4739C82.7691 70.198 82.8953 69.9449 83.0222 69.7144L85.5992 70.6002ZM87.2788 69.0585C86.3703 70.1404 86.2434 70.2091 84.9777 69.6108L84.1268 69.2197C85.0585 69.0818 85.7831 69.8296 86.5659 69.1394C86.1399 68.5411 85.4153 68.7594 84.8746 68.4602C84.3264 68.2164 83.7607 68.0127 83.1828 67.8509C83.0106 68.196 82.8837 68.4375 82.7807 68.6791H81.331L82.2627 69.6684C81.8257 70.4163 80.905 70.3936 80.2031 70.9342L81.3537 72.0848C81.0429 72.5795 80.6635 72.6481 80.1345 72.303C79.7637 72.1156 79.3791 71.9579 78.9839 71.8316C78.4083 72.9822 79.9389 72.5445 79.9389 73.3389C79.7428 73.6724 79.4786 73.9483 78.9379 73.5455C78.5695 73.318 78.1848 73.1178 77.7873 72.9473C77.4766 73.5455 77.4766 73.5455 78.5579 74.3743C78.2244 75.2141 77.8101 75.1105 77.2578 74.7194C76.7055 74.3283 76.1072 73.9942 75.5898 73.6381C75.5252 73.7312 75.4822 73.8377 75.4629 73.9494C75.4443 74.0612 75.4496 74.1752 75.4792 74.2846C75.5089 74.3941 75.5619 74.4959 75.634 74.5832C75.7068 74.6699 75.7976 74.7397 75.9 74.7886C76.3027 75.0645 76.7287 75.306 77.1542 75.5592C76.6251 76.5026 76.4756 76.5485 75.6701 75.9276C75.4746 75.778 75.325 75.5475 75.1062 75.4556C74.8932 75.4201 74.6755 75.4201 74.4619 75.4556C74.4619 75.6861 74.4619 75.9735 74.6005 76.1115C74.963 76.4356 75.3477 76.7359 75.7504 77.0089C75.5665 77.1584 75.4286 77.2964 75.279 77.4343L73.2194 75.8583C73.1333 75.9473 73.0699 76.0556 73.0349 76.1749C73 76.2936 72.9948 76.4193 73.0198 76.541C73.0448 76.6626 73.099 76.7761 73.1781 76.8715C73.2573 76.967 73.3579 77.042 73.4726 77.0892C73.841 77.3423 74.2437 77.5612 74.7611 77.8603L73.8986 78.6198C73.1048 78.2287 72.4256 77.826 72.4489 76.7097C72.1038 76.9053 71.7121 76.9856 71.5282 77.2277C71.4363 77.4035 71.3071 77.5577 71.1499 77.6787C70.9922 77.7998 70.8101 77.8853 70.6168 77.929C70.423 77.9726 70.2217 77.9738 70.0279 77.9319C69.8335 77.8906 69.6508 77.8073 69.4919 77.6875C69.6182 78.217 69.7107 78.5622 69.7794 78.838C70.7746 79.0568 71.6685 79.5987 72.322 80.3797C72.0229 80.6904 71.7697 80.7481 71.4822 80.4606C70.9183 79.9083 70.3317 79.3793 69.7794 78.838H69.5955C69.3307 78.7693 69.0199 78.5622 68.8703 78.9649C68.7208 79.3676 69.0659 79.3903 69.2963 79.5632C69.883 80.0119 70.4469 80.5182 70.9643 80.9779C70.746 81.5419 70.4585 81.5302 70.0901 81.2771C69.3883 80.7824 68.6864 80.311 67.9729 79.8507C67.7029 79.7034 67.4224 79.5765 67.1331 79.4712C66.8113 80.1958 67.2827 80.4146 67.6627 80.6218C68.2837 81.0012 68.9396 81.3463 69.8254 81.7723L68.3756 82.359C67.3048 81.7328 66.4132 80.8412 65.787 79.7703C66.6041 79.1372 67.4672 78.5162 68.2953 77.8487C68.7336 77.4925 69.1491 77.1078 69.5379 76.6981C69.8253 76.3873 69.8027 76.3646 69.5379 75.7431C69.3807 75.8653 69.2312 75.9957 69.0891 76.1347C67.9886 77.3563 66.699 78.3934 65.2697 79.2064C65.1259 79.3071 64.9554 79.3606 64.7802 79.3606C64.6056 79.3606 64.4345 79.3071 64.2914 79.2064C63.9003 78.9765 63.4859 78.792 63.0488 78.5505C63.1751 78.2782 63.3765 78.0465 63.6291 77.8836C63.8816 77.7206 64.175 77.6328 64.4753 77.6304C64.9647 77.7375 65.4343 77.9197 65.8679 78.1711L65.9826 77.9755L65.0049 77.0548C65.1771 76.7214 65.7411 76.4339 65.2464 75.8007L63.9579 76.7097L62.1287 75.7664C62.9336 75.0185 63.6704 74.3167 64.4293 73.6148C64.5463 73.4757 64.708 73.3814 64.8867 73.35C65.066 73.3186 65.2505 73.3512 65.4076 73.4425L67.0872 74.4086C66.4429 75.0878 65.8679 75.4096 65.0392 74.9382C64.8867 74.8177 64.6987 74.752 64.5044 74.752C64.31 74.752 64.1214 74.8177 63.9695 74.9382C64.6266 75.3537 65.329 75.6936 66.0635 75.9503C66.7304 76.0998 67.214 76.8826 68.1114 76.5142C67.8466 75.8583 67.0988 76.0771 66.7764 75.5935C67.26 75.1681 67.6971 74.685 68.4216 75.2141C68.7208 75.4329 69.0088 75.352 69.262 74.9493L68.4909 74.4086C69.1706 73.3762 69.9406 72.406 70.792 71.5092C71.0911 71.291 71.4939 70.9569 71.2064 70.3586C70.9876 70.4622 70.7111 70.5082 70.5732 70.6811C69.7328 71.3852 68.9931 72.2023 68.3756 73.1085C67.9729 73.9139 67.6168 73.9942 66.8456 73.5572C66.4196 73.3273 66.0175 73.0625 65.5798 72.7866C66.3853 71.9463 67.1104 71.2333 67.789 70.4855C68.0078 70.2324 68.3756 69.8523 67.7198 69.4845C67.0528 70.198 66.3969 70.9459 65.7067 71.6361C64.4642 72.8553 63.21 74.0635 61.9326 75.2373C61.6835 75.4114 61.4077 75.5435 61.1161 75.6284C60.9729 75.9252 60.7995 76.2069 60.5981 76.4682C60.1378 76.9169 59.6431 77.3313 59.1484 77.7334C58.4466 78.3206 58.4466 78.3206 57.5148 77.6188C57.9318 77.3429 58.3174 77.0228 58.6654 76.6638C58.9186 76.3413 59.5512 76.0539 59.0222 75.3636C58.5502 75.8123 58.1362 76.2378 57.6874 76.6178C57.2387 76.9972 57.1237 77.2964 56.6059 77.1928C56.559 77.1957 56.5133 77.2085 56.4716 77.2306C56.43 77.2521 56.3934 77.2824 56.3643 77.3196C56.2838 78.1711 55.3979 78.1362 55.0527 78.6541L53.8217 78.1594C54.1898 79.4712 55.4784 79.2297 56.1227 79.9083C55.9271 80.4373 55.3633 80.4949 54.9722 80.7824C54.1167 80.3785 53.2224 80.0625 52.303 79.839C52.6942 80.6561 53.603 80.7137 54.2358 81.2544C54.1918 81.3708 54.1226 81.4755 54.0331 81.5617C53.9435 81.6478 53.8361 81.713 53.7183 81.7525C53.6005 81.7921 53.4755 81.8055 53.3521 81.791C53.2287 81.7764 53.1101 81.7345 53.0048 81.6687C52.6516 81.5105 52.3129 81.3219 51.9923 81.1048C51.761 80.9395 51.4767 80.8656 51.1941 80.897C50.9115 80.9291 50.6507 81.0647 50.4621 81.2771C50.3011 81.461 50.1105 81.6164 49.8984 81.7374C48.1151 82.7041 46.3547 83.6818 44.5484 84.6025C42.658 85.5889 40.6354 86.2984 38.5426 86.7081C38.4391 86.7081 38.324 86.7081 38.232 86.7081C37.5417 86.892 36.8054 87.3407 36.1956 87.2138C35.4775 86.9147 34.816 86.4939 34.2397 85.9713L33.3078 85.2927C34.3777 84.6141 34.7804 84.6141 35.6088 85.2927C35.8964 85.5115 36.1266 85.7874 36.4142 85.9829C36.7018 86.1785 36.8974 86.2361 36.8859 85.7874C36.8107 85.6186 36.714 85.4597 36.5982 85.3154C36.3106 85.0163 35.9885 84.7637 35.5858 84.418L37.4611 83.5671L38.5312 84.372C38.0249 84.9592 37.0585 84.9476 36.8859 85.7874C39.0379 85.0611 41.1241 84.1526 43.1218 83.0719C44.3413 82.4166 45.5378 81.7258 46.7229 81.0245C47.0235 80.8034 47.3045 80.5572 47.5628 80.2877C46.93 79.9886 46.5618 80.3686 46.1822 80.5525C45.8025 80.7364 45.3768 80.6788 45.0316 80.1498L47.6318 78.6541C48.069 78.6541 48.4947 79.5748 49.07 78.7117L48.3221 78.0675L49.1966 77.3656L50.4276 77.9755L49.7833 78.6885C50.0421 78.6978 50.3011 78.6745 50.5542 78.6198C52.3578 77.78 54.0442 76.7086 55.5705 75.4329C55.9617 75.0761 56.4218 74.8113 56.8475 74.4895C56.9626 74.397 57.0546 74.259 57.2502 74.0519C57.0403 74.0385 56.8297 74.0681 56.6318 74.1391C56.4338 74.2107 56.2527 74.3219 56.0997 74.4662C54.8456 75.2833 53.58 76.0655 52.3605 76.9286C52.0468 77.1736 51.66 77.3068 51.2617 77.3068C50.8634 77.3068 50.4767 77.1736 50.163 76.9286C50.9453 76.3413 51.6932 75.778 52.4641 75.2141C53.2349 74.6501 53.9712 74.0635 54.7651 73.4192C55.1333 73.0968 55.1333 73.0049 55.0872 72.3839C54.5235 72.3839 54.2128 72.775 53.8447 73.0741C52.5906 74.0518 51.348 75.0529 50.0824 76.0312C49.8253 76.1999 49.5561 76.3501 49.2771 76.4799L47.885 75.4672C48.8622 74.2841 50.0238 73.2662 51.325 72.4526C52.7286 71.6908 54.0119 70.7253 55.1333 69.5881C55.2368 69.4612 55.3979 69.3349 55.4324 69.1737C55.4503 69.0934 55.4493 69.0102 55.4293 68.9299C55.4094 68.8502 55.371 68.7763 55.3174 68.7134C55.247 68.6744 55.1678 68.6535 55.0872 68.6535C55.0067 68.6535 54.9274 68.6744 54.8571 68.7134C54.4588 69.1656 54.0363 69.5957 53.5916 70.0019C51.9693 71.2677 50.3125 72.4875 48.6443 73.6951C47.4938 74.5465 46.2627 75.3404 45.0662 76.1691L42.9722 74.5582C42.7881 75.8467 43.9847 75.8583 44.3183 76.5142C43.5359 77.1241 43.3059 77.1125 42.604 76.5142C42.2034 76.2197 41.7845 75.9503 41.35 75.7087C41.2694 76.3413 41.2694 76.3413 42.5005 77.3656C42.3509 77.7683 42.0518 77.9406 41.6836 77.7451C40.9242 77.308 40.2109 76.8133 39.3825 76.2843C40.4065 75.4672 41.3269 74.7194 42.2704 73.9832C43.4209 73.0741 44.5714 72.2343 45.7219 71.291C46.195 70.8114 46.6154 70.283 46.976 69.7144C47.0112 69.6329 47.0293 69.5445 47.0293 69.4554C47.0293 69.3664 47.0112 69.2785 46.976 69.197C44.2423 71.7664 41.2766 74.0775 38.117 76.0998C35.0153 78.1996 31.7962 80.1201 28.4756 81.8526L27.7162 81.3347C28.349 80.9896 28.8667 80.6904 29.4535 80.3797C30.0403 80.0695 30.3624 79.828 30.7996 79.5172C31.2368 79.2064 31.8926 78.7461 32.4218 78.3666C32.6656 78.142 32.8925 77.8999 33.1006 77.6415L32.9626 77.4576C32.7833 77.4867 32.609 77.5408 32.4449 77.6188C31.0297 78.5045 29.6836 79.5288 28.1994 80.265C26.3356 81.2084 24.3682 81.933 22.4468 82.7268C22.1703 82.7856 21.8893 82.8199 21.6069 82.8304C20.8936 82.9916 20.1917 83.1755 19.3059 83.3827C19.9616 84.326 20.721 83.797 21.3998 83.8663V84.5792L18.8111 85.1431C18.405 85.6425 17.9628 86.1121 17.488 86.5469C16.7286 87.1335 15.9003 87.6165 15.0949 88.1461C14.9799 88.2264 14.8073 88.2724 14.7497 88.376C13.9214 89.7105 12.4487 89.5958 11.2291 89.7221C10.0252 89.7506 8.82082 89.6814 7.628 89.5149L13.6338 88.9516C13.5072 88.2724 13.139 88.3417 12.7248 88.3876C11.0681 88.5599 9.39983 88.6984 7.74306 88.8707C7.42711 88.9242 7.11557 89.001 6.81114 89.1011C6.99522 89.2967 7.05272 89.4003 7.14479 89.4346C7.31164 89.4695 7.48082 89.4928 7.65099 89.5039C7.20881 89.4742 6.76464 89.4975 6.32787 89.5725C5.80781 89.753 5.30681 89.984 4.83221 90.2628C4.25932 90.7185 3.57702 91.0158 2.85331 91.1258C3.04223 90.9309 3.24197 90.7464 3.45158 90.5735C4.52157 89.8141 5.60307 89.0552 6.69609 88.2724C6.92405 88.1118 7.18954 88.0129 7.46691 87.9849C8.45342 87.8156 9.46594 87.8784 10.4238 88.1688C11.0911 88.4569 11.6549 88.0082 12.2761 87.9733C12.3073 87.9686 12.3369 87.957 12.3629 87.9389C12.3888 87.9209 12.4103 87.8976 12.4257 87.8697C12.7248 86.7884 13.6913 86.2594 14.4046 85.5686C15.1273 84.8021 15.8957 84.0799 16.7056 83.4059C17.1959 83.0742 17.7114 82.7821 18.2474 82.5312L19.1218 83.0149C19.6977 82.8461 20.2533 82.6144 20.7785 82.324C21.7829 81.8166 22.8568 81.4598 23.9655 81.266C25.0394 80.904 26.0919 80.4815 27.1179 80.0002C27.7596 79.6394 28.3713 79.2279 28.9473 78.7693C29.6084 78.3591 30.2391 77.9016 30.8341 77.4C31.9846 76.2494 33.1352 74.9952 34.2857 73.8103C34.0211 73.3389 33.7449 73.5112 33.5379 73.6951C32.7555 74.3626 31.9731 75.0302 31.2368 75.732C30.5005 76.4339 29.9252 77.0205 29.2809 77.6764L29.0853 77.5268C29.21 77.3109 29.3483 77.1032 29.4995 76.9053C30.1093 76.261 30.7421 75.6284 31.3519 74.9952C32.6035 73.5648 33.6668 71.9794 34.5158 70.2783C35.2499 69.0154 35.9143 67.7136 36.5062 66.3779C37.4957 64.1461 38.3701 61.8566 39.371 59.6247C40.257 57.657 41.2464 55.7354 42.1898 53.791C42.7536 52.641 43.2713 51.4904 43.8696 50.3399C44.744 48.637 45.5724 46.8882 46.6079 45.2889C48.3566 42.6194 50.3241 40.0884 52.0728 37.4194C53.6836 34.9455 55.5244 32.6793 57.2502 30.2402C58.9762 27.8006 60.4369 25.6379 61.9559 23.3368C62.7613 22.0827 63.4399 20.7482 64.1418 19.4364C64.7401 18.2859 65.2924 17.2272 65.8563 16.1116C66.0518 15.7089 66.213 15.2829 66.3969 14.8458C66.8224 14.9151 66.9259 15.1449 66.7653 15.4557L64.5905 19.5284L64.3373 20.0004L62.7037 23.2449C62.1287 24.3954 61.5532 25.546 60.9665 26.6966C60.4992 27.6044 59.9725 28.4809 59.39 29.3195C58.4582 30.6429 57.6644 32.0693 56.8015 33.4847C56.8837 33.5511 56.9808 33.597 57.0846 33.6186C57.1884 33.6395 57.2958 33.6354 57.3976 33.6058C57.4993 33.5767 57.5925 33.5231 57.669 33.4498C57.7455 33.3765 57.8031 33.2857 57.837 33.1856C58.6421 31.7359 59.9079 30.5393 60.3339 28.8708C60.3653 28.73 60.4329 28.599 60.5295 28.4914C61.4676 27.52 62.2445 26.4056 62.83 25.1892C63.4213 24.1685 63.955 23.1162 64.4293 22.0367C65.3727 20.0807 66.2701 18.1246 67.2024 16.1692C67.2024 16.054 67.3863 15.9847 67.6738 15.7205C67.1448 18.3208 65.6258 20.2075 64.7744 22.3818C63.9235 24.5566 62.9569 26.6616 62.0019 28.8825C62.1858 28.8825 62.3813 28.8825 62.4849 28.8016C62.9191 28.4855 63.2711 28.0694 63.5115 27.5893C63.7519 27.1086 63.8729 26.5778 63.8659 26.0407C63.8421 25.8504 63.8619 25.6572 63.9235 25.4762C63.9852 25.2946 64.0877 25.1299 64.2227 24.9937C65.2487 23.8047 65.9954 22.4016 66.4086 20.8861C66.6268 20.2302 67.0988 19.632 66.9492 18.8725C66.9405 18.8387 66.9405 18.8032 66.9492 18.7695L68.3989 16.7558C68.4792 16.8938 68.6748 17.0666 68.6404 17.1813C68.545 17.8145 68.3303 18.4238 68.0078 18.9761C67.8053 19.2822 67.6575 19.6209 67.5702 19.9771C67.1681 21.1276 66.7304 22.2782 66.2241 23.3252C64.9513 26.1635 63.6244 28.982 62.2434 31.7819C61.5875 33.082 60.817 34.3129 60.0918 35.5787L57.6299 39.9388C58.3121 39.6694 58.8784 39.1683 59.2293 38.524C60.5132 36.5657 61.6661 34.5247 62.6804 32.4145C63.5895 30.3322 64.7284 28.3418 65.7527 26.3049C65.9599 25.8911 66.0862 25.4424 66.2817 25.028C66.4772 24.6137 66.6385 24.3605 66.8224 24.0154C67.9043 24.5101 68.1917 25.5687 68.9396 26.3165C68.836 26.6966 68.7208 27.0876 68.5712 27.594L66.5698 25.7992L66.3969 25.9027C66.4324 26.1047 66.5029 26.2991 66.6041 26.4777C66.9033 26.8228 67.2827 27.1103 67.5818 27.4554C68.353 28.3418 68.3646 28.606 67.7314 29.699C66.9609 29.1467 66.9609 29.1467 67.0295 28.1806L65.5798 28.2266C66.3277 28.8825 65.9482 29.4691 65.5798 30.1017C65.3156 30.562 65.1311 31.0567 64.8436 31.6783C65.8563 31.3099 66.259 32.0577 66.7421 32.5757C67.5242 33.4038 68.2494 34.2896 68.9629 35.1759C69.1968 35.524 69.4046 35.8894 69.5838 36.2689C69.7794 36.6024 69.5838 36.7752 69.3307 37.0627L65.4652 33.1047L65.304 33.1856C65.304 33.2886 65.304 33.4498 65.3616 33.5074C66.213 34.2209 66.1094 35.0264 65.5222 35.9465L64.7057 35.2562C64.5102 35.8662 65.0968 36.0157 65.2464 36.5104L64.8669 37.3845C64.7284 37.6726 64.6021 37.9601 64.4642 38.2592L63.7164 38.0753C64.5102 39.3405 63.7164 40.192 63.1984 41.193L62.2317 40.3415C62.3493 40.9805 62.649 41.5718 63.0948 42.0444C63.8613 43.1577 64.6906 44.2256 65.5798 45.2429C65.8004 45.4414 65.9349 45.7178 65.9564 46.0135C65.9779 46.3097 65.8842 46.6018 65.6951 46.8306L65.3616 47.3485C64.0458 46.12 62.83 44.789 61.726 43.3672L60.9782 45.0584L61.8296 44.4602C61.9029 44.48 61.9728 44.5108 62.0362 44.5527L64.5788 48.0847C64.8896 48.5101 64.7057 48.8093 64.2337 49.1544L61.1504 45.6107L60.9665 45.7492C61.8395 47.299 62.7957 48.8011 63.831 50.2473L63.3136 50.8113L60.0575 47.3596C60.1378 48.3262 60.9089 48.8326 61.3576 49.5344C61.8063 50.2363 62.4279 50.9492 62.9569 51.6284C57.929 60.0158 52.28 67.8509 44.7555 74.2247C45.0329 74.1368 45.2993 74.0169 45.5494 73.8679C46.3478 73.2988 47.1159 72.6883 47.8504 72.0388C49.162 70.8882 50.4736 69.6224 51.6702 68.3107C53.0508 66.7923 54.3279 65.1814 55.6165 63.5705C56.905 61.9602 58.0326 60.5908 59.1374 58.9688C60.2414 57.3463 61.4379 55.4019 62.5885 53.6187C63.2327 52.6294 63.9235 51.6743 64.5102 50.6617C65.0968 49.6491 65.4419 48.8325 65.9023 47.9235C66.5581 46.5774 67.2827 45.2773 67.8583 43.8968C68.4333 42.5158 68.7557 41.2733 69.2044 39.9621C69.883 38.0061 70.6308 36.0844 71.2291 34.1057C71.9542 31.7242 72.6095 29.3079 73.1851 26.8805C73.5139 25.3621 73.7519 23.8251 73.8986 22.2782C74.0365 21.0473 74.0132 19.7932 74.0825 18.3318L74.7384 18.9417C74.6808 18.4814 74.6348 18.1596 74.5772 17.7912L75.5782 17.4804C75.6934 18.631 75.8197 19.6093 75.8773 20.633C75.8261 22.376 75.6294 24.1114 75.2907 25.8218C75.0602 27.6976 74.6575 29.5383 74.3473 31.4135C74.3473 31.7359 74.1052 32.092 74.4852 32.4261C74.9252 31.769 75.1976 31.0148 75.279 30.2286C75.5898 28.1463 75.7621 26.0523 76.1532 23.9927C76.4174 22.1682 76.5099 20.3233 76.4296 18.4814C76.4506 18.1369 76.5006 17.7941 76.5792 17.4577C77.1082 17.4577 77.0622 17.7568 77.0622 18.0216C77.0622 18.8038 77.0622 19.586 77.0622 20.3222C77.0674 20.7086 77.1064 21.0933 77.1774 21.4728C77.38 22.3207 77.348 23.2076 77.0855 24.0387C76.9278 24.6626 76.8579 25.3051 76.8783 25.9487C76.8091 27.2948 76.7747 28.652 76.7055 30.0097C76.7055 30.4241 76.7055 30.9304 75.9809 30.8268C76.1601 31.1009 76.2998 31.3989 76.3953 31.7126C76.3778 31.9943 76.312 32.2707 76.1991 32.5297C75.4629 34.9455 74.8071 37.3962 73.8986 39.7776C73.3806 41.2273 73.0355 42.7119 72.5868 44.161C72.0462 45.8872 71.2291 47.5324 70.5389 49.212C70.4009 49.5571 70.2397 49.9022 70.0325 50.3626C70.2572 50.2892 70.4609 50.1629 70.6273 49.9953C70.7932 49.8271 70.9165 49.6217 70.9876 49.3965C72.1038 47.2839 72.9907 45.0584 73.6338 42.7579C73.9696 41.5608 74.377 40.3852 74.853 39.2369C75.0719 38.6387 75.3134 38.0864 75.5549 37.4078C75.7621 37.4875 75.9617 37.5836 76.1532 37.6953C77.3037 38.4315 78.5579 39.2026 79.7661 39.9964C80.3643 40.3648 80.376 40.3532 80.0768 41.2622C78.605 40.5964 77.1827 39.8277 75.8197 38.9611C76.0269 39.617 76.0152 39.617 77.6378 40.7559C78.3047 41.2162 79.0066 41.6533 79.7317 42.1247L79.5822 43.1606C77.9253 42.723 76.8323 41.2849 75.0951 41.1586C76.372 42.0328 77.6145 42.9302 78.9146 43.77C79.0345 43.8188 79.141 43.8957 79.2254 43.994C79.3098 44.0924 79.3697 44.2093 79.4 44.3351C79.4303 44.4608 79.4303 44.5923 79.4 44.718C79.3697 44.8437 79.3098 44.9607 79.2254 45.0584L76.5216 43.6896C76.8213 44.3479 77.3206 44.8949 77.948 45.2546C78.1208 45.3809 78.3396 45.4385 78.5235 45.5537C79.0985 45.9332 79.0985 45.9564 78.7307 46.8422C77.8333 46.3015 76.9359 45.7836 76.0152 45.2429C76.0152 45.8528 76.418 46.2206 78.4659 47.7396C78.4811 47.8653 78.4811 47.9928 78.4659 48.1191C78.3973 48.2355 78.3204 48.3472 78.2361 48.4525C77.3497 48.1883 76.8899 47.3025 75.797 47.1064C76.2585 47.7722 76.8166 48.3658 77.4533 48.8669C78.0056 49.2929 77.9939 49.304 77.6261 50.1903L74.9683 48.4642C75.0835 48.8093 75.0951 49.0281 75.2098 49.1317C75.797 49.638 76.3603 50.121 77.0162 50.6041C77.373 50.8922 77.5569 51.1797 77.0855 51.6051L75.8081 50.696L75.6009 50.9149L76.8207 52.4222C76.8207 52.687 76.7514 52.9512 76.6944 53.3079L78.0056 52.9512C77.838 52.396 77.8229 51.8059 77.9625 51.2431C78.1022 50.6797 78.3914 50.1653 78.7994 49.7527C78.7994 49.6607 78.9723 49.5688 78.9606 49.4884C78.7191 48.1191 79.5822 46.9801 79.7661 45.7033C79.95 44.4258 80.2031 43.4708 80.4446 42.3552C80.4889 42.0718 80.5738 41.7965 80.6978 41.5381C81.2588 40.2449 81.6453 38.8831 81.8484 37.4881C82.1254 36.3189 82.3407 35.1364 82.4926 33.9445C82.6492 32.4156 82.7184 30.8792 82.6998 29.3428C82.6998 27.0417 82.5619 24.6596 82.4583 22.3125C82.4583 21.542 82.3087 20.7825 82.2168 20.012C82.7918 20.012 82.8494 20.3914 82.8953 20.6789C83.1869 22.9341 83.4668 25.1892 83.7351 27.4444C83.7299 27.5515 83.7299 27.6591 83.7351 27.7662C83.951 29.3789 84.0354 31.0067 83.9883 32.6333C83.9726 32.8504 84.0092 33.0686 84.0954 33.2688C84.1815 33.469 84.3142 33.6453 84.483 33.7838C84.7809 33.0063 84.8566 32.1619 84.7018 31.3442C84.5866 29.2735 84.4486 27.2139 84.3107 25.1549C84.3107 24.9821 84.3107 24.8092 84.3107 24.545H85.5876C85.7173 26.0738 86.0497 27.5794 86.5769 29.0204H86.7957C86.7957 28.3185 86.8534 27.605 86.8877 26.7192C87.5628 28.2557 87.9341 29.9085 87.9806 31.5863C87.3137 32.3341 86.6229 31.1946 85.8407 31.5863C86.485 32.3225 87.394 32.0461 88.1419 32.4145C88.4526 34.5201 88.7745 36.66 89.0969 38.8691L87.9463 38.9727L87.8771 39.1683L88.8437 39.5477C88.8437 40.1 88.8437 40.6983 88.8437 41.3425H87.5669C87.6588 42.2167 88.441 41.8029 88.7174 42.2056C88.6249 42.5391 88.5446 42.9075 88.4293 43.2986C89.2924 43.4248 89.0276 42.5851 89.4303 42.3319L92.0999 42.4931C92.0079 43.103 91.927 43.6437 91.8234 44.3572L89.0166 43.9428C89.3617 44.587 89.8674 44.5294 90.2701 44.6097C90.6729 44.6906 91.1792 44.7483 91.7547 44.8402C91.6279 45.3925 91.5243 45.8639 91.3864 46.4278L89.7871 46.1863C90.0746 46.9109 90.7305 46.6467 91.0529 46.9801C91.2711 47.7623 90.7881 48.3146 90.3394 48.9588L89.5572 48.8442C89.5293 48.8913 89.506 48.9414 89.488 48.9938L90.351 49.638L89.442 52.698L87.6239 52.2842C88.0383 52.8133 88.7745 53.1584 90.5466 53.688C90.3475 55.424 89.8203 57.1065 88.9933 58.6464C88.0685 60.6123 86.9098 62.4589 85.5416 64.1461C84.9998 64.9527 84.5336 65.8076 84.1495 66.7003C85.3001 67.3562 86.922 67.1834 88.0156 68.2647C87.7624 68.5638 87.5203 68.817 87.3021 69.0934L87.2788 69.0585ZM69.8486 34.8879L65.9366 31.1143C66.1438 30.6656 66.351 30.2053 66.5808 29.7339C67.5818 30.1826 67.4672 30.8844 67.1908 31.8505L68.0305 31.3559L70.4353 34.186C70.4353 34.3472 70.2857 34.6463 70.1705 34.9571C70.0599 34.9542 69.9505 34.9309 69.8486 34.8879ZM68.2837 30.608C68.5025 30.0906 68.6748 29.6646 68.8593 29.2392C69.4151 29.6437 69.8201 30.2227 70.0098 30.8844C70.0657 31.0113 70.1483 31.1248 70.2514 31.2179C70.4585 31.4367 70.8263 31.6206 70.8607 31.8505C70.8543 32.3039 70.7804 32.7538 70.6424 33.1856L68.2837 30.608ZM70.8147 28.652C71.7121 29.3079 71.7238 29.3428 71.367 30.4125C70.4009 29.9754 70.366 29.8834 70.8147 28.652ZM69.9522 28.9744C69.1584 28.3645 69.1584 28.3645 69.5955 27.1912C70.5615 27.6859 69.9866 28.3418 69.9522 28.9744ZM71.3327 25.9598C71.5212 26.0733 71.6859 26.2228 71.8169 26.4003C71.9472 26.5778 72.0415 26.7792 72.0939 26.9934C72.1463 27.2069 72.1562 27.4293 72.1218 27.6469C72.0881 27.8646 72.0113 28.0729 71.8966 28.2609C71.6819 28.1742 71.4915 28.0374 71.3402 27.8628C71.1889 27.6877 71.0813 27.4793 71.0266 27.2547C70.9713 27.03 70.9701 26.7955 71.0236 26.5703C71.0766 26.3456 71.1825 26.1361 71.3327 25.9598ZM70.5389 26.5697C69.6874 26.501 69.8946 25.6956 69.3883 25.4191C68.9896 25.1438 68.6055 24.8482 68.2377 24.5334L69.0199 23.3828C69.6991 23.8199 69.319 24.5334 69.5611 25.0397L70.1128 24.6829C71.0679 25.2009 70.4236 25.9138 70.5732 26.5697H70.5389ZM68.1225 23.2792C68.0154 23.5248 67.8926 23.7628 67.7547 23.9927C67.5475 23.6476 67.26 23.3711 67.3176 23.2099C67.5685 22.1985 68.0142 21.2452 68.6288 20.4031C68.6981 20.7482 68.8244 20.9664 68.7557 21.0933C68.4868 21.801 68.2866 22.5331 68.1574 23.2792H68.1225ZM69.5495 21.6456C69.9749 22.1519 69.7218 22.4051 69.3999 22.6582C69.4802 22.3702 69.5146 22.0827 69.5838 21.6456H69.5495ZM71.5742 24.1306C72.6095 24.8441 72.6095 24.8441 72.3796 25.6956C71.747 25.2812 71.2524 24.9017 71.5742 24.1306ZM70.7577 24.1306C70.366 23.6016 70.6424 23.2792 70.7577 22.7385C71.1488 23.3485 70.8956 23.6359 70.7577 24.1306ZM72.276 21.3692C73.3347 21.8988 72.8627 22.7042 72.8051 23.4404C71.747 22.9801 71.7238 22.8538 72.276 21.3808V21.3692ZM71.1255 22.1746C70.5388 21.4384 71.1255 20.8861 71.1255 20.1843C71.5975 20.9094 71.5975 20.9554 71.1028 22.1863L71.1255 22.1746ZM69.9749 21.024C69.6071 20.1726 70.1705 19.7815 70.1937 19.2409L70.5505 19.3445C70.3433 19.8851 70.1821 20.3914 69.9406 21.07L69.9749 21.024ZM68.9972 19.9887C68.882 19.7588 68.8244 19.6896 68.836 19.6436C68.9856 19.2409 69.1468 18.8381 69.3766 18.2515C69.6071 19.1029 69.1695 19.4597 68.9629 20.0347L68.9972 19.9887ZM72.9663 19.057C72.9663 19.4481 72.9663 19.8391 72.9663 20.3338C72.4832 19.8624 72.4832 19.8624 72.9319 19.1029L72.9663 19.057ZM71.4363 19.3677C71.5166 18.8265 71.5858 18.3667 71.6551 17.8145C72.1265 18.7346 72.1038 18.8841 71.4019 19.4137L71.4363 19.3677ZM70.7804 18.3318H70.5045C70.5045 17.964 70.6081 17.5956 70.6768 17.1813C71.1371 17.63 70.6884 17.9984 70.746 18.3778L70.7804 18.3318ZM65.3267 39.5821C65.1911 39.4639 65.098 39.3033 65.0625 39.1264C65.027 38.9495 65.0514 38.7661 65.1311 38.6043C65.304 38.2133 65.4303 37.8105 65.6834 37.1203C66.305 37.9141 66.834 38.5124 67.2484 39.1107C67.4951 39.436 67.7256 39.7741 67.9386 40.1227C68.3297 40.7559 67.9386 41.2733 67.5935 41.8948L65.3267 39.5821ZM67.2484 43.2293C67.0755 43.7589 66.9033 44.2763 66.6728 45.0014L63.3253 41.5497C63.6704 41.193 63.9235 40.9514 64.1534 40.6866C64.3833 40.4218 64.5562 40.192 64.786 39.9045C65.7771 40.8758 66.6082 41.9984 67.2484 43.2293ZM67.9502 38.7079C67.6738 38.4775 67.4439 38.2133 67.1681 37.9944C66.2241 37.2466 65.6951 36.4295 66.7304 35.2103L68.6981 37.5114C69.1124 38.0061 68.8703 38.5008 68.6404 39.1223C68.3873 38.9838 68.1458 38.8575 67.9502 38.7079ZM91.306 27.3984C92.6632 27.3984 92.8017 27.548 93.2044 29.3539L88.5906 29.078C88.4986 28.4338 88.395 27.8471 88.3147 27.2832C88.5318 27.1592 88.7733 27.083 89.0224 27.0597C89.2715 27.0358 89.5229 27.0649 89.7597 27.1458C89.9966 27.2262 90.2137 27.3559 90.397 27.5265C90.5803 27.6964 90.7252 27.9042 90.8224 28.1346L91.306 27.3984ZM93.3884 27.651L94.1019 27.5131L95.0679 29.4807H93.9174C93.7102 28.7329 93.5606 28.2493 93.3884 27.651ZM95.6895 28.652C95.2059 28.1689 95.2751 27.8238 95.6895 27.5014C95.8391 27.9501 95.8391 27.9501 95.6435 28.652H95.6895ZM97.5989 28.2493C97.8521 29.3998 97.8521 29.3998 97.0699 29.3998C96.9204 28.9401 96.6445 28.4221 97.553 28.2493H97.5989ZM93.1928 32.2533L88.9357 31.9658C88.867 31.1487 88.7861 30.4241 88.7058 29.5383L93.5723 29.8375C93.7335 30.2367 93.7829 30.6726 93.7166 31.098C93.6497 31.5235 93.4687 31.9227 93.1928 32.2533ZM95.6778 31.2523C95.6778 31.5747 95.6778 31.8854 95.6778 32.2533C95.4631 32.2649 95.2483 32.2649 95.0336 32.2533C94.1019 32.1729 94.0786 32.1153 94.1589 31.1027C94.1833 30.7197 94.1833 30.3356 94.1589 29.9521C95.4939 30.0097 95.5742 30.0906 95.6319 31.2523H95.6778ZM93.1928 34.9111C92.9397 34.9111 92.6865 34.5317 92.3757 34.2669C92.1575 34.7383 91.6739 34.7616 91.1332 34.658C90.5925 34.5544 89.879 34.4624 89.2005 34.3588C89.0969 33.7838 88.9933 33.2083 88.878 32.6676C89.6585 32.4587 90.4796 32.4587 91.2601 32.6676C91.9963 32.6676 92.7325 32.8748 93.4803 32.9784L93.883 33.9904H94.1019C94.1822 33.657 94.2625 33.3351 94.3317 33.036C94.4033 32.9929 94.4807 32.9621 94.5616 32.9435C96.0689 33.082 96.1265 33.1856 95.7122 35.0491C94.8497 35.0491 94.8497 35.0491 94.3894 34.5317C94.0128 34.7202 93.6089 34.8483 93.1928 34.9111ZM94.0553 37.2699L92.5136 37.3386C92.6062 36.7176 92.6865 36.1193 92.7901 35.4174L94.0553 35.6014V37.2699ZM94.976 35.7626L95.8158 36.0384C95.8158 36.522 95.8158 36.9707 95.8158 37.523L94.7921 37.4538C94.7688 36.8671 94.8497 36.3265 94.93 35.7626H94.976ZM90.305 37.0051C89.7987 36.9131 89.4536 36.7059 89.4996 36.096C89.4658 35.7079 89.4001 35.3232 89.304 34.9455L91.9043 35.3255C91.9427 35.4413 91.9695 35.5606 91.9846 35.6817C91.8694 37.1773 91.7315 37.2926 90.2591 37.0051H90.305ZM92.9623 37.9025C93.8254 38.0864 94.7112 38.1673 95.6435 38.3052C95.6435 38.9954 95.5626 39.4558 95.5283 40.054L92.7901 39.3982C91.7466 39.5989 90.667 39.4907 89.6835 39.0874C89.6835 38.524 89.6835 37.9368 89.6835 37.4765C91.0872 37.3962 91.4667 37.569 91.7658 38.4548C91.8863 38.2656 92.0597 38.1161 92.264 38.0241C92.4682 37.9322 92.6952 37.9019 92.9164 37.9368L92.9623 37.9025ZM93.7562 41.8145C93.6962 41.8395 93.6316 41.8523 93.5664 41.8523C93.5013 41.8523 93.4367 41.8395 93.3767 41.8145C93.322 41.7802 93.2749 41.7354 93.2394 41.6812C93.2039 41.6277 93.18 41.5672 93.1695 41.5037C93.1695 41.0894 93.1695 40.675 93.2504 40.2612L93.5036 40.0884C93.6991 40.2496 94.0553 40.4108 94.0553 40.5714C94.0064 41.0015 93.89 41.4205 93.7102 41.8145H93.7562ZM95.0452 40.7786C95.4939 41.4578 95.4939 41.5264 94.8724 41.9984C94.884 41.6184 94.9416 41.2273 94.9993 40.7786H95.0452ZM92.307 41.9292L89.5799 41.676C89.5799 41.0201 89.6375 40.4568 89.6719 39.7892L92.5596 40.2152C92.4333 40.7099 92.353 41.2506 92.2605 41.9175L92.307 41.9292ZM93.5606 44.0004C93.5606 44.3455 93.3424 44.6097 92.8128 44.3339C92.9397 43.7816 93.0776 43.1833 93.2271 42.5624C93.9406 42.9994 93.5496 43.5401 93.5146 43.9888L93.5606 44.0004ZM94.7112 43.195C95.4247 43.5057 94.9416 44.0924 95.1255 44.633C94.2741 44.3799 94.2741 44.3799 94.6309 43.1833L94.7112 43.195ZM94.9533 45.4961C94.7921 45.9791 94.6076 46.5198 94.401 47.1064L92.2378 46.635C92.3187 46.266 92.4188 45.9011 92.5369 45.5421C92.6062 45.3582 92.8017 45.0934 92.9053 45.1161C93.1142 45.1894 93.2981 45.3209 93.4343 45.4961C93.5263 45.588 93.5379 45.7376 93.6066 45.9099C94.0093 45.8296 94.1245 44.9438 94.8724 45.4844L94.9533 45.4961ZM93.0892 47.6017C92.8361 48.211 92.5945 48.8209 92.3297 49.4768L91.4096 49.3389C91.2025 47.3712 91.5126 47.0377 93.0083 47.59L93.0892 47.6017ZM92.3181 52.2034L93.1928 52.5717C92.974 53.1124 92.8704 53.653 91.9846 53.3999C92.0422 53.0088 92.1109 52.6637 92.2378 52.1923L92.3181 52.2034ZM90.5809 53.0431C90.5233 52.9919 90.4773 52.9279 90.4476 52.8557C90.4174 52.7842 90.404 52.7068 90.4086 52.6294C90.4086 52.0195 90.7078 51.8926 91.5592 52.1347C91.4149 52.4338 91.2496 52.7219 91.0639 52.9972C90.986 53.0618 90.8894 53.0996 90.7881 53.1054C90.6868 53.1118 90.5861 53.0862 90.5006 53.0321L90.5809 53.0431ZM89.1888 66.8499C88.878 67.4482 88.6825 67.6437 88.1762 67.3673C87.4318 66.9646 86.663 66.6072 85.8751 66.2976C85.5189 66.148 85.5759 65.9868 85.7028 65.7797L89.1888 66.8499ZM90.1555 65.5498C89.5915 66.3552 89.2232 66.3779 88.1419 65.6877C88.7058 64.8246 89.0276 64.8019 90.1555 65.5498ZM90.5925 63.5245L91.306 63.755C91.306 63.755 91.306 63.755 91.4899 63.8929L90.9144 64.7327L89.2464 64.2956C89.8104 63.2486 89.8104 63.2487 90.5925 63.5135V63.5245ZM93.02 62.0981L92.0422 63.2487L90.4197 62.5928C90.9953 61.3386 91.2944 61.281 93.02 62.0981ZM94.0902 60.4645L93.3424 61.4079L91.5935 60.7863L92.1918 59.7393C92.8838 59.7714 93.5484 60.021 94.0902 60.4528V60.4645ZM95.2408 58.3246L94.5273 59.6707L93.5146 59.3826C93.2504 59.2906 92.9856 59.1644 92.7325 59.0608C93.411 57.5651 93.6415 57.4958 95.2984 58.3129L95.2408 58.3246ZM96.2878 56.5065L95.7931 57.5651L94.8264 57.3003L94.0442 57.0471C94.412 55.9885 94.976 55.8506 96.3454 56.4948L96.2878 56.5065ZM97.3347 54.2053C97.0816 54.7233 96.8977 55.1144 96.6556 55.5858L94.9643 55.1947L95.6662 53.7799L97.3347 54.2053ZM97.979 52.6637L97.4383 53.6647C97.2428 52.9861 97.6339 52.8133 97.7601 52.5141L97.979 52.6637ZM99.2791 49.4425L97.5419 49.1777C97.1613 49.1061 96.7772 49.056 96.3913 49.0281C96.0928 49.0502 95.8012 49.1241 95.5283 49.2469C95.5283 49.2469 95.5283 49.5804 95.5283 49.6147C95.8507 49.8103 96.3104 50.167 96.5176 50.0634C97.3574 49.638 98.0826 50.0634 98.8188 50.1787C98.6925 51.1447 98.6925 51.1447 98.1512 51.697C97.6682 51.3176 98.1512 50.7426 97.8521 50.3166C97.1159 50.2246 97.2998 51.0185 96.886 51.3409H95.7355C95.4363 51.3409 95.0796 51.3409 95.1599 51.7779C95.2117 51.8966 95.2885 52.0032 95.3863 52.0887C95.4835 52.1743 95.5993 52.2371 95.7238 52.2726C96.0718 52.3133 96.4228 52.3133 96.7708 52.2726C96.7015 53.17 96.6788 53.1817 96.0462 53.0897L94.1589 52.8936C94.1589 53.5611 94.1589 53.5611 94.7112 54.0441C94.6192 54.2746 94.5733 54.6197 94.3894 54.7693C94.1414 54.9334 93.9412 55.1604 93.8103 55.4275C93.6788 55.694 93.6206 55.9914 93.6415 56.2877C93.6415 56.4948 93.2155 56.7823 92.9397 56.9435C92.6946 57.0227 92.4374 57.0576 92.1802 57.0471C91.8007 57.703 92.4333 57.7147 92.6522 58.0021L92.1802 58.7733L90.8917 58.5661C90.7543 58.5806 90.6193 58.6121 90.4889 58.658C90.4889 58.9455 90.489 59.233 90.5582 59.5671L91.5819 59.4518C91.5615 59.6782 91.494 59.8976 91.3829 60.0961C91.2717 60.2945 91.1204 60.4668 90.9377 60.6024C90.5349 60.4988 90.017 60.0268 89.6719 60.6024C89.3268 61.1774 89.9826 61.281 90.351 61.5918C90.017 62.1208 89.6835 62.4316 89.0852 62.282C88.9496 62.2477 88.807 62.2477 88.6709 62.282C88.5824 62.2948 88.4998 62.332 88.4311 62.3891C88.3624 62.4461 88.3106 62.5212 88.2821 62.6056C88.2536 62.6905 88.2489 62.7813 88.2687 62.868C88.2885 62.9553 88.3322 63.0351 88.395 63.0991C88.4404 63.1707 88.5097 63.2236 88.5906 63.2487C88.7518 63.3173 88.924 63.3639 89.1085 63.4326C88.9589 64.0308 88.6482 64.2147 88.0383 63.9965C87.4283 63.7777 87.3248 63.8009 87.1985 64.5948L88.1075 64.8706C87.5436 66.1021 86.7498 65.0778 85.8867 65.2274C86.0107 64.9073 86.1567 64.5959 86.3238 64.2956C87.0373 63.283 87.8544 62.328 88.4643 61.2583C89.3157 59.7743 90.0286 58.232 90.7648 56.656C90.8597 56.3162 90.9289 55.9705 90.972 55.6207C91.1047 55.1813 91.274 54.7541 91.4783 54.3433C91.6512 53.9982 91.9387 54.0791 92.2494 54.3433C92.2494 55.1487 91.6395 55.7243 91.3404 56.4948L92.0422 56.5984C92.5858 55.9647 93.0141 55.2407 93.3075 54.4585C93.471 53.7014 93.567 52.9314 93.5955 52.1574L91.9503 51.2483L90.7997 51.5248C90.926 50.8922 91.018 50.4662 91.1448 49.8795L94.5965 51.0301C94.5965 50.2823 94.5965 50.2822 93.0776 49.6147L93.5379 47.7623C94.0669 47.6587 94.2398 47.9008 94.1589 48.3955C94.0786 48.8902 93.7911 49.3272 94.1589 49.8336C94.9643 49.6031 94.7001 48.8209 94.9184 48.3955C96.5008 48.1045 98.1157 48.0382 99.7162 48.1999C99.555 48.5794 99.4287 48.9938 99.2791 49.4425ZM100.096 46.163C100.015 46.6577 99.9577 47.0837 99.8774 47.59L98.9451 47.3136C99.0143 46.8998 99.0603 46.5198 99.1412 46.0367L100.096 46.163ZM100.268 45.4268L99.3367 45.3465C99.509 44.3799 99.509 44.3799 100.487 44.3572L100.268 45.4268ZM98.1053 45.162C97.9557 45.162 97.6915 44.9089 97.7142 44.7942C97.7142 44.2995 98.1512 44.3682 98.6349 44.4491C98.6349 44.8978 98.6116 45.2429 98.0826 45.162H98.1053ZM96.9547 44.9665L95.8041 45.4612L96.8051 46.7729C97.507 46.9109 97.3114 45.6224 98.2548 45.9908C98.1972 46.3475 98.1402 46.7386 98.0826 47.1413L95.2408 47.3136C95.2408 47.1757 95.1488 47.0494 95.2408 46.9801C95.9578 45.1236 96.2604 43.1327 96.1265 41.147C96.1091 40.8286 96.1091 40.5103 96.1265 40.192C96.3337 38.6043 96.552 37.0167 96.7824 35.4401C96.8133 35.1689 96.9081 34.9088 97.0583 34.6812C97.0583 35.9238 97.6455 37.0854 97.1619 38.3855C97.0175 39.0641 97.0449 39.7683 97.2428 40.4335C97.3202 40.6453 97.3522 40.8711 97.3365 41.0964C97.3208 41.321 97.2573 41.5404 97.1508 41.7394C97.0443 41.9379 96.8971 42.1119 96.7184 42.2498C96.5397 42.3878 96.3343 42.4861 96.1149 42.5391C96.4373 42.7346 96.6788 42.8039 96.7824 42.9645C96.886 43.1257 96.978 43.5168 96.886 43.5977C96.3564 44.0464 96.46 44.5067 96.886 44.9665H96.9547ZM99.1522 38.1556C99.4054 39.6513 99.3594 39.7206 98.2205 39.663C98.0366 38.5124 98.0366 38.5124 99.0836 38.1556H99.1522ZM100.694 43.5517L97.7951 43.6896C97.7951 43.2636 97.8637 42.9994 97.8981 42.5391L100.74 42.0328C100.694 42.6083 100.66 43.0338 100.625 43.5517H100.694ZM98.1745 41.7912C97.7718 40.6407 97.8637 40.5487 99.1982 40.4568V41.5037L98.1745 41.7912ZM100.993 41.4578H99.8425C100.107 40.4131 100.177 39.3289 100.05 38.2592C100.05 37.6837 100.05 37.6837 100.947 37.5917C100.901 38.8802 100.913 40.1344 100.924 41.4578H100.993ZM98.1745 37.6953C98.0942 37.189 98.0249 36.7519 97.9446 36.2689L99.0946 35.7509C99.0946 36.096 99.2098 36.3376 99.2331 36.5791C99.2558 36.8212 99.2331 36.9934 99.2331 37.2466L98.1745 37.6953ZM100.924 36.234C100.924 36.8555 100.51 36.8782 99.992 36.9358C99.9059 36.6128 99.8908 36.2741 99.9484 35.9441C100.006 35.6142 100.135 35.3011 100.326 35.0264L99.3478 34.4851L97.9557 35.3482C97.9557 34.7843 97.887 34.4281 97.8521 33.9218L100.614 32.9091C100.694 34.14 100.786 35.187 100.855 36.234H100.924ZM100.59 32.3225L97.7258 33.2199C97.7258 32.7939 97.7258 32.4261 97.6222 32.0694L98.5313 31.7469L98.8991 32.5407C99.0486 32.0577 99.1412 31.7819 99.2442 31.4711L100.257 31.2639C100.303 31.5863 100.406 31.9425 100.522 32.3225H100.59ZM97.3807 30.9071C97.1502 30.4357 97.4843 30.2169 97.9673 30.0674L98.3933 30.8728C97.887 31.0916 97.553 31.3908 97.3114 30.9071H97.3807ZM100.05 29.124C100.05 29.5727 100.05 30.0214 100.05 30.5737L98.8991 30.7576C98.8321 30.6499 98.7902 30.5283 98.7774 30.402C98.7646 30.2751 98.7815 30.1477 98.8257 30.0289C98.8706 29.9096 98.9416 29.8026 99.0341 29.7153C99.1266 29.6285 99.2378 29.5639 99.3594 29.5267C99.5713 29.4056 99.7749 29.2712 99.9693 29.124L98.554 29.0437C98.4853 28.6409 98.4044 28.2725 98.3357 27.8931L99.1755 27.5823L99.981 29.1467L100.05 29.124ZM98.9451 25.4884C98.8071 27.076 98.5999 27.2599 96.6445 27.5363C96.5176 27.1912 96.3913 26.8345 96.2301 26.3858C96.7138 26.2543 97.1898 26.0971 97.6566 25.9138C98.0249 25.7415 98.3933 25.3731 98.9451 25.4884ZM94.976 26.2019C94.976 25.8451 95.0563 25.6496 95.0912 25.4424H95.6435C95.7814 24.9477 95.6435 24.2342 96.5176 24.1539C96.6329 24.4181 96.7708 24.7173 96.9436 25.1316L94.976 26.2019ZM98.6459 24.6829L97.6566 25.1083C97.5204 24.7813 97.4313 24.4367 97.3923 24.0847C97.3923 23.8315 97.7025 23.6243 98.0017 23.2216C98.2321 23.7855 98.416 24.1306 98.6349 24.6829H98.6459ZM97.7951 22.7612L96.9663 23.1529C96.7365 22.7153 96.506 22.3015 96.2994 21.8988C97.2771 21.0817 97.3923 21.1509 97.7951 22.7612ZM97.0699 20.6103L96.0573 21.1626L95.4939 19.9311L96.5636 19.2642C96.7708 19.7588 96.9087 20.1383 97.0932 20.6103H97.0699ZM96.3564 17.9984C96.2761 18.5734 96.0003 18.9534 95.5283 18.9994C95.2751 18.9994 94.9876 18.7119 94.7228 18.539C95.1372 17.7336 95.7011 17.8488 96.3797 17.9984H96.3564ZM95.2059 17.009L94.3201 17.7685L94.1019 17.6532C94.1019 17.4577 94.1019 17.2045 94.1938 17.0777C94.2858 16.9514 94.7461 16.5719 95.2291 17.009H95.2059ZM94.5506 16.0767L93.8254 16.537C93.411 16.2035 93.411 15.9044 93.8254 15.6513C94.2398 15.3981 94.3434 15.6972 94.5506 16.0767ZM87.44 8.41445C89.4519 10.0009 91.288 11.798 92.9164 13.7761C92.9164 13.7761 93.0432 13.8908 93.0432 13.9484C93.0432 14.006 93.0432 14.3744 93.0432 14.5926C92.8244 14.5926 92.5136 14.5926 92.4101 14.4664C91.9613 13.9141 91.5935 13.3158 91.1792 12.7175C90.9609 12.4067 90.7305 12.0616 90.0979 12.2572C90.8026 13.5166 91.6029 14.7207 92.4909 15.8584L91.1675 16.5027C90.5466 15.4214 90.017 14.3744 89.3384 13.3501C89.0555 12.9846 88.7442 12.6419 88.4066 12.3264C87.7967 11.6932 87.2561 11.0263 86.5886 10.4164C86.4279 10.2761 86.3226 10.0835 86.2906 9.87282C86.2592 9.66203 86.3034 9.44687 86.4163 9.26582L89.7411 11.8661C89.8133 11.617 89.7993 11.3505 89.701 11.1101C89.6032 10.8703 89.4263 10.6701 89.2005 10.5427C88.3258 9.78361 87.4633 9.01272 86.6002 8.2419L86.7725 8.02325C87.0053 8.13581 87.2281 8.26663 87.44 8.41445ZM83.9883 7.67814C84.0477 7.76695 84.0866 7.86781 84.1024 7.97338C84.1181 8.079 84.1099 8.18673 84.0791 8.28898C84.0488 8.39117 83.9953 8.48534 83.9243 8.56472C83.8527 8.6441 83.7648 8.70672 83.6665 8.7481C83.5745 9.43844 84.483 9.89843 84.1495 10.6119L83.2981 11.003C83.6315 11.4634 83.0106 11.4401 82.9989 11.567C83.017 11.887 83.099 12.2001 83.2405 12.4871C82.6422 13.1546 82.4123 11.7625 81.7564 12.2805L82.1475 13.2349L81.6185 13.8332L79.8697 12.6832H79.812C79.5472 13.0626 79.812 13.2814 80.0652 13.534C80.3184 13.7872 80.1915 14.0403 79.7428 14.1899C79.5013 13.8332 79.2371 13.4421 78.8803 12.8898L79.812 12.6832C79.8359 12.5243 79.9145 12.3788 80.0344 12.2717C80.1542 12.1646 80.3073 12.1024 80.4679 12.096C81.3537 11.9924 81.8367 11.2445 82.5043 10.8075C82.694 10.6387 82.8127 10.4047 82.8377 10.1516C82.9291 9.5578 82.9757 8.95784 82.9762 8.35695C82.9361 8.08628 82.8156 7.83382 82.6311 7.6321C82.1359 6.96481 81.6185 6.30899 81.0662 5.58414C81.711 5.58373 82.3396 5.78556 82.8639 6.16116C83.3883 6.53677 83.7817 7.0673 83.9883 7.67814ZM78.3623 5.0319C79.1562 5.12396 79.5129 5.81425 80.0076 6.29746C80.4505 6.77096 80.8689 7.26633 81.2617 7.78167C81.2146 7.85186 81.1605 7.91739 81.1005 7.97727C80.3131 7.73401 79.6188 7.25638 79.1102 6.60812C78.6976 5.90032 78.1063 5.31322 77.3957 4.90538C77.0896 4.68248 76.7974 4.44038 76.5216 4.18053C77.5802 3.88139 77.7065 4.95135 78.3623 5.0319ZM74.9107 2.54675C74.9985 2.63125 75.062 2.73781 75.0946 2.8552C75.1266 2.97258 75.1271 3.09654 75.0951 3.2141C75.0026 3.38665 74.6464 3.4672 74.4043 3.44415C74.1628 3.42117 74.0825 3.20257 73.9329 3.05301L72.6212 1.78745C73.6338 2.07506 74.2897 2.27066 74.9566 2.54675H74.9107ZM39.3595 63.9389C38.9669 64.7595 38.4805 65.5317 37.9098 66.24L37.7143 66.148C37.7149 65.9601 37.746 65.7733 37.8063 65.5958C38.7843 63.4209 39.7852 61.2699 40.7402 59.0951C41.2004 58.0598 41.557 56.9895 41.9597 55.9315C42.095 55.4915 42.2762 55.0672 42.5005 54.6657C43.5129 53.1584 43.9501 51.3409 45.1697 49.9482C45.52 48.7924 46.1211 47.728 46.93 46.8306C48.0805 45.2429 48.7363 43.3789 49.9444 41.8605C51.5896 39.7776 53.1313 37.615 54.7076 35.4751C54.9722 35.13 55.2253 34.8192 55.674 34.8075C56.0421 35.1183 55.8121 35.3482 55.674 35.567C54.2704 37.3502 52.8437 39.1107 51.4861 40.9282C50.8533 41.768 50.3355 42.723 49.8178 43.6093C49.5647 44.0004 49.2771 44.3455 49.0125 44.7593C47.7009 46.681 46.7114 48.7633 45.4573 50.7537C44.2628 52.7673 43.2206 54.8671 42.3394 57.0355C41.3269 59.2906 40.3375 61.6151 39.3595 63.9389ZM83.1945 60.0734C82.1225 62.4723 80.621 64.6559 78.7651 66.5159C78.5352 66.7347 78.2931 66.9186 78.0516 67.1258L77.81 66.9535C78.0056 66.6427 78.1901 66.3203 78.3967 66.0212C79.3174 64.6291 80.3184 63.283 81.1581 61.8566C82.2511 59.9925 83.2061 58.0481 84.2531 56.1037C84.8857 54.9933 85.3839 53.8113 85.7371 52.5834C86.0334 51.6767 86.4186 50.802 86.8877 49.9715C87.426 49.2551 87.6879 48.3687 87.6239 47.4748C88.2798 47.5668 88.2338 48.0155 88.1191 48.3606C87.8683 49.0619 87.5639 49.7422 87.2101 50.3969C86.6689 51.3356 86.3534 52.3873 86.2894 53.4691C86.2376 53.9231 86.0927 54.3619 85.864 54.7576C85.0009 56.5298 84.0459 58.278 83.1945 60.0734ZM55.5244 37.6033C55.789 38.4775 55.2368 38.9151 54.9491 39.4325C54.3279 40.5144 53.6491 41.5497 52.9702 42.5851C52.2914 43.6204 51.4631 44.633 50.7958 45.7143C49.6453 47.5551 48.1265 49.166 47.4363 51.2483C47.4224 51.3205 47.3907 51.3874 47.3442 51.4439C45.906 52.7097 45.7219 54.6313 44.859 56.1957C44.8151 56.2917 44.7525 56.3779 44.675 56.4489C44.675 56.4489 44.5484 56.4489 44.3298 56.4489C44.3571 55.5445 44.623 54.6634 45.1007 53.8946C45.9291 52.2383 46.7459 50.5814 47.7009 49.0165C48.6558 47.4521 49.6453 46.2666 50.6232 44.8402C51.3826 43.6896 52.0844 42.5391 52.8437 41.3885C53.603 40.2379 54.3739 39.1683 55.1447 38.0521C55.2253 37.9368 55.3288 37.6837 55.5244 37.6033ZM55.582 65.5498C55.6429 65.3083 55.7357 65.0761 55.8581 64.8596C57.0086 63.3063 58.251 61.7757 59.3789 60.2573C60.5062 58.7383 61.4269 57.1851 62.4738 55.655C63.2904 54.5045 64.1418 53.2852 64.9705 52.0887C65.1428 51.8355 65.304 51.5475 65.4652 51.2832L66.259 49.9371L66.5925 50.0751C66.4749 50.5756 66.3131 51.0644 66.1094 51.5364C65.7527 52.1923 65.2807 52.7789 64.878 53.4115C64.4753 54.0441 64.2227 54.5621 63.8543 55.1371C63.4859 55.7127 62.9225 56.5641 62.4279 57.2543C61.9326 57.9445 61.2773 58.8763 60.6331 59.6247C60.5551 59.6875 60.4911 59.7661 60.4439 59.8546C60.3974 59.943 60.3688 60.0402 60.3601 60.1397C60.352 60.2398 60.363 60.3399 60.3944 60.4354C60.4253 60.5308 60.4748 60.6187 60.5405 60.6944C59.4592 60.9015 59.0908 61.7873 58.5735 62.5125C58.0556 63.237 57.7104 63.8126 57.2502 64.4568C57.0622 64.7438 56.817 64.9888 56.53 65.1767C56.2429 65.3647 55.9202 65.4916 55.582 65.5498ZM53.8907 62.4892C56.3643 58.9228 58.2627 54.9765 60.9089 51.5364L61.0928 51.6167C61.0992 51.647 61.0992 51.6784 61.0928 51.7087C61.1097 51.7768 61.1097 51.8478 61.0928 51.9159C60.7273 52.7603 60.3124 53.5826 59.8503 54.3782C57.998 57.231 56.3988 60.2689 54.0978 62.7883C54.0403 62.8576 53.9137 62.8686 53.7526 62.9379C53.7673 62.7697 53.8142 62.6056 53.8907 62.4548V62.4892ZM68.8476 53.745C68.318 54.4928 67.6971 55.218 67.2484 55.9775C66.9836 56.3802 66.8573 56.8859 66.5808 57.2776C65.8214 58.5533 64.9391 59.7516 63.9462 60.8556C62.9225 61.8566 62.1398 63.0415 61.1737 64.0652C60.9543 64.2735 60.7238 64.4691 60.4835 64.6524L60.253 64.4219C61.346 63.0531 62.4622 61.6954 63.5092 60.28C64.5562 58.8652 65.6258 57.2886 66.6501 55.7703C67.2024 54.9415 67.6854 54.0791 68.2034 53.2393C68.293 53.085 68.41 52.9483 68.5485 52.8365C68.6404 52.7673 68.8593 52.7213 68.9279 52.7789C68.9972 52.8365 69.1811 53.0781 69.1584 53.2043C69.1084 53.3882 69.0222 53.5605 68.9053 53.7107L68.8476 53.745ZM66.4086 68.817C64.6138 70.7154 62.6921 72.5102 60.817 74.3399C60.6342 74.472 60.4375 74.5844 60.2303 74.6734C59.816 74.2934 59.6664 73.9942 60.1035 73.6491C60.7477 73.1544 61.3576 72.6021 62.0251 72.1535C64.1569 70.6758 66.0076 68.8286 67.4899 66.7003C68.5025 65.3083 69.3423 63.7893 70.412 62.0981C70.2397 62.6271 70.1594 62.9379 70.0442 63.2487C69.2073 65.3246 67.9723 67.216 66.4086 68.817ZM81.2158 57.9678C81.8536 56.6945 82.4146 55.3844 82.8953 54.0441C82.9355 53.8276 83.0484 53.6315 83.216 53.4889C83.3842 53.3463 83.596 53.2666 83.816 53.262C83.7299 53.8573 83.5873 54.4428 83.39 55.0108C82.9413 55.9775 82.3547 56.8749 81.8833 57.8182C81.5265 58.5085 81.3077 59.2679 80.9283 59.9349C80.2607 61.0855 79.5129 62.236 78.7767 63.3866C78.6161 63.6589 78.4269 63.9133 78.2128 64.1461C77.9369 64.4335 77.6261 64.6983 77.3386 64.9742L77.1542 64.8363C77.2001 64.6605 77.2659 64.4912 77.3497 64.33C78.6388 62.2017 80.0076 60.1304 81.2158 57.9678ZM62.4622 67.0571C63.3363 66.0328 64.0731 65.0551 64.9356 64.192C66.4697 62.5363 67.8414 60.7368 69.0315 58.8192C69.2154 58.5428 69.4226 58.278 69.6298 58.0138L69.8486 58.1284C69.6676 58.6889 69.4284 59.229 69.1351 59.7393C68.0166 61.6255 66.6722 63.368 65.1311 64.9282C64.9688 65.1133 64.7785 65.2728 64.5678 65.4002C64.3373 65.4893 64.1284 65.6266 63.9561 65.8035C63.7833 65.9799 63.6506 66.1917 63.5668 66.4239C63.4993 66.6515 63.3474 66.8441 63.1414 66.9622C62.9354 67.0798 62.6921 67.1141 62.4622 67.0571ZM75.9349 73.0282C75.797 73.1655 75.6771 73.3203 75.5782 73.4885C74.2705 74.1071 73.1356 75.04 72.276 76.2034C71.7238 76.0195 71.7011 75.6284 71.9769 75.306C72.3628 74.8055 72.8342 74.3772 73.369 74.0408C75.6911 72.8035 77.7693 71.1542 79.5013 69.1737C79.6281 69.8872 79.6281 69.9449 79.0299 70.4506C78.0516 71.302 77.0046 72.1651 75.9349 73.0282ZM49.8293 52.7673C51.6587 49.9598 53.4765 47.1413 55.4094 44.15C55.4354 44.4468 55.412 44.7465 55.3403 45.0357C54.696 46.3015 54.0288 47.5551 53.3384 48.7982C53.0623 49.2929 52.6826 49.7183 52.395 50.2014C51.7737 51.3409 50.6807 51.9275 49.8754 52.8249L49.8293 52.7673ZM70.5272 74.1327L75.6009 69.3466C75.797 69.6457 75.6818 69.9332 75.4629 70.2324C75.0951 70.7497 74.7384 71.291 74.3816 71.8083C74.278 71.9463 74.1628 72.1308 74.0249 72.1884C73.0006 72.6854 72.0852 73.3814 71.3327 74.2363C71.0911 74.5238 70.7804 74.685 70.5272 74.1327ZM86.347 42.6543H86.1055C86.0496 42.2731 86.0223 41.8884 86.0246 41.5037C86.2149 39.5256 86.2149 37.5335 86.0246 35.5554C86.0246 35.5554 86.1055 35.4518 86.2091 35.3366C86.8993 35.521 86.9569 36.234 86.9453 36.6716C86.9767 38.6817 86.776 40.6896 86.347 42.6543ZM81.342 53.4808L81.9979 51.5934L83.7584 46.5314C83.954 46.7136 84.089 46.9516 84.1443 47.2129C84.2001 47.4742 84.1739 47.7466 84.0692 47.9928C83.5117 49.7474 82.8075 51.4526 81.9636 53.0897C81.8961 53.1974 81.8053 53.2887 81.6976 53.3562C81.5906 53.4243 81.4689 53.4668 81.342 53.4808ZM61.3343 66.0101C62.0019 65.2733 62.7037 64.5604 63.3823 63.8353C63.4818 63.684 63.611 63.5548 63.7623 63.4558C63.9462 63.3639 64.2797 63.2143 64.3722 63.2946C64.6597 63.5478 64.4526 63.8009 64.2337 64.0081L63.4632 64.7443L59.5744 68.5179C59.3556 68.725 59.1834 68.9782 58.9762 69.2081L58.7347 69.0015C59.5971 68.0115 60.4602 66.9995 61.3343 66.0101ZM70.746 66.8383C70.1478 67.3789 69.8486 68.2763 68.79 68.5295L75.1871 60.7747C74.9939 61.5429 74.6191 62.2535 74.0941 62.8459C73.5535 63.5018 73.0472 64.192 72.5059 64.8479C71.9629 65.548 71.3746 66.2132 70.746 66.8383ZM57.6529 73.7987C57.6529 73.6264 57.6529 73.4652 57.7334 73.4076C59.5058 72.1599 61.1615 70.7544 62.6804 69.2081C62.6804 69.2081 62.819 69.2081 62.9796 69.1278C62.5658 70.4972 60.1611 72.5911 57.6529 73.7987ZM76.6711 62.616C76.1281 64.426 74.9782 65.9944 73.415 67.0571C74.2629 65.4159 75.3617 63.9179 76.6711 62.616ZM84.0692 52.1114C84.4079 50.4446 84.8729 48.8064 85.4613 47.21C86.0246 47.3369 86.1172 47.59 86.0136 47.9008C85.8524 48.4415 85.6568 48.9705 85.4496 49.4884C85.2424 50.0058 84.955 50.8113 84.6785 51.4555C84.5499 51.7331 84.3363 51.9624 84.0692 52.1114ZM78.3164 60.2457C78.7895 58.665 79.4663 57.153 80.33 55.747C80.8823 56.5298 80.4336 57.0931 80.2264 57.5651C79.8487 58.6144 79.1922 59.5409 78.328 60.2457H78.3164ZM87.2561 58.4049L88.7401 55.8506H88.9816C89.0288 56.1212 89.0288 56.3971 88.9816 56.6677C88.5905 57.4958 88.3258 58.232 87.2677 58.4049H87.2561ZM56.3759 73.2121C57.0175 72.1954 57.9696 71.4132 59.0908 70.9802C58.3511 71.9044 57.4261 72.665 56.3759 73.2121ZM56.4908 69.0015C56.8649 68.1675 57.5324 67.5 58.3663 67.1258C57.9225 67.9091 57.2743 68.5574 56.4908 69.0015ZM75.6934 66.7003L75.8773 66.8383L74.4969 68.5755C74.5888 67.77 74.5888 67.77 75.6934 66.7003ZM67.3979 11.6932L67.2251 11.7509C67.2251 11.6129 67.1448 11.475 67.0988 11.3371L67.2711 11.2795C67.3176 11.475 67.3636 11.5553 67.3979 11.6932ZM27.6127 82.5085C27.6699 82.5155 27.7249 82.5353 27.7737 82.5661C27.7737 82.6348 27.7737 82.7157 27.7737 82.7501L27.2099 83.2215C27.1409 83.1068 27.0144 82.9799 27.0374 82.888C27.0465 82.8234 27.0693 82.7617 27.1041 82.7064C27.139 82.6517 27.1852 82.6046 27.2395 82.5685C27.2939 82.533 27.3553 82.5091 27.4196 82.4986C27.4839 82.4882 27.5497 82.4917 27.6127 82.5085Z" fill="#101A24"/>
</g>
</svg>
